<?xml version="1.0" standalone="no"?>
<!DOCTYPE svg PUBLIC "-//W3C//DTD SVG 20010904//EN"
 "http://www.w3.org/TR/2001/REC-SVG-20010904/DTD/svg10.dtd">
<svg version="1.0" xmlns="http://www.w3.org/2000/svg"
 width="679.000000pt" height="960.000000pt" viewBox="0 0 679.000000 960.000000"
 preserveAspectRatio="xMidYMid meet">

<g transform="translate(0.000000,960.000000) scale(0.100000,-0.100000)"
fill="#000000" stroke="none">
<path d="M3026 8734 c-3 -8 -6 -377 -6 -818 l0 -803 -25 -64 c-50 -126 -43
-120 -69 -58 -67 164 -203 235 -384 200 -59 -12 -66 -20 -53 -67 48 -179 60
-285 40 -356 l-10 -38 -580 0 -579 0 2 -417 3 -418 427 -1 c235 0 430 -3 434
-6 3 -3 -3 -35 -14 -70 -55 -176 -66 -262 -67 -488 0 -209 8 -297 40 -425 10
-41 10 -67 -1 -140 -8 -49 -15 -148 -17 -220 -3 -101 -9 -145 -26 -195 -25
-74 -74 -146 -125 -185 -34 -26 -39 -27 -80 -16 -168 42 -425 -33 -528 -154
-50 -59 -106 -77 -251 -83 -148 -5 -172 -16 -221 -94 -23 -38 -29 -61 -32
-115 -2 -38 -8 -84 -13 -103 -29 -93 -2 -217 60 -285 38 -41 41 -43 112 -47
146 -10 215 -64 311 -244 279 -522 666 -890 1166 -1107 90 -39 279 -101 375
-122 44 -10 86 -23 93 -28 9 -7 12 -109 12 -448 l0 -439 383 2 382 3 5 843 c3
551 8 842 15 842 6 0 60 -15 120 -34 148 -46 289 -76 350 -76 159 1 297 96
376 257 23 46 44 83 49 83 17 0 122 104 145 145 35 58 56 135 60 215 3 60 7
73 40 115 168 221 181 540 30 780 -37 58 -120 144 -182 186 -46 32 -161 79
-193 79 -11 0 -20 2 -20 4 0 2 16 52 36 112 33 99 37 122 41 249 3 81 1 165
-6 199 l-11 58 40 48 c22 27 54 79 72 117 26 57 31 83 34 163 4 90 14 174 35
285 20 110 62 301 70 323 l9 23 277 -1 278 -1 3 415 2 416 -272 2 -273 3 -32
95 c-44 128 -74 195 -146 322 -74 133 -105 171 -138 171 -24 0 -25 1 -21 63 5
78 -8 112 -59 159 l-40 36 36 94 c38 103 72 284 61 328 -3 15 -23 45 -42 67
l-36 40 22 52 c43 101 7 251 -76 314 -36 28 -114 33 -169 10 -56 -24 -113 -91
-131 -155 -18 -64 -70 -196 -78 -196 -2 0 -15 15 -28 34 -53 78 -134 100 -197
54 -16 -13 -34 -23 -40 -23 -5 0 -8 109 -7 273 l1 272 -381 3 c-342 2 -382 1
-388 -14z m672 -396 l2 -307 -40 -53 c-22 -29 -49 -78 -61 -108 -18 -45 -45
-77 -144 -175 -105 -104 -209 -221 -307 -346 l-27 -34 -1 661 c0 363 3 664 7
667 4 4 133 6 287 5 l281 -3 3 -307z m655 88 c12 -12 13 -25 5 -66 -5 -29 -6
-55 -3 -59 9 -8 75 68 75 86 0 23 19 14 35 -17 19 -37 20 -132 1 -169 -10 -18
-40 -40 -91 -65 -136 -67 -226 -180 -274 -341 -11 -38 -59 -142 -107 -230 -71
-131 -99 -173 -163 -241 -43 -45 -101 -116 -129 -158 -51 -74 -142 -243 -142
-263 0 -5 -11 -45 -24 -89 -13 -43 -32 -106 -41 -139 -20 -68 -52 -179 -89
-305 -14 -47 -44 -148 -66 -225 -23 -77 -43 -146 -45 -152 -3 -9 8 -12 35 -11
21 1 46 -4 54 -11 13 -11 17 -9 25 10 4 13 12 40 15 59 12 60 76 323 90 370 8
25 24 79 36 120 12 41 44 146 73 233 l51 157 72 65 c85 76 158 181 203 291 18
43 72 153 119 244 48 91 112 215 143 275 55 107 57 110 92 113 28 2 38 -1 47
-18 23 -43 -12 -89 -66 -90 -31 0 -44 -14 -44 -47 0 -45 91 -58 135 -20 26 22
35 49 52 150 7 47 -20 122 -53 144 -31 20 -22 33 22 33 40 0 70 -14 97 -44 24
-28 17 -129 -18 -250 -37 -127 -57 -162 -97 -170 -43 -8 -103 -58 -127 -104
-10 -21 -24 -64 -31 -96 -7 -33 -41 -134 -75 -225 -35 -91 -83 -220 -107 -286
-26 -73 -64 -154 -96 -205 -122 -193 -175 -327 -222 -560 -15 -74 -25 -290
-14 -290 5 0 24 9 42 20 29 18 32 24 32 70 0 75 27 230 57 323 44 140 122 279
219 388 47 53 50 59 33 76 -16 16 0 61 31 83 23 17 28 28 33 82 7 85 43 226
79 312 38 90 43 96 84 96 35 0 96 24 127 49 21 17 22 64 3 81 -8 6 -25 10 -38
8 -18 -2 -24 -11 -28 -38 -3 -24 -11 -36 -24 -38 -39 -8 -41 47 -5 120 22 44
35 53 72 50 74 -6 113 -78 84 -154 -9 -24 -24 -83 -33 -133 -98 -555 -116
-642 -150 -745 -76 -226 -142 -533 -159 -734 -4 -44 -13 -101 -20 -128 -10
-40 -10 -56 1 -86 24 -66 17 -142 -31 -324 -129 -499 -289 -841 -576 -1224
-93 -124 -131 -159 -224 -204 l-80 -40 -19 -72 c-24 -96 -85 -206 -155 -280
-51 -54 -61 -60 -118 -71 -35 -6 -63 -15 -63 -19 0 -5 20 -45 44 -91 63 -117
97 -237 103 -372 5 -108 -8 -240 -25 -257 -5 -5 -45 -2 -93 6 -135 23 -325 46
-494 59 l-157 12 -52 120 c-69 161 -132 278 -221 410 -123 182 -169 232 -285
310 -119 80 -232 187 -308 292 l-52 72 53 35 c29 19 63 49 76 66 23 32 53 48
171 91 57 21 81 23 205 23 124 -1 148 -4 214 -27 110 -40 195 -91 277 -170 66
-61 163 -189 164 -213 0 -5 8 -18 16 -29 15 -19 16 -18 9 15 -11 56 -80 190
-130 253 -57 71 -144 141 -236 188 l-70 36 32 39 c42 52 86 147 99 213 5 30
10 92 10 140 0 47 7 146 15 219 12 116 12 142 -1 205 -87 422 -40 770 154
1147 45 87 73 158 93 235 16 61 41 137 54 170 44 106 69 412 41 508 -21 72
-20 94 3 107 45 24 51 8 67 -170 7 -80 16 -100 45 -100 29 0 36 29 28 115 -11
114 -11 155 1 155 23 0 101 -85 127 -138 23 -46 27 -68 27 -137 0 -79 -1 -84
-66 -221 -76 -159 -102 -231 -128 -356 -16 -78 -25 -97 -72 -161 -69 -92 -119
-176 -164 -273 -30 -64 -34 -81 -25 -100 7 -16 19 -24 36 -24 20 0 30 11 54
60 27 54 100 189 107 199 2 2 10 -2 19 -9 9 -7 18 -10 22 -7 3 4 43 116 88
249 126 369 179 509 334 878 78 186 86 200 173 310 51 63 156 178 234 256 126
124 145 148 163 198 26 75 83 146 117 146 28 0 65 17 76 34 4 6 1 21 -7 33
-29 43 -10 95 43 123 32 16 73 -1 96 -41 l18 -30 -74 -92 c-168 -210 -478
-637 -575 -792 -81 -129 -140 -269 -183 -435 -12 -47 -42 -132 -67 -190 -25
-58 -51 -118 -59 -135 -38 -91 -124 -383 -124 -426 0 -12 12 -18 41 -23 23 -4
43 -5 45 -3 2 2 9 30 15 62 15 83 65 219 110 302 27 51 39 84 39 113 0 45 20
91 55 130 18 19 24 40 27 92 3 53 12 82 41 138 20 39 37 79 37 89 0 48 89 199
154 260 24 24 41 52 52 90 36 127 114 237 214 301 33 21 50 39 50 52 0 41 59
145 107 187 116 102 154 153 206 281 29 70 33 75 58 78 32 4 109 32 109 40 0
3 -13 20 -30 37 -28 29 -29 33 -19 70 11 38 76 115 97 115 6 0 17 -7 25 -14z
m305 -1269 c167 -282 242 -557 242 -887 0 -76 -5 -132 -16 -165 -77 -246 -145
-586 -164 -813 -11 -137 -41 -212 -113 -279 l-44 -42 14 -53 c23 -79 22 -283
0 -388 -17 -78 -22 -89 -67 -135 -54 -56 -80 -109 -80 -165 0 -27 -9 -48 -31
-76 -45 -56 -70 -119 -76 -197 -6 -65 -8 -70 -48 -102 -46 -38 -93 -61 -170
-81 -62 -17 -108 -17 -174 -2 -45 10 -53 9 -71 -7 -40 -37 -14 -84 58 -104 24
-7 83 -12 132 -12 106 1 171 22 268 88 l66 45 19 -23 c34 -41 68 -126 74 -183
11 -106 -49 -240 -135 -299 -72 -50 -131 -61 -266 -47 -193 19 -336 82 -465
204 -85 81 -191 234 -191 275 0 6 21 25 48 43 138 95 247 234 312 403 13 33
26 63 29 67 4 4 24 -6 44 -23 21 -17 40 -30 41 -28 2 2 9 62 15 133 6 71 13
131 15 134 3 2 21 -22 41 -53 20 -32 38 -56 40 -54 2 2 8 49 15 104 18 162 45
278 95 415 61 167 104 298 110 336 4 21 12 55 18 74 6 21 11 147 12 320 2 296
6 335 55 525 11 44 41 134 67 200 46 118 47 122 48 235 0 112 16 185 48 228
15 19 21 4 52 -114 50 -192 44 -438 -14 -572 -52 -119 -101 -285 -101 -340 0
-18 10 -38 28 -55 30 -29 42 -27 42 6 0 11 14 67 30 124 34 117 99 263 153
343 35 51 35 54 22 87 -23 55 -53 184 -59 253 -3 36 -2 103 4 149 l9 84 -34
38 c-83 92 -112 209 -81 327 15 56 61 142 76 142 5 0 31 -37 58 -83z m-2152
-541 c3 -7 -5 -40 -16 -72 -12 -33 -35 -108 -51 -169 -20 -79 -47 -147 -96
-242 l-68 -133 -412 0 -413 0 0 308 c0 170 3 312 7 315 3 4 240 7 525 7 430 0
520 -2 524 -14z m2854 -301 l0 -315 -215 0 c-243 0 -230 -5 -200 81 9 23 18
81 21 128 6 79 -7 294 -22 384 l-7 37 212 0 211 0 0 -315z m-723 -2076 c173
-70 286 -185 344 -351 34 -95 39 -280 10 -372 -76 -245 -276 -406 -506 -406
-66 0 -155 17 -155 29 0 4 16 15 36 26 115 62 213 236 213 380 1 94 -46 226
-108 303 -17 20 -33 51 -37 68 -8 40 11 108 46 164 15 25 31 61 34 81 13 76
58 104 123 78z m-3482 -403 c28 -7 64 -20 80 -29 53 -27 120 -103 166 -189 54
-100 132 -187 219 -243 82 -53 233 -206 312 -316 80 -111 161 -275 210 -423
64 -196 99 -257 203 -361 64 -64 109 -99 155 -122 113 -55 115 -50 22 44 -91
90 -175 201 -219 286 -13 27 -22 51 -19 55 6 5 324 -22 431 -38 242 -35 463
-85 492 -112 28 -26 31 -86 6 -117 -24 -27 -120 -51 -209 -51 -76 0 -96 -9
-109 -51 -5 -14 0 -30 13 -48 19 -25 22 -26 128 -25 94 1 117 5 167 27 l58 26
10 -27 c27 -69 -15 -194 -84 -246 -57 -44 -108 -48 -223 -20 -107 25 -225 59
-259 74 -11 4 -58 23 -105 41 -166 64 -387 192 -544 317 -97 76 -287 269 -367
372 -89 114 -185 263 -250 385 -73 139 -105 182 -169 224 -75 50 -102 61 -174
67 -74 8 -100 22 -125 72 -30 59 -35 104 -17 165 9 30 16 80 16 112 0 64 16
102 60 139 36 29 54 31 125 12z m2217 -273 c203 -272 490 -452 805 -508 182
-31 426 -13 592 46 30 10 57 19 58 19 10 0 0 -55 -17 -95 -29 -67 -67 -112
-129 -154 -45 -29 -58 -45 -73 -85 -63 -176 -221 -276 -392 -247 -258 43 -469
124 -658 252 -113 76 -309 270 -392 387 l-58 82 40 63 c55 84 99 174 125 257
12 39 24 70 28 70 3 0 35 -39 71 -87z m-141 -573 c111 -126 260 -250 386 -320
32 -18 63 -38 68 -45 7 -8 8 -291 5 -826 l-5 -814 -282 -3 -283 -2 0 395 0
394 50 22 c66 29 143 112 166 181 22 65 22 188 1 239 -13 29 -14 44 -5 79 14
53 -1 119 -38 167 -25 33 -95 74 -146 87 l-27 6 -3 278 c-2 152 -1 281 1 286
2 5 13 -4 25 -20 12 -16 51 -63 87 -104z"/>
<path d="M3193 7213 c-23 -8 -14 -30 19 -51 24 -15 36 -18 45 -10 11 9 10 15
-4 30 -23 25 -45 36 -60 31z"/>
<path d="M3146 7113 c-9 -23 4 -33 48 -36 48 -3 55 13 17 36 -37 21 -57 22
-65 0z"/>
<path d="M3461 7067 c-19 -19 -12 -34 26 -57 l37 -22 19 23 c20 25 16 31 -34
52 -27 11 -40 12 -48 4z"/>
<path d="M3766 6924 c-3 -9 -6 -18 -6 -20 0 -9 154 -75 169 -72 9 2 16 12 16
22 0 13 -22 27 -84 52 -47 19 -86 34 -87 34 -1 0 -5 -7 -8 -16z"/>
<path d="M3717 6837 c-8 -22 4 -32 86 -70 90 -42 90 -42 108 -21 16 19 11 22
-99 71 -82 37 -88 38 -95 20z"/>
<path d="M2553 4430 c-34 -15 -47 -29 -64 -67 -52 -115 -65 -136 -106 -174
-24 -21 -43 -42 -43 -44 0 -3 15 -5 33 -5 90 0 199 73 249 167 27 51 44 119
31 126 -27 15 -63 14 -100 -3z"/>
<path d="M3369 3986 c-64 -14 -151 -56 -157 -76 -7 -19 104 -7 154 16 56 26
95 54 89 65 -7 11 -14 10 -86 -5z"/>
</g>
</svg>
