<?xml version="1.0" standalone="no"?>
<!DOCTYPE svg PUBLIC "-//W3C//DTD SVG 20010904//EN"
 "http://www.w3.org/TR/2001/REC-SVG-20010904/DTD/svg10.dtd">
<svg version="1.0" xmlns="http://www.w3.org/2000/svg"
 width="626.000000pt" height="626.000000pt" viewBox="0 0 626.000000 626.000000"
 preserveAspectRatio="xMidYMid meet">

<g transform="translate(0.000000,626.000000) scale(0.100000,-0.100000)"
fill="#000000" stroke="none">
<path d="M2615 5460 c10 -11 20 -20 23 -20 3 0 -3 9 -13 20 -10 11 -20 20 -23
20 -3 0 3 -9 13 -20z"/>
<path d="M3903 4699 c-3 -17 -9 -26 -12 -20 -4 6 -12 7 -21 1 -13 -8 -12 -10
2 -10 9 0 27 -12 39 -27 l22 -28 -8 30 c-5 17 -9 42 -8 58 0 36 -6 34 -14 -4z"/>
<path d="M3965 4409 c-4 -6 -5 -12 -2 -15 2 -3 7 2 10 11 7 17 1 20 -8 4z"/>
<path d="M3940 4364 c0 -30 -35 -76 -88 -116 -41 -32 -113 -38 -149 -13 -15
10 -24 12 -28 4 -4 -5 -18 -14 -31 -19 -13 -5 -24 -15 -24 -23 0 -9 -18 -14
-60 -15 -109 -4 -109 -19 1 -19 57 0 143 -3 191 -7 l87 -8 21 34 c11 18 19 41
16 51 -4 17 4 21 38 17 10 -1 29 9 42 21 25 23 32 49 14 49 -5 0 -10 -7 -10
-17 0 -9 -3 -13 -7 -10 -3 4 -5 27 -5 52 1 25 0 45 -3 45 -3 0 -5 -12 -5 -26z"/>
<path d="M2970 4302 c0 -6 11 -23 25 -38 14 -15 25 -21 25 -14 0 7 2 11 4 9 2
-2 -2 -35 -9 -74 -7 -38 -14 -61 -15 -50 -1 11 -2 23 -1 27 0 4 -12 3 -27 -3
-15 -6 -57 -12 -93 -12 -37 -1 -65 -5 -63 -9 2 -3 -2 -9 -8 -11 -8 -4 -7 -6 3
-6 10 -1 27 -22 40 -51 28 -59 49 -72 49 -31 0 41 8 43 53 10 22 -16 45 -29
50 -29 6 0 18 -6 26 -14 14 -13 16 -9 15 39 -1 51 0 53 19 43 14 -7 17 -7 13
1 -4 6 -2 11 3 11 6 0 11 6 11 14 0 25 24 24 48 -3 13 -14 37 -50 54 -79 17
-29 32 -51 34 -49 2 2 -5 27 -17 55 -19 45 -20 53 -6 66 8 8 38 18 67 22 36 5
48 10 38 16 -9 7 -6 8 10 5 13 -3 21 -3 18 0 -3 3 1 11 9 17 12 8 -7 11 -75 9
l-90 -2 0 31 c0 31 -5 33 -52 13 -19 -8 -33 24 -29 68 2 25 1 26 -23 18 -13
-6 -34 -16 -46 -23 -19 -11 -24 -10 -41 11 -10 13 -19 18 -19 13z m60 -229 c0
-13 -3 -13 -15 -3 -8 7 -15 16 -15 21 0 5 7 6 15 3 8 -4 15 -13 15 -21z"/>
<path d="M2697 4282 c-2 -4 7 -17 20 -29 13 -12 23 -18 23 -13 0 14 -38 51
-43 42z"/>
<path d="M2758 4203 c7 -3 16 -2 19 1 4 3 -2 6 -13 5 -11 0 -14 -3 -6 -6z"/>
<path d="M4235 4145 c-14 -62 -58 -135 -82 -135 -16 0 -41 33 -45 60 -4 35
-45 40 -57 7 -12 -31 -77 -42 -128 -21 -19 8 -54 19 -78 23 -37 7 -47 5 -61
-10 -10 -11 -25 -19 -35 -19 -11 0 -30 -17 -44 -40 -18 -28 -32 -40 -48 -40
-13 0 -27 -3 -31 -7 -27 -27 -194 -41 -283 -24 -24 5 -43 4 -43 0 0 -5 9 -29
21 -54 15 -33 31 -49 62 -64 69 -33 108 -36 137 -11 14 12 37 29 53 38 15 9
27 20 27 24 0 4 5 8 11 8 5 0 8 -4 4 -9 -3 -5 -1 -12 4 -16 6 -3 8 -13 5 -23
-4 -12 -1 -11 13 5 20 25 62 43 98 43 13 0 26 6 28 13 3 7 6 5 6 -6 1 -10 -6
-34 -14 -54 -21 -50 -19 -55 23 -51 36 3 37 4 34 40 -3 37 -3 37 63 67 36 17
71 28 78 25 7 -2 32 16 57 41 54 55 78 60 48 10 -25 -43 -20 -52 20 -31 16 8
31 13 34 11 2 -2 18 -5 36 -7 38 -3 41 -11 7 -26 -14 -6 -25 -18 -25 -25 0
-19 33 -47 56 -47 37 0 63 -12 70 -32 13 -42 202 -99 276 -84 22 4 37 1 50
-11 27 -24 117 -29 143 -8 11 9 15 14 9 11 -16 -8 -24 27 -11 50 15 28 24 32
73 30 47 -2 75 -16 32 -16 -14 0 -28 -7 -32 -15 -3 -8 -12 -15 -20 -15 -8 0
-18 -5 -21 -11 -11 -17 27 -38 70 -39 30 0 46 7 70 30 29 29 31 29 70 15 65
-22 170 0 193 42 9 15 14 15 60 -5 28 -12 70 -22 94 -22 88 1 184 73 176 131
-4 24 0 29 24 34 15 4 35 16 43 28 15 21 14 22 -20 29 -26 6 -45 3 -66 -8 -21
-10 -43 -13 -69 -9 -36 6 -38 5 -43 -25 -8 -37 -31 -48 -56 -26 -10 9 -32 16
-49 16 -34 0 -39 9 -20 40 7 10 10 22 7 25 -3 3 -37 1 -75 -4 -58 -9 -73 -8
-94 6 -19 13 -52 18 -134 20 -80 1 -114 6 -133 18 -24 16 -26 16 -52 -9 -15
-14 -38 -26 -52 -26 -13 -1 -40 -14 -59 -30 -41 -36 -82 -39 -104 -9 -11 17
-28 23 -68 26 -29 2 -58 9 -65 15 -7 6 -29 7 -54 3 -38 -7 -41 -6 -39 16 4 46
2 51 -21 38 -31 -16 -47 3 -30 35 11 19 10 28 -2 52 l-15 29 -7 -30z m58 -137
c-19 -57 -30 -68 -64 -68 -44 0 -43 15 7 64 60 60 77 61 57 4z m-479 -117 c4
-5 -3 -7 -14 -4 -23 6 -26 13 -6 13 8 0 17 -4 20 -9z m-164 -26 c-7 -9 -15
-13 -19 -10 -3 3 1 10 9 15 21 14 24 12 10 -5z m1038 -162 c-10 -2 -28 -2 -40
0 -13 2 -5 4 17 4 22 1 32 -1 23 -4z"/>
<path d="M2678 3995 c2 -13 17 -35 33 -49 20 -18 29 -36 29 -56 0 -28 3 -30
37 -30 31 0 44 7 80 46 24 26 43 52 43 58 0 25 -23 35 -67 29 -31 -4 -48 -2
-61 10 -9 8 -35 15 -58 15 -38 1 -41 -1 -36 -23z"/>
<path d="M1462 3960 c0 -14 2 -19 5 -12 2 6 2 18 0 25 -3 6 -5 1 -5 -13z"/>
<path d="M2920 3956 c0 -9 52 -58 57 -53 3 3 -6 17 -20 31 -24 24 -37 32 -37
22z"/>
<path d="M1496 3884 c-5 -12 -2 -15 11 -10 10 4 14 4 11 0 -4 -4 -3 -15 2 -25
8 -15 5 -18 -18 -22 -26 -4 -26 -4 -4 -12 12 -4 22 -12 22 -19 0 -7 4 -6 9 2
5 9 8 -2 8 -30 0 -30 -2 -37 -7 -23 -7 18 -9 18 -19 -9 -6 -16 -9 -31 -6 -34
3 -3 5 -1 5 4 0 5 9 10 21 11 28 2 69 -40 69 -72 0 -17 7 -29 23 -35 l22 -9
-23 0 c-13 -1 -32 4 -43 9 -11 7 -19 7 -19 1 0 -29 110 -19 158 15 21 14 26
14 70 -8 39 -19 63 -23 143 -23 74 0 101 4 115 16 13 11 27 14 44 8 41 -12
104 -10 153 5 58 17 151 95 135 113 -22 27 14 12 55 -22 22 -19 45 -35 51 -35
5 0 1 6 -9 14 -18 13 -18 14 1 23 21 12 81 6 90 -8 7 -12 38 -11 67 2 21 9 57
65 57 87 0 4 -32 5 -71 2 -50 -4 -77 -1 -90 8 -14 10 -24 10 -40 2 -31 -17
-82 -4 -114 30 -16 17 -31 30 -35 30 -3 0 -11 -13 -17 -30 -9 -24 -17 -30 -40
-30 -15 0 -45 -3 -65 -6 -32 -6 -38 -4 -38 12 0 14 -3 15 -12 6 -14 -14 -77
-16 -97 -3 -12 8 -12 12 -3 24 11 13 4 13 -60 1 -79 -16 -147 -7 -180 23 -15
14 -21 13 -55 -8 -51 -32 -149 -32 -174 0 -10 12 -26 21 -38 21 -11 0 -23 5
-26 10 -10 15 -32 12 -39 -6z m356 -165 c15 -10 34 -19 42 -19 25 0 67 -23 63
-34 -2 -6 -23 -14 -47 -18 -44 -8 -70 2 -70 26 0 6 -13 17 -30 23 -21 8 -30
18 -30 33 0 17 4 20 23 15 12 -4 34 -15 49 -26z"/>
<path d="M3989 3832 c-57 -50 -110 -83 -182 -112 -43 -17 -55 -25 -45 -32 9
-7 6 -8 -10 -5 -25 6 -33 0 -132 -93 l-45 -42 50 42 c58 48 83 63 173 96 72
28 80 33 177 122 74 68 84 85 14 24z m-123 -107 c-11 -8 -25 -15 -30 -15 -6 1
0 7 14 15 32 19 40 18 16 0z"/>
<path d="M2727 3803 c-15 -4 -17 -11 -12 -31 9 -37 32 -52 81 -52 45 0 88 26
97 60 3 11 4 20 3 20 0 0 -16 -4 -34 -9 -24 -7 -42 -6 -67 5 -36 15 -38 15
-68 7z"/>
<path d="M3585 3778 c-29 -30 -29 -30 -3 -14 14 10 29 24 32 32 7 19 5 18 -29
-18z"/>
<path d="M3504 3717 c-15 -13 -25 -28 -23 -33 2 -6 17 5 32 23 34 38 30 43 -9
10z"/>
<path d="M1528 3603 c7 -3 16 -2 19 1 4 3 -2 6 -13 5 -11 0 -14 -3 -6 -6z"/>
<path d="M3520 3510 c-19 -17 -42 -30 -51 -30 -10 0 -19 -4 -21 -9 -1 -5 -30
-22 -63 -38 -95 -45 -110 -93 -130 -443 -6 -97 -43 -387 -65 -505 -13 -71 -12
-284 1 -347 6 -29 21 -71 32 -93 12 -22 22 -47 23 -55 1 -8 8 -39 17 -67 23
-77 10 -70 -45 22 -10 17 -24 41 -30 55 -7 14 -18 31 -25 38 -7 7 -13 25 -14
40 0 24 -1 25 -8 7 -7 -18 -9 -17 -14 10 -7 32 -5 69 12 210 6 50 10 106 10
125 -1 32 -2 33 -9 10 -6 -23 -8 -22 -14 15 -11 57 -14 64 -15 31 -1 -39 -30
-148 -44 -165 -12 -14 -21 -36 -67 -166 -16 -44 -29 -73 -29 -65 -2 30 -21
-13 -21 -48 0 -20 -4 -31 -10 -27 -6 4 -9 -17 -8 -58 1 -48 -4 -75 -22 -113
-72 -155 -108 -222 -115 -216 -5 4 -5 1 -1 -6 14 -24 -87 -139 -187 -212 -26
-19 -66 -49 -89 -67 -42 -32 -81 -36 -56 -5 11 13 8 12 -19 -2 -18 -9 -33 -14
-33 -11 0 4 20 15 45 26 25 11 43 24 40 29 -6 10 33 40 49 36 6 -2 8 -1 4 1
-11 6 75 88 89 85 7 -2 10 3 7 11 -3 8 7 32 21 53 15 22 43 73 62 114 20 41
50 95 67 120 17 25 30 48 28 53 -1 4 3 6 9 5 6 -2 23 21 39 50 26 52 44 145
41 219 0 18 4 45 10 60 10 25 12 26 18 9 12 -32 52 143 46 201 -4 37 -3 42 5
23 7 -20 9 -14 8 30 -1 30 0 73 2 95 l3 40 7 -40 c7 -36 7 -34 11 30 2 39 3
97 2 130 -1 33 1 49 4 35 9 -41 36 102 37 200 1 95 -8 140 -28 140 -7 0 -21
21 -31 46 -9 25 -19 43 -22 41 -2 -3 3 -22 12 -42 8 -21 21 -63 29 -94 16 -63
30 -196 17 -167 -5 14 -11 -9 -20 -75 -42 -317 -52 -392 -62 -459 -6 -41 -11
-83 -12 -92 -1 -9 -3 -15 -6 -12 -6 6 -81 -108 -76 -117 3 -4 -3 -13 -13 -20
-16 -13 -16 -12 -2 6 11 15 7 14 -13 -4 -31 -28 -34 -36 -11 -27 15 6 15 4 1
-16 -8 -13 -20 -22 -26 -21 -16 4 -57 -39 -66 -67 -4 -14 -17 -41 -28 -60 -29
-49 -152 -184 -181 -200 -14 -7 -23 -17 -20 -21 3 -5 -1 -6 -9 -3 -7 2 -24 -6
-38 -19 -13 -13 -53 -43 -89 -67 l-65 -43 34 37 c19 20 30 36 24 36 -6 0 -16
-7 -23 -15 -7 -8 -16 -12 -21 -9 -5 3 -9 0 -9 -7 0 -8 -5 -7 -17 2 -11 10 -14
10 -9 2 4 -7 3 -13 -3 -13 -6 0 -15 9 -21 19 -12 24 -78 104 -117 145 -15 16
-22 25 -15 22 6 -4 12 -3 12 2 0 12 -158 162 -170 162 -4 0 -7 -8 -6 -17 1
-14 -8 -19 -36 -21 -40 -3 -41 -5 -53 -112 -4 -30 -9 -64 -12 -75 -5 -17 -3
-18 9 -8 12 11 14 5 11 -40 -2 -28 -15 -97 -28 -152 -13 -55 -29 -129 -36
-165 l-12 -65 -51 -22 c-28 -13 -76 -28 -106 -33 -30 -6 -64 -15 -75 -20 -11
-4 -40 -16 -65 -25 -25 -9 -61 -27 -81 -40 -57 -37 -107 -56 -113 -42 -2 7 -5
5 -5 -4 -1 -9 6 -19 14 -23 17 -6 20 -32 5 -41 -5 -3 -18 3 -30 15 -11 11 -26
20 -33 20 -21 0 -128 -116 -122 -133 4 -8 -4 -18 -17 -25 l-23 -11 23 0 c12
-1 22 -5 22 -11 0 -5 -8 -7 -17 -3 -33 11 -36 16 -19 28 15 11 15 16 0 56 -20
57 -13 147 21 253 14 43 25 85 25 93 0 25 -49 161 -85 240 l-35 74 -68 -6
c-77 -8 -175 11 -259 50 l-53 24 -11 -21 c-6 -11 -13 -56 -16 -98 -5 -68 -1
-97 32 -226 38 -147 38 -148 26 -243 -6 -53 -19 -124 -27 -159 -11 -41 -13
-76 -8 -100 4 -20 8 -44 8 -52 1 -21 92 -30 184 -18 74 9 99 5 72 -12 -8 -6
-10 -10 -5 -11 6 0 -1 -5 -15 -9 -24 -9 -24 -9 4 -7 17 1 33 10 40 22 17 31
27 35 90 35 49 0 57 2 47 14 -10 12 -6 15 19 21 16 4 36 15 43 26 8 10 17 16
22 11 4 -4 5 1 2 10 -4 12 -2 15 9 11 7 -3 14 -10 14 -17 0 -21 20 19 20 42 0
13 12 34 26 47 15 14 21 25 15 25 -7 0 -9 5 -5 12 5 8 11 6 19 -5 15 -21 93
-20 113 0 8 7 18 10 24 7 6 -4 8 1 4 13 -5 14 1 23 19 33 19 10 22 16 14 26
-15 19 -1 38 17 23 8 -6 23 -9 34 -6 23 6 23 6 11 -26 -7 -19 -6 -27 3 -30 16
-6 13 -74 -3 -90 -18 -18 -13 -40 7 -32 37 16 107 23 127 12 65 -34 121 -104
114 -143 -5 -27 3 -25 21 4 26 42 63 42 141 0 l59 -31 28 24 27 24 -23 -26
c-26 -30 -21 -40 17 -33 18 4 32 0 40 -10 20 -24 40 -19 47 11 8 30 41 62 64
63 9 0 41 -7 73 -15 44 -11 63 -12 84 -3 26 10 71 18 115 19 15 0 15 3 5 19
-9 16 -8 23 6 37 17 17 19 17 32 0 8 -12 15 -14 20 -8 3 6 15 11 26 11 15 0
19 -5 15 -18 -5 -13 3 -23 26 -36 18 -9 24 -14 13 -10 -38 11 -55 13 -55 5 0
-5 11 -12 25 -15 14 -4 25 -13 25 -22 0 -41 -72 -125 -120 -139 -14 -4 -31
-16 -38 -27 -7 -10 -30 -27 -50 -38 -35 -18 -35 -19 -11 -20 14 0 34 9 44 20
10 11 22 20 27 20 5 0 18 9 30 20 28 26 108 53 109 37 0 -7 2 -25 2 -42 3 -45
50 -64 161 -65 49 0 86 3 82 7 -3 4 -28 7 -54 8 -43 1 -56 8 -121 59 -39 32
-70 63 -68 69 5 17 79 66 99 67 9 0 18 -5 20 -12 3 -7 12 -4 27 11 15 15 29
20 44 16 38 -11 101 -62 117 -94 15 -31 37 -44 26 -16 -3 8 -1 15 5 15 7 0 9
-10 5 -24 -3 -13 -7 -30 -9 -38 -2 -7 -2 -9 1 -5 2 4 10 0 16 -9 8 -10 32 -19
62 -22 27 -2 60 -13 73 -23 48 -38 31 -10 -28 46 -33 32 -58 62 -55 67 4 6 8
31 10 55 1 25 10 53 18 61 14 14 17 14 34 -1 10 -9 24 -17 30 -17 7 0 12 -5
12 -11 0 -6 7 -3 16 5 8 9 22 16 30 16 8 0 13 3 12 8 -2 12 14 42 23 42 5 0 9
-7 9 -15 0 -8 6 -12 13 -9 8 3 20 -2 27 -10 10 -13 9 -17 -11 -25 -21 -7 -19
-9 21 -15 25 -4 70 -23 102 -42 31 -19 60 -34 65 -34 5 0 32 16 59 35 27 19
56 35 64 35 9 0 31 13 50 29 34 28 34 30 17 48 -9 11 -14 23 -11 26 4 4 1 13
-6 22 -11 13 -9 15 13 15 14 0 31 8 37 18 9 14 10 11 5 -13 -5 -24 -4 -28 6
-17 19 18 39 15 39 -8 0 -14 7 -20 21 -20 18 0 19 -2 9 -15 -10 -12 -9 -15 7
-15 27 0 73 -37 73 -58 0 -10 9 -23 20 -30 29 -18 64 -94 48 -104 -10 -6 -9
-8 2 -8 8 0 31 -16 51 -36 21 -20 42 -33 48 -30 11 7 8 11 -72 105 -44 50 -47
56 -28 59 14 2 20 10 18 25 -2 17 4 23 26 25 16 2 34 -1 41 -7 9 -7 19 -6 35
5 33 24 105 14 184 -25 37 -18 67 -33 67 -34 2 -18 29 -77 30 -63 0 19 9 19
55 0 16 -6 15 -2 -9 27 -16 18 -35 47 -41 64 -13 28 -11 31 32 69 25 22 63 48
84 59 21 10 37 23 34 27 -3 4 9 10 26 14 44 8 49 8 49 -7 0 -18 36 -19 51 -1
12 15 41 19 52 7 4 -3 0 -15 -10 -25 -14 -16 -14 -18 -1 -18 9 0 18 7 22 15 3
8 12 15 19 15 10 0 13 8 9 27 -4 23 -2 25 17 20 14 -3 24 1 31 11 5 10 10 12
10 5 0 -7 5 -13 10 -13 6 0 9 5 8 12 -2 7 2 12 7 13 6 0 16 4 24 9 9 6 18 4
25 -7 11 -14 14 -13 36 4 31 23 90 26 90 4 0 -15 15 -19 58 -15 12 1 22 -3 22
-9 0 -6 -9 -11 -20 -11 -11 0 -20 -4 -20 -10 0 -20 48 -10 63 14 l16 23 -75
18 c-69 16 -92 16 -151 -1 -19 -5 -23 -2 -23 15 0 23 -51 54 -129 77 -26 7
-60 27 -76 44 -16 16 -35 30 -42 30 -7 0 -13 5 -13 10 0 6 -7 10 -15 10 -28 0
-17 38 13 45 95 20 123 85 76 176 -15 30 -33 64 -41 76 l-14 21 -45 -20 c-31
-13 -62 -19 -101 -17 l-55 3 -13 -38 c-7 -20 -16 -53 -19 -72 l-7 -35 -45 56
c-27 33 -61 62 -82 71 -21 8 -47 30 -60 50 -12 19 -27 32 -32 29 -6 -4 -13 2
-16 12 -3 10 -10 26 -15 35 -13 25 -11 122 2 135 8 8 7 21 -2 47 -11 31 -10
46 5 108 28 114 32 262 11 342 -10 37 -22 69 -26 72 -5 2 -6 11 -3 18 3 8 -4
16 -18 20 -20 6 -18 9 21 21 25 8 48 12 53 9 5 -3 25 11 44 30 20 20 39 36 44
36 14 0 128 128 135 152 4 13 13 26 19 30 7 4 11 40 11 90 -1 89 -16 132 -70
197 -18 20 -22 31 -13 32 7 0 0 5 -16 11 -21 8 -25 13 -15 19 10 6 6 9 -13 9
-20 0 -28 5 -28 18 0 10 -7 27 -16 38 -15 18 -15 18 -5 -3 6 -12 11 -23 11
-26 0 -2 -32 13 -72 32 -70 35 -75 36 -187 36 -113 0 -118 -1 -195 -38 -43
-20 -88 -37 -100 -37 -14 0 -17 -3 -8 -8 9 -6 5 -15 -14 -33 -15 -13 -33 -38
-40 -56 -16 -38 -18 -55 -4 -33 7 11 8 3 4 -26 -5 -31 0 -54 23 -104 l28 -64
5 35 c5 31 8 34 45 39 32 4 37 7 23 15 -13 8 -15 18 -10 44 l7 33 18 -41 c17
-39 58 -71 89 -71 9 0 9 3 0 12 -7 7 -12 18 -12 25 0 8 7 6 20 -7 11 -11 27
-20 36 -20 8 0 12 -4 9 -10 -4 -6 7 -10 27 -10 18 0 48 -9 66 -20 43 -26 50
-25 24 3 -13 13 -27 39 -32 58 l-9 34 17 -25 c9 -14 35 -44 59 -67 48 -48 52
-70 22 -119 l-21 -34 29 -2 c55 -3 76 1 99 22 25 24 52 23 68 -2 26 -42 -50
-125 -105 -114 -19 4 -32 -1 -48 -18 -20 -21 -55 -35 -126 -50 -15 -3 -13 -4
7 -5 15 0 38 3 53 9 24 9 25 8 15 -10 -6 -11 -18 -20 -26 -20 -9 0 -38 -11
-65 -25 -38 -19 -49 -21 -49 -10 0 19 -4 19 -40 0 -16 -8 -43 -36 -61 -63 -18
-26 -58 -79 -90 -118 l-58 -71 24 -23 c21 -20 25 -33 25 -81 0 -32 -4 -61 -10
-64 -5 -3 -32 -9 -60 -12 -62 -7 -82 8 -101 75 -7 25 -37 82 -67 126 -96 140
-115 187 -120 296 -2 55 5 184 17 305 11 116 23 282 26 370 10 264 21 293 168
436 101 97 125 126 57 69z m-393 -1132 c-3 -7 -5 -2 -5 12 0 14 2 19 5 13 2
-7 2 -19 0 -25z m576 -228 c-5 -19 -33 -49 -33 -36 0 7 31 56 35 56 2 0 1 -9
-2 -20z m198 -31 c43 -31 50 -49 39 -114 -25 -156 -60 -209 -214 -330 -45 -35
-89 -73 -99 -85 -12 -14 -26 -20 -38 -17 -10 3 -19 1 -19 -4 0 -18 -22 -9 -27
11 -3 11 -12 20 -19 20 -8 0 -14 7 -14 15 0 8 -6 15 -14 15 -8 0 -17 7 -20 16
-10 25 -7 34 9 28 25 -10 17 4 -21 39 -47 43 -42 68 6 32 18 -14 44 -25 57
-25 20 0 22 4 17 25 -5 20 -2 25 12 25 9 0 26 7 36 17 17 15 18 14 18 -35 0
-28 5 -54 12 -58 8 -5 9 -2 5 10 -4 9 -3 15 2 11 6 -3 23 14 39 38 17 23 47
63 67 87 46 56 52 70 71 188 8 53 17 99 20 104 9 14 45 8 75 -13z m-1128 -189
c-3 -10 -11 -25 -19 -31 -17 -14 -17 -11 -3 29 12 34 31 36 22 2z m47 -1 c-7
-11 -14 -18 -17 -15 -3 3 0 12 7 21 18 21 23 19 10 -6z m258 -51 c6 -13 13
-45 16 -73 5 -41 3 -46 -6 -30 -16 27 -38 125 -29 125 4 0 13 -10 19 -22z
m206 -65 c11 -78 19 -188 13 -183 -3 3 -10 46 -16 95 -6 50 -14 100 -17 113
-4 12 -2 22 3 22 6 0 13 -21 17 -47z m-1314 6 l-45 -7 51 1 c35 2 51 -2 51
-10 0 -7 -4 -13 -8 -13 -5 0 -6 -7 -2 -15 9 -26 -27 -57 -59 -50 -21 5 -28 3
-28 -9 0 -9 -7 -16 -15 -16 -11 0 -15 12 -17 43 0 23 -2 49 -2 57 -2 23 14 30
69 28 l50 -1 -45 -8z m139 -63 c-3 -3 -11 5 -18 17 -13 21 -12 21 5 5 10 -10
16 -20 13 -22z m636 5 c-5 -26 -72 -118 -91 -125 -8 -3 -12 -11 -8 -17 4 -8 3
-9 -4 -5 -7 4 -12 3 -12 -2 0 -5 -12 -14 -26 -21 -23 -10 -23 -8 8 21 19 18
56 63 83 101 27 37 50 67 51 67 2 0 1 -8 -1 -19z m-858 -23 c-3 -7 -5 -2 -5
12 0 14 2 19 5 13 2 -7 2 -19 0 -25z m-930 -463 c2 -1 -3 -24 -11 -51 -8 -27
-20 -85 -26 -129 -14 -91 -29 -131 -30 -75 0 35 18 214 26 258 4 21 7 22 22
11 9 -7 18 -14 19 -14z m1363 -15 c-8 -5 -19 -10 -25 -10 -5 0 -3 5 5 10 8 5
20 10 25 10 6 0 3 -5 -5 -10z m-295 -90 c-3 -5 -12 -10 -18 -10 -7 0 -6 4 3
10 19 12 23 12 15 0z m-72 -70 c-34 -44 -42 -49 -78 -50 -22 0 -61 -11 -88
-24 -26 -13 -42 -17 -36 -10 6 7 41 24 77 39 37 14 85 41 107 60 56 49 63 43
18 -15z m2193 -136 c18 -14 18 -14 -6 -3 -31 14 -36 19 -24 19 6 0 19 -7 30
-16z m-3249 -46 c-3 -7 -5 -2 -5 12 0 14 2 19 5 13 2 -7 2 -19 0 -25z m240
-63 c-9 -27 -227 -50 -242 -25 -3 6 -2 10 4 10 6 0 8 6 6 13 -4 9 23 12 115
12 75 0 119 -4 117 -10z m720 -11 c-3 -3 -12 -4 -19 -1 -8 3 -5 6 6 6 11 1 17
-2 13 -5z m1233 -24 c0 -5 -5 -10 -11 -10 -5 0 -7 5 -4 10 3 6 8 10 11 10 2 0
4 -4 4 -10z m-2280 -7 c0 -5 -7 -17 -15 -27 -11 -14 -18 -17 -26 -9 -8 8 -4
15 12 27 27 18 29 19 29 9z m1250 -12 c0 -6 -4 -13 -10 -16 -5 -3 -10 1 -10 9
0 9 5 16 10 16 6 0 10 -4 10 -9z m570 -41 c13 -9 12 -12 -4 -25 -28 -21 -36
-19 -36 10 0 26 15 32 40 15z m323 -5 c-3 -9 -8 -14 -10 -11 -3 3 -2 9 2 15 9
16 15 13 8 -4z m-8 -85 c3 -5 1 -10 -4 -10 -6 0 -11 5 -11 10 0 6 2 10 4 10 3
0 8 -4 11 -10z"/>
<path d="M3076 3495 c-9 -26 -7 -32 5 -12 6 10 9 21 6 23 -2 3 -7 -2 -11 -11z"/>
<path d="M2810 3359 c0 -2 33 -37 73 -77 56 -55 73 -68 74 -53 2 21 -26 51
-51 55 -9 1 -34 20 -56 41 -22 22 -40 37 -40 34z m120 -104 c13 -14 21 -25 18
-25 -2 0 -15 11 -28 25 -13 14 -21 25 -18 25 2 0 15 -11 28 -25z"/>
<path d="M1980 3117 c-64 -18 -118 -53 -137 -90 -8 -18 -30 -44 -49 -60 -81
-68 -82 -238 -3 -367 17 -27 32 -50 33 -50 1 0 1 13 -2 28 -6 46 19 59 70 33
23 -11 43 -19 45 -17 2 2 -1 15 -7 30 -13 34 -13 99 -1 91 6 -3 20 22 32 56
22 59 23 60 36 37 13 -22 14 -21 11 20 -2 23 -2 42 0 42 3 0 19 -13 37 -29 42
-37 175 -68 175 -41 0 5 7 7 15 4 11 -5 15 2 15 27 l0 32 24 -22 c15 -14 30
-20 37 -15 8 5 11 2 7 -8 -5 -11 0 -14 18 -10 13 2 30 0 37 -4 7 -5 3 0 -10
11 -24 22 -32 60 -11 53 21 -7 52 -70 59 -118 l6 -45 22 49 c16 33 26 45 31
36 12 -19 23 44 15 83 -12 55 -41 100 -99 155 -80 76 -128 95 -256 98 -65 2
-122 -1 -150 -9z"/>
<path d="M3142 3100 c0 -14 2 -19 5 -12 2 6 2 18 0 25 -3 6 -5 1 -5 -13z"/>
<path d="M3161 3104 c0 -11 3 -14 6 -6 3 7 2 16 -1 19 -3 4 -6 -2 -5 -13z"/>
<path d="M3152 2995 c0 -16 2 -22 5 -12 2 9 2 23 0 30 -3 6 -5 -1 -5 -18z"/>
<path d="M840 2920 c-13 -8 -12 -10 3 -10 10 0 32 -7 50 -16 l31 -17 -53 -19
c-38 -14 -60 -31 -82 -61 -47 -65 -53 -100 -34 -187 24 -105 30 -202 15 -231
-13 -24 -13 -24 9 -5 21 19 21 19 21 -2 0 -11 -8 -28 -17 -38 -16 -16 -16 -17
16 -12 24 4 34 1 38 -11 11 -31 57 -71 90 -77 34 -6 43 -18 21 -27 -7 -3 2 -6
20 -6 18 -1 32 4 32 11 0 6 7 4 18 -6 18 -15 20 -15 36 3 18 19 17 21 -3 47
-26 33 -27 75 -3 97 24 22 41 21 69 -2 15 -12 20 -25 16 -40 -6 -22 14 -81 27
-81 4 0 21 13 36 29 27 27 130 101 141 101 2 0 1 -6 -2 -12 -4 -7 9 4 29 24
45 47 48 32 4 -18 l-33 -37 34 6 c24 5 42 2 58 -8 13 -9 28 -13 34 -9 7 4 7
-1 0 -15 -10 -18 -9 -21 8 -21 27 0 81 48 97 87 19 43 18 99 -3 159 -22 67
-130 172 -221 215 -55 27 -81 33 -159 37 -85 4 -92 6 -83 23 18 32 11 77 -16
106 -20 22 -23 23 -15 6 16 -32 13 -69 -6 -84 -9 -8 -18 -10 -20 -4 -27 79
-147 141 -203 105z"/>
<path d="M4779 2907 c-64 -27 -150 -95 -179 -142 -10 -17 -24 -52 -30 -79 -13
-59 -1 -102 37 -137 l26 -24 -7 29 c-6 26 -5 28 15 23 16 -4 19 -3 10 6 -19
19 -12 25 23 17 19 -4 37 -5 40 -2 3 3 19 5 36 4 27 -1 30 2 30 32 0 47 11 96
21 96 5 0 18 -19 30 -42 26 -52 59 -89 71 -82 5 3 17 -1 26 -9 9 -9 30 -21 46
-27 l29 -10 -5 -78 c-3 -47 -13 -95 -25 -123 -25 -56 -91 -132 -109 -125 -7 3
-18 -2 -24 -10 -9 -10 -9 -14 -1 -14 24 0 114 40 148 66 l36 27 37 -43 c34
-40 39 -43 75 -37 20 3 46 14 56 23 11 10 22 15 25 11 3 -3 12 -1 19 6 10 9 9
18 -1 44 -12 28 -12 38 1 71 10 24 14 61 12 105 -3 65 -2 67 14 46 l17 -23 21
42 c30 59 45 65 39 14 -6 -42 4 -62 33 -62 11 0 19 11 23 33 3 18 20 48 38 67
l31 34 11 -45 c14 -53 54 -122 67 -114 5 4 17 -10 26 -30 10 -21 22 -34 30
-31 16 7 17 -24 1 -75 -6 -22 -9 -42 -6 -45 4 -3 20 2 38 11 25 13 35 14 46 4
36 -30 -11 -89 -72 -89 -39 0 -81 -17 -88 -36 -4 -10 4 -14 30 -14 40 0 90 21
122 50 12 11 22 15 24 9 5 -15 77 92 94 138 7 21 13 61 14 89 0 28 3 54 7 58
4 4 8 21 9 37 1 22 -2 29 -12 25 -9 -4 -23 11 -39 44 -22 43 -39 64 -55 65 -3
0 -16 8 -30 17 -14 10 -54 25 -90 34 -109 28 -226 1 -297 -68 l-33 -32 0 40
c0 21 -5 56 -11 78 -7 26 -7 42 -1 48 6 6 8 17 5 24 -3 8 0 14 7 14 19 0 -44
48 -72 55 -19 5 -29 2 -35 -10 -9 -15 -15 -14 -64 11 -47 25 -67 29 -154 32
-87 2 -107 0 -156 -21z m350 -365 c12 -22 -7 -69 -39 -97 l-23 -20 6 40 c4 22
7 52 7 68 0 20 5 27 20 27 10 0 24 -8 29 -18z"/>
<path d="M5095 2540 c3 -5 11 -10 16 -10 6 0 7 5 4 10 -3 6 -11 10 -16 10 -6
0 -7 -4 -4 -10z"/>
<path d="M2065 2783 c-34 -8 -38 -20 -5 -15 17 2 33 8 36 13 5 9 1 10 -31 2z"/>
<path d="M2313 2703 c-27 -10 -11 -18 27 -15 22 2 40 8 40 13 0 9 -46 11 -67
2z"/>
<path d="M2068 2664 c-39 -21 -35 -25 20 -17 55 7 62 11 42 23 -20 13 -30 12
-62 -6z"/>
<path d="M4813 2603 c9 -2 25 -2 35 0 9 3 1 5 -18 5 -19 0 -27 -2 -17 -5z"/>
<path d="M3602 2579 c5 -16 58 -25 58 -10 0 6 -6 11 -14 11 -8 0 -22 3 -32 7
-12 4 -15 2 -12 -8z"/>
<path d="M2299 2555 c-3 -2 -31 -5 -62 -6 -31 -1 -57 -5 -57 -9 0 -18 29 -30
72 -30 37 0 50 4 58 19 5 11 10 22 10 25 0 7 -15 8 -21 1z"/>
<path d="M3795 2550 c-5 -9 94 -44 103 -36 5 5 -73 46 -87 46 -5 0 -12 -4 -16
-10z"/>
<path d="M4101 2511 c-10 -7 -7 -9 12 -8 14 1 23 5 20 10 -6 9 -15 9 -32 -2z"/>
<path d="M1935 2496 c-11 -6 -22 -12 -24 -13 -11 -7 23 -31 36 -26 9 4 19 -1
25 -10 5 -10 20 -17 33 -17 13 0 25 -6 27 -12 4 -10 11 -10 34 1 l29 13 -39
14 c-22 8 -53 25 -70 38 -25 19 -35 21 -51 12z"/>
<path d="M4840 2484 l-45 -12 35 -1 c19 0 42 3 50 9 25 15 7 17 -40 4z"/>
<path d="M4633 2453 c-4 -16 -8 -54 -8 -85 0 -48 4 -61 27 -85 44 -45 96 -56
198 -39 17 2 20 8 20 37 0 20 -4 21 -45 15 -54 -9 -97 9 -145 59 -28 29 -33
41 -32 80 0 51 -4 57 -15 18z"/>
<path d="M4668 2473 c7 -3 16 -2 19 1 4 3 -2 6 -13 5 -11 0 -14 -3 -6 -6z"/>
<path d="M3670 2420 c17 -24 29 -30 56 -30 38 0 74 15 74 30 0 6 -22 10 -49
10 -27 0 -62 5 -76 10 l-26 10 21 -30z"/>
<path d="M2100 2426 c0 -9 50 -12 62 -5 8 6 -1 9 -24 9 -21 0 -38 -2 -38 -4z"/>
<path d="M5288 2413 c6 -2 18 -2 25 0 6 3 1 5 -13 5 -14 0 -19 -2 -12 -5z"/>
<path d="M2066 2368 c-20 -11 -11 -16 109 -56 46 -16 59 -23 100 -59 7 -7 20
-13 28 -13 18 0 28 -24 21 -48 -5 -14 -4 -15 5 -2 7 10 11 11 11 3 0 -19 2
-26 11 -51 5 -13 5 -21 1 -18 -4 2 -14 1 -22 -5 -12 -7 -11 -9 5 -9 19 -1 19
-1 2 -14 -15 -12 -17 -24 -12 -78 l5 -64 -34 -14 c-38 -14 -62 -50 -52 -75 5
-13 2 -16 -10 -11 -8 3 -27 6 -41 6 -18 0 -24 4 -19 15 3 8 1 15 -4 15 -5 0
-17 14 -25 31 -9 17 -19 28 -23 25 -3 -4 -16 18 -29 49 l-23 55 21 61 c30 86
15 173 -38 221 -18 16 -21 16 -39 2 -18 -15 -18 -15 3 -5 18 9 25 7 41 -14 19
-23 39 -121 27 -133 -3 -3 -5 4 -5 16 0 12 -4 22 -9 22 -4 0 -11 -30 -14 -66
-4 -55 -9 -71 -31 -91 -26 -24 -35 -40 -16 -28 6 3 10 0 10 -8 0 -7 12 -24 26
-38 38 -36 66 -86 76 -137 4 -25 14 -55 22 -66 14 -22 122 -80 167 -90 35 -8
38 5 46 182 5 129 8 142 24 142 26 0 101 69 96 89 -2 9 -9 15 -16 13 -7 -1
-10 1 -7 6 7 12 -23 54 -35 47 -5 -3 -6 0 -3 8 5 15 -134 164 -174 186 -21 11
-22 11 -16 -15 l7 -27 -47 6 c-26 4 -60 15 -75 26 -20 15 -31 17 -45 9z m325
-165 c13 -16 12 -17 -3 -4 -10 7 -18 15 -18 17 0 8 8 3 21 -13z"/>
<path d="M5445 2370 c11 -5 27 -9 35 -9 9 0 8 4 -5 9 -11 5 -27 9 -35 9 -9 0
-8 -4 5 -9z"/>
<path d="M4768 2363 c6 -2 18 -2 25 0 6 3 1 5 -13 5 -14 0 -19 -2 -12 -5z"/>
<path d="M4273 2284 c-54 -20 -103 -75 -103 -114 0 -37 7 -38 21 -2 10 26 11
26 21 7 6 -11 27 -38 45 -60 19 -22 39 -59 45 -82 12 -48 19 -52 49 -22 47 47
81 -11 35 -60 -24 -25 -25 -31 -15 -59 6 -18 16 -32 22 -31 41 1 160 28 170
38 6 6 12 28 12 49 1 20 8 51 15 67 8 17 14 57 14 90 0 77 -30 133 -87 166
-53 29 -181 36 -244 13z"/>
<path d="M5310 2282 c0 -15 32 -24 44 -12 7 7 7 10 -1 10 -6 0 -18 3 -27 6 -9
3 -16 2 -16 -4z"/>
<path d="M5390 2271 c0 -17 29 -33 50 -26 25 8 27 25 1 18 -10 -3 -22 0 -25 6
-9 13 -26 15 -26 2z"/>
<path d="M1365 2240 c3 -5 13 -10 21 -10 8 0 14 5 14 10 0 6 -9 10 -21 10 -11
0 -17 -4 -14 -10z"/>
<path d="M5397 2183 c-4 -3 -7 -13 -7 -22 0 -10 3 -12 8 -5 4 6 16 16 27 22
20 11 20 11 -1 12 -11 0 -24 -3 -27 -7z"/>
<path d="M1845 2090 c-14 -28 -14 -30 6 -41 15 -8 24 -8 32 0 8 8 6 11 -5 11
-24 0 -31 16 -18 40 6 11 8 20 6 20 -3 0 -12 -13 -21 -30z"/>
<path d="M2278 2113 c6 -2 18 -2 25 0 6 3 1 5 -13 5 -14 0 -19 -2 -12 -5z"/>
<path d="M1945 2051 c-16 -4 -25 -10 -19 -13 6 -4 24 -4 39 1 37 9 20 19 -20
12z"/>
<path d="M4185 2050 c3 -5 10 -10 16 -10 5 0 9 5 9 10 0 6 -7 10 -16 10 -8 0
-12 -4 -9 -10z"/>
<path d="M5312 1972 c-7 -5 -10 -16 -6 -26 6 -15 7 -15 20 1 22 30 15 43 -14
25z"/>
<path d="M5083 1929 c-1 -12 -1 -20 0 -18 2 2 9 12 16 22 11 14 11 17 -1 17
-7 0 -14 -10 -15 -21z"/>
<path d="M5184 1755 c-10 -8 -51 -21 -90 -30 -69 -16 -72 -17 -83 -54 -6 -21
-11 -71 -11 -110 0 -50 -3 -70 -11 -65 -6 3 -15 0 -20 -7 -8 -12 -10 -12 -18
0 -7 11 -9 11 -13 0 -4 -12 -7 -12 -21 0 -22 17 -23 98 -2 148 25 61 21 69
-37 79 -29 4 -59 8 -67 9 -15 0 -34 -65 -46 -162 -6 -50 -6 -51 23 -58 27 -6
30 -10 36 -67 3 -33 6 -78 6 -99 0 -21 13 -73 29 -116 16 -43 32 -97 36 -121
7 -43 7 -43 28 -25 12 10 19 14 15 9 -4 -5 -3 -15 4 -23 9 -11 7 -17 -10 -29
-12 -8 -27 -24 -33 -35 -10 -20 -10 -20 14 -4 14 9 28 23 31 31 11 29 47 11
61 -30 8 -21 20 -43 27 -48 10 -8 9 -9 -4 -5 -9 3 -22 0 -28 -8 -9 -10 3 -14
60 -20 76 -8 104 -2 45 9 -19 4 -35 12 -35 18 0 6 9 8 23 4 12 -4 36 -9 52
-11 l30 -5 -32 12 c-38 12 -42 24 -13 33 42 13 72 16 65 5 -3 -5 2 -10 12 -10
15 -1 13 -4 -7 -16 -14 -9 -17 -13 -7 -10 57 18 70 19 63 5 -4 -8 1 -4 11 8
10 12 30 25 46 28 33 9 36 -2 5 -16 l-23 -10 23 5 c14 3 22 -1 22 -10 0 -9
-12 -15 -32 -16 -18 -1 -44 -2 -58 -3 -14 0 -38 -5 -55 -10 -28 -9 -27 -10 25
-15 52 -6 148 9 136 21 -3 3 17 2 45 -1 27 -4 52 -3 54 1 3 4 23 5 45 2 31 -4
41 -2 46 11 6 15 73 56 91 56 4 0 -3 -10 -17 -21 -18 -14 -19 -18 -5 -11 11 6
29 21 40 33 14 17 15 20 3 10 -19 -14 -23 -6 -31 64 -4 29 -4 29 -6 -4 l-1
-34 -50 6 c-45 5 -51 4 -70 -21 -12 -15 -19 -22 -16 -15 5 9 -2 9 -26 2 -49
-14 -115 -11 -121 5 -3 8 -15 12 -31 9 -33 -7 -41 14 -49 125 -4 46 -16 109
-27 140 -11 31 -26 97 -34 145 l-13 88 27 14 c32 17 40 33 40 84 0 36 -25 128
-39 144 -4 4 -16 0 -27 -8z m352 -737 c4 -6 -5 -21 -22 -35 -37 -30 -54 -30
-26 0 12 13 22 29 22 35 0 15 17 15 26 0z m-496 -38 c0 -5 -5 -10 -11 -10 -5
0 -7 5 -4 10 3 6 8 10 11 10 2 0 4 -4 4 -10z"/>
<path d="M5605 1644 c-22 -13 -62 -28 -90 -34 -48 -10 -60 -9 -197 17 -22 4
-28 2 -28 -13 0 -11 -5 -26 -11 -34 -8 -11 -9 -8 -5 15 5 23 4 26 -4 13 -6 -9
-13 -65 -15 -124 -5 -95 -4 -105 10 -94 8 7 15 8 15 3 0 -11 6 -12 117 -13 67
-1 84 -4 92 -18 6 -9 11 -12 11 -6 0 6 21 14 47 18 57 8 153 52 153 70 0 17
-47 216 -51 220 -2 1 -22 -8 -44 -20z"/>
<path d="M4220 1646 c0 -2 7 -9 15 -16 12 -10 15 -10 15 4 0 9 -7 16 -15 16
-8 0 -15 -2 -15 -4z"/>
<path d="M5230 1509 c0 -5 5 -7 10 -4 6 3 10 8 10 11 0 2 -4 4 -10 4 -5 0 -10
-5 -10 -11z"/>
<path d="M5533 1100 c0 -25 2 -35 4 -22 2 12 2 32 0 45 -2 12 -4 2 -4 -23z"/>
<path d="M4780 989 c0 -5 5 -7 10 -4 6 3 10 8 10 11 0 2 -4 4 -10 4 -5 0 -10
-5 -10 -11z"/>
<path d="M5630 960 c-28 -22 -54 -26 -45 -7 3 6 -2 2 -11 -10 -9 -13 -24 -23
-33 -24 -10 0 -12 -2 -3 -6 18 -7 98 28 111 49 14 22 12 22 -19 -2z"/>
<path d="M1460 931 c0 -25 6 -27 13 -6 4 8 2 17 -3 20 -6 4 -10 -3 -10 -14z"/>
<path d="M1233 820 c1 -11 7 -20 14 -20 20 0 64 -31 58 -40 -3 -5 -1 -11 4
-14 5 -4 12 -2 16 4 7 11 -16 37 -62 68 -31 22 -32 22 -30 2z"/>
<path d="M4449 823 c-13 -16 -12 -17 4 -4 9 7 17 15 17 17 0 8 -8 3 -21 -13z"/>
<path d="M4870 785 c-19 -14 -44 -25 -55 -25 -21 -1 -149 -70 -129 -70 7 0 36
11 65 24 30 14 61 26 69 28 16 3 24 8 65 42 38 32 30 32 -15 1z"/>
<path d="M1364 771 c4 -5 -3 -12 -14 -16 -22 -7 -27 -40 -7 -47 6 -3 28 -4 47
-2 19 1 43 -2 53 -8 40 -21 24 1 -29 41 -30 23 -53 37 -50 32z"/>
<path d="M3660 765 c-8 -9 -8 -15 -2 -15 12 0 26 19 19 26 -2 2 -10 -2 -17
-11z"/>
<path d="M1650 736 c-52 -33 -55 -34 -68 -15 -17 25 -31 24 -66 -6 l-29 -23
77 -4 c42 -1 83 -1 91 2 16 6 68 80 57 80 -4 0 -32 -15 -62 -34z"/>
<path d="M738 733 c12 -2 30 -2 40 0 9 3 -1 5 -23 4 -22 0 -30 -2 -17 -4z"/>
<path d="M3142 728 c-8 -10 -4 -13 14 -14 20 -2 23 1 13 12 -14 17 -14 17 -27
2z"/>
<path d="M4595 695 c-20 -29 -22 -35 -7 -21 12 10 27 16 34 14 7 -3 21 -2 30
1 15 5 14 8 -6 26 l-22 20 -29 -40z"/>
<path d="M2074 649 c-16 -17 -47 -44 -68 -60 -44 -33 -43 -33 40 -18 32 6 70
12 84 13 14 0 24 5 23 9 -6 32 -24 67 -33 67 -6 0 -8 5 -5 10 14 22 -13 8 -41
-21z"/>
<path d="M3716 614 c-27 -30 -63 -61 -80 -69 -17 -7 -25 -14 -18 -14 27 -2 79
30 107 64 18 23 36 35 52 35 13 0 22 4 18 10 -3 5 -11 8 -18 6 -7 -1 -9 -1 -4
1 4 3 7 9 7 14 0 18 -16 7 -64 -47z"/>
<path d="M3320 625 c-11 -12 -17 -25 -13 -29 5 -4 3 -6 -2 -4 -6 2 -26 -9 -44
-24 -18 -16 -29 -28 -25 -28 4 0 15 7 24 15 10 9 34 18 55 20 46 6 47 7 50 43
3 35 -16 38 -45 7z"/>
<path d="M4534 635 c-10 -8 -28 -15 -39 -15 -12 -1 -15 -4 -7 -7 16 -6 72 16
72 28 0 12 -3 11 -26 -6z"/>
<path d="M1779 629 c-12 -8 -12 -9 1 -7 8 2 31 -7 50 -19 39 -23 120 -41 120
-25 0 14 -24 22 -49 15 -12 -3 -38 5 -64 20 -31 18 -47 23 -58 16z"/>
<path d="M4390 615 c-25 -14 -24 -14 15 -14 22 -1 47 4 55 10 12 9 12 10 -4 5
-10 -4 -24 -2 -30 3 -7 6 -20 4 -36 -4z"/>
<path d="M2172 600 c7 -11 17 -20 22 -20 5 0 1 9 -9 20 -10 11 -20 20 -22 20
-2 0 2 -9 9 -20z"/>
<path d="M3996 555 c-19 -14 -19 -15 7 -15 19 0 25 4 21 15 -4 8 -7 15 -8 15
0 0 -10 -7 -20 -15z"/>
<path d="M4105 550 c-13 -5 -14 -9 -5 -9 8 0 24 4 35 9 13 5 14 9 5 9 -8 0
-24 -4 -35 -9z"/>
<path d="M3561 539 c-18 -6 -31 -12 -29 -15 8 -7 68 8 68 17 0 5 -1 9 -2 8 -2
0 -18 -5 -37 -10z"/>
<path d="M3148 533 c7 -3 16 -2 19 1 4 3 -2 6 -13 5 -11 0 -14 -3 -6 -6z"/>
</g>
</svg>
