<?xml version="1.0" standalone="no"?>
<!DOCTYPE svg PUBLIC "-//W3C//DTD SVG 20010904//EN"
 "http://www.w3.org/TR/2001/REC-SVG-20010904/DTD/svg10.dtd">
<svg version="1.0" xmlns="http://www.w3.org/2000/svg"
 width="600.000000pt" height="490.000000pt" viewBox="0 0 600.000000 490.000000"
 preserveAspectRatio="xMidYMid meet">

<g transform="translate(0.000000,490.000000) scale(0.100000,-0.100000)"
fill="#000000" stroke="none">
<path d="M3263 4589 c-12 -4 -49 -11 -83 -15 -52 -6 -63 -10 -75 -33 -13 -27
-22 -64 -29 -134 -3 -20 -16 -50 -29 -67 l-25 -29 -25 27 c-19 20 -28 46 -36
101 -19 123 -19 124 -138 140 -93 12 -105 12 -128 -3 -16 -11 -25 -26 -25 -42
0 -21 -3 -25 -17 -19 -148 62 -297 60 -411 -6 l-39 -23 -41 33 c-37 30 -45 33
-85 27 -25 -4 -65 -20 -88 -36 -43 -28 -245 -224 -261 -253 -6 -12 -18 -11
-70 11 -129 51 -277 41 -411 -31 -56 -29 -177 -146 -177 -171 0 -6 -7 -24 -16
-41 -22 -42 -34 -178 -22 -245 10 -56 47 -141 75 -173 17 -18 12 -36 -28 -97
-47 -72 -135 -263 -160 -345 -6 -22 -15 -47 -20 -57 -4 -9 -13 -47 -20 -85 -6
-37 -19 -81 -27 -98 -9 -16 -17 -50 -19 -74 -2 -41 2 -48 43 -90 l46 -46 -13
-70 c-14 -76 -24 -754 -12 -855 8 -67 33 -95 95 -104 l45 -7 13 -62 c15 -75
36 -156 45 -180 9 -22 44 -31 106 -25 47 5 51 3 60 -21 6 -14 29 -44 51 -65
30 -29 41 -48 43 -73 4 -67 137 -159 405 -278 81 -37 310 -115 335 -115 8 0
14 -23 17 -63 8 -90 61 -217 113 -270 56 -56 66 -64 133 -96 69 -34 177 -56
235 -47 61 9 154 56 209 105 40 36 101 114 110 142 2 5 22 0 45 -11 23 -11 48
-20 56 -20 7 0 17 -4 23 -8 53 -48 480 -122 609 -107 111 13 146 26 190 70 37
38 48 43 86 43 45 0 150 24 193 43 47 22 71 95 42 134 -12 17 -10 23 21 60 33
39 37 40 136 57 56 9 121 17 145 17 24 1 52 6 63 12 28 15 79 88 79 113 0 17
16 29 73 56 39 19 75 39 80 45 11 14 0 68 -30 155 -35 100 -38 103 -90 95 -24
-3 -43 -2 -43 2 0 5 14 21 32 37 24 21 38 26 57 21 14 -3 74 -13 133 -23 96
-15 110 -15 123 -1 8 8 27 66 41 129 14 63 28 118 30 122 3 5 24 11 47 15 62
10 84 38 90 114 3 35 6 73 5 84 0 11 1 144 2 297 2 275 -1 330 -21 463 l-11
70 47 48 48 47 -6 78 c-3 53 -13 96 -30 133 -13 30 -30 70 -37 89 -7 19 -17
39 -22 45 -4 5 -8 15 -8 23 0 25 -106 236 -158 312 l-50 75 35 47 c19 26 44
73 56 105 29 79 28 213 -3 300 -12 35 -19 67 -15 73 24 39 119 -30 156 -112
21 -47 23 -68 24 -198 0 -137 2 -148 27 -195 31 -59 82 -110 119 -119 33 -7
40 0 28 31 -5 14 -8 27 -6 29 2 2 25 -8 52 -21 58 -30 105 -31 161 -6 54 25
134 101 134 129 0 11 4 23 9 27 17 10 24 131 11 187 -17 77 -32 120 -51 148
-9 14 -19 34 -23 46 -4 12 -37 53 -74 92 -125 132 -307 187 -487 148 -60 -13
-136 -46 -167 -73 -14 -13 -22 -11 -70 21 -123 81 -300 98 -436 44 -54 -22
-63 -24 -71 -11 -17 32 -218 227 -260 254 -24 16 -64 31 -88 35 -40 6 -48 3
-83 -25 -21 -17 -42 -31 -45 -31 -3 0 -18 9 -33 20 -75 56 -239 70 -347 31
-80 -29 -77 -29 -81 -1 -3 13 -8 28 -13 33 -14 14 -76 24 -98 16z m-1107 -90
c18 -20 18 -21 -1 -35 -42 -31 -79 -60 -106 -81 l-27 -23 -6 23 c-12 46 -6 97
14 117 28 28 100 28 126 -1z m1854 1 c20 -20 26 -71 14 -116 -5 -20 -11 -18
-80 33 -41 31 -74 59 -74 64 0 17 46 39 82 39 25 0 45 -7 58 -20z m-2019 -119
c5 -24 23 -63 39 -86 l30 -43 -32 -31 c-18 -17 -36 -31 -40 -31 -5 0 -36 -22
-69 -50 -33 -27 -63 -50 -67 -50 -4 0 -20 20 -35 45 -16 25 -42 56 -59 69
l-30 23 123 124 c111 111 124 121 127 99 1 -14 7 -45 13 -69z m2211 -41 l107
-111 -39 -39 c-22 -22 -46 -53 -55 -69 -8 -17 -20 -31 -25 -31 -5 0 -36 23
-69 50 -33 28 -64 50 -69 50 -4 0 -21 14 -38 31 l-29 30 19 32 c40 67 49 92
54 139 6 62 10 59 144 -82z m-2012 104 c0 -9 -14 -29 -31 -45 -38 -35 -28 -37
26 -4 102 63 166 80 193 53 21 -21 13 -47 -28 -92 -48 -52 -98 -68 -208 -69
-63 0 -75 3 -88 21 -11 16 -12 25 -3 39 10 17 125 113 135 113 2 0 4 -7 4 -16z
m1585 -4 c22 -11 58 -31 80 -45 48 -30 84 -33 38 -4 -19 12 -33 29 -33 41 0
23 5 21 87 -45 l62 -50 -18 -26 c-18 -24 -23 -26 -92 -24 -117 3 -161 18 -208
68 -23 25 -41 53 -41 63 0 45 58 55 125 22z m-1205 -110 c50 -50 4 -126 -120
-197 -66 -37 -80 -48 -62 -51 30 -5 118 47 175 104 46 45 48 46 72 30 21 -14
25 -24 25 -66 0 -46 -4 -54 -44 -95 -28 -27 -78 -60 -135 -87 -50 -23 -91 -46
-91 -50 0 -30 136 31 223 99 l59 46 25 -25 c23 -24 24 -28 12 -54 -17 -33
-104 -81 -199 -108 -71 -21 -85 -29 -76 -44 5 -9 128 26 143 41 12 12 50 7 63
-7 15 -19 4 -38 -40 -71 -59 -44 -129 -58 -243 -50 -55 4 -108 10 -117 13 -30
11 -95 93 -133 167 -34 66 -62 183 -50 210 7 16 115 101 152 120 35 17 50 10
51 -22 0 -31 50 -10 120 48 85 72 151 88 190 49z m1091 -49 c74 -56 108 -73
109 -53 0 4 7 15 14 25 14 18 15 18 49 0 52 -27 157 -116 157 -133 0 -8 -7
-46 -15 -83 -16 -76 -65 -169 -123 -235 -34 -38 -45 -44 -98 -52 -76 -10 -211
-5 -249 10 -42 16 -102 59 -109 77 -13 34 33 55 72 33 24 -13 109 -40 128 -40
37 0 2 26 -62 46 -177 55 -245 113 -195 163 12 12 25 21 29 21 5 0 27 -16 51
-36 48 -42 183 -114 212 -114 34 0 21 16 -33 40 -85 37 -166 90 -193 126 -35
46 -35 117 0 140 25 16 26 16 75 -32 58 -56 144 -106 174 -102 16 2 1 15 -58
48 -124 71 -175 152 -124 200 40 37 93 24 189 -49z m-658 -40 c2 -57 0 -64
-26 -87 l-28 -25 6 43 c4 24 8 66 10 93 2 28 4 54 4 60 1 5 8 2 17 -6 10 -11
16 -37 17 -78z m80 -21 l6 -85 -35 37 c-40 44 -43 77 -13 127 28 45 35 31 42
-79z m848 50 c5 0 9 -6 9 -13 0 -7 8 -17 19 -24 19 -12 35 -53 20 -53 -4 0
-33 19 -64 42 -48 35 -54 43 -38 49 10 4 24 6 31 3 8 -2 18 -4 23 -4z m-1763
-9 c-3 -9 -95 -81 -103 -81 -8 0 -6 44 3 56 18 27 110 50 100 25z m2786 -94
c15 -19 26 -39 26 -45 0 -22 -36 -12 -65 18 -23 24 -26 32 -15 45 18 22 26 19
54 -18z m-2926 -47 c2 -90 34 -183 95 -276 50 -77 135 -161 180 -176 23 -9 41
-31 20 -26 -16 3 -219 -56 -303 -89 -86 -34 -377 -177 -394 -194 -3 -3 2 -50
10 -104 8 -55 17 -117 20 -137 3 -21 11 -58 19 -83 l13 -46 -41 33 c-40 32
-58 42 -119 66 -44 18 -255 26 -318 13 -123 -25 -227 -64 -282 -103 -16 -11
-28 -18 -28 -15 0 2 15 59 34 128 31 114 61 187 117 294 12 22 35 67 52 100
38 74 37 72 45 59 14 -21 99 -72 137 -83 54 -15 65 -14 72 7 7 20 98 142 197
262 97 118 277 296 361 354 39 27 78 58 88 68 10 10 19 18 21 18 2 0 4 -32 4
-70z m2022 43 c8 -8 47 -37 85 -66 98 -72 221 -193 330 -322 103 -123 220
-275 227 -295 6 -20 91 4 144 41 23 16 47 29 52 29 27 0 288 -557 270 -576 -3
-2 -16 4 -30 15 -32 25 -119 65 -188 85 -114 33 -164 39 -280 33 -133 -8 -205
-31 -266 -86 -37 -34 -37 -34 -30 -8 12 51 45 253 48 301 l3 50 -150 76 c-173
87 -272 128 -405 166 -52 15 -108 32 -123 39 l-29 12 30 11 c30 10 162 127
162 144 0 5 12 25 26 43 47 61 86 181 87 262 0 73 4 77 37 46z m-1042 -475
l-3 -462 -65 1 c-175 0 -330 30 -330 63 0 38 -96 366 -121 413 -7 12 -6 19 3
21 76 22 104 34 138 63 41 35 53 76 30 99 -8 8 0 18 24 35 41 28 62 62 58 95
-3 20 1 24 22 24 47 0 131 28 184 60 28 18 52 37 52 41 0 5 2 9 5 9 3 0 5
-208 3 -462z m176 375 c28 -8 66 -17 84 -20 29 -5 32 -9 32 -38 0 -27 9 -41
45 -73 26 -23 41 -43 35 -47 -22 -14 -11 -63 21 -90 43 -36 103 -65 134 -65
14 0 25 -2 25 -4 0 -3 -19 -58 -42 -123 -49 -141 -78 -246 -78 -290 0 -38 -11
-44 -94 -62 -62 -14 -296 -30 -301 -21 -2 3 -2 208 -2 456 l2 452 43 -30 c24
-17 67 -37 96 -45z m-1369 16 c6 -17 0 -27 -26 -48 -54 -41 -111 -99 -192
-193 -41 -48 -77 -84 -80 -81 -4 3 -21 -7 -39 -22 -29 -25 -38 -27 -87 -22
-68 7 -98 29 -134 98 -23 46 -27 64 -24 117 3 55 7 67 35 95 30 30 37 32 98
31 59 -1 68 -4 98 -33 18 -18 39 -50 45 -72 18 -60 35 -44 39 36 l3 67 33 -5
c46 -7 174 16 193 36 23 22 30 21 38 -4z m2431 -16 c19 -26 17 -35 -6 -23 -11
6 -20 17 -20 25 0 20 10 19 26 -2z m500 -19 c46 -22 64 -60 64 -131 0 -46 -6
-69 -29 -108 -35 -61 -44 -69 -99 -88 -50 -17 -98 -9 -127 23 -10 11 -24 20
-31 20 -16 0 -134 134 -134 152 0 8 -9 33 -20 56 -11 22 -20 44 -20 47 0 4 20
-11 44 -32 25 -22 63 -47 85 -55 l39 -16 16 42 c20 53 62 93 101 99 59 8 78 7
111 -9z m-3484 -292 c41 -56 122 -88 180 -71 33 9 36 -1 7 -27 -11 -10 -41
-48 -66 -84 -26 -36 -48 -67 -50 -69 -7 -9 -91 35 -138 73 -27 22 -52 41 -54
43 -2 1 12 20 32 42 19 21 41 55 48 75 15 41 22 44 41 18z m1106 -29 c64 -6
72 -12 47 -33 -28 -23 -80 -16 -131 19 l-49 33 35 -7 c19 -3 63 -9 98 -12z
m1388 -15 c-61 -40 -136 -42 -136 -4 0 8 26 16 73 23 115 16 116 15 63 -19z
m1021 -22 c14 -14 47 -32 72 -42 25 -9 47 -18 49 -20 15 -12 -152 -124 -186
-124 -4 0 -16 15 -26 33 -11 17 -41 58 -67 89 -27 31 -49 59 -49 62 0 2 12 1
28 -3 34 -10 91 -3 117 15 26 19 32 18 62 -10z m-2275 -102 l27 -72 -30 -28
c-16 -15 -35 -46 -41 -67 -13 -43 -7 -67 42 -172 16 -33 34 -73 40 -90 61
-155 126 -351 139 -423 8 -42 8 -43 -33 -76 -22 -19 -79 -59 -126 -90 -47 -31
-103 -69 -125 -85 -22 -16 -58 -39 -80 -51 -22 -12 -49 -30 -60 -40 -11 -10
-33 -25 -50 -34 -34 -19 -67 -40 -122 -77 -48 -32 -192 -119 -198 -119 -5 0
-135 263 -135 274 0 3 -13 34 -29 69 -43 93 -52 116 -81 192 l-27 70 39 35
c46 41 80 127 67 170 -12 39 -69 333 -69 355 0 21 16 31 155 104 146 77 302
135 468 175 123 30 163 47 172 77 7 21 7 21 19 -3 7 -12 24 -55 38 -94z m1098
91 c0 -22 45 -41 166 -70 184 -44 369 -117 531 -208 78 -44 93 -56 93 -77 -1
-14 -16 -101 -36 -195 -42 -202 -40 -180 -25 -233 8 -28 28 -60 56 -88 l45
-44 -21 -53 c-11 -28 -29 -70 -39 -92 -10 -22 -30 -69 -45 -105 -35 -85 -112
-248 -131 -280 -8 -14 -18 -33 -21 -43 -3 -10 -8 -16 -12 -15 -3 2 -44 23 -91
46 -86 43 -107 55 -222 126 -158 97 -236 149 -318 211 -121 92 -175 138 -173
149 2 13 23 88 51 176 27 85 84 242 112 305 12 28 34 84 50 126 l28 77 -20 43
c-10 24 -28 54 -39 65 -20 21 -20 21 6 95 15 41 29 82 32 91 6 20 23 14 23 -7z
m-1055 -212 c12 -29 44 -177 40 -182 -8 -7 -61 20 -88 45 -15 14 -27 33 -27
44 0 39 39 110 60 110 5 0 11 -8 15 -17z m1007 -23 c10 -19 18 -49 18 -66 0
-27 -7 -37 -47 -63 -50 -34 -63 -37 -63 -19 0 10 34 140 46 176 6 21 25 9 46
-28z m-981 -181 c29 -11 91 -27 138 -35 47 -8 98 -17 114 -20 64 -11 248 -13
322 -4 233 30 264 36 338 67 20 9 40 14 43 11 4 -5 -32 -93 -87 -213 -14 -32
-108 -334 -111 -359 -2 -18 20 -40 117 -117 131 -103 141 -110 325 -224 69
-43 136 -85 150 -94 14 -9 50 -28 80 -44 30 -15 77 -42 105 -60 27 -18 81 -46
119 -64 39 -18 64 -34 56 -36 -158 -44 -223 -82 -347 -204 -113 -112 -184
-217 -199 -300 -6 -32 -9 -27 -76 104 -39 76 -81 152 -94 170 -13 17 -24 36
-24 41 0 5 -14 28 -30 50 l-30 42 48 0 c116 0 182 74 182 205 0 102 -42 185
-112 221 -32 16 -91 18 -119 4 -16 -9 -28 -2 -76 46 -104 102 -175 139 -296
152 -76 9 -216 -4 -276 -24 -60 -20 -140 -75 -195 -134 l-47 -50 -42 12 c-81
21 -141 -12 -187 -106 -30 -60 -32 -72 -28 -138 3 -47 12 -86 25 -108 26 -46
102 -85 161 -83 42 1 43 1 29 -20 -52 -81 -117 -195 -173 -305 -50 -99 -64
-120 -64 -97 0 39 -38 120 -88 187 -53 72 -188 207 -238 240 -51 33 -180 88
-205 88 -34 0 -20 15 30 35 28 10 85 40 128 67 43 26 98 59 123 73 25 14 88
52 140 85 52 32 127 78 165 101 67 40 254 176 323 236 l34 28 -20 70 c-37 130
-94 300 -103 310 -5 5 -9 15 -9 22 0 13 -48 125 -70 165 -19 34 -17 34 51 7z
m-1146 -188 c3 -5 7 -27 9 -49 5 -46 29 -152 62 -267 13 -44 30 -107 39 -140
10 -33 21 -69 26 -80 5 -11 24 -64 44 -117 19 -54 59 -148 89 -210 29 -62 53
-114 52 -115 -1 -1 -29 4 -61 12 -33 8 -87 14 -120 14 -104 1 -308 -43 -368
-79 -17 -10 -53 -30 -78 -43 -25 -14 -57 -34 -70 -46 -13 -12 -45 -39 -71 -62
l-46 -40 -6 28 c-3 15 -5 69 -5 118 0 50 0 180 -1 290 0 110 1 209 3 220 3 11
8 52 12 90 11 116 24 195 51 305 14 58 27 106 28 108 2 1 34 13 73 27 95 34
324 58 338 36z m3362 -1 c81 -9 222 -46 241 -64 3 -4 15 -46 27 -101 20 -91
26 -117 35 -170 5 -33 13 -91 16 -130 3 -38 9 -74 11 -79 7 -11 4 -656 -3
-668 -3 -5 -25 8 -49 29 -75 66 -97 83 -139 107 -22 13 -58 33 -78 45 -40 24
-102 42 -233 66 -99 18 -183 18 -257 1 -68 -17 -73 -9 -35 52 28 44 137 304
137 326 0 4 6 22 14 39 21 49 34 89 41 127 4 19 17 69 30 110 30 101 65 251
65 282 0 14 3 28 7 31 9 10 55 9 170 -3z m-3300 -12 c6 -7 13 -26 17 -43 7
-35 7 -32 30 -110 10 -33 22 -68 27 -77 5 -10 9 -23 9 -30 0 -7 16 -51 36 -98
19 -47 42 -105 51 -130 25 -72 114 -266 166 -364 15 -27 27 -53 27 -57 0 -5
-14 -16 -31 -24 -24 -13 -34 -14 -45 -4 -8 6 -14 16 -14 21 0 10 -14 41 -89
203 -26 55 -57 134 -70 175 -13 41 -36 116 -51 165 -15 50 -31 106 -35 125 -4
19 -11 40 -15 45 -8 10 -34 112 -46 178 -5 29 -3 37 9 37 8 0 19 -6 24 -12z
m3103 -4 c0 -23 -41 -188 -50 -199 -4 -5 -11 -26 -15 -45 -8 -40 -16 -70 -44
-155 -11 -33 -25 -78 -30 -100 -16 -64 -46 -145 -84 -220 -19 -38 -47 -99 -62
-135 -40 -92 -40 -92 -81 -73 -34 17 -42 31 -25 48 19 21 149 294 170 357 7
21 17 40 22 43 5 4 9 16 9 29 0 12 4 26 8 32 17 19 109 285 128 369 10 44 23
65 39 65 8 0 15 -7 15 -16z m-3025 -15 c53 -25 101 -79 107 -120 6 -36 -16
-83 -48 -104 -23 -15 -25 -14 -30 2 -3 10 -12 32 -19 48 -7 17 -16 46 -20 65
-4 19 -11 40 -15 45 -4 6 -10 19 -12 30 -3 11 -9 28 -13 38 -9 22 -4 22 50 -4z
m2960 4 c-4 -10 -18 -52 -31 -93 -13 -41 -29 -83 -34 -92 -6 -10 -10 -27 -10
-38 0 -28 -13 -25 -48 11 -38 39 -43 57 -27 104 17 47 47 79 99 104 51 25 60
26 51 4z m-3548 -80 c-7 -27 -25 -101 -38 -161 -12 -57 -22 -61 -53 -18 -28
37 -27 93 4 134 36 49 96 80 87 45z m4153 -24 c59 -61 63 -114 12 -171 -22
-26 -30 -22 -37 20 -7 38 -31 143 -41 175 -10 31 24 19 66 -24z m-2037 -362
c6 6 91 -20 142 -44 75 -34 112 -63 156 -120 72 -93 96 -169 83 -263 l-7 -50
-36 7 c-115 25 -291 -18 -399 -97 l-43 -31 -44 40 c-53 49 -134 91 -175 91
-40 0 -38 -11 5 -34 29 -16 96 -86 82 -86 -3 0 -24 11 -48 24 -28 16 -75 29
-131 37 l-88 13 -12 40 c-19 69 -13 156 15 214 26 54 78 125 112 154 21 17
120 68 171 87 43 17 154 28 186 20 14 -4 29 -5 31 -2z m-522 -217 c-2 -8 -10
-37 -18 -65 -19 -66 -13 -199 10 -244 9 -19 17 -35 17 -36 0 -2 -13 -8 -30
-15 -56 -23 -139 13 -172 74 -49 90 -8 244 75 285 50 25 125 26 118 1z m1016
3 c19 -9 45 -32 57 -52 86 -138 28 -311 -104 -311 -75 0 -83 5 -62 43 24 45
25 247 1 294 -9 17 -14 34 -11 37 11 12 85 5 119 -11z m-2013 -365 c58 -122
99 -166 177 -188 28 -8 42 -6 85 16 29 15 71 46 94 69 42 43 43 43 69 27 52
-32 230 -230 231 -255 0 -17 -44 -105 -85 -167 -104 -160 -253 -260 -386 -260
-76 0 -86 5 -213 119 -34 30 -72 66 -86 79 -14 13 -48 39 -75 57 -99 63 -133
137 -85 185 69 69 174 39 296 -84 94 -95 112 -109 124 -101 20 12 -167 188
-233 218 -59 28 -143 37 -164 16 -12 -12 -97 13 -128 39 -30 25 -55 64 -55 85
0 10 14 32 31 49 28 29 33 30 85 24 82 -9 167 -56 254 -140 28 -26 55 -46 61
-44 20 7 -55 85 -130 134 -77 51 -134 74 -188 74 -27 0 -34 5 -39 27 -6 21 -2
31 20 50 l28 24 46 -27 c58 -33 59 -34 156 -133 81 -82 96 -92 96 -67 0 16
-154 170 -199 198 -25 16 -29 23 -20 34 6 8 27 14 45 14 28 0 44 -10 94 -60
33 -33 76 -84 96 -115 34 -50 54 -68 54 -47 0 14 -55 93 -104 150 -50 58 -52
62 -34 80 24 24 38 10 82 -80z m2981 76 c16 -16 12 -30 -20 -59 -6 -5 -26 -30
-45 -55 -19 -25 -40 -51 -47 -58 -15 -15 -27 -52 -19 -59 6 -6 45 37 46 50 0
11 89 118 112 135 9 7 24 19 32 27 17 18 77 20 93 4 9 -9 6 -17 -12 -30 -13
-11 -26 -19 -30 -19 -10 0 -185 -181 -185 -191 0 -21 22 -4 112 84 51 52 115
106 141 121 45 27 48 27 73 11 20 -13 25 -23 22 -48 -3 -30 -5 -32 -55 -38
-28 -4 -66 -14 -85 -24 -18 -10 -50 -26 -70 -36 -55 -28 -171 -149 -143 -149
3 0 40 30 84 66 131 109 248 149 309 105 66 -46 42 -116 -55 -162 -55 -26 -69
-29 -90 -20 -55 25 -143 8 -205 -40 -20 -16 -40 -29 -43 -29 -9 0 -155 -153
-155 -162 0 -23 35 2 120 85 141 139 230 168 303 99 30 -29 31 -32 17 -83 -10
-36 -14 -39 -225 -208 -27 -22 -63 -51 -80 -64 -58 -47 -133 -72 -215 -72 -67
0 -81 4 -127 33 -29 17 -61 40 -71 49 -11 10 -36 33 -56 52 -44 40 -112 143
-149 225 l-27 59 27 35 c16 19 38 48 50 65 30 42 164 167 178 167 3 0 25 -18
48 -41 97 -95 164 -113 237 -65 50 33 82 76 124 167 45 98 51 103 81 73z
m-2740 -52 c29 -9 94 -41 124 -60 26 -18 -119 -132 -167 -132 -23 0 -97 45
-120 73 -18 21 4 103 32 123 22 16 71 14 131 -4z m2547 4 c18 -14 42 -101 34
-123 -9 -21 -98 -73 -126 -73 -31 0 -102 45 -147 93 l-32 34 51 28 c95 52 184
68 220 41z m-849 -148 c47 -75 129 -225 176 -323 29 -60 58 -121 64 -134 7
-13 29 -33 51 -44 l39 -20 -68 -34 c-37 -18 -71 -33 -76 -33 -5 0 -35 20 -66
45 -32 24 -77 51 -101 59 -39 14 -47 14 -73 1 -15 -8 -33 -14 -38 -13 -10 3
-38 -14 -79 -49 -15 -13 -30 -23 -34 -23 -9 0 -17 30 -59 210 -52 228 -60 264
-57 278 2 7 30 25 63 40 33 14 66 32 72 38 7 7 28 22 47 33 19 12 41 33 51 47
l16 25 27 -38 c15 -21 35 -50 45 -65z m-879 60 c53 -52 91 -78 158 -105 35
-14 64 -26 65 -27 2 -2 -25 -135 -36 -176 -6 -19 -24 -93 -41 -165 -41 -174
-69 -265 -84 -271 -7 -3 -37 5 -67 16 -94 38 -218 31 -296 -15 -28 -17 -30
-16 -89 19 -58 34 -164 121 -164 134 0 4 20 6 44 4 25 -2 62 2 83 8 42 14 93
56 93 77 0 41 275 533 298 533 2 0 18 -15 36 -32z m-1620 -135 c4 -32 9 -66
12 -75 4 -13 0 -18 -16 -18 -43 0 -89 38 -90 73 0 19 69 89 81 82 4 -3 10 -31
13 -62z m4106 -16 c-1 -35 -32 -67 -73 -74 -36 -5 -38 -5 -33 18 3 13 8 42 11
64 12 79 12 79 56 44 24 -19 39 -39 39 -52z m-1300 -185 c0 -15 64 -137 84
-162 27 -31 27 -39 -1 -54 -24 -12 -34 -12 -66 -1 -45 15 -40 11 -62 54 -22
45 -25 94 -8 139 7 20 17 46 20 56 6 18 7 18 20 1 7 -11 13 -25 13 -33z
m-1542 -31 c26 -74 -2 -156 -61 -184 -32 -16 -117 -24 -117 -12 0 3 19 34 43
68 38 57 75 130 92 181 6 19 6 19 19 0 7 -10 18 -34 24 -53z m-833 -185 c30
-47 155 -159 155 -139 0 5 -5 14 -12 21 -19 19 1 14 28 -7 19 -15 21 -21 12
-28 -27 -17 -61 -33 -70 -33 -12 0 -143 65 -165 82 -45 35 -122 123 -114 131
11 11 113 35 124 29 5 -2 23 -27 42 -56z m76 -33 c51 -49 58 -66 15 -38 -25
17 -82 85 -70 85 3 0 28 -21 55 -47z m2039 -6 c19 -8 48 -29 63 -45 l28 -29
-45 -22 c-25 -11 -52 -21 -59 -21 -7 0 -17 -4 -22 -8 -14 -12 -96 -34 -102
-28 -3 3 -8 28 -11 56 -4 43 -1 55 22 84 21 29 31 34 58 31 18 -1 49 -10 68
-18z m466 -35 c33 -26 92 -60 131 -76 71 -28 71 -29 102 -96 30 -64 63 -111
124 -173 26 -28 35 -43 19 -33 -5 3 -33 -1 -63 -9 -81 -22 -120 -19 -148 10
-13 14 -31 25 -40 25 -14 0 -17 7 -13 30 5 36 -19 77 -52 90 -18 7 -25 19 -30
54 -7 45 -33 76 -63 76 -7 0 -30 -15 -50 -33 -21 -18 -51 -43 -68 -54 l-30
-21 0 42 c-1 49 -29 96 -59 96 -11 0 -34 -8 -51 -18 -28 -18 -32 -18 -58 -2
l-27 17 112 53 c97 46 150 65 193 69 6 0 37 -21 71 -47z m-1878 -70 c15 -13
52 -35 82 -49 l55 -27 -48 -50 c-51 -53 -99 -137 -112 -193 -3 -18 -10 -35
-13 -37 -4 -2 -30 2 -57 9 -46 12 -75 22 -180 62 -22 8 -49 19 -60 23 -97 36
-298 140 -327 168 -16 16 -14 17 31 19 47 1 134 33 146 53 4 6 15 6 31 0 36
-14 73 -12 144 6 85 22 130 42 168 75 l33 29 40 -32 c22 -18 52 -43 67 -56z
m1236 49 c-3 -16 1 -54 10 -84 20 -67 20 -64 -1 -70 -10 -3 -43 -15 -73 -27
-140 -54 -374 -120 -426 -120 -11 0 -24 12 -31 26 -11 24 -10 26 22 40 19 8
37 14 40 14 3 0 53 23 111 50 58 28 108 50 111 50 2 0 19 11 37 25 18 14 36
25 39 25 4 0 41 23 83 50 42 28 78 50 80 50 2 0 1 -13 -2 -29z m-1928 -67 l69
-37 -53 5 c-52 5 -92 28 -92 55 0 17 -3 18 76 -23z m1058 -197 c12 -95 66
-122 151 -74 30 16 47 37 68 80 l28 58 23 -24 c47 -51 76 -114 106 -232 21
-84 7 -157 -45 -240 -52 -82 -52 -82 -125 -15 -61 56 -63 60 -47 78 9 10 17
26 17 35 0 9 5 19 10 22 16 10 11 68 -10 112 -21 45 -72 75 -93 54 -8 -8 -8
-11 0 -11 22 0 71 -50 76 -79 16 -76 -44 -158 -130 -178 -70 -17 -104 -14
-148 10 -44 25 -62 71 -51 133 7 35 65 104 115 135 37 23 18 39 -48 39 l-58 0
-1 42 c-2 45 -15 93 -38 136 -17 33 -10 40 66 69 94 37 93 37 111 -34 9 -34
20 -87 23 -116z m1291 166 c25 -24 12 -91 -22 -121 -14 -12 -24 -25 -21 -28
16 -15 95 25 155 78 36 32 72 58 79 58 20 0 34 -33 34 -78 0 -34 -6 -45 -47
-84 -27 -24 -63 -50 -80 -57 -38 -15 -45 -36 -10 -27 48 12 120 60 140 93 24
41 55 41 75 0 20 -42 -9 -93 -73 -129 -27 -15 -58 -27 -67 -28 -10 0 -18 -5
-18 -11 0 -26 101 9 149 50 36 32 91 23 91 -14 0 -25 -103 -115 -132 -115 -7
-1 -24 -7 -38 -15 l-25 -14 35 -1 c20 0 41 5 47 11 6 6 23 9 39 7 57 -6 37
-82 -28 -112 -53 -23 -122 -30 -295 -31 -155 0 -163 1 -186 23 -14 13 -27 33
-30 45 -3 12 -15 58 -26 102 -11 44 -20 112 -21 150 l0 70 50 28 c51 28 116
90 125 117 5 17 53 49 72 50 6 0 19 -8 28 -17z m-1148 -26 c92 -47 105 -90 31
-100 -50 -7 -77 -32 -80 -74 -3 -36 -6 -38 -34 -29 -26 8 -44 58 -44 122 0 27
-4 64 -10 83 l-9 34 49 -6 c26 -3 70 -17 97 -30z m1001 27 c12 -4 22 -12 22
-19 0 -15 -91 -105 -125 -123 -30 -15 -32 -8 -11 62 24 78 51 97 114 80z
m-193 -24 c-3 -5 -14 -10 -23 -10 -15 0 -15 2 -2 10 20 13 33 13 25 0z m50
-40 c-18 -35 -27 -183 -15 -235 4 -16 16 -68 25 -115 10 -47 24 -92 30 -100 7
-8 16 -26 20 -39 4 -13 29 -46 55 -72 26 -27 44 -49 41 -50 -3 0 -60 0 -126 1
-191 1 -315 28 -585 126 l-35 12 4 79 c3 80 -17 192 -40 220 -9 10 -5 13 19
13 36 0 225 48 332 84 114 38 264 96 274 107 17 16 18 1 1 -31z m1065 -80 c0
-18 -27 -64 -49 -85 -19 -16 -41 -21 -79 -16 -13 2 -87 70 -82 75 3 2 45 9 94
15 49 6 91 13 94 16 9 9 22 6 22 -5z m-1870 -6 c0 -29 -68 -93 -83 -78 -12 12
8 56 32 69 27 15 51 19 51 9z m1052 -450 l67 -6 -15 -24 c-34 -51 -123 -39
-168 23 l-19 26 34 -6 c19 -3 64 -9 101 -13z"/>
<path d="M1340 4024 c0 -3 11 -15 24 -25 14 -11 32 -33 40 -50 15 -29 14 -30
-19 -52 -56 -36 -44 -52 13 -17 l32 20 1 -23 c1 -12 2 -33 3 -47 1 -15 7 -25
16 -25 9 0 15 8 14 20 -2 37 -12 90 -22 116 -16 39 -102 110 -102 83z"/>
<path d="M4641 3994 c-34 -30 -42 -46 -56 -106 -10 -45 -12 -75 -6 -81 14 -14
32 1 30 26 -1 12 -1 32 -1 45 l2 24 34 -21 c36 -23 46 -25 46 -13 0 5 -16 17
-35 28 -19 10 -35 20 -35 21 0 12 47 76 61 84 20 10 26 29 9 29 -5 0 -28 -16
-49 -36z"/>
<path d="M2944 2505 c-72 -14 -181 -72 -219 -116 -61 -74 -81 -152 -49 -197
35 -50 54 -53 350 -51 308 3 321 5 350 75 19 45 8 81 -45 156 -32 43 -53 61
-113 90 -40 20 -100 41 -132 47 -67 12 -61 13 -142 -4z m155 -22 c28 -9 51
-19 51 -23 0 -3 -14 -20 -30 -37 -24 -24 -41 -32 -78 -35 -26 -2 -57 -2 -69 0
-27 5 -86 63 -76 73 13 12 97 38 124 39 15 0 50 -7 78 -17z m-219 -47 c0 -21
52 -62 96 -75 36 -12 49 -11 93 4 46 15 101 62 101 86 0 5 14 2 32 -7 88 -46
178 -171 156 -219 -5 -12 -24 -30 -41 -40 -29 -17 -57 -19 -302 -19 -248 -1
-272 1 -298 18 -57 38 -41 111 43 192 74 72 120 95 120 60z"/>
<path d="M2495 804 c-22 -8 -47 -20 -55 -27 -25 -20 -60 -69 -60 -83 0 -23 14
-16 27 14 17 38 53 59 67 41 6 -8 23 -22 39 -32 22 -14 27 -15 27 -3 0 8 -12
23 -27 34 -21 16 -24 22 -13 25 60 17 74 23 74 32 1 16 -35 15 -79 -1z"/>
</g>
</svg>
