<svg xmlns="http://www.w3.org/2000/svg" width="82.727" height="69.999" viewBox="0 0 82.727 69.999">
                                    <g id="noun_experience_4322176" transform="translate(-28.5 -63.5)">
                                      <g class="Group_37998" data-name="Group 37998" transform="translate(28.5 63.5)">
                                        <path id="Path_2446" data-name="Path 2446" d="M102.953,73.682H85.772V70.5a7.013,7.013,0,0,0-7-7H60.96a7.013,7.013,0,0,0-7.006,7v3.177H36.773A8.282,8.282,0,0,0,28.5,81.954v43.272a8.282,8.282,0,0,0,8.273,8.273h66.181a8.282,8.282,0,0,0,8.273-8.273V81.954A8.282,8.282,0,0,0,102.953,73.682ZM57.772,70.5a3.191,3.191,0,0,1,3.187-3.187H78.767A3.19,3.19,0,0,1,81.954,70.5v3.177H57.772Zm49.636,54.721a4.46,4.46,0,0,1-4.454,4.454H36.773a4.46,4.46,0,0,1-4.454-4.454V110.55a8.215,8.215,0,0,0,4.454,1.313H56.5v3.182a1.909,1.909,0,0,0,1.909,1.909H81.317a1.909,1.909,0,0,0,1.909-1.909v-3.181h19.727a8.214,8.214,0,0,0,4.454-1.313Zm-47.09-12.091v-6.364H79.408v6.364Zm47.09-9.545a4.46,4.46,0,0,1-4.454,4.454H83.226v-3.182a1.909,1.909,0,0,0-1.909-1.909H58.409a1.909,1.909,0,0,0-1.909,1.909v3.181H36.773a4.46,4.46,0,0,1-4.454-4.454V81.954A4.46,4.46,0,0,1,36.773,77.5h66.181a4.46,4.46,0,0,1,4.454,4.454Z" transform="translate(-28.5 -63.5)"></path>
                                      </g>
                                    </g>
                                </svg>