<svg xmlns="http://www.w3.org/2000/svg" width="588.965" height="532" viewBox="0 0 588.965 532">
  <g class="Group_38237" data-name="Group 38237" transform="translate(-250 -2582)">
    <g id="_60a54031bb938bea13e399d9_image-2-home-advantage-marketing-template" data-name="60a54031bb938bea13e399d9_image-2-home-advantage-marketing-template" transform="translate(250 2582)">
      <g class="Group_37949" data-name="Group 37949">
        <path id="Path_2302" data-name="Path 2302" d="M431.462,32H46.918A20.918,20.918,0,0,0,26,52.918V295.172A20.919,20.919,0,0,0,46.918,316.09H431.462a20.919,20.919,0,0,0,20.919-20.918V52.918A20.919,20.919,0,0,0,431.462,32Z" transform="translate(-26 -32)" fill="rgba(255,255,255,0.01)"/>
      </g>
      <path id="Path_2303" data-name="Path 2303" d="M431.462,32H46.918A20.918,20.918,0,0,0,26,52.918V295.172A20.919,20.919,0,0,0,46.918,316.09H431.462a20.919,20.919,0,0,0,20.919-20.918V52.918A20.919,20.919,0,0,0,431.462,32Z" transform="translate(-26 -32)" fill="#faf3ed"/>
      <path id="Path_2304" data-name="Path 2304" d="M420.947,41.551H59.493a21,21,0,0,0-21,21V285.506a21,21,0,0,0,21,21H420.947a21,21,0,0,0,21-21V62.551A21,21,0,0,0,420.947,41.551Z" transform="translate(-26 -32)" fill="#f5f7fc"/>
      <g class="Group_37950" data-name="Group 37950" transform="translate(128.648 26.921)">
        <path id="Path_2305" data-name="Path 2305" d="M412.61,58.921H176.086a21.438,21.438,0,0,0-21.438,21.438v70.3A21.438,21.438,0,0,0,176.086,172.1H412.61a21.438,21.438,0,0,0,21.438-21.437v-70.3A21.438,21.438,0,0,0,412.61,58.921Z" transform="translate(-154.648 -58.921)" fill="rgba(255,255,255,0.01)"/>
      </g>
      <path id="Path_2306" data-name="Path 2306" d="M412.61,58.921H176.086a21.438,21.438,0,0,0-21.438,21.438v70.3A21.438,21.438,0,0,0,176.086,172.1H412.61a21.438,21.438,0,0,0,21.438-21.437v-70.3A21.438,21.438,0,0,0,412.61,58.921Z" transform="translate(-26 -32)" fill="#fff"/>
      <g class="Group_37951" data-name="Group 37951" transform="translate(142.702 111.803)">
        <path id="Path_2307" data-name="Path 2307" d="M178.667,143.8h-4.606a5.359,5.359,0,0,0-5.359,5.359v6.258a5.359,5.359,0,0,0,5.359,5.359h4.606a5.359,5.359,0,0,0,5.359-5.359v-6.258A5.359,5.359,0,0,0,178.667,143.8Z" transform="translate(-168.702 -143.803)" fill="rgba(63,207,253,0.01)"/>
      </g>
      <path id="Path_2308" data-name="Path 2308" d="M178.667,143.8h-4.606a5.359,5.359,0,0,0-5.359,5.359v6.258a5.359,5.359,0,0,0,5.359,5.359h4.606a5.359,5.359,0,0,0,5.359-5.359v-6.258A5.359,5.359,0,0,0,178.667,143.8Z" transform="translate(-26 -32)" fill="#e53637" opacity="0.25"/>
      <g class="Group_37952" data-name="Group 37952" transform="translate(231.582 111.803)">
        <path id="Path_2309" data-name="Path 2309" d="M267.547,143.8h-4.606a5.359,5.359,0,0,0-5.359,5.359v6.258a5.359,5.359,0,0,0,5.359,5.359h4.606a5.359,5.359,0,0,0,5.359-5.359v-6.258A5.359,5.359,0,0,0,267.547,143.8Z" transform="translate(-257.582 -143.803)" fill="rgba(63,128,253,0.01)"/>
      </g>
      <path id="Path_2310" data-name="Path 2310" d="M267.547,143.8h-4.606a5.359,5.359,0,0,0-5.359,5.359v6.258a5.359,5.359,0,0,0,5.359,5.359h4.606a5.359,5.359,0,0,0,5.359-5.359v-6.258A5.359,5.359,0,0,0,267.547,143.8Z" transform="translate(-26 -32)" fill="#ee8d5a"/>
      <path id="Path_2311" data-name="Path 2311" d="M235.8,148.331H193.55a3.4,3.4,0,0,0,0,6.791H235.8a3.4,3.4,0,0,0,0-6.791Z" transform="translate(-26 -32)" fill="#e7e8f1"/>
      <path id="Path_2312" data-name="Path 2312" d="M324.677,148.331H282.43a3.4,3.4,0,0,0,0,6.791h42.247a3.4,3.4,0,0,0,0-6.791Z" transform="translate(-26 -32)" fill="#e7e8f1"/>
      <g class="Group_37953" data-name="Group 37953" transform="translate(145.752 45.03)">
        <path id="Path_2313" data-name="Path 2313" d="M171.752,129.091c53.058,0,55.794-41.115,95.586-44.052s53.058,24.6,95.262,24.6S390.895,77.03,416.863,77.03" transform="translate(-171.752 -77.03)" fill="none" stroke="rgba(63,128,253,0.01)" stroke-linecap="round" stroke-width="5.359"/>
      </g>
      <path id="Path_2314" data-name="Path 2314" d="M171.752,129.091c53.058,0,55.794-41.115,95.586-44.052s53.058,24.6,95.262,24.6S390.895,77.03,416.863,77.03" transform="translate(-26 -32)" fill="none" stroke="#ee8d5a" stroke-linecap="round" stroke-width="5.359"/>
      <g class="Group_37954" data-name="Group 37954" transform="translate(145.752 54.083)">
        <path id="Path_2315" data-name="Path 2315" d="M171.752,129.09c53.007,0,45.169-26.138,98.808-13.069S316.873,90.389,348.2,86.473,388.918,109.5,417.831,106.7" transform="translate(-171.752 -86.083)" fill="none" stroke="rgba(63,207,253,0.01)" stroke-linecap="round" stroke-width="5.359"/>
      </g>
      <path id="Path_2316" data-name="Path 2316" d="M171.752,129.09c53.007,0,45.169-26.138,98.808-13.069S316.873,90.389,348.2,86.473,388.918,109.5,417.831,106.7" transform="translate(-26 -32)" fill="none" stroke="#e53637" stroke-linecap="round" stroke-width="5.359" opacity="0.25"/>
      <g class="Group_37955" data-name="Group 37955" transform="translate(102.113 156.85)">
        <path id="Path_2317" data-name="Path 2317" d="M128.113,196.172v79.752a7.321,7.321,0,0,0,7.321,7.321H324.415a7.321,7.321,0,0,0,7.321-7.321V196.172a7.322,7.322,0,0,0-7.321-7.322H135.434A7.322,7.322,0,0,0,128.113,196.172Z" transform="translate(-128.113 -188.85)" fill="rgba(255,255,255,0.01)"/>
      </g>
      <path id="Path_2318" data-name="Path 2318" d="M128.113,196.172v79.752a7.321,7.321,0,0,0,7.321,7.321H324.415a7.321,7.321,0,0,0,7.321-7.321V196.172a7.322,7.322,0,0,0-7.321-7.322H135.434A7.322,7.322,0,0,0,128.113,196.172Z" transform="translate(-26 -32)" fill="#fff"/>
      <path id="Path_2319" data-name="Path 2319" d="M154,224.663v40.216a4.662,4.662,0,1,0,9.325,0V224.663a4.662,4.662,0,1,0-9.325,0Z" transform="translate(-26 -32)" fill="#d9dbe9"/>
      <path id="Path_2320" data-name="Path 2320" d="M235.97,238.364v27.944a3.665,3.665,0,0,0,7.33,0V238.364a3.665,3.665,0,0,0-7.33,0Z" transform="translate(-26 -32)" fill="#d9dbe9" opacity="0.8"/>
      <path id="Path_2321" data-name="Path 2321" d="M183.056,238.364v27.944a3.665,3.665,0,0,0,7.33,0V238.364a3.665,3.665,0,0,0-7.33,0Z" transform="translate(-26 -32)" fill="#d9dbe9" opacity="0.8"/>
      <g class="Group_37956" data-name="Group 37956" transform="translate(223.199 185.129)">
        <path id="Path_2322" data-name="Path 2322" d="M249.2,220.794v45.514a3.665,3.665,0,0,0,7.33,0V220.794a3.665,3.665,0,1,0-7.33,0Z" transform="translate(-249.199 -217.129)" fill="rgba(63,128,253,0.01)"/>
      </g>
      <path id="Path_2323" data-name="Path 2323" d="M249.2,220.794v45.514a3.665,3.665,0,0,0,7.33,0V220.794a3.665,3.665,0,1,0-7.33,0Z" transform="translate(-26 -32)" fill="#ee8d5a"/>
      <g class="Group_37957" data-name="Group 37957" transform="translate(170.284 185.129)">
        <path id="Path_2324" data-name="Path 2324" d="M196.284,220.794v45.514a3.665,3.665,0,0,0,7.33,0V220.794a3.665,3.665,0,1,0-7.33,0Z" transform="translate(-196.284 -217.129)" fill="rgba(63,128,253,0.01)"/>
      </g>
      <path id="Path_2325" data-name="Path 2325" d="M196.284,220.793v45.515a3.665,3.665,0,0,0,7.33,0V220.793a3.665,3.665,0,0,0-7.33,0Z" transform="translate(-26 -32)" fill="#ee8d5a"/>
      <path id="Path_2326" data-name="Path 2326" d="M262.428,224.1v42.212a3.665,3.665,0,0,0,7.33,0V224.1a3.665,3.665,0,1,0-7.33,0Z" transform="translate(-26 -32)" fill="#d9dbe9" opacity="0.8"/>
      <path id="Path_2327" data-name="Path 2327" d="M209.513,224.1v42.212a3.665,3.665,0,0,0,7.33,0V224.1a3.665,3.665,0,0,0-7.33,0Z" transform="translate(-26 -32)" fill="#d9dbe9" opacity="0.8"/>
      <g class="Group_37958" data-name="Group 37958" transform="translate(249.656 202.699)">
        <path id="Path_2328" data-name="Path 2328" d="M275.656,238.364v27.944a3.665,3.665,0,0,0,7.33,0V238.364a3.665,3.665,0,1,0-7.33,0Z" transform="translate(-275.656 -234.699)" fill="rgba(63,128,253,0.01)"/>
      </g>
      <path id="Path_2329" data-name="Path 2329" d="M275.656,238.364v27.944a3.665,3.665,0,0,0,7.33,0V238.364a3.665,3.665,0,1,0-7.33,0Z" transform="translate(-26 -32)" fill="#ee8d5a"/>
      <g class="Group_37959" data-name="Group 37959" transform="translate(196.742 202.699)">
        <path id="Path_2330" data-name="Path 2330" d="M222.742,238.364v27.944a3.665,3.665,0,0,0,7.33,0V238.364a3.665,3.665,0,0,0-7.33,0Z" transform="translate(-222.742 -234.699)" fill="rgba(63,128,253,0.01)"/>
      </g>
      <path id="Path_2331" data-name="Path 2331" d="M222.742,238.364v27.944a3.665,3.665,0,0,0,7.33,0V238.364a3.665,3.665,0,0,0-7.33,0Z" transform="translate(-26 -32)" fill="#ee8d5a"/>
      <g class="Group_37960" data-name="Group 37960" transform="translate(143.827 202.699)">
        <path id="Path_2332" data-name="Path 2332" d="M169.827,238.364v27.944a3.665,3.665,0,0,0,7.33,0V238.364a3.665,3.665,0,0,0-7.33,0Z" transform="translate(-169.827 -234.699)" fill="rgba(63,128,253,0.01)"/>
      </g>
      <path id="Path_2333" data-name="Path 2333" d="M169.827,238.364v27.944a3.665,3.665,0,0,0,7.33,0V238.364a3.665,3.665,0,0,0-7.33,0Z" transform="translate(-26 -32)" fill="#ee8d5a"/>
      <g class="Group_37961" data-name="Group 37961" transform="translate(114 202.699)">
        <path id="Path_2334" data-name="Path 2334" d="M140,238.364v27.944a3.665,3.665,0,0,0,7.33,0V238.364a3.665,3.665,0,0,0-7.33,0Z" transform="translate(-140 -234.699)" fill="rgba(63,128,253,0.01)"/>
      </g>
      <path id="Path_2335" data-name="Path 2335" d="M140,238.364v27.944a3.665,3.665,0,0,0,7.33,0V238.364a3.665,3.665,0,0,0-7.33,0Z" transform="translate(-26 -32)" fill="#ee8d5a"/>
      <path id="Path_2336" data-name="Path 2336" d="M288.885,220.794v45.514a3.665,3.665,0,0,0,7.33,0V220.794a3.665,3.665,0,1,0-7.33,0Z" transform="translate(-26 -32)" fill="#d9dbe9" opacity="0.8"/>
      <g class="Group_37962" data-name="Group 37962" transform="translate(276.114 199.065)">
        <path id="Path_2337" data-name="Path 2337" d="M302.114,234.73v31.578a3.665,3.665,0,0,0,7.33,0V234.73a3.665,3.665,0,1,0-7.33,0Z" transform="translate(-302.114 -231.065)" fill="rgba(63,128,253,0.01)"/>
      </g>
      <path id="Path_2338" data-name="Path 2338" d="M302.114,234.73v31.578a3.665,3.665,0,0,0,7.33,0V234.73a3.665,3.665,0,1,0-7.33,0Z" transform="translate(-26 -32)" fill="#ee8d5a"/>
      <path id="Path_2339" data-name="Path 2339" d="M315.342,213.5v52.808a3.665,3.665,0,0,0,7.33,0V213.5a3.665,3.665,0,1,0-7.33,0Z" transform="translate(-26 -32)" fill="#d9dbe9" opacity="0.8"/>
      <g class="Group_37963" data-name="Group 37963" transform="translate(320.019 156.705)">
        <path id="Path_2340" data-name="Path 2340" d="M420.291,188.705H360.023a14,14,0,0,0-14,14v67.223a14,14,0,0,0,14,14h60.268a14,14,0,0,0,14-14V202.709A14,14,0,0,0,420.291,188.705Z" transform="translate(-346.019 -188.705)" fill="rgba(255,255,255,0.01)"/>
      </g>
      <path id="Path_2341" data-name="Path 2341" d="M420.291,188.705H360.023a14,14,0,0,0-14,14v67.223a14,14,0,0,0,14,14h60.268a14,14,0,0,0,14-14V202.709A14,14,0,0,0,420.291,188.705Z" transform="translate(-26 -32)" fill="#fff"/>
      <path id="Path_2342" data-name="Path 2342" d="M384.162,272.947a34.525,34.525,0,1,1,40-28A34.525,34.525,0,0,1,384.162,272.947Zm9.3-52.766a19.055,19.055,0,1,0,15.456,22.075A19.056,19.056,0,0,0,393.466,220.181Z" transform="translate(-26 -32)" fill="#f5f7fc"/>
      <g class="Group_37964" data-name="Group 37964" transform="translate(353.005 215.286)">
        <path id="Path_2343" data-name="Path 2343" d="M416.132,247.286a27.279,27.279,0,0,1-37.127,16.558" transform="translate(-379.005 -247.286)" fill="none" stroke="rgba(63,207,253,0.01)" stroke-linecap="round" stroke-width="14.488"/>
      </g>
      <path id="Path_2344" data-name="Path 2344" d="M416.132,247.286a27.279,27.279,0,0,1-37.127,16.558" transform="translate(-26 -32)" fill="none" stroke="#3fcffd" stroke-linecap="round" stroke-width="14.488"/>
      <g class="Group_37965" data-name="Group 37965" transform="translate(383.751 187.965)">
        <path id="Path_2345" data-name="Path 2345" d="M409.751,219.965a27.281,27.281,0,0,1,.315,37.634" transform="translate(-409.751 -219.965)" fill="none" stroke="rgba(106,53,255,0.01)" stroke-linecap="round" stroke-width="14.488"/>
      </g>
      <path id="Path_2346" data-name="Path 2346" d="M409.751,219.965a27.281,27.281,0,0,1,.315,37.634" transform="translate(-26 -32)" fill="none" stroke="#e53637" stroke-linecap="round" stroke-width="14.488"/>
      <g class="Group_37966" data-name="Group 37966" transform="translate(336.875 179.666)">
        <path id="Path_2347" data-name="Path 2347" d="M362.883,239.588A27.281,27.281,0,0,1,408,218.313" transform="translate(-362.875 -211.666)" fill="none" stroke="rgba(63,128,253,0.01)" stroke-linecap="round" stroke-width="14.488"/>
      </g>
      <path id="Path_2348" data-name="Path 2348" d="M362.883,239.588A27.281,27.281,0,0,1,408,218.313" transform="translate(-26 -32)" fill="none" stroke="#ee8d5a" stroke-linecap="round" stroke-width="14.488"/>
      <path id="Path_2349" data-name="Path 2349" d="M70.015,196.249c2.573-.267,5.145-.338,7.7-.352a70.831,70.831,0,0,1,7.7.352,70.776,70.776,0,0,1-7.7.351A74.5,74.5,0,0,1,70.015,196.249Z" transform="translate(-26 -32)" fill="#fff"/>
      <path id="Path_2350" data-name="Path 2350" d="M175.418,96.553c2.615-.267,5.244-.337,7.873-.351a77.822,77.822,0,0,1,7.872.351,77.822,77.822,0,0,1-7.872.351A77.453,77.453,0,0,1,175.418,96.553Z" transform="translate(-26 -32)" fill="#fff"/>
      <g class="Group_37967" data-name="Group 37967" transform="translate(19.77 27.344)">
        <path id="Path_2351" data-name="Path 2351" d="M129.56,59.344H60.209a14.44,14.44,0,0,0-14.44,14.44v164.3a14.44,14.44,0,0,0,14.44,14.44h69.35A14.44,14.44,0,0,0,144,238.084V73.784A14.44,14.44,0,0,0,129.56,59.344Z" transform="translate(-45.77 -59.344)" fill="rgba(255,255,255,0.01)"/>
      </g>
      <path id="Path_2352" data-name="Path 2352" d="M129.56,59.344H60.209a14.44,14.44,0,0,0-14.44,14.44v164.3a14.44,14.44,0,0,0,14.44,14.44h69.35A14.44,14.44,0,0,0,144,238.084V73.784A14.44,14.44,0,0,0,129.56,59.344Z" transform="translate(-26 -32)" fill="#fff"/>
      <g class="Group_37968" data-name="Group 37968" transform="translate(27.28 49.928)">
        <path id="Path_2353" data-name="Path 2353" d="M53.28,88.3a6.372,6.372,0,1,1,12.744,0v.2a6.372,6.372,0,1,1-12.744,0Z" transform="translate(-53.28 -81.928)" fill="rgba(106,53,255,0.01)"/>
      </g>
      <path id="Path_2354" data-name="Path 2354" d="M53.28,88.3a6.372,6.372,0,1,1,12.744,0v.2a6.372,6.372,0,1,1-12.744,0Z" transform="translate(-26 -32)" fill="#ee8d5a"/>
      <g class="Group_37969" data-name="Group 37969" transform="translate(27.279 67.844)">
        <path id="Path_2355" data-name="Path 2355" d="M53.279,106.216a6.372,6.372,0,1,1,12.744,0v.2a6.372,6.372,0,1,1-12.744,0Z" transform="translate(-53.279 -99.844)" fill="rgba(106,53,255,0.01)"/>
      </g>
      <path id="Path_2356" data-name="Path 2356" d="M53.279,106.216a6.372,6.372,0,1,1,12.744,0v.2a6.372,6.372,0,1,1-12.744,0Z" transform="translate(-26 -32)" fill="#ee8d5a"/>
      <g class="Group_37970" data-name="Group 37970" transform="translate(27.279 85.049)">
        <path id="Path_2357" data-name="Path 2357" d="M53.279,123.421a6.372,6.372,0,1,1,12.744,0v.2a6.372,6.372,0,1,1-12.744,0Z" transform="translate(-53.279 -117.049)" fill="rgba(106,53,255,0.01)"/>
      </g>
      <path id="Path_2358" data-name="Path 2358" d="M53.279,123.421a6.372,6.372,0,1,1,12.744,0v.2a6.372,6.372,0,1,1-12.744,0Z" transform="translate(-26 -32)" fill="#ee8d5a"/>
      <path id="Path_2359" data-name="Path 2359" d="M53.279,140.766a6.372,6.372,0,1,1,12.744,0v.2a6.372,6.372,0,1,1-12.744,0Z" transform="translate(-26 -32)" fill="#eff0f7"/>
      <path id="Path_2360" data-name="Path 2360" d="M53,175.176a6.372,6.372,0,1,1,12.744,0v.2a6.372,6.372,0,1,1-12.744,0Z" transform="translate(-26 -32)" fill="#eff0f7"/>
      <path id="Path_2361" data-name="Path 2361" d="M53.279,157.97a6.372,6.372,0,0,1,12.744,0v.2a6.372,6.372,0,1,1-12.744,0Z" transform="translate(-26 -32)" fill="#eff0f7"/>
      <path id="Path_2362" data-name="Path 2362" d="M53,192.381a6.372,6.372,0,1,1,12.744,0v.2a6.372,6.372,0,1,1-12.744,0Z" transform="translate(-26 -32)" fill="#eff0f7"/>
      <path id="Path_2363" data-name="Path 2363" d="M94.583,85.557H73.133a2.842,2.842,0,1,0,0,5.684h21.45a2.842,2.842,0,1,0,0-5.684Z" transform="translate(-26 -32)" fill="#d9dbe9" opacity="0.7"/>
      <path id="Path_2364" data-name="Path 2364" d="M129.132,103.473H73.481a2.842,2.842,0,0,0,0,5.684h55.651a2.842,2.842,0,0,0,0-5.684Z" transform="translate(-26 -32)" fill="#d9dbe9" opacity="0.7"/>
      <path id="Path_2365" data-name="Path 2365" d="M107.1,121.716H73.133a2.842,2.842,0,1,0,0,5.684H107.1a2.842,2.842,0,1,0,0-5.684Z" transform="translate(-26 -32)" fill="#d9dbe9" opacity="0.7"/>
      <path id="Path_2366" data-name="Path 2366" d="M118.357,138.023H73.133a2.842,2.842,0,1,0,0,5.684h45.224a2.842,2.842,0,0,0,0-5.684Z" transform="translate(-26 -32)" fill="#d9dbe9" opacity="0.7"/>
      <path id="Path_2367" data-name="Path 2367" d="M118.011,172.433H72.787a2.842,2.842,0,1,0,0,5.684h45.224a2.842,2.842,0,0,0,0-5.684Z" transform="translate(-26 -32)" fill="#d9dbe9" opacity="0.7"/>
      <path id="Path_2368" data-name="Path 2368" d="M129.133,155.228h-56a2.842,2.842,0,1,0,0,5.684h56a2.842,2.842,0,1,0,0-5.684Z" transform="translate(-26 -32)" fill="#d9dbe9" opacity="0.7"/>
      <path id="Path_2369" data-name="Path 2369" d="M128.787,189.638h-56a2.842,2.842,0,1,0,0,5.684h56a2.842,2.842,0,0,0,0-5.684Z" transform="translate(-26 -32)" fill="#d9dbe9" opacity="0.7"/>
    </g>
    <g id="_6062862ca2202e29ac23c463_image-1-home-advantage-marketing-template" data-name="6062862ca2202e29ac23c463_image-1-home-advantage-marketing-template" transform="translate(272 2680.132)">
      <path id="Path_2191" data-name="Path 2191" d="M347.367,336.524h-30V341.8h30Z" transform="translate(-1.688 -0.006)" fill="#4e4b66"/>
      <path id="Path_2192" data-name="Path 2192" d="M363.631,413.7H360.4L333.97,290.358l-1.5-7.028-4.752-22.141-1.757-8.266-6.649-30.983-2.32-10.838H328.53L330.4,221.94l1.237,7.127.83,4.738,4.737,27.384,1.518,8.8Z" transform="translate(-1.719 -0.006)" fill="#4e4b66"/>
      <path id="Path_2193" data-name="Path 2193" d="M328.53,211.1,330.4,221.94H319.308l-2.32-10.838Z" transform="translate(-1.656 -0.006)" fill="#14142b"/>
      <path id="Path_2194" data-name="Path 2194" d="M338.721,269.989l-4.751,20.369-1.5-7.028-4.752-22.141-1.757-8.266,5.679-23.856.83,4.738,4.737,27.384Z" transform="translate(-1.683 -0.006)" fill="#14142b"/>
      <path id="Path_2195" data-name="Path 2195" d="M347.929,211.1,345.61,221.94,337.2,261.189l-4.737,22.141L304.519,413.7H301.3l26.414-152.511,4.752-27.384,2.052-11.865L336.4,211.1Z" transform="translate(-1.667 -0.006)" fill="#4e4b66"/>
      <path id="Path_2196" data-name="Path 2196" d="M347.929,211.1,345.61,221.94H334.518L336.4,211.1Z" transform="translate(-1.711 -0.006)" fill="#14142b"/>
      <path id="Path_2197" data-name="Path 2197" d="M547.821,336.524h-30V341.8h30Z" transform="translate(-2.399 -0.006)" fill="#4e4b66"/>
      <path id="Path_2198" data-name="Path 2198" d="M564.085,413.7h-3.233L534.424,290.358l-1.5-7.028-4.752-22.141-1.757-8.266-6.649-30.983-2.32-10.838h11.541l1.87,10.838,1.237,7.127.83,4.738,4.737,27.384,1.518,8.8Z" transform="translate(-2.399 -0.006)" fill="#4e4b66"/>
      <path id="Path_2199" data-name="Path 2199" d="M528.983,211.1l1.87,10.838H519.762l-2.32-10.838Z" transform="translate(-2.399 -0.006)" fill="#14142b"/>
      <path id="Path_2200" data-name="Path 2200" d="M539.175,269.989l-4.751,20.369-1.5-7.028-4.752-22.141-1.757-8.266,5.679-23.856.83,4.738,4.737,27.384Z" transform="translate(-2.399 -0.006)" fill="#14142b"/>
      <path id="Path_2201" data-name="Path 2201" d="M548.383,211.1l-2.32,10.838-8.406,39.249L532.92,283.33,504.987,413.7h-3.233l26.414-152.511L532.92,233.8l2.052-11.865,1.884-10.838Z" transform="translate(-2.399 -0.006)" fill="#4e4b66"/>
      <path id="Path_2202" data-name="Path 2202" d="M548.383,211.1l-2.32,10.838H534.972l1.884-10.838Z" transform="translate(-2.399 -0.006)" fill="#14142b"/>
      <path id="Path_2203" data-name="Path 2203" d="M566.364,196.257H288.583a3,3,0,0,0-3,3V208.1a3,3,0,0,0,3,3H566.364a3,3,0,0,0,3-3v-8.845A3,3,0,0,0,566.364,196.257Z" transform="translate(-2.399 -0.006)" fill="#4e4b66"/>
      <path id="Path_2204" data-name="Path 2204" d="M355.112,196.257H283.436a3.139,3.139,0,0,1-3.118-2.783l-5.049-44.318a3.138,3.138,0,0,1,3.118-3.493h68.161a3.139,3.139,0,0,1,3.118,2.783Z" transform="translate(-1.643 -0.006)" fill="#d9dbe9"/>
      <path id="Path_2205" data-name="Path 2205" d="M351.064,192.854H286.711a3.137,3.137,0,0,1-3.117-2.782l-4.674-41.021h67.153Z" transform="translate(-1.64 -0.006)" fill="#fff"/>
      <path id="Path_2206" data-name="Path 2206" d="M376.972,192.854H281.155v3.388h95.817Z" transform="translate(-1.697 -0.006)" fill="#d9dbe9"/>
      <path id="Path_2207" data-name="Path 2207" d="M397.777,192.854H301.96v3.388h95.817Z" transform="translate(-1.773 -0.006)" fill="#eff0f7"/>
      <path id="Path_2208" data-name="Path 2208" d="M346.312,151.188l-.239-2.137H278.92l.253,2.137Z" transform="translate(-1.631 -0.006)" fill="#fff"/>
      <path id="Path_2209" data-name="Path 2209" d="M448.081,155.725l1.42,2.2,1.527,2.413c.993,1.618,1.955,3.268,2.917,4.932,1.894,3.33,3.727,6.705,5.422,10.126a139.622,139.622,0,0,1,8.537,20.938c.55,1.771,1.038,3.543,1.527,5.314l.626,2.673.26,1.328.137.672a.993.993,0,0,0,.092.443c0-.061.122,0,.275-.4a2.258,2.258,0,0,1,.733-.885c.259-.153.305,0,.168.137a4.589,4.589,0,0,1-1.054.718,17.11,17.11,0,0,1-4.108,1.4,50.027,50.027,0,0,1-5.238.931c-3.635.474-7.636.7-11.393.9h-.382a5.361,5.361,0,0,0-1.527,10.4,66.089,66.089,0,0,0,13.011,3.222,40.129,40.129,0,0,0,14.936-.382,21.507,21.507,0,0,0,4.582-1.7,17.676,17.676,0,0,0,4.918-3.7,16.139,16.139,0,0,0,3.573-6.261,18.106,18.106,0,0,0,.626-6.476,3.327,3.327,0,0,0-.091-1.084l-.107-.84-.2-1.71c-.168-1.115-.32-2.245-.5-3.36-.381-2.23-.809-4.444-1.344-6.613a133.606,133.606,0,0,0-8.766-24.939c-1.848-3.94-3.818-7.819-5.971-11.591-1.069-1.894-2.2-3.757-3.36-5.6-.58-.932-1.176-1.848-1.8-2.78s-1.206-1.771-2-2.871a10.69,10.69,0,0,0-17.669,12Z" transform="translate(-2.399 -0.006)" fill="#fff"/>
      <path id="Path_2210" data-name="Path 2210" d="M407.244,94.088c-.153,1.038-.825,1.787-1.527,1.7s-1.1-1.023-.947-2.046.825-1.787,1.527-1.7S407.4,93.065,407.244,94.088Z" transform="translate(-1.905 -0.006)" fill="#14142b"/>
      <path id="Path_2211" data-name="Path 2211" d="M406.51,95.89c-1.7,2.966-6.441,7.222-6.231,8.079s1.382,1.069,2.208,1.354a5.974,5.974,0,0,0,2.572.295Z" transform="translate(-1.899 -0.006)" fill="#ff97b8"/>
      <path id="Path_2212" data-name="Path 2212" d="M411.749,88.926a.5.5,0,0,1-.336-.168,4.812,4.812,0,0,0-4.185-1.42.627.627,0,0,1-.733-.473.611.611,0,0,1,.474-.718,6.017,6.017,0,0,1,5.3,1.741.626.626,0,0,1,0,.87.641.641,0,0,1-.519.168Z" transform="translate(-1.918 -0.006)" fill="#14142b"/>
      <path id="Path_2213" data-name="Path 2213" d="M437.5,105.466c-.443,9.621.29,27,7.758,32.269,0,0-1.146,9.851-18.51,12.447-19.074,2.84-10.537-8.125-10.537-8.125,10.049-4.032,8.628-11.729,5.727-18.708Z" transform="translate(-2.001 -0.006)" fill="#ffd5bd"/>
      <path id="Path_2214" data-name="Path 2214" d="M448.249,141.584c.748-4.353,1.527-9.316-1.757-10.08-3.6-.84-22.266,1.65-28.161,6.109s-2.871,12.218-2.871,12.218Z" transform="translate(-2.01 -0.006)" fill="#fff"/>
      <path id="Path_2215" data-name="Path 2215" d="M397.928,157.8c-.7,15.394,0,45.922,10.446,92.135h69.059c.428-9.606-9.484-51.023-8.628-96.534a17.2,17.2,0,0,0-17.151-17.517,37.451,37.451,0,0,0-4.276.168,245.094,245.094,0,0,0-29.108,3.788c-2.871.657-5.666,1.42-8.2,2.2A17.287,17.287,0,0,0,397.928,157.8Z" transform="translate(-2.074 -0.006)" fill="#ee8d5a"/>
      <path id="Path_2216" data-name="Path 2216" d="M408.359,185.506c1.1,7.819,3.634,21.381-5.513,36.378-1.039-6.216-1.879-12.034-2.566-17.471Z" transform="translate(-1.906 -0.006)" fill="#14142b" opacity="0.2"/>
      <path id="Path_2217" data-name="Path 2217" d="M354.54,204.428l-11.622-4,4.734-12.218a14.738,14.738,0,0,1,11.744,9.576Z" transform="translate(-1.743 -0.006)" fill="#ffd5bd"/>
      <path id="Path_2218" data-name="Path 2218" d="M337.04,197.125c-.612-1.377-2.474-9.159-1.237-9.866s12.126,1.008,12.126,1.008l-4.735,12.263S337.652,198.5,337.04,197.125Z" transform="translate(-1.712 -0.006)" fill="#ffd5bd"/>
      <path id="Path_2219" data-name="Path 2219" d="M398,156.382c-.641,2.245-1.435,4.857-2.2,7.3s-1.527,4.948-2.413,7.407c-1.649,4.918-3.467,9.759-5.376,14.493a137.657,137.657,0,0,1-6.353,13.623,60.259,60.259,0,0,1-7.636,11.347l11.194-1.726c-2.153-.931-4.367-1.893-6.6-3.054s-4.505-2.2-6.75-3.421L365,198.731c-2.29-1.206-4.581-2.519-6.918-3.649l-.244-.123a5.406,5.406,0,0,0-6.735,8.094,81.782,81.782,0,0,0,5.467,6.491c1.909,2.062,3.91,4.017,5.987,5.941s4.276,3.741,6.567,5.482a82.779,82.779,0,0,0,7.3,4.979,8.829,8.829,0,0,0,10.6-1.176l.6-.565A71.781,71.781,0,0,0,399.3,209.437a131.192,131.192,0,0,0,8.171-15.5c2.4-5.238,4.459-10.553,6.338-15.9.931-2.673,1.832-5.36,2.642-8.064s1.527-5.36,2.306-8.353a10.693,10.693,0,1,0-20.663-5.514Z" transform="translate(-1.88 -0.006)" fill="#fff"/>
      <path id="Path_2220" data-name="Path 2220" d="M441.926,97.051c-2.672,12.523-3.589,19.991-10.95,25.534-11.072,8.339-25.825.214-26.955-12.874-1.008-11.775,3.513-30.284,16.647-33.476a17.486,17.486,0,0,1,21.258,20.816Z" transform="translate(-1.985 -0.006)" fill="#ffd5bd"/>
      <path id="Path_2221" data-name="Path 2221" d="M414.941,98.364c-5.987-.458-5.636-3.222-4.292-5.254s5-7.536,2.978-9.331-8.323,2.2-6.613-5.773,12.951-18.067,22.771-11.882C449.348,62.9,455.747,70.8,452.693,78.1c15.532,6.872,4.322,20.785-1.863,20.785,5.513,4.918-14.114,21.122-16.066,19.961S410.573,110.231,414.941,98.364Z" transform="translate(-2.034 -0.006)" fill="#14142b"/>
      <path id="Path_2222" data-name="Path 2222" d="M427.037,70.126a1.525,1.525,0,0,0,1.084-.473,18.449,18.449,0,0,1,17.746-4.841,1.523,1.523,0,0,0,.7-2.963,21.657,21.657,0,0,0-20.679,5.681,1.522,1.522,0,0,0,1.146,2.6Z" transform="translate(-2.015 -0.006)" fill="#14142b"/>
      <path id="Path_2223" data-name="Path 2223" d="M447.272,112.8a1.523,1.523,0,0,0,1.084-.443c4.307-4.337,6.109-7.727,5.559-10.69a6.932,6.932,0,0,0-4.337-4.948,1.53,1.53,0,1,0-1.314,2.764c1.6.764,2.459,1.649,2.642,2.7s-.427,3.7-4.719,8a1.528,1.528,0,0,0,.5,2.5A1.533,1.533,0,0,0,447.272,112.8Z" transform="translate(-2.044 -0.006)" fill="#14142b"/>
      <path id="Path_2224" data-name="Path 2224" d="M422.3,97.387a14.571,14.571,0,0,1-5.65,7.391c-3.5,2.306-5.865-.305-5.407-4.077.413-3.406,2.734-8.705,6.491-9.515S423.477,93.737,422.3,97.387Z" transform="translate(-1.944 -0.006)" fill="#ffd5bd"/>
      <path id="Path_2225" data-name="Path 2225" d="M302.89,420.3c-1.649,0-3.253-.229-3.787-.962a1.176,1.176,0,0,1,0-1.344,1.528,1.528,0,0,1,.962-.718c2.153-.58,6.659,1.986,6.857,2.108a.274.274,0,0,1,.138.3.312.312,0,0,1-.075.166.308.308,0,0,1-.155.094,24.2,24.2,0,0,1-3.94.351Zm-2.046-2.5a2.184,2.184,0,0,0-.58.076.916.916,0,0,0-.611.428c-.214.381-.138.565,0,.672.611.839,3.879.855,6.276.519a13.946,13.946,0,0,0-5.146-1.7Z" transform="translate(-1.592 -0.006)" fill="#3f80fd"/>
      <path id="Path_2226" data-name="Path 2226" d="M306.8,419.946h-.122c-1.528-.687-4.658-3.482-4.414-4.948,0-.336.29-.764,1.13-.855a2.269,2.269,0,0,1,1.695.519c1.65,1.359,2,4.841,2.016,4.979a.321.321,0,0,1-.033.155.314.314,0,0,1-.1.119.226.226,0,0,1-.168.031Zm-3.162-5.238h-.183c-.55,0-.58.275-.6.336-.138.885,1.954,3.054,3.558,4.031a7.191,7.191,0,0,0-1.71-3.985,1.645,1.645,0,0,0-1.07-.382Z" transform="translate(-1.596 -0.006)" fill="#3f80fd"/>
      <path id="Path_2227" data-name="Path 2227" d="M321.476,419.641h-12.92l2.459-29.9h12.92Z" transform="translate(-1.634 -0.006)" fill="#ffd5bd"/>
      <path id="Path_2228" data-name="Path 2228" d="M308.541,418.144h14.1a.947.947,0,0,1,.978.885l.839,11.424a2.2,2.2,0,0,1-.144.869,2.232,2.232,0,0,1-2.055,1.437c-5.07-.092-12.37-.382-18.769-.382-7.468,0-8.247.4-17.013.4-5.3,0-5.971-5.36-3.68-5.834,10.415-2.214,12.966-2.459,22.495-7.834a6.74,6.74,0,0,1,3.253-.962Z" transform="translate(-1.595 -0.006)" fill="#14142b"/>
      <path id="Path_2229" data-name="Path 2229" d="M311.03,389.753l-1.283,15.41h12.92l1.268-15.41Z" transform="translate(-1.635 -0.006)" fill="#14142b" opacity="0.2"/>
      <path id="Path_2230" data-name="Path 2230" d="M383.252,420.3a4.232,4.232,0,0,1-3.055-.84,1.3,1.3,0,0,1,0-1.527,1.438,1.438,0,0,1,.962-.7c1.879-.443,5.452,2,5.605,2.108a.315.315,0,0,1,.1.136.3.3,0,0,1,.019.169.274.274,0,0,1-.229.229,15.57,15.57,0,0,1-3.4.428Zm-1.619-2.459a1.524,1.524,0,0,0-.382,0,.824.824,0,0,0-.327.145.833.833,0,0,0-.238.267c-.275.5-.107.718,0,.779.55.733,3.192.733,5.116.413a9.92,9.92,0,0,0-4.078-1.6Z" transform="translate(-1.838 -0.006)" fill="#3f80fd"/>
      <path id="Path_2231" data-name="Path 2231" d="M386.581,419.946h-.138c-1.344-.733-3.924-3.559-3.65-4.994a1.01,1.01,0,0,1,.978-.81,1.669,1.669,0,0,1,1.3.4c1.527,1.221,1.817,4.948,1.817,5.1a.3.3,0,0,1-.027.165.225.225,0,0,1-.278.141Zm-2.6-5.238h-.138c-.4,0-.443.229-.458.3-.153.855,1.527,3.054,2.825,4a7.376,7.376,0,0,0-1.527-4.047,1.094,1.094,0,0,0-.7-.259Z" transform="translate(-1.841 -0.006)" fill="#3f80fd"/>
      <path id="Path_2232" data-name="Path 2232" d="M398.4,419.641H385.5l-6.49-29.9h12.9Z" transform="translate(-1.862 -0.006)" fill="#ffd5bd"/>
      <path id="Path_2233" data-name="Path 2233" d="M384.58,418.144h14.493a1.112,1.112,0,0,1,1.1.885l2.551,11.424a1.894,1.894,0,0,1-1.879,2.306c-5.07-.092-7.529-.382-13.912-.382-3.925,0-8.95.4-14.371.4s-6.109-5.36-3.91-5.834c9.942-2.184,10.69-5.177,13.821-8.048A3.142,3.142,0,0,1,384.58,418.144Z" transform="translate(-1.86 -0.006)" fill="#14142b"/>
      <path id="Path_2234" data-name="Path 2234" d="M429.067,249.938s-71.625,21.732-73.4,50.5c-3.253,52.993,22.74,98.152,22.74,98.152h19.365s-7.361-22.388-10-70.388c-3.314-60.324,110.752,1.4,89.661-78.269Z" transform="translate(-2.052 -0.006)" fill="#14142b"/>
      <g class="Group_37946" data-name="Group 37946" transform="translate(377.151 389.747)" opacity="0.2">
        <path id="Path_2235" data-name="Path 2235" d="M391.926,389.753h-12.92l3.344,15.41h12.921Z" transform="translate(-379.006 -389.753)" fill="#14142b" opacity="0.2"/>
      </g>
      <path id="Path_2236" data-name="Path 2236" d="M408.374,249.938s-92.625,6.109-96.29,55.269c-4.2,56.507-5.422,93.388-5.422,93.388h19.182s9.866-34.652,18.326-84.469c2.551-14.92,34.194-17.486,64.143-19.258,25.809-1.527,45.632-3.054,47.8-31.643l-.336-13.287Z" transform="translate(-1.933 -0.006)" fill="#14142b"/>
      <path id="Path_2237" data-name="Path 2237" d="M301.975,393.464c-.107,0,1.237,9.164,1.237,9.164H329.8l.718-8.11Z" transform="translate(-1.636 -0.006)" fill="#3f80fd"/>
      <path id="Path_2238" data-name="Path 2238" d="M372.561,393.464c-.107,0,2.443,9.164,2.443,9.164h26.573l-.488-8.11Z" transform="translate(-1.862 -0.006)" fill="#3f80fd"/>
      <path id="Path_2239" data-name="Path 2239" d="M412.543,290.806l12.966-88.073a10.035,10.035,0,0,1,9.927-8.583h76.5a10.034,10.034,0,0,1,9.927,11.5l-12.523,85.156a7.454,7.454,0,0,1-7.468,7.453H362.42a7.454,7.454,0,0,1,7.468-7.453Z" transform="translate(-2.399 -0.006)" fill="#3f80fd"/>
      <path id="Path_2240" data-name="Path 2240" d="M412.543,290.806l12.966-88.073a10.035,10.035,0,0,1,9.927-8.583h76.5a10.034,10.034,0,0,1,9.927,11.5l-12.523,85.156a7.454,7.454,0,0,1-7.468,7.453H362.42a7.454,7.454,0,0,1,7.468-7.453Z" transform="translate(-2.399 -0.006)" fill="#fff" opacity="0.5"/>
      <path id="Path_2241" data-name="Path 2241" d="M435.436,194.15h76.5a10.034,10.034,0,0,1,9.927,11.5l-12.523,85.156a7.454,7.454,0,0,1-7.468,7.453h-81.11Z" transform="translate(-2.399 -0.006)" fill="#3f80fd" opacity="0.3"/>
      <path id="Path_2242" data-name="Path 2242" d="M508.359,433.874h4.322L501.869,298.259h-4.338Z" transform="translate(-2.399 -0.006)" fill="#3f80fd"/>
      <path id="Path_2243" data-name="Path 2243" d="M508.359,433.874h4.322L501.869,298.259h-4.338Z" transform="translate(-2.399 -0.006)" fill="#fff" opacity="0.6"/>
      <path id="Path_2244" data-name="Path 2244" d="M434.825,433.874h4.322L428.319,298.259H424Z" transform="translate(-1.993 -0.006)" fill="#3f80fd"/>
      <path id="Path_2245" data-name="Path 2245" d="M434.825,433.874h4.322L428.319,298.259H424Z" transform="translate(-1.993 -0.006)" fill="#fff" opacity="0.6"/>
      <path id="Path_2246" data-name="Path 2246" d="M428.166,433.874H432.5l10.813-135.615h-4.322Z" transform="translate(-2.006 -0.006)" fill="#3f80fd"/>
      <path id="Path_2247" data-name="Path 2247" d="M428.166,433.874H432.5l10.813-135.615h-4.322Z" transform="translate(-2.006 -0.006)" fill="#fff" opacity="0.7"/>
      <path id="Path_2248" data-name="Path 2248" d="M354.632,433.874h4.322l10.827-135.615H365.46Z" transform="translate(-1.777 -0.006)" fill="#3f80fd"/>
      <path id="Path_2249" data-name="Path 2249" d="M354.632,433.874h4.322l10.827-135.615H365.46Z" transform="translate(-1.777 -0.006)" fill="#fff" opacity="0.7"/>
      <path id="Path_2250" data-name="Path 2250" d="M103.61,1.519S123.646-7.268,129.527,17.5c4.766,19.949,15.236,23.305,14.783,27.42s-35.419,13.681-55.168-2.361Z" transform="translate(-0.971 -0.006)" fill="#14142b"/>
      <path id="Path_2251" data-name="Path 2251" d="M126.894,84.923c.73,1.975,1.431,3.664,2.2,5.438s1.574,3.478,2.39,5.195c1.646,3.435,3.506,6.755,5.395,10.018a123.953,123.953,0,0,0,13.266,18.79l.959,1.087c.344.387.515.63,1.231,1.36a11.3,11.3,0,0,0,4.78,2.862,11.766,11.766,0,0,0,5.08.286,15.956,15.956,0,0,0,3.921-1.145,27.909,27.909,0,0,0,5.725-3.434,55.351,55.351,0,0,0,4.608-3.964A99,99,0,0,0,190.678,103.5L185.6,99.663a147.3,147.3,0,0,1-15.57,14.311,29.775,29.775,0,0,1-7.9,4.637c-1.145.386-1.932.214-1.732.157s.186,0,.143,0a6.444,6.444,0,0,1-.544-.73l-.787-1.03a146.042,146.042,0,0,1-11.3-17.631c-1.689-3.091-3.263-6.254-4.795-9.431-.758-1.589-1.5-3.177-2.218-4.78s-1.431-3.277-2-4.723Z" transform="translate(-1.105 -0.006)" fill="#ffd5bd"/>
      <path id="Path_2252" data-name="Path 2252" d="M130.973,67.707c5.352-.2,14.643,13.783,14.769,19.262s-13.925,16.873-13.925,16.873-16.228-20.365-14.01-26.948C120.182,70.04,123.188,67.979,130.973,67.707Z" transform="translate(-1.047 -0.006)" fill="#14142b"/>
      <path id="Path_2253" data-name="Path 2253" d="M131.86,72.4,139.1,95.084l-6.526,7.885Z" transform="translate(-1.077 -0.006)" fill="#14142b" opacity="0.2"/>
      <path id="Path_2254" data-name="Path 2254" d="M186.742,105.831l14.8-3.765-10.008-7.9s-7.442,3.134-7.914,8.343Z" transform="translate(-1.247 -0.006)" fill="#ffd5bd"/>
      <path id="Path_2255" data-name="Path 2255" d="M208.257,95.846c-.081-1.833-5.638-5.478-7.685-5.724s-9.216,4.164-9.216,4.164l10.175,7.785S208.339,97.68,208.257,95.846Z" transform="translate(-1.27 -0.006)" fill="#ffd5bd"/>
      <path id="Path_2256" data-name="Path 2256" d="M93.178,417.021h12.565l-.615-29.108H92.563Z" transform="translate(-0.674 -0.006)" fill="#ffd5bd"/>
      <path id="Path_2257" data-name="Path 2257" d="M106.959,415.561H92.792a1,1,0,0,0-1,.859l-1.6,11.177a2.017,2.017,0,0,0,2.018,2.232c4.923-.086,7.3-.372,13.509-.372,3.821,0,14.784.4,20.036.4s5.552-5.224,3.363-5.724c-9.846-2.118-16.8-5.038-20.121-7.828a3.3,3.3,0,0,0-2.033-.745Z" transform="translate(-0.966 -0.006)" fill="#14142b"/>
      <g class="Group_37947" data-name="Group 37947" transform="translate(91.874 387.907)" opacity="0.2">
        <path id="Path_2258" data-name="Path 2258" d="M105.127,387.913l.315,15.012H92.877l-.329-15.012Z" transform="translate(-92.548 -387.913)" fill="#14142b" opacity="0.2"/>
      </g>
      <path id="Path_2259" data-name="Path 2259" d="M136.024,73.932c.272,7.957-1.1,26.518-9.459,69.723l-51.033-1.517C76.964,121.4,64.67,68.4,68.749,65.675s14.458-2,21.753-2.218a162.267,162.267,0,0,1,23.183.7c5.9.716,12.265,1.932,16.443,2.862a7.4,7.4,0,0,1,5.9,6.912Z" transform="translate(-0.674 -0.006)" fill="#ee8d5a"/>
      <path id="Path_2260" data-name="Path 2260" d="M93.578,37.454c1.245,7.5,2.29,21.209-3.077,26.017a28.909,28.909,0,0,0,17.7,12.622c11.764-5.968,5.481-11.935,5.481-11.935-8.257-2.232-7.856-8.4-6.239-14.153Z" transform="translate(-0.959 -0.006)" fill="#ffd5bd"/>
      <path id="Path_2261" data-name="Path 2261" d="M108.2,76.093l-1.517-2.977-8.172,1.846Z" transform="translate(-0.674 -0.006)" fill="#a0a3bd"/>
      <path id="Path_2262" data-name="Path 2262" d="M106.687,73.117c-2.633-1.2-14.371-11.287-15.241-11.577s-5.714.29-6.1,1.359,6.716,23.5,9.03,24.457S102.308,75.979,106.687,73.117Z" transform="translate(-0.674 -0.006)" fill="#fff"/>
      <path id="Path_2263" data-name="Path 2263" d="M108.2,76.093l.687-2.977,5.009.358Z" transform="translate(-0.674 -0.006)" fill="#a0a3bd"/>
      <path id="Path_2264" data-name="Path 2264" d="M108.891,73.117c4.05-2.69,1.879-10.047,2.662-10.776s5.823.911,6.1,1.345,2.845,24.418,1.3,23.67S113.27,75.979,108.891,73.117Z" transform="translate(-1.008 -0.006)" fill="#fff"/>
      <path id="Path_2265" data-name="Path 2265" d="M99.231,42.563l8.2,7.442a24.713,24.713,0,0,0-.83,4.093c-3.163-.558-7.427-4.179-7.656-7.513A11.161,11.161,0,0,1,99.231,42.563Z" transform="translate(-0.674 -0.006)" fill="#14142b" opacity="0.2"/>
      <path id="Path_2266" data-name="Path 2266" d="M89.5,20.281c.157,12.479,0,17.76,5.925,24.443,8.987,10.018,24.328,7.155,27.849-5.123,3.2-11.034,2.418-29.581-9.517-35.133A17.016,17.016,0,0,0,89.5,20.281Z" transform="translate(-0.961 -0.006)" fill="#ffd5bd"/>
      <path id="Path_2267" data-name="Path 2267" d="M90.516,26.277l15.67-.773a.361.361,0,0,0,.136-.033.358.358,0,0,0,.186-.2.36.36,0,0,0,.021-.138.354.354,0,0,0-.033-.139.366.366,0,0,0-.086-.115.358.358,0,0,0-.125-.072.353.353,0,0,0-.142-.017l-15.67.773a.358.358,0,0,0-.329.386.344.344,0,0,0,.372.329Z" transform="translate(-0.674 -0.006)" fill="#fff"/>
      <path id="Path_2268" data-name="Path 2268" d="M126.565,143.655s-6.454,93.378-10.018,131.545c-3.735,39.713-8.586,124.82-8.586,124.82H90.974s-3.549-86.553-2.2-125.721c1.431-42.69.53-131.746.53-131.746Z" transform="translate(-0.959 -0.006)" fill="#14142b"/>
      <path id="Path_2269" data-name="Path 2269" d="M89.4,400.621h19.936l1.474-6.354-22.34-.788Z" transform="translate(-0.674 -0.006)" fill="#3f80fd"/>
      <path id="Path_2270" data-name="Path 2270" d="M89.428,175.9c2.061-2.29,4.293-1.1,6.841,5.424,8.486,22.268-.558,57.8-7.156,78.266C89.557,234.114,89.542,200.6,89.428,175.9Z" transform="translate(-0.674 -0.006)" fill="#14142b" opacity="0.2"/>
      <path id="Path_2271" data-name="Path 2271" d="M109.964,25.662c0,1.016.458,1.86,1.117,1.889s1.23-.759,1.288-1.774-.444-1.86-1.117-1.889S109.964,24.646,109.964,25.662Z" transform="translate(-0.674 -0.006)" fill="#14142b"/>
      <path id="Path_2272" data-name="Path 2272" d="M121.413,26c0,1.016.458,1.86,1.116,1.889s1.231-.758,1.288-1.774-.443-1.86-1.116-1.889S121.413,24.917,121.413,26Z" transform="translate(-1.042 -0.006)" fill="#14142b"/>
      <path id="Path_2273" data-name="Path 2273" d="M122.429,24.2l2.462-.587S123.546,25.461,122.429,24.2Z" transform="translate(-1.045 -0.006)" fill="#14142b"/>
      <path id="Path_2274" data-name="Path 2274" d="M117.006,26.764A26.893,26.893,0,0,0,120.3,33.4a4.293,4.293,0,0,1-3.649.5Z" transform="translate(-1.028 -0.006)" fill="#ff97b8"/>
      <path id="Path_2275" data-name="Path 2275" d="M110.937,37.6a9.4,9.4,0,0,0,1.431.186.3.3,0,0,0,.116-.017.293.293,0,0,0,.1-.061.309.309,0,0,0,.07-.094.3.3,0,0,0,.028-.114.314.314,0,0,0-.286-.3,7.986,7.986,0,0,1-6.383-3.463.29.29,0,0,0-.079-.087.309.309,0,0,0-.422.062.284.284,0,0,0-.049.1.277.277,0,0,0,0,.114.293.293,0,0,0,.04.107,8.3,8.3,0,0,0,5.438,3.563Z" transform="translate(-0.674 -0.006)" fill="#14142b"/>
      <path id="Path_2276" data-name="Path 2276" d="M85.636,31.529a9.073,9.073,0,0,0,4.494,5.309c2.862,1.431,4.894-.959,4.622-3.979-.243-2.7-2.018-6.74-5.138-6.926a4.093,4.093,0,0,0-3.978,5.6Z" transform="translate(-0.674 -0.006)" fill="#ffd5bd"/>
      <path id="Path_2277" data-name="Path 2277" d="M105.485,22.17a.573.573,0,0,0,.63-.286c1.359-2.39,4.894-2.762,4.923-2.776a.59.59,0,0,0,.4-.212.6.6,0,0,0,.109-.2.6.6,0,0,0-.044-.449.59.59,0,0,0-.349-.286.589.589,0,0,0-.229-.023c-.171,0-4.178.429-5.839,3.363a.594.594,0,0,0-.078.22.574.574,0,0,0,.013.233.589.589,0,0,0,.1.21.581.581,0,0,0,.177.153Z" transform="translate(-0.674 -0.006)" fill="#14142b"/>
      <path id="Path_2278" data-name="Path 2278" d="M125.105,20.166a.559.559,0,0,0,.558-.186.586.586,0,0,0,.133-.193.595.595,0,0,0,0-.459.586.586,0,0,0-.133-.193,5.925,5.925,0,0,0-5.209-1.517.6.6,0,0,0-.429.73.615.615,0,0,0,.729.429,4.638,4.638,0,0,1,4.108,1.245.6.6,0,0,0,.243.143Z" transform="translate(-1.04 -0.006)" fill="#14142b"/>
      <path id="Path_2279" data-name="Path 2279" d="M62.452,80.1c-1.674,6.683-3.42,13.5-5.209,20.193s-3.75,13.381-5.91,19.849S46.5,133.022,44.02,139.6s-4.995,13.223-7.27,19.935l5.724,2.705c3.721-6.068,7.155-12.236,10.547-18.5q2.5-4.7,4.894-9.5c1.617-3.162,3.148-6.568,4.508-10.017,2.733-6.784,5.009-13.61,7.041-20.479S73.357,90,74.931,82.934Z" transform="translate(-0.674 -0.006)" fill="#ffd5bd"/>
      <path id="Path_2280" data-name="Path 2280" d="M68.749,65.675C63.6,67.106,57.459,79.909,56.928,84.494s19.42,14.769,19.42,14.769,7.671-14.468,5.724-21.152C80.026,71.17,74.645,64.072,68.749,65.675Z" transform="translate(-0.674 -0.006)" fill="#14142b"/>
      <path id="Path_2281" data-name="Path 2281" d="M111.682,417.765a4.784,4.784,0,0,0,3.048-.773,1.691,1.691,0,0,0,.544-1.431.972.972,0,0,0-.515-.787c-1.532-.844-6.541,1.717-7.156,2a.322.322,0,0,0-.127.134.314.314,0,0,0-.03.181.269.269,0,0,0,.078.165.273.273,0,0,0,.165.079,21.007,21.007,0,0,0,3.993.429Zm2.247-2.605a1.153,1.153,0,0,1,.543.1.361.361,0,0,1,.146.136.366.366,0,0,1,.055.193,1.057,1.057,0,0,1-.344.958c-.758.687-2.862.8-5.61.344a16.006,16.006,0,0,1,5.21-1.732Z" transform="translate(-1.002 -0.006)" fill="#3f80fd"/>
      <path id="Path_2282" data-name="Path 2282" d="M107.789,417.321h.114c1.5-.687,4.465-3.391,4.294-4.808,0-.344-.3-.759-1.117-.845a2.154,2.154,0,0,0-1.66.516c-1.574,1.316-1.86,4.694-1.874,4.837a.291.291,0,0,0,.028.153.3.3,0,0,0,.1.119A.3.3,0,0,0,107.789,417.321Zm2.991-5.094h.172c.543,0,.586.271.6.343.128.859-1.875,2.991-3.406,3.921a6.9,6.9,0,0,1,1.6-3.878,1.515,1.515,0,0,1,1.03-.386Z" transform="translate(-0.674 -0.006)" fill="#3f80fd"/>
      <path id="Path_2283" data-name="Path 2283" d="M19.419,417.021H31.984L39.6,387.913H27.018Z" transform="translate(-0.674 -0.006)" fill="#ffd5bd"/>
      <path id="Path_2284" data-name="Path 2284" d="M19.305,415.561H33.43a.774.774,0,0,1,.334.047.761.761,0,0,1,.452.476.761.761,0,0,1,.03.336L33.387,427.6a2.631,2.631,0,0,1-2.5,2.232c-4.909-.086-7.155-.372-13.424-.372-3.821,0-7.628.4-12.88.4s-4.408-5.224-2.1-5.724c10.318-2.118,10.662-5.038,14.6-7.828A3.99,3.99,0,0,1,19.305,415.561Z" transform="translate(-0.674 -0.006)" fill="#14142b"/>
      <g class="Group_37948" data-name="Group 37948" transform="translate(22.424 387.907)" opacity="0.2">
        <path id="Path_2285" data-name="Path 2285" d="M39.584,387.913l-3.907,15.012H23.1l3.921-15.012Z" transform="translate(-23.098 -387.913)" fill="#14142b" opacity="0.2"/>
      </g>
      <path id="Path_2286" data-name="Path 2286" d="M75.532,142.138c-14.526,19.462-23.37,90.931-29.8,129.141-6.683,39.741-23.112,128.8-23.112,128.8H39.612s23.112-90.588,35.219-128.941C88.212,228.79,108.2,142.2,108.2,142.2Z" transform="translate(-0.674 -0.006)" fill="#14142b"/>
      <path id="Path_2287" data-name="Path 2287" d="M21.409,400.621H41.358l1.46-6.354-22.339-.788Z" transform="translate(-0.674 -0.006)" fill="#3f80fd"/>
      <path id="Path_2288" data-name="Path 2288" d="M17.631,415.919a4.736,4.736,0,0,1-2.419-2.018,1.66,1.66,0,0,1,.143-1.546.959.959,0,0,1,.787-.486c1.76-.1,5.181,4.365,5.567,4.88a.3.3,0,0,1,0,.343.271.271,0,0,1-.315.115,21.014,21.014,0,0,1-3.764-1.288Zm-.9-3.32a1.29,1.29,0,0,0-.544-.143.359.359,0,0,0-.315.214,1.06,1.06,0,0,0-.114,1c.4.945,2.218,1.946,4.923,2.733a16.342,16.342,0,0,0-3.95-3.806Z" transform="translate(-0.674 -0.006)" fill="#3f80fd"/>
      <path id="Path_2289" data-name="Path 2289" d="M21.337,417.192a.258.258,0,0,1-.1-.071c-1.059-1.26-2.562-4.98-1.746-6.168.2-.286.6-.558,1.431-.272a2.187,2.187,0,0,1,1.274,1.173c.859,1.861-.343,5.038-.386,5.181a.3.3,0,0,1-.09.123.3.3,0,0,1-.139.063.268.268,0,0,1-.243-.029Zm-.5-5.881-.172-.072c-.515-.186-.644,0-.673,0-.5.7.4,3.492,1.431,4.995a6.9,6.9,0,0,0,.229-4.194,1.515,1.515,0,0,0-.816-.729Z" transform="translate(-0.674 -0.006)" fill="#3f80fd"/>
      <path id="Path_2290" data-name="Path 2290" d="M110.981,23.93l2.461-.587S112.1,25.189,110.981,23.93Z" transform="translate(-0.674 -0.006)" fill="#14142b"/>
      <path id="Path_2291" data-name="Path 2291" d="M74.86,139.061,73.429,143.6c-.186.343.229.715.816.744l52.52,1.56c.458,0,.845-.2.888-.487l.587-4.565c0-.315-.344-.587-.845-.6L75.719,138.7a.959.959,0,0,0-.859.358Z" transform="translate(-0.674 -0.006)" fill="#3f80fd"/>
      <path id="Path_2292" data-name="Path 2292" d="M81.629,145.114H80.2c-.272,0-.472-.157-.458-.329l.83-5.924c0-.172.272-.3.544-.3h1.431c.272,0,.472.157.458.329l-.83,5.925C82.144,144.986,81.9,145.114,81.629,145.114Z" transform="translate(-0.674 -0.006)" fill="#14142b"/>
      <path id="Path_2293" data-name="Path 2293" d="M122.844,146.331h-1.431c-.272,0-.472-.158-.458-.329l.83-5.911c0-.171.272-.315.544-.3h1.431c.272,0,.472.157.458.329l-.83,5.91C123.359,146.216,123.116,146.345,122.844,146.331Z" transform="translate(-1.041 -0.006)" fill="#14142b"/>
      <path id="Path_2294" data-name="Path 2294" d="M102.237,145.715h-1.432c-.271,0-.472-.157-.458-.343l.83-5.91c0-.172.272-.3.544-.3h1.431c.272,0,.473.158.458.329l-.83,5.911C102.809,145.6,102.508,145.73,102.237,145.715Z" transform="translate(-0.674 -0.006)" fill="#14142b"/>
      <path id="Path_2295" data-name="Path 2295" d="M38.2,157.279l-10.018,9.173,12.679,1.631s4.751-6.511,2.49-11.219Z" transform="translate(-0.674 -0.006)" fill="#ffd5bd"/>
      <path id="Path_2296" data-name="Path 2296" d="M26.474,176.885c1.273,2.09,9.439,1.147,10.69.787s3.721-9.589,3.721-9.589l-12.68-1.617S25.2,174.795,26.474,176.885Z" transform="translate(-0.674 -0.006)" fill="#ffd5bd"/>
      <path id="Path_2297" data-name="Path 2297" d="M102.094,2.822s10.547-4.837,22.181,9.832c-14.01,4.165-23.426,1.274-23.426,1.274Z" transform="translate(-0.991 -0.006)" fill="#14142b"/>
      <path id="Path_2298" data-name="Path 2298" d="M103.61,1.519s4.156,51.795,0,55.254S74.993,39.36,74.659,37.439,76.734-2.932,103.61,1.519Z" transform="translate(-0.674 -0.006)" fill="#14142b"/>
      <path id="Path_2299" data-name="Path 2299" d="M111.124,34.205c3.32,0,6.368-4.107,6.812-9.159a10.244,10.244,0,0,0-2.061-7.7,4.291,4.291,0,0,0-3.22-1.517c-3.32,0-6.383,4.107-6.826,9.159a10.189,10.189,0,0,0,2.075,7.7,4.291,4.291,0,0,0,3.22,1.517Zm1.531-17.66a3.664,3.664,0,0,1,2.69,1.274,9.555,9.555,0,0,1,1.875,7.155c-.4,4.68-3.148,8.5-6.1,8.5a3.58,3.58,0,0,1-2.691-1.288,9.535,9.535,0,0,1-1.889-7.155c.415-4.68,3.149-8.486,6.111-8.486Z" transform="translate(-1 -0.006)" fill="#fff"/>
      <path id="Path_2300" data-name="Path 2300" d="M123.589,34.205c2.69,0,5.152-4.021,5.6-9.159.3-3.449-.415-6.583-1.86-8.157a2.975,2.975,0,0,0-2.2-1.059c-2.69,0-5.138,4.021-5.6,9.159-.286,3.449.43,6.569,1.875,8.157a2.977,2.977,0,0,0,2.19,1.059Zm1.531-17.66a2.2,2.2,0,0,1,1.674.83c1.3,1.431,1.961,4.408,1.675,7.613-.387,4.608-2.633,8.5-4.88,8.5a2.246,2.246,0,0,1-1.66-.83c-1.3-1.431-1.961-4.408-1.689-7.613.4-4.608,2.605-8.5,4.88-8.5Z" transform="translate(-1.04 -0.006)" fill="#fff"/>
      <path id="Path_2301" data-name="Path 2301" d="M117.578,25.375h.157a2.091,2.091,0,0,1,1.961,0,.357.357,0,0,0,.486-.115.33.33,0,0,0,.054-.127.321.321,0,0,0,0-.138.341.341,0,0,0-.154-.222,2.861,2.861,0,0,0-2.647,0,.372.372,0,0,0-.186.472.4.4,0,0,0,.149.1A.4.4,0,0,0,117.578,25.375Z" transform="translate(-1.029 -0.006)" fill="#fff"/>
    </g>
  </g>
</svg>
