<svg xmlns="http://www.w3.org/2000/svg" width="623" height="448" viewBox="0 0 623 448">
  <g id="FOREGROUND" transform="translate(-1444.56 -216.223)">
    <g class="Group_37497" data-name="Group 37497" transform="translate(1444.56 216.223)">
      <g class="Group_37337" data-name="Group 37337" transform="translate(201.998)">
        <g class="Group_37333" data-name="Group 37333">
          <g class="Group_37326" data-name="Group 37326">
            <path id="Path_1607" data-name="Path 1607" d="M2000.391,250.1a32.5,32.5,0,0,0-5.647-13.631l4.958-4.959-7.589-7.589-4.959,4.959a32.491,32.491,0,0,0-13.631-5.648v-7.011H1962.79v7.011a32.494,32.494,0,0,0-13.631,5.648l-4.959-4.959-7.589,7.589,4.958,4.959a32.5,32.5,0,0,0-5.647,13.631h-7.011v10.733h7.011a32.5,32.5,0,0,0,5.647,13.631l-4.958,4.959,7.589,7.589,4.959-4.958a32.5,32.5,0,0,0,13.631,5.647v7.011h10.733V287.7a32.5,32.5,0,0,0,13.631-5.647l4.959,4.958,7.589-7.589-4.958-4.959a32.5,32.5,0,0,0,5.647-13.631h7.011V250.1Zm-32.235,24.787a19.421,19.421,0,1,1,19.421-19.421A19.421,19.421,0,0,1,1968.156,274.89Z" transform="translate(-1928.911 -216.223)" fill="#c3dff4"/>
            <g class="Group_37324" data-name="Group 37324" transform="translate(319.906 68.512)">
              <path id="Path_1608" data-name="Path 1608" d="M2774.908,418.8a38.428,38.428,0,0,0-6.962-16l5.76-5.966-9.132-8.816-5.76,5.966a38.428,38.428,0,0,0-16.236-6.394l-.146-8.29-12.69.224.146,8.29a38.434,38.434,0,0,0-16,6.962l-5.966-5.76-8.815,9.132,5.966,5.76a38.43,38.43,0,0,0-6.394,16.236l-8.291.146.224,12.691,8.291-.146a38.432,38.432,0,0,0,6.962,16l-5.76,5.966,9.132,8.816,5.76-5.966a38.433,38.433,0,0,0,16.236,6.394l.146,8.29,12.69-.224-.146-8.29a38.439,38.439,0,0,0,16-6.962l5.966,5.76,8.816-9.132-5.967-5.76a38.434,38.434,0,0,0,6.394-16.237l8.291-.146-.224-12.69Zm-37.6,29.981a22.968,22.968,0,1,1,22.56-23.369A22.968,22.968,0,0,1,2737.309,448.785Z" transform="translate(-2690.387 -379.303)" fill="#5e5ecc"/>
            </g>
            <g class="Group_37325" data-name="Group 37325" transform="translate(113.303 14.143)">
              <path id="Path_1609" data-name="Path 1609" d="M2821.376,635.983c-3.126-9.929-13.978-4.407-18.043,2.619,1.565-4.693,4.81-16.483-11.505-19.144s-21.916,23.036-21.916,23.036-19.028-8.192-26.634,10.713h71.8S2824.947,647.326,2821.376,635.983Z" transform="translate(-2514.456 -464.085)" fill="#fff"/>
              <path id="Path_1610" data-name="Path 1610" d="M2270.507,266.29c-10.811-2.5-15.8,1.259-17.784,3.635,2.495-4.229,7.207-15.2-7.929-19.265-18.926-5.089-23.209,16.66-23.209,16.66s-29.629-1.151-21.6,16.66h86.388A19.872,19.872,0,0,0,2270.507,266.29Z" transform="translate(-2198.607 -249.888)" fill="#fff"/>
            </g>
            <path id="Path_1611" data-name="Path 1611" d="M2691.926,257.2l-26.574,3.533,5.367,7.066-27.869,21-12.323-15.122L2597.9,300.912l-14.521-16.187-32.673,27.793,5.716,6.72,26.127-22.225,14.468,16.128,32.305-26.97,12.048,14.785,34.679-26.133,6,7.9Z" transform="translate(-2289.485 -239.985)" fill="#ee8d5a"/>
          </g>
          <g class="Group_37332" data-name="Group 37332" transform="translate(63.857 7.95)">
            <g class="Group_37327" data-name="Group 37327" transform="translate(0 102.194)">
              <path id="Path_1612" data-name="Path 1612" d="M2125.107,516.951l.939.473-.263,9.677-44.871,17.7Z" transform="translate(-2080.912 -500.755)" fill="#a9d1ea"/>
              <path id="Path_1613" data-name="Path 1613" d="M2131.83,521.384l-50.918,25.987L2152.7,531.86Z" transform="translate(-2080.912 -503.326)" fill="#c3dff4"/>
              <path id="Path_1614" data-name="Path 1614" d="M2122.357,478.4l-41.445,44.046,45.134-27.376Z" transform="translate(-2080.912 -478.4)" fill="#c3dff4"/>
            </g>
            <g class="Group_37331" data-name="Group 37331" transform="translate(60.951)">
              <g class="Group_37328" data-name="Group 37328" transform="translate(0 105.585)">
                <path id="Path_1615" data-name="Path 1615" d="M2226.836,489.46a.84.84,0,0,1-.411-1.573c.007,0,.795-.447,2.113-1.284a.84.84,0,1,1,.9,1.419c-1.362.865-2.159,1.312-2.192,1.331A.838.838,0,0,1,2226.836,489.46Z" transform="translate(-2225.995 -486.472)" fill="#5e5ecc"/>
              </g>
              <g class="Group_37329" data-name="Group 37329" transform="translate(3.359)">
                <path id="Path_1616" data-name="Path 1616" d="M2237.817,339.58a.84.84,0,0,1-.489-1.524c1.353-.967,2.7-1.983,4.014-3.021a.84.84,0,1,1,1.043,1.317c-1.332,1.054-2.7,2.088-4.08,3.07A.837.837,0,0,1,2237.817,339.58Zm7.938-6.285a.84.84,0,0,1-.554-1.473c1.27-1.112,2.51-2.257,3.687-3.4a.84.84,0,1,1,1.172,1.2c-1.2,1.167-2.46,2.332-3.752,3.464A.837.837,0,0,1,2245.756,333.295Zm7.243-7.068a.84.84,0,0,1-.619-1.407c1.141-1.247,2.24-2.525,3.263-3.8a.84.84,0,1,1,1.31,1.054c-1.046,1.3-2.168,2.606-3.333,3.879A.838.838,0,0,1,2253,326.227Zm33.158-6.437c-.8,0-1.618-.018-2.433-.054a.84.84,0,1,1,.074-1.679c1.683.074,3.359.069,4.97-.014a.84.84,0,0,1,.087,1.678C2287.97,319.767,2287.063,319.79,2286.157,319.79Zm-7.434-.489a.851.851,0,0,1-.108-.007c-1.642-.21-3.341-.49-5.05-.834a.84.84,0,1,1,.332-1.648c1.67.336,3.329.61,4.932.815a.84.84,0,0,1-.1,1.674Zm15.1-.1a.84.84,0,0,1-.131-1.67,43.538,43.538,0,0,0,4.828-1.052.84.84,0,1,1,.451,1.619,45.276,45.276,0,0,1-5.015,1.093A.839.839,0,0,1,2293.821,319.2Zm-34.491-.863a.841.841,0,0,1-.69-1.319c.962-1.387,1.865-2.8,2.683-4.21a.84.84,0,1,1,1.452.845c-.84,1.445-1.767,2.9-2.754,4.323A.839.839,0,0,1,2259.33,318.337Zm9.475-1.012a.851.851,0,0,1-.216-.028q-.834-.222-1.682-.465c-1.093-.312-2.174-.643-3.214-.983a.84.84,0,0,1,.523-1.6c1.02.334,2.081.658,3.153.965q.833.238,1.652.456a.84.84,0,0,1-.216,1.652Zm34.706-.83a.84.84,0,0,1-.318-1.618,44.6,44.6,0,0,0,4.468-2.129.84.84,0,1,1,.805,1.475,46.252,46.252,0,0,1-4.637,2.209A.833.833,0,0,1,2303.512,316.494Zm-44.311-2.33a.842.842,0,0,1-.313-.06c-1.625-.654-3.2-1.357-4.677-2.09a.84.84,0,0,1,.748-1.505c1.438.714,2.972,1.4,4.556,2.036a.84.84,0,0,1-.314,1.62Zm53.159-2.482a.84.84,0,0,1-.476-1.533c1.324-.908,2.662-1.916,3.975-3a.84.84,0,0,1,1.068,1.3c-1.35,1.111-2.727,2.148-4.092,3.084A.838.838,0,0,1,2312.359,311.683Zm-62.194-2.036a.835.835,0,0,1-.442-.127,44.688,44.688,0,0,1-4.216-2.961.84.84,0,0,1,1.046-1.315,43.029,43.029,0,0,0,4.057,2.848.84.84,0,0,1-.444,1.554Zm14.232-.057a.84.84,0,0,1-.76-1.2c.711-1.523,1.345-3.072,1.883-4.6a.84.84,0,1,1,1.585.557c-.557,1.583-1.211,3.184-1.947,4.757A.84.84,0,0,1,2264.4,309.59Zm55.777-4.3a.84.84,0,0,1-.579-1.449c1.156-1.1,2.343-2.3,3.527-3.557a.84.84,0,0,1,1.225,1.151c-1.207,1.285-2.417,2.5-3.595,3.624A.836.836,0,0,1,2320.174,305.29Zm-77.875-1.955a.839.839,0,0,1-.611-.262,31.18,31.18,0,0,1-3.25-4.048.84.84,0,1,1,1.4-.936,29.472,29.472,0,0,0,3.075,3.828.84.84,0,0,1-.61,1.418Zm25.432-3.278a.86.86,0,0,1-.192-.022.841.841,0,0,1-.627-1.01,43,43,0,0,0,.849-4.884.841.841,0,0,1,1.67.191,44.9,44.9,0,0,1-.883,5.075A.84.84,0,0,1,2267.731,300.057Zm59.384-2.122a.84.84,0,0,1-.635-1.389c1.038-1.2,2.093-2.47,3.223-3.868a.84.84,0,0,1,1.307,1.057c-1.142,1.411-2.208,2.689-3.258,3.907A.839.839,0,0,1,2327.116,297.935Zm-90.383-2.977a.839.839,0,0,1-.775-.514,25.243,25.243,0,0,1-1.521-5,.84.84,0,0,1,1.65-.319,23.552,23.552,0,0,0,1.42,4.662.84.84,0,0,1-.774,1.167Zm96.767-4.879a.84.84,0,0,1-.664-1.356q1.541-1.982,3.08-4.008a.84.84,0,0,1,1.337,1.018q-1.546,2.03-3.089,4.021A.84.84,0,0,1,2333.5,290.079Zm-64.629-.047a.841.841,0,0,1-.84-.836,42.127,42.127,0,0,0-.32-4.946.84.84,0,1,1,1.667-.207,43.7,43.7,0,0,1,.333,5.145.84.84,0,0,1-.836.844Zm-34.039-4.933h-.017a.84.84,0,0,1-.824-.856,25.629,25.629,0,0,1,.637-5.182.84.84,0,1,1,1.638.373,23.948,23.948,0,0,0-.6,4.841A.84.84,0,0,1,2234.831,285.1Zm104.815-3.064a.84.84,0,0,1-.667-1.349q1.527-2.008,3.082-4.024a.84.84,0,0,1,1.33,1.028q-1.552,2.007-3.074,4.014A.838.838,0,0,1,2339.646,282.034Zm-72.011-2.022a.841.841,0,0,1-.816-.644c-.293-1.221-.646-2.458-1.046-3.676q-.182-.553-.373-1.08a.84.84,0,1,1,1.58-.573q.2.551.39,1.129c.415,1.262.779,2.542,1.083,3.807a.841.841,0,0,1-.818,1.037Zm-30.583-4.715a.841.841,0,0,1-.766-1.184,26.122,26.122,0,0,1,2.6-4.527.84.84,0,0,1,1.365.98,24.4,24.4,0,0,0-2.432,4.235A.841.841,0,0,1,2237.052,275.3Zm108.792-1.257a.841.841,0,0,1-.656-1.365c1.124-1.407,2.175-2.692,3.212-3.928a.84.84,0,0,1,1.288,1.08c-1.028,1.227-2.071,2.5-3.187,3.9A.84.84,0,0,1,2345.844,274.04Zm-81.75-3.469a.839.839,0,0,1-.73-.423,18.192,18.192,0,0,0-2.888-3.857.84.84,0,1,1,1.187-1.19,19.884,19.884,0,0,1,3.16,4.212.841.841,0,0,1-.729,1.258Zm-21.156-3.416a.84.84,0,0,1-.559-1.468,19.25,19.25,0,0,1,4.369-2.956.84.84,0,0,1,.732,1.513,17.531,17.531,0,0,0-3.985,2.7A.838.838,0,0,1,2242.938,267.155Zm109.413-.849a.841.841,0,0,1-.626-1.4c1.164-1.3,2.33-2.553,3.465-3.724a.84.84,0,1,1,1.206,1.17c-1.12,1.154-2.27,2.391-3.419,3.675A.837.837,0,0,1,2352.352,266.305Zm-95.444-2.583a.839.839,0,0,1-.314-.061,10.042,10.042,0,0,0-4.574-.695.84.84,0,0,1-.128-1.676,11.745,11.745,0,0,1,5.331.812.84.84,0,0,1-.315,1.62Zm102.484-4.66a.84.84,0,0,1-.574-1.453c1.261-1.183,2.545-2.323,3.813-3.388a.84.84,0,0,1,1.081,1.287c-1.246,1.045-2.506,2.165-3.745,3.327A.837.837,0,0,1,2359.391,259.062Zm7.748-6.487a.84.84,0,0,1-.5-1.516c1.379-1.019,2.794-1.994,4.207-2.9a.84.84,0,0,1,.9,1.416c-1.38.883-2.764,1.836-4.113,2.833A.836.836,0,0,1,2367.139,252.575Zm89.686-2.367a.837.837,0,0,1-.562-.216,45.284,45.284,0,0,0-3.871-3.111.84.84,0,0,1,.98-1.365,46.982,46.982,0,0,1,4.015,3.227.84.84,0,0,1-.563,1.465Zm-81.178-3.066a.84.84,0,0,1-.4-1.579c1.5-.812,3.037-1.576,4.579-2.27a.84.84,0,1,1,.69,1.532c-1.505.677-3.008,1.423-4.468,2.214A.833.833,0,0,1,2375.647,247.142Zm72.981-2.838a.842.842,0,0,1-.417-.111c-1.421-.815-2.913-1.575-4.433-2.259a.84.84,0,1,1,.69-1.532c1.57.707,3.111,1.492,4.579,2.333a.84.84,0,0,1-.418,1.57Zm-63.779-1.3a.841.841,0,0,1-.287-1.63c.8-.29,1.615-.57,2.427-.831s1.625-.514,2.426-.755a.84.84,0,0,1,.484,1.609q-1.186.357-2.4.746c-.791.255-1.588.527-2.367.81A.837.837,0,0,1,2384.849,243Zm54.57-2.85a.836.836,0,0,1-.273-.045c-1.55-.531-3.159-1-4.781-1.407a.84.84,0,1,1,.4-1.631c1.669.414,3.325.9,4.922,1.449a.84.84,0,0,1-.272,1.635Zm-44.89-.083a.84.84,0,0,1-.209-1.654c1.664-.429,3.333-.82,4.961-1.164a.84.84,0,0,1,.347,1.644c-1.6.339-3.249.724-4.889,1.146A.824.824,0,0,1,2394.529,240.067Zm9.9-2.082a.84.84,0,0,1-.133-1.67c1.7-.273,3.4-.5,5.058-.678a.84.84,0,0,1,.179,1.671c-1.629.174-3.3.4-4.97.667A.808.808,0,0,1,2404.427,237.985Zm25.186-.276a.825.825,0,0,1-.136-.011c-1.613-.263-3.281-.468-4.956-.612a.84.84,0,0,1,.143-1.675c1.717.147,3.428.359,5.083.628a.84.84,0,0,1-.134,1.67Zm-15.129-.79a.84.84,0,0,1-.04-1.679c1.723-.083,3.451-.111,5.112-.085a.84.84,0,0,1-.013,1.68h-.014c-1.625-.026-3.317,0-5,.083Z" transform="translate(-2233.99 -235.146)" fill="#5e5ecc"/>
              </g>
              <g class="Group_37330" data-name="Group 37330" transform="translate(229.062 17.181)">
                <path id="Path_1617" data-name="Path 1617" d="M2773.608,279.719a.839.839,0,0,1-.708-.387,20.65,20.65,0,0,0-1.466-1.909.84.84,0,0,1,1.283-1.085,21.648,21.648,0,0,1,1.6,2.088.84.84,0,0,1-.707,1.293Z" transform="translate(-2771.235 -276.041)" fill="#5e5ecc"/>
              </g>
            </g>
          </g>
        </g>
      </g>
      <g class="Group_37496" data-name="Group 37496" transform="translate(0 127.98)">
        <g class="Group_37348" data-name="Group 37348" transform="translate(302.248)">
          <g class="Group_37338" data-name="Group 37338" transform="translate(0 140.941)">
            <path id="Path_1637" data-name="Path 1637" d="M2298.629,996.245a1.05,1.05,0,0,1-.97-.649l-41.476-100.181L2168.2,995.887a1.051,1.051,0,0,1-1.711-1.2l74.836-136.2a1.05,1.05,0,0,1,1.891.1l13.619,32.9,29.063-33.186a1.05,1.05,0,0,1,1.836.6l11.946,136.2a1.05,1.05,0,0,1-.8,1.113A1.07,1.07,0,0,1,2298.629,996.245Zm-40.9-102.593,39.26,94.828-11.134-126.944Zm-15.619-32.235-69.135,125.826,82.314-93.993Z" transform="translate(-2166.355 -857.943)" fill="#56565d"/>
          </g>
          <g class="Group_37347" data-name="Group 37347" transform="translate(29.549)">
            <path id="Path_1638" data-name="Path 1638" d="M2489.038,662.946h25.021l7.413-140.487Z" transform="translate(-2383.025 -522.459)" fill="#ee8d5a"/>
            <path id="Path_1639" data-name="Path 1639" d="M2342.706,662.946H2236.692l32.434-140.487H2375.14Z" transform="translate(-2236.692 -522.459)" fill="#ee8d5a"/>
            <g class="Group_37346" data-name="Group 37346" transform="translate(13.606 5.99)">
              <path id="Path_1640" data-name="Path 1640" d="M2488.48,536.716,2475.406,561.5l24.394-9.523S2501.025,541.442,2488.48,536.716Z" transform="translate(-2388.726 -536.716)" fill="#5e5ecc"/>
              <g class="Group_37345" data-name="Group 37345" transform="translate(0 1.68)">
                <path id="Path_1641" data-name="Path 1641" d="M2269.275,810.93s7.474-7.807,15.661-12.638,14.116,8.612,20.051,8.682,11.791-8.612,17.069-5.392,11.019,7.772,14.822,5.251,9.755-10.713,12.254-6.371a57.043,57.043,0,0,1,4.194,9.732Z" transform="translate(-2269.193 -689.474)" fill="#5e5ecc"/>
                <path id="Path_1642" data-name="Path 1642" d="M2354.152,829.542h-85.073l.339-1.47h85.073Z" transform="translate(-2269.079 -707.35)" fill="#fff"/>
                <path id="Path_1643" data-name="Path 1643" d="M2425.468,567.673l13.4-25.914a24.466,24.466,0,0,0-7.181-1.043c-14.888,0-29.744,12.069-33.181,26.957s5.845,26.957,20.734,26.957,29.743-12.069,33.18-26.957a25.329,25.329,0,0,0,.305-10.485Z" transform="translate(-2343.72 -540.716)" fill="#fff"/>
                <g class="Group_37342" data-name="Group 37342" transform="translate(8.217 80.817)">
                  <g class="Group_37341" data-name="Group 37341">
                    <g class="Group_37339" data-name="Group 37339">
                      <path id="Path_1644" data-name="Path 1644" d="M2290.529,751.151h-1.891l4.171-18.065h1.891Z" transform="translate(-2288.639 -733.087)" fill="#fff"/>
                      <path id="Path_1645" data-name="Path 1645" d="M2300.779,762.584h-1.89l2.258-9.782h1.891Z" transform="translate(-2294.583 -744.52)" fill="#fff"/>
                      <path id="Path_1646" data-name="Path 1646" d="M2311.029,755.912h-1.89l3.374-14.616h1.89Z" transform="translate(-2300.527 -737.847)" fill="#fff"/>
                      <path id="Path_1647" data-name="Path 1647" d="M2321.279,762.584h-1.89l2.258-9.782h1.89Z" transform="translate(-2306.47 -744.52)" fill="#fff"/>
                      <path id="Path_1648" data-name="Path 1648" d="M2331.53,759.287h-1.891l2.81-12.171h1.89Z" transform="translate(-2312.414 -741.223)" fill="#fff"/>
                      <path id="Path_1649" data-name="Path 1649" d="M2341.779,767.883h-1.891l1.372-5.943h1.891Z" transform="translate(-2318.358 -749.818)" fill="#fff"/>
                      <path id="Path_1650" data-name="Path 1650" d="M2352.029,755.912h-1.89l3.374-14.616h1.89Z" transform="translate(-2324.302 -737.847)" fill="#fff"/>
                      <path id="Path_1651" data-name="Path 1651" d="M2362.279,762.584h-1.89l2.258-9.782h1.891Z" transform="translate(-2330.246 -744.52)" fill="#fff"/>
                    </g>
                    <g class="Group_37340" data-name="Group 37340" transform="translate(33.504)">
                      <path id="Path_1652" data-name="Path 1652" d="M2370.28,751.151h-1.891l4.171-18.065h1.89Z" transform="translate(-2368.389 -733.087)" fill="#fff"/>
                      <path id="Path_1653" data-name="Path 1653" d="M2380.529,762.584h-1.891l2.259-9.782h1.891Z" transform="translate(-2374.333 -744.52)" fill="#fff"/>
                      <path id="Path_1654" data-name="Path 1654" d="M2390.779,755.912h-1.89l3.374-14.616h1.891Z" transform="translate(-2380.277 -737.847)" fill="#fff"/>
                      <path id="Path_1655" data-name="Path 1655" d="M2401.029,762.584h-1.89l2.258-9.782h1.89Z" transform="translate(-2386.22 -744.52)" fill="#fff"/>
                      <path id="Path_1656" data-name="Path 1656" d="M2411.28,759.287h-1.891l2.81-12.171h1.89Z" transform="translate(-2392.164 -741.223)" fill="#fff"/>
                      <path id="Path_1657" data-name="Path 1657" d="M2421.53,767.883h-1.891l1.372-5.943h1.891Z" transform="translate(-2398.108 -749.818)" fill="#fff"/>
                      <path id="Path_1658" data-name="Path 1658" d="M2431.779,755.912h-1.891l3.374-14.616h1.891Z" transform="translate(-2404.052 -737.847)" fill="#fff"/>
                      <path id="Path_1659" data-name="Path 1659" d="M2442.029,762.584h-1.89l2.258-9.782h1.891Z" transform="translate(-2409.996 -744.52)" fill="#fff"/>
                      <path id="Path_1660" data-name="Path 1660" d="M2451.279,767.883h-1.891l1.372-5.943h1.891Z" transform="translate(-2415.36 -749.818)" fill="#fff"/>
                      <path id="Path_1661" data-name="Path 1661" d="M2461.529,751.151h-1.89l4.17-18.065h1.891Z" transform="translate(-2421.304 -733.087)" fill="#fff"/>
                      <path id="Path_1662" data-name="Path 1662" d="M2471.779,762.584h-1.89l2.258-9.782h1.89Z" transform="translate(-2427.248 -744.52)" fill="#fff"/>
                    </g>
                  </g>
                </g>
                <path id="Path_1663" data-name="Path 1663" d="M2313.024,690.117h-18.589l.7-3.046h18.589Z" transform="translate(-2283.783 -625.586)" fill="#fff"/>
                <path id="Path_1664" data-name="Path 1664" d="M2310.2,702.367h-18.589l.7-3.046H2310.9Z" transform="translate(-2282.143 -632.689)" fill="#fff"/>
                <g class="Group_37344" data-name="Group 37344" transform="translate(13.306 0.875)">
                  <g class="Group_37343" data-name="Group 37343">
                    <path id="Path_1665" data-name="Path 1665" d="M2360.938,543.413h-31.859l.142-.614h31.859Z" transform="translate(-2317.178 -542.799)" fill="#fff"/>
                    <path id="Path_1666" data-name="Path 1666" d="M2359.589,549.256H2327.73l.142-.614h31.858Z" transform="translate(-2316.396 -546.188)" fill="#fff"/>
                    <path id="Path_1667" data-name="Path 1667" d="M2358.24,555.1h-31.859l.142-.614h31.859Z" transform="translate(-2315.614 -549.576)" fill="#fff"/>
                    <path id="Path_1668" data-name="Path 1668" d="M2356.891,560.943h-31.858l.142-.614h31.859Z" transform="translate(-2314.831 -552.964)" fill="#fff"/>
                    <path id="Path_1669" data-name="Path 1669" d="M2355.542,566.786h-31.858l.142-.614h31.858Z" transform="translate(-2314.049 -556.353)" fill="#fff"/>
                    <path id="Path_1670" data-name="Path 1670" d="M2354.193,572.629h-31.858l.142-.614h31.859Z" transform="translate(-2313.267 -559.741)" fill="#fff"/>
                    <path id="Path_1671" data-name="Path 1671" d="M2352.844,578.472h-31.858l.142-.614h31.858Z" transform="translate(-2312.485 -563.13)" fill="#fff"/>
                    <path id="Path_1672" data-name="Path 1672" d="M2351.495,584.315h-31.858l.142-.614h31.859Z" transform="translate(-2311.702 -566.518)" fill="#fff"/>
                    <path id="Path_1673" data-name="Path 1673" d="M2350.146,590.158h-31.858l.142-.614h31.858Z" transform="translate(-2310.92 -569.906)" fill="#fff"/>
                    <path id="Path_1674" data-name="Path 1674" d="M2348.8,596h-31.858l.142-.614h31.859Z" transform="translate(-2310.138 -573.295)" fill="#fff"/>
                    <path id="Path_1675" data-name="Path 1675" d="M2347.448,601.844H2315.59l.142-.614h31.859Z" transform="translate(-2309.355 -576.683)" fill="#fff"/>
                    <path id="Path_1676" data-name="Path 1676" d="M2346.1,607.688H2314.24l.142-.614h31.858Z" transform="translate(-2308.573 -580.071)" fill="#fff"/>
                    <path id="Path_1677" data-name="Path 1677" d="M2344.75,613.531h-31.858l.142-.614h31.858Z" transform="translate(-2307.791 -583.46)" fill="#fff"/>
                    <path id="Path_1678" data-name="Path 1678" d="M2343.4,619.374h-31.858l.142-.614h31.859Z" transform="translate(-2307.009 -586.848)" fill="#fff"/>
                    <path id="Path_1679" data-name="Path 1679" d="M2342.052,625.217h-31.859l.142-.614h31.858Z" transform="translate(-2306.227 -590.236)" fill="#fff"/>
                    <path id="Path_1680" data-name="Path 1680" d="M2340.7,631.06h-31.859l.142-.614h31.858Z" transform="translate(-2305.444 -593.625)" fill="#fff"/>
                    <path id="Path_1681" data-name="Path 1681" d="M2339.354,636.9H2307.5l.142-.614H2339.5Z" transform="translate(-2304.662 -597.013)" fill="#fff"/>
                    <path id="Path_1682" data-name="Path 1682" d="M2338,642.746h-31.858l.142-.614h31.859Z" transform="translate(-2303.88 -600.401)" fill="#fff"/>
                    <path id="Path_1683" data-name="Path 1683" d="M2336.656,648.589H2304.8l.142-.614H2336.8Z" transform="translate(-2303.097 -603.79)" fill="#fff"/>
                    <path id="Path_1684" data-name="Path 1684" d="M2335.307,654.433h-31.859l.142-.614h31.858Z" transform="translate(-2302.315 -607.178)" fill="#fff"/>
                    <path id="Path_1685" data-name="Path 1685" d="M2333.958,660.276H2302.1l.142-.614H2334.1Z" transform="translate(-2301.533 -610.567)" fill="#fff"/>
                    <path id="Path_1686" data-name="Path 1686" d="M2332.609,666.119H2300.75l.142-.614h31.859Z" transform="translate(-2300.75 -613.955)" fill="#fff"/>
                  </g>
                </g>
                <path id="Path_1687" data-name="Path 1687" d="M2372.848,695.251h62.913l2.716-11.763h-62.913Z" transform="translate(-2329.253 -623.508)" fill="#5e5ecc"/>
              </g>
            </g>
          </g>
          <rect class="class="Rectangle_1623" data-name="Rectangle 1623" width="134.505" height="3.008" transform="translate(26.079 140.487)" fill="#56565d"/>
        </g>
        <ellipse id="Ellipse_19" data-name="Ellipse 19" cx="297.328" cy="12.88" rx="297.328" ry="12.88" transform="translate(27.51 286.89)" fill="#c3dff4"/>
        <g class="Group_37349" data-name="Group 37349" transform="translate(506.524 86.145)">
          <rect class="class="Rectangle_1624" data-name="Rectangle 1624" width="6.862" height="57.135" transform="translate(41.031 194.32) rotate(180)" fill="#89727d"/>
          <rect class="class="Rectangle_1625" data-name="Rectangle 1625" width="20.586" height="8.612" transform="translate(47.893 138.865) rotate(180)" fill="#402631"/>
          <rect class="class="Rectangle_1626" data-name="Rectangle 1626" width="27.727" height="8.612" transform="translate(51.464 132.774) rotate(180)" fill="#241721"/>
          <path id="Path_1688" data-name="Path 1688" d="M2658.761,1203.108l28.457-15.725.057-.351,4.629-.767,4.629.767h0l29.092,16.076h3.58v1.789h-16.188v-1.789h2.6l-20.376-11.286,2.7,11.286h5.048v1.789h-21.006v-1.789h3.958l2.363-11.312-19.536,11.312h2.6v1.789h-16.188v-1.789Z" transform="translate(-2654.592 -993.537)" fill="#402631"/>
          <rect class="class="Rectangle_1627" data-name="Rectangle 1627" width="11.448" height="2.591" transform="translate(43.517 194.705) rotate(180)" fill="#241721"/>
          <path id="Path_1689" data-name="Path 1689" d="M2720.787,846.517c-.393-4.733,2.327-33.9.363-58.653-2.167-27.3,6.849-54.873,11.05-57.726,4.594-5.339,12.051-1.873,11.421,4.447-.113.273-9.525,25.866-10.336,51.836-.824,26.4-1.254,59.762-1.225,60.1v7.752h-78.281v-7.752Z" transform="translate(-2653.779 -727.512)" fill="#402631"/>
        </g>
        <g class="Group_37407" data-name="Group 37407" transform="translate(47.384 35.213)">
          <g class="Group_37350" data-name="Group 37350" transform="translate(140.306 216.429)">
            <path id="Path_1690" data-name="Path 1690" d="M1929.277,1151.61c.365,3.71-11.7,2.248-13.88,1.941s-16.557-.672-18.367-3.243c-1.8-2.55-.71-8.936-1.147-12.574a.459.459,0,0,0-.008-.08c-.466-3.63-4.554-6.718-4.554-6.949l7.5-7.318,1.991-1.941s.328.462.878,1.235c1.836,2.592,6.167,8.688,8.995,12.574,1.424,1.958,2.466,3.357,2.617,3.466C1913.842,1139.108,1928.907,1147.9,1929.277,1151.61Z" transform="translate(-1891.32 -1121.446)" fill="#34344c"/>
          </g>
          <path id="Path_1691" data-name="Path 1691" d="M1910.683,1136.96c-4.609,1.764-10.641,2.319-14.8,2.479a.459.459,0,0,0-.008-.08c-.466-3.63-4.554-6.718-4.554-6.949l7.5-7.318c.9-.227,1.853-.462,2.869-.706C1903.524,1126.978,1907.856,1133.074,1910.683,1136.96Z" transform="translate(-1751.014 -906.722)" fill="#2d2d3f"/>
          <g class="Group_37351" data-name="Group 37351" transform="translate(116.906 246.593)">
            <path id="Path_1692" data-name="Path 1692" d="M1868.83,1209.277c.2,3.021-28.979,3.4-30.059,1.932-.559-.756-.6-5.684-.26-9.8a6.947,6.947,0,0,0,0-1.147c-.277-3.533-2.886-7.02-2.886-7.02l17.069.134s1.487,5.482,2.4,6.52a5.182,5.182,0,0,0,1.046.7C1859.369,1202.417,1868.658,1206.694,1868.83,1209.277Z" transform="translate(-1835.62 -1193.246)" fill="#34344c"/>
          </g>
          <path id="Path_1693" data-name="Path 1693" d="M1856.134,1200.6a88.285,88.285,0,0,1-17.628-.332c-.277-3.533-2.886-7.02-2.886-7.02l17.069.134s1.487,5.482,2.4,6.52A5.182,5.182,0,0,0,1856.134,1200.6Z" transform="translate(-1718.714 -946.653)" fill="#2d2d3f"/>
          <g class="Group_37356" data-name="Group 37356" transform="translate(45.052)">
            <g class="Group_37352" data-name="Group 37352" transform="translate(1.04 33.384)">
              <path id="Path_1694" data-name="Path 1694" d="M1689.935,691.937l-3.043,6.3-3.207,6.631-16.623-7.771,5.119-7.824a5.586,5.586,0,0,1,.869-1.343C1674.828,685.833,1679.628,682.877,1689.935,691.937Z" transform="translate(-1667.062 -685.74)" fill="#fcbd72"/>
            </g>
            <g class="Group_37353" data-name="Group 37353" transform="translate(7.028 33.384)">
              <path id="Path_1695" data-name="Path 1695" d="M1698.2,691.937l-3.043,6.3a48.475,48.475,0,0,1-13.842-10.306C1683.094,685.833,1687.894,682.877,1698.2,691.937Z" transform="translate(-1681.316 -685.74)" fill="#eaa357"/>
            </g>
            <g class="Group_37354" data-name="Group 37354">
              <path id="Path_1696" data-name="Path 1696" d="M1673.583,641.049a11.367,11.367,0,0,0-1,.818l-1.84,1.33-3.553-10.808s-3.1-11.435-2.538-14.247,4.148-9.919,15.908-10.584,16.567-1.074,18.97-1.278-.512,9.2-3.733,13.192S1673.583,641.049,1673.583,641.049Z" transform="translate(-1664.587 -606.276)" fill="#383896"/>
            </g>
            <g class="Group_37355" data-name="Group 37355" transform="translate(3.177 12.023)">
              <path id="Path_1697" data-name="Path 1697" d="M1676.971,655.242v3.221s17.641,7.568,18.306,7.67,4.141-9.511,4.295-10.891,4.039-1.688,4.091-2.608-1.943-5.727-1.994-6.7a81.7,81.7,0,0,0-1.482-9.868s-7.875-1.892-12.221-.869-5.216,10.687-6.238,11.811-4.244-5.778-6.238-5.88-4.244,3.068-2.966,7.874S1676.971,655.242,1676.971,655.242Z" transform="translate(-1672.149 -634.894)" fill="#fcbd72"/>
            </g>
          </g>
          <path id="Path_1698" data-name="Path 1698" d="M1732.18,827.75l-5.846,57.489,10.363-1.371Z" transform="translate(-1655.34 -734.706)" fill="#36363a"/>
          <g class="Group_37374" data-name="Group 37374" transform="translate(104.823 65.93)">
            <g class="Group_37357" data-name="Group 37357" transform="translate(23.807 13.658)">
              <path id="Path_1699" data-name="Path 1699" d="M1863.619,796.01l-.093.968,1.948.672-.959-1.929Z" transform="translate(-1863.526 -795.721)" fill="#fcbd72"/>
            </g>
            <g class="Group_37358" data-name="Group 37358" transform="translate(17.406 9.395)">
              <path id="Path_1700" data-name="Path 1700" d="M1855.681,789.836l-.989,1.257-6.4-5.039a3.45,3.45,0,0,1,2.013-.476Z" transform="translate(-1848.291 -785.573)" fill="#517eaf"/>
            </g>
            <g class="Group_37359" data-name="Group 37359" transform="translate(18.489 10.577)">
              <path id="Path_1701" data-name="Path 1701" d="M1850.869,789.687s1.042,1.737,1.809,1.875.775-.081.816-.377a21.3,21.3,0,0,0-.993-2.8Z" transform="translate(-1850.869 -788.387)" fill="#fcbd72"/>
            </g>
            <g class="Group_37360" data-name="Group 37360" transform="translate(0 5.24)">
              <path id="Path_1702" data-name="Path 1702" d="M1830.382,780.786c-.131-.532-3.9-3.687-4.876-4.326s-4.257-.875-6.4-.742-6.709,4.921-8.358,6.947a5.756,5.756,0,0,1-3.886,2.12l1.95,6.377a14.915,14.915,0,0,1,5.189-1.194c2.629-.035,7.86-2,10.033-5.886.466-.7,3.118-2.162,3.4-2.742a1.039,1.039,0,0,0-.161-1.082,5.6,5.6,0,0,0,1.689,1.267C1829.858,781.9,1830.512,781.319,1830.382,780.786Z" transform="translate(-1806.859 -775.682)" fill="#fcbd72"/>
            </g>
            <g class="Group_37362" data-name="Group 37362" transform="translate(12.009 8.25)">
              <g class="Group_37361" data-name="Group 37361">
                <path id="Path_1703" data-name="Path 1703" d="M1837.957,786.282a.122.122,0,0,1-.105-.087,8.017,8.017,0,0,0-2.362-3.132.122.122,0,0,1,.153-.189,8.111,8.111,0,0,1,2.442,3.254.121.121,0,0,1-.083.15A.119.119,0,0,1,1837.957,786.282Z" transform="translate(-1835.444 -782.848)" fill="#e2a059"/>
              </g>
            </g>
            <g class="Group_37364" data-name="Group 37364" transform="translate(13.625 8.677)">
              <g class="Group_37363" data-name="Group 37363">
                <path id="Path_1704" data-name="Path 1704" d="M1839.4,785.378a.121.121,0,0,1-.086-.193c1.22-1.651,2.425-1.293,2.476-1.276a.121.121,0,0,1,.078.152.118.118,0,0,1-.151.079c-.048-.014-1.1-.311-2.208,1.189A.121.121,0,0,1,1839.4,785.378Z" transform="translate(-1839.29 -783.865)" fill="#e2a059"/>
              </g>
            </g>
            <g class="Group_37365" data-name="Group 37365" transform="translate(5.977)">
              <path id="Path_1705" data-name="Path 1705" d="M1834.529,772.61a3.451,3.451,0,0,0-2.014.476l-11.429-8.755,1.021-1.121Z" transform="translate(-1821.086 -763.21)" fill="#517eaf"/>
            </g>
            <g class="Group_37367" data-name="Group 37367" transform="translate(9.774 11.376)">
              <g class="Group_37366" data-name="Group 37366">
                <path id="Path_1706" data-name="Path 1706" d="M1831.884,790.9a7.219,7.219,0,0,1-1.681-.378.121.121,0,1,1,.085-.227c.021.007,2.147.792,3.453.1a.121.121,0,0,1,.113.215A3.543,3.543,0,0,1,1831.884,790.9Z" transform="translate(-1830.125 -790.289)" fill="#e2a059"/>
              </g>
            </g>
            <g class="Group_37369" data-name="Group 37369" transform="translate(12.596 9.279)">
              <g class="Group_37368" data-name="Group 37368">
                <path id="Path_1707" data-name="Path 1707" d="M1836.951,789.919h-.009a.121.121,0,0,1-.1-.14c.3-1.746,2.648-2.72,2.748-2.76h0a18.782,18.782,0,0,0,1.923-1.179,4.083,4.083,0,0,1,2.1-.542h.037a.123.123,0,0,1,.122.056.122.122,0,0,1-.04.167.2.2,0,0,1-.123.019,3.839,3.839,0,0,0-1.964.5,18.823,18.823,0,0,1-1.951,1.194c-.032.013-2.33.968-2.609,2.58A.121.121,0,0,1,1836.951,789.919Z" transform="translate(-1836.842 -785.296)" fill="#e2a059"/>
              </g>
            </g>
            <g class="Group_37371" data-name="Group 37371" transform="translate(17.86 7.775)">
              <g class="Group_37370" data-name="Group 37370">
                <path id="Path_1708" data-name="Path 1708" d="M1851.531,783.539l-.017,0a3.553,3.553,0,0,0-.589-.074.12.12,0,0,1-.115-.127.121.121,0,0,1,.127-.115c.058,0,.113.007.163.011l-1.682-1.3a.121.121,0,0,1-.022-.17.123.123,0,0,1,.17-.022l2.05,1.582a.121.121,0,0,1-.085.217Z" transform="translate(-1849.371 -781.716)" fill="#e2a059"/>
              </g>
            </g>
            <g class="Group_37373" data-name="Group 37373" transform="translate(18.783 11.048)">
              <g class="Group_37372" data-name="Group 37372">
                <path id="Path_1709" data-name="Path 1709" d="M1851.678,790.776a.12.12,0,0,1-.1-.078.121.121,0,0,1,.071-.156,4.528,4.528,0,0,0,1.29-1,.121.121,0,1,1,.179.164,4.7,4.7,0,0,1-1.385,1.059A.122.122,0,0,1,1851.678,790.776Z" transform="translate(-1851.568 -789.508)" fill="#e2a059"/>
              </g>
            </g>
          </g>
          <g class="Group_37375" data-name="Group 37375" transform="translate(103.249 78.605)">
            <path id="Path_1710" data-name="Path 1710" d="M1803.112,793.472l4.071-.091,2.523,8.619-4.863,1.156Z" transform="translate(-1803.112 -793.382)" fill="#46464c"/>
          </g>
          <g class="Group_37386" data-name="Group 37386" transform="translate(101.176 103.116)">
            <g class="Group_37376" data-name="Group 37376">
              <path id="Path_1711" data-name="Path 1711" d="M1800.6,855.475a4.314,4.314,0,0,0,4.176-.427c2.244-1.44,6.185-3.5,7.736-3.31a39.428,39.428,0,0,1,8.254,2.936c.858.637,5.152,5.706,4.958,6.4s-1.5.581-2.368.145a3.971,3.971,0,0,1-1.433-1.7,9.866,9.866,0,0,1,.423,2.448,1.555,1.555,0,0,1-2.106-.661c-.561-1.184-.873-1.786-.873-1.786s-.291,2.451-.561,2.576-1.246.387-1.537-1.1c-.083-1.269-.1-2.285-.1-2.285s-.988,1.938-1.226,2.223c-.424.508-1.288-.84-1.1-1.537,0,0-4.134,2.957-7.458,3.016s-9.2,0-9.2,0Z" transform="translate(-1798.178 -851.725)" fill="#fcbd72"/>
            </g>
            <g class="Group_37385" data-name="Group 37385" transform="translate(9.138 0.8)">
              <g class="Group_37378" data-name="Group 37378" transform="translate(5.498)">
                <g class="Group_37377" data-name="Group 37377">
                  <path id="Path_1712" data-name="Path 1712" d="M1837.658,859.353a.126.126,0,0,1-.058-.014.127.127,0,0,1-.055-.171c.7-1.368-.213-3.263-.625-3.8a14.471,14.471,0,0,0-3.812-1.493.127.127,0,1,1,.07-.244c.359.1,3.515,1.025,3.944,1.582s1.405,2.591.65,4.068A.127.127,0,0,1,1837.658,859.353Z" transform="translate(-1833.016 -853.629)" fill="#e2a059"/>
                </g>
              </g>
              <g class="Group_37380" data-name="Group 37380" transform="translate(11.426 1.787)">
                <g class="Group_37379" data-name="Group 37379">
                  <path id="Path_1713" data-name="Path 1713" d="M1848.084,862.525h-.016a.128.128,0,0,1-.11-.142,6.8,6.8,0,0,0-.81-4.3.127.127,0,1,1,.212-.141,6.943,6.943,0,0,1,.851,4.476A.127.127,0,0,1,1848.084,862.525Z" transform="translate(-1847.126 -857.881)" fill="#e2a059"/>
                </g>
              </g>
              <g class="Group_37382" data-name="Group 37382" transform="translate(13.503 3.088)">
                <g class="Group_37381" data-name="Group 37381">
                  <path id="Path_1714" data-name="Path 1714" d="M1853.305,864.322a.127.127,0,0,1-.125-.1,23.24,23.24,0,0,0-1.1-3.061.127.127,0,0,1,.234-.1,22.964,22.964,0,0,1,1.116,3.116.128.128,0,0,1-.1.148Z" transform="translate(-1852.07 -860.98)" fill="#e2a059"/>
                </g>
              </g>
              <g class="Group_37384" data-name="Group 37384" transform="translate(0 4.054)">
                <g class="Group_37383" data-name="Group 37383">
                  <path id="Path_1715" data-name="Path 1715" d="M1820.056,866.32a.127.127,0,0,1-.062-.237,38.853,38.853,0,0,1,5.619-2.713,2.176,2.176,0,0,1,2.443.846.127.127,0,0,1-.218.131,1.9,1.9,0,0,0-2.161-.732,39.618,39.618,0,0,0-5.558,2.689A.132.132,0,0,1,1820.056,866.32Z" transform="translate(-1819.929 -863.279)" fill="#e2a059"/>
                </g>
              </g>
            </g>
          </g>
          <g class="Group_37387" data-name="Group 37387" transform="translate(36.043 53.314)">
            <path id="Path_1716" data-name="Path 1716" d="M1714.577,767.973s-31.038,8.1-44.07,10.385a29.811,29.811,0,0,1-4.949.588c-6.054-.235-17.762-22.619-21.552-32.87s5.667-14.322,13.015-12.456,15.183,26.539,15.183,26.539l5.436-.294,6.768-.361L1712.451,758l1.5,7.02Z" transform="translate(-1643.142 -733.181)" fill="#74747a"/>
            <path id="Path_1717" data-name="Path 1717" d="M1751.58,802.386s-31.038,8.1-44.07,10.385c-.6-3.663-2.5-14.07,7.134-18.493a22.367,22.367,0,0,1,6.541-1.752s.059.542.227,1.391c.668,3.331,3.067,11.435,10.486,10.373,5.89-.84,13.935-3.222,19.052-4.861Z" transform="translate(-1680.145 -767.595)" fill="#6b6b70"/>
          </g>
          <g class="Group_37388" data-name="Group 37388" transform="translate(48.305 133)">
            <path id="Path_1718" data-name="Path 1718" d="M1782.681,1013.934c-.294.193-3,1.735-6.087,3.491-4.466,2.537-9.738,5.512-9.738,5.512s-38.625-65.538-45.612-76.628c-9.612-2.038-32.643,5.348-32.643,5.348l-16.271-6.579,11.415-9.242s25.471-11.847,44.083-12.9c6.541-.37,12.234.592,15.674,3.869C1756.735,939.406,1783.4,1013.459,1782.681,1013.934Z" transform="translate(-1672.33 -922.859)" fill="#56565d"/>
            <path id="Path_1719" data-name="Path 1719" d="M1763.6,952.118s16.553-1.847,20.754,3.7,33.819,68.5,33.819,68.5-30.528-61.838-38.72-66.389A54.707,54.707,0,0,0,1763.6,952.118Z" transform="translate(-1725.256 -939.655)" fill="#5c5c63"/>
            <path id="Path_1720" data-name="Path 1720" d="M1859.284,1013.934c-.294.193-3,1.735-6.088,3.491-7.192-16.641-24.9-57.034-33.752-72.154-7.033-12.007-12.158-18.871-15.015-22.337,6.541-.37,12.234.592,15.675,3.869C1833.338,939.406,1860,1013.459,1859.284,1013.934Z" transform="translate(-1748.933 -922.859)" fill="#4e4e54"/>
          </g>
          <g class="Group_37389" data-name="Group 37389" transform="translate(42.172 40.685)">
            <path id="Path_1721" data-name="Path 1721" d="M1683.848,722.8l-1.375-11.382-20.638-8.3-4.1,7.223Z" transform="translate(-1657.731 -703.119)" fill="#56565d"/>
          </g>
          <g class="Group_37390" data-name="Group 37390" transform="translate(37.618 152.919)">
            <path id="Path_1722" data-name="Path 1722" d="M1744.953,1065.383l-1.907.55-1.462.42-4.071,1.176-10.184,2.937-29.744-75.784c-18.863,1.979-37.718,3.928-50.7-7.407l9.213-15.141s25.341-3.836,42.818-.5c5.541,1.059,10.3,2.84,13.2,5.7,3.785,3.726,14.221,26.812,22.064,44.4,3.983,15.981,7.936,32.071,9.747,39.461.109.45.214.87.307,1.252C1744.692,1064.324,1744.953,1065.383,1744.953,1065.383Z" transform="translate(-1646.89 -970.271)" fill="#46464c"/>
            <path id="Path_1723" data-name="Path 1723" d="M1816.053,1064.323c-.092-.382-.2-.8-.307-1.252-1.811-7.39-5.764-23.48-9.747-39.461-7.844-17.586-18.279-40.671-22.064-44.4-2.9-2.857-7.655-4.638-13.2-5.7,4.621,4.462,11.935,13.25,17.754,28.2,7.314,18.8,17.082,53.871,20.837,67.693l4.071-1.176,1.462-.42,1.907-.55S1816.511,1066.205,1816.053,1064.323Z" transform="translate(-1718.709 -972.153)" fill="#36363a"/>
          </g>
          <g class="Group_37391" data-name="Group 37391" transform="translate(22.985 45.879)">
            <path id="Path_1724" data-name="Path 1724" d="M1664.713,809.139c-.84,18.485-1,38.579-1,38.579a101.229,101.229,0,0,0-13.973-.311c-16.1.534-32.739,2.882-37.676-4.352,0,0,9.453-51.674,9.663-55.665s-5.714-41.684-1.706-56.837c5.134-16.889,17.325-16.9,27.169-12.851,5.869,2.411,10.906,6.264,13.12,8.843C1672.951,743.177,1665.553,790.654,1664.713,809.139Z" transform="translate(-1612.06 -715.482)" fill="#74747a"/>
            <path id="Path_1725" data-name="Path 1725" d="M1713.2,812.2c-.84,18.485-1,38.579-1,38.579a101.219,101.219,0,0,0-13.973-.311c1.794-15.254,8.2-72.469,6.2-96.286-1.424-17.027-5.688-27.723-8.751-33.42,5.869,2.411,10.906,6.264,13.12,8.843C1721.435,746.242,1714.037,793.719,1713.2,812.2Z" transform="translate(-1660.544 -718.546)" fill="#6b6b70"/>
          </g>
          <g class="Group_37392" data-name="Group 37392" transform="translate(100.261 104.752)">
            <path id="Path_1726" data-name="Path 1726" d="M1797.174,855.619l3.92,1.1-.105,8.98-4.989-.315Z" transform="translate(-1796 -855.619)" fill="#46464c"/>
          </g>
          <g class="Group_37393" data-name="Group 37393" transform="translate(37.618 55.732)">
            <path id="Path_1727" data-name="Path 1727" d="M1663.668,741.721c-6.092-4.516-16.384-4.345-16.771,6.58s13.864,40.967,19.375,43.48,44.679,6.519,44.679,6.519l1.276-10.987-33.467-10.334S1669.759,746.237,1663.668,741.721Z" transform="translate(-1646.889 -738.935)" fill="#74747a"/>
          </g>
          <g class="Group_37400" data-name="Group 37400" transform="translate(0 60.949)">
            <g class="Group_37394" data-name="Group 37394" transform="translate(47.284 134.559)">
              <rect class="class="Rectangle_1628" data-name="Rectangle 1628" width="6.862" height="57.135" fill="#89727d"/>
            </g>
            <g class="Group_37395" data-name="Group 37395" transform="translate(40.422 127.627)">
              <rect class="class="Rectangle_1629" data-name="Rectangle 1629" width="20.586" height="8.612" fill="#402631"/>
            </g>
            <g class="Group_37396" data-name="Group 37396" transform="translate(36.851 121.535)">
              <rect class="class="Rectangle_1630" data-name="Rectangle 1630" width="27.727" height="8.612" fill="#241721"/>
            </g>
            <g class="Group_37397" data-name="Group 37397" transform="translate(13.704 190.102)">
              <path id="Path_1728" data-name="Path 1728" d="M1660.409,1220.7l-28.457-15.725-.057-.351-4.628-.767-4.629.767h0l-29.092,16.076h-3.58v1.789h16.188V1220.7h-2.6l20.376-11.286-2.7,11.286h-5.048v1.789h21.006V1220.7h-3.958l-2.363-11.312L1650.4,1220.7h-2.6v1.789h16.188V1220.7Z" transform="translate(-1589.967 -1203.856)" fill="#402631"/>
            </g>
            <g class="Group_37398" data-name="Group 37398" transform="translate(44.798 189.488)">
              <rect class="class="Rectangle_1631" data-name="Rectangle 1631" width="11.448" height="2.591" fill="#241721"/>
            </g>
            <g class="Group_37399" data-name="Group 37399">
              <path id="Path_1729" data-name="Path 1729" d="M1578.655,867.733c.393-4.734-2.327-33.9-.363-58.653,2.167-27.3-6.849-54.873-11.05-57.726l-9.894,2.74c.113.273,8,27.573,8.809,53.542.824,26.4,1.254,59.762,1.225,60.1v7.752h78.281v-7.752Z" transform="translate(-1557.348 -751.354)" fill="#402631"/>
            </g>
          </g>
          <g class="Group_37401" data-name="Group 37401" transform="translate(118.815 243.372)">
            <path id="Path_1730" data-name="Path 1730" d="M1840.376,1189.708a.21.21,0,0,1-.063-.411l11.693-3.711a.21.21,0,1,1,.127.4l-11.693,3.711A.221.221,0,0,1,1840.376,1189.708Z" transform="translate(-1840.166 -1185.577)" fill="#535359"/>
          </g>
          <g class="Group_37402" data-name="Group 37402" transform="translate(143.526 219.292)">
            <path id="Path_1731" data-name="Path 1731" d="M1899.2,1135.3a.21.21,0,0,1-.113-.387l10.33-6.618a.21.21,0,1,1,.226.353l-10.33,6.618A.207.207,0,0,1,1899.2,1135.3Z" transform="translate(-1898.985 -1128.26)" fill="#535359"/>
          </g>
          <g class="Group_37403" data-name="Group 37403" transform="translate(77.365 80.053)">
            <path id="Path_1732" data-name="Path 1732" d="M1742.026,811.041l-.027,0a.21.21,0,0,1-.182-.234c.689-5.512-.305-13.66-.315-13.742a.21.21,0,0,1,.417-.052c.01.082,1.01,8.283.315,13.846A.21.21,0,0,1,1742.026,811.041Z" transform="translate(-1741.5 -796.826)" fill="#535359"/>
          </g>
          <g class="Group_37404" data-name="Group 37404" transform="translate(99.263 105.277)">
            <path id="Path_1733" data-name="Path 1733" d="M1793.835,864.483h-.024a.21.21,0,0,1-.186-.232l.788-7.194a.21.21,0,0,1,.418.046l-.788,7.194A.21.21,0,0,1,1793.835,864.483Z" transform="translate(-1793.625 -856.869)" fill="#535359"/>
          </g>
          <g class="Group_37405" data-name="Group 37405" transform="translate(103.198 79.378)">
            <path id="Path_1734" data-name="Path 1734" d="M1804.885,802.7a.209.209,0,0,1-.2-.161l-1.684-7.06a.21.21,0,1,1,.409-.1l1.684,7.061a.209.209,0,0,1-.156.253A.194.194,0,0,1,1804.885,802.7Z" transform="translate(-1802.991 -795.22)" fill="#535359"/>
          </g>
          <path id="Path_1735" data-name="Path 1735" d="M1700.58,945.547s-9.837-.771-10.328-.771-.35,17.155-.315,17.47,10.643,8.122,10.643,8.122l-8.507-9.733.247-13.2Z" transform="translate(-1634.209 -802.568)" fill="#535359"/>
          <g class="Group_37406" data-name="Group 37406" transform="translate(29.962 57.719)">
            <path id="Path_1736" data-name="Path 1736" d="M1685.022,799.739c-10.631-1.429-18.064-1.078-20.854-3.657s-17.176-19.427-18.4-41.4a11.614,11.614,0,0,1,1.751-8.328c-4.041,1.766-6.356,8.867-1.625,24.951s14.479,28.358,18.9,30,19.873,2.1,19.873,2.1Z" transform="translate(-1637.13 -745.223)" fill="#535359"/>
            <path id="Path_1737" data-name="Path 1737" d="M1681.316,743.665c2.315.8,5.379,6.923,7.321,12.243s8.888,24.993,8.888,24.993l30.375,10.322s-28.5-7.513-30.375-7.736-4.3,2.733-4.3,2.733a6.322,6.322,0,0,1,2.338-4.053C1694.463,779.466,1683.932,745.224,1681.316,743.665Z" transform="translate(-1659.197 -743.665)" fill="#8d8d94"/>
            <path id="Path_1738" data-name="Path 1738" d="M1634.748,825.526s2.881,21.407,2.6,29.678-8.682,46.012-8.682,46.012,12.043-39.281,12.743-46.982S1634.748,825.526,1634.748,825.526Z" transform="translate(-1628.667 -791.135)" fill="#8d8d94"/>
          </g>
        </g>
        <g class="Group_37438" data-name="Group 37438" transform="translate(218.583 36.358)">
          <g class="Group_37408" data-name="Group 37408" transform="translate(12.918 37.415)">
            <path id="Path_1739" data-name="Path 1739" d="M2040.183,698.107v-.046l-.493.023-.493-.023v.046c-9.893.475-44.393,2.6-41.962,15.306,2.521,13.174,9.873,97.993,9.873,97.993l32.582-1.833,32.582,1.833s7.352-84.819,9.873-97.993C2084.576,700.7,2050.076,698.582,2040.183,698.107Z" transform="translate(-1997.113 -698.061)" fill="#402631"/>
          </g>
          <g class="Group_37409" data-name="Group 37409" transform="translate(42.078 38.891)">
            <path id="Path_1740" data-name="Path 1740" d="M2066.523,706.961l1.621-3.685,2.816-1.123,18.491-.579,2.814,1.7-8.08,52.911-11.028-.735Z" transform="translate(-2066.523 -701.575)" fill="#4d4da0"/>
          </g>
          <g class="Group_37412" data-name="Group 37412" transform="translate(0 40.593)">
            <path id="Path_1741" data-name="Path 1741" d="M2052.9,714.409c-8.509-4.038-18.719-8.783-18.719-8.783l-12.863,50.6-11.258-50.6s-11.816,4.745-20.325,8.783-23.074,46.58-23.362,51.916,4.326,14.565,12.979,13.412a22.683,22.683,0,0,0,13.413-6.695l3.316,35.537,25.237,4.471,25.237-4.471,6.057-42.254s2.019,12.258,10.671,13.412,13.268-8.076,12.979-13.412S2061.412,718.447,2052.9,714.409Z" transform="translate(-1966.364 -705.626)" fill="#5e5ecc"/>
            <g class="Group_37410" data-name="Group 37410" transform="translate(34.306 2.943)">
              <path id="Path_1742" data-name="Path 1742" d="M2121.779,712.632l5.89,10.616-5.43,1.847,2.451,2.94-12.565,25.776,10.713-25.679-2.941-3.781,5.672-1.891Z" transform="translate(-2085.195 -712.632)" fill="#44447f"/>
              <path id="Path_1743" data-name="Path 1743" d="M2053.913,712.632l-5.89,10.616,5.43,1.847-2.451,2.94,12.565,25.776-10.713-25.679,2.941-3.781-5.671-1.891Z" transform="translate(-2048.023 -712.632)" fill="#44447f"/>
            </g>
            <g class="Group_37411" data-name="Group 37411" transform="translate(11.085 20.123)">
              <path id="Path_1744" data-name="Path 1744" d="M2009.134,753.526l-9.663,34.134s-5.776,4.516-6.722,8.4c0,0,3.676-3.991,7.142-4.2l4.621-5.547Z" transform="translate(-1992.75 -753.526)" fill="#44447f"/>
              <path id="Path_1745" data-name="Path 1745" d="M2169.488,753.526l9.663,34.134s5.777,4.516,6.722,8.4c0,0-3.676-3.991-7.142-4.2l-4.621-5.547Z" transform="translate(-2095.238 -753.526)" fill="#44447f"/>
            </g>
          </g>
          <g class="Group_37420" data-name="Group 37420" transform="translate(17.946 156.215)">
            <g class="Group_37413" data-name="Group 37413" transform="translate(34.07 2.941)">
              <rect class="class="Rectangle_1632" data-name="Rectangle 1632" width="5.882" height="62.029" fill="#89727d"/>
            </g>
            <g class="Group_37414" data-name="Group 37414" transform="translate(28.557 9.758)">
              <rect class="class="Rectangle_1633" data-name="Rectangle 1633" width="17.791" height="7.443" fill="#402631"/>
            </g>
            <g class="Group_37415" data-name="Group 37415" transform="translate(24.315 4.493)">
              <rect class="class="Rectangle_1634" data-name="Rectangle 1634" width="23.963" height="7.443" fill="#241721"/>
            </g>
            <g class="Group_37418" data-name="Group 37418" transform="translate(0 64.138)">
              <g class="Group_37416" data-name="Group 37416" transform="translate(0 0.613)">
                <path id="Path_1746" data-name="Path 1746" d="M2079.524,1151.814l-28.457-15.725-.056-.351-4.629-.767-4.629.767h0l-29.092,16.076h-3.58v1.789h16.188v-1.789h-2.6l20.376-11.286-2.7,11.286h-5.048v1.789H2056.3v-1.789h-3.958l-2.363-11.312,19.536,11.312h-2.6v1.789H2083.1v-1.789Z" transform="translate(-2009.082 -1134.971)" fill="#402631"/>
              </g>
              <g class="Group_37417" data-name="Group 37417" transform="translate(31.094)">
                <rect class="class="Rectangle_1635" data-name="Rectangle 1635" width="11.448" height="2.591" fill="#241721"/>
              </g>
            </g>
            <g class="Group_37419" data-name="Group 37419" transform="translate(7.323)">
              <rect class="class="Rectangle_1636" data-name="Rectangle 1636" width="59.376" height="5.882" fill="#402631"/>
            </g>
          </g>
          <g class="Group_37421" data-name="Group 37421" transform="translate(19.939 108.53)">
            <rect class="class="Rectangle_1637" data-name="Rectangle 1637" width="71.641" height="4.191" fill="#c0c0ce"/>
          </g>
          <g class="Group_37432" data-name="Group 37432" transform="translate(1.422 131.631)">
            <g class="Group_37430" data-name="Group 37430" transform="translate(0 101.142)">
              <g class="Group_37425" data-name="Group 37425">
                <g class="Group_37422" data-name="Group 37422" transform="translate(15.965)">
                  <path id="Path_1747" data-name="Path 1747" d="M2020.668,1163.076l-.155,1.16-.706,5.226-.126.945-.113.836-6.47-2.012-2.063-.647-2.474-.769-.126-.743-.412-2.4-.273-1.592Z" transform="translate(-2007.75 -1163.076)" fill="#fcbd72"/>
                </g>
                <g class="Group_37423" data-name="Group 37423" transform="translate(15.78 3.981)">
                  <path id="Path_1748" data-name="Path 1748" d="M2007.508,1175.273s-.625-2.716.344-2.716c.129-.063,8.234.607,12.076,3.723l-.484,3.729S2008.412,1176.831,2007.508,1175.273Z" transform="translate(-2007.31 -1172.553)" fill="#474768"/>
                </g>
                <g class="Group_37424" data-name="Group 37424" transform="translate(0 5.304)">
                  <path id="Path_1749" data-name="Path 1749" d="M1990.977,1176.4s2.067,3.656,3.358,3.989,3.832.374,4.047,1.454a30.637,30.637,0,0,1-.215,6.44c-.216.457-8.783,6.149-12.012,7.063s-14.251,1.579-15.715-1.246-.3-3.531.646-4.778,10.634-6.731,10.634-6.731l1.464-6.191S1986.07,1174.824,1990.977,1176.4Z" transform="translate(-1969.747 -1175.701)" fill="#34344c"/>
                </g>
              </g>
              <g class="Group_37429" data-name="Group 37429" transform="translate(79.793)">
                <g class="Group_37426" data-name="Group 37426">
                  <path id="Path_1750" data-name="Path 1750" d="M2172.6,1163.076l-.357,2.1-.328,1.9-.126.743-2.474.769-1.122.349-.941.294-6.474,2.017-.113-.832-.668-5-.315-2.332Z" transform="translate(-2159.68 -1163.076)" fill="#fcbd72"/>
                </g>
                <g class="Group_37427" data-name="Group 37427" transform="translate(0.483 3.982)">
                  <path id="Path_1751" data-name="Path 1751" d="M2173.442,1173.946a9.1,9.1,0,0,1-.189,1.328c-.353.609-2.252,1.466-4.432,2.285-3.407,1.273-7.5,2.453-7.5,2.453l-.088-.676-.4-3.054c.16-.13.328-.256.5-.374a21.069,21.069,0,0,1,7.545-2.806,32.413,32.413,0,0,1,3.705-.533,1.812,1.812,0,0,1,.328-.008C2173.4,1172.56,2173.484,1173.257,2173.442,1173.946Z" transform="translate(-2160.83 -1172.556)" fill="#474768"/>
                </g>
                <g class="Group_37428" data-name="Group 37428" transform="translate(0.159 5.304)">
                  <path id="Path_1752" data-name="Path 1752" d="M2188.089,1194.1c-1.462,2.827-12.486,2.164-15.712,1.248s-11.8-6.6-12.015-7.062a30.765,30.765,0,0,1-.214-6.44,1.034,1.034,0,0,1,.634-.685,19.844,19.844,0,0,1,3.411-.769c1.139-.29,2.874-3.159,3.277-3.844.054-.092.084-.147.084-.147.294-.1.58-.177.861-.248.387-.105.761-.185,1.118-.248a11.91,11.91,0,0,1,3.462-.135,6.956,6.956,0,0,1,2.353.63l.8,3.4.66,2.79s9.688,5.482,10.633,6.73S2189.551,1191.277,2188.089,1194.1Z" transform="translate(-2160.059 -1175.701)" fill="#34344c"/>
                </g>
              </g>
            </g>
            <g class="Group_37431" data-name="Group 37431" transform="translate(7.003)">
              <path id="Path_1753" data-name="Path 1753" d="M2076.722,977.84c-.95,8.159-4.151,47.708-4.151,47.708l-.8.017-4,.076-8.242.16-.811.017s-4.982-68.865-2.315-73.57l-22.644-5.335-22.644,5.335c2.668,4.705-1.55,72.331-1.55,72.331l-1.416.05-4.882.168-7.608.265-1.878.067s-9.247-78.292-7.008-83.812,19.834-18.989,19.834-18.989c15.128,5.835,32.118,6.953,47.17,2.567a61.772,61.772,0,0,0,6.058-2.109s15.674,12.872,17.914,18.392S2077.667,969.685,2076.722,977.84Z" transform="translate(-1986.417 -922.326)" fill="#ffa820"/>
            </g>
            <path id="Path_1754" data-name="Path 1754" d="M2169.691,978.472c-.95,8.159-4.151,47.708-4.151,47.708l-.8.017-4,.076c.013-.71.021-1.432.029-2.172.315-24.95.807-64.382.836-70.675.038-7.419-10.536-22.178-14.859-27.9a61.827,61.827,0,0,0,6.058-2.109s15.675,12.872,17.914,18.393S2170.636,970.317,2169.691,978.472Z" transform="translate(-2072.383 -922.958)" fill="#f79411"/>
            <path id="Path_1755" data-name="Path 1755" d="M2030.061,981.484c2.668,4.705-1.55,72.331-1.55,72.331l-1.416.051-4.882.168V989.626c0-12.595-2.756-16.431-3.113-16.88a18.257,18.257,0,0,0,12.7,4.39c7.423-.563,20.9-.987,20.9-.987Z" transform="translate(-1998.366 -951.564)" fill="#f79411"/>
          </g>
          <path id="Path_1756" data-name="Path 1756" d="M2061.867,958.861c6.19,3.146,25.31,8.383,25.31,8.383a20.982,20.982,0,0,0-2.3,6.189l-22.646-5.337-22.646,5.337a15.6,15.6,0,0,0-4.059-5.379C2038.568,968.572,2058.485,962.191,2061.867,958.861Z" transform="translate(-2006.468 -811.881)" fill="#f09405"/>
          <path id="Path_1757" data-name="Path 1757" d="M1995.533,972.632c-7.541,2.854,3.929,76.67,4.865,78.787,3.058.133,3.224-1.591,2.61-3.9S1996.957,974.725,1995.533,972.632Z" transform="translate(-1981.797 -819.867)" fill="#efc822"/>
          <path id="Path_1758" data-name="Path 1758" d="M2158.975,980.843c-2.522,4.436-3.386,10.623-3.1,28.177s2.158,49.353,2.158,49.353l3.31-.863C2160.337,1047.006,2156.461,1000.868,2158.975,980.843Z" transform="translate(-2076.229 -824.628)" fill="#ffbb52"/>
          <path id="Path_1759" data-name="Path 1759" d="M2094.779,729.748l-1.68-.805a.651.651,0,1,1-1.266,0l-1.681.805-2.485,19.64h9.6Z" transform="translate(-2036.706 -678.554)" fill="#8888ed"/>
          <path id="Path_1760" data-name="Path 1760" d="M2094.146,713.8l-.823.28-.265,1.206-.265-1.206-.823-.28-3.282-2.521,2.057,8.227h4.627l1.929-8.227Z" transform="translate(-2037.298 -668.31)" fill="#44447f"/>
          <g class="Group_37433" data-name="Group 37433" transform="translate(45.862 37.008)">
            <path id="Path_1761" data-name="Path 1761" d="M2095.052,699.207l-9.625,7.852-9.9-7.243.781-2.155c4.461,3.915,12.284,4.063,16.943.2a5.733,5.733,0,0,0,.76-.769Z" transform="translate(-2075.53 -697.094)" fill="#fcbd72"/>
          </g>
          <g class="Group_37434" data-name="Group 37434" transform="translate(46.644 32.849)">
            <path id="Path_1762" data-name="Path 1762" d="M2095.094,691.353c-2.878,6.045-12.441,8.584-17.7.567l1.718-4.726,13.969.055Z" transform="translate(-2077.39 -687.194)" fill="#eaa357"/>
          </g>
          <g class="Group_37435" data-name="Group 37435" transform="translate(39.057)">
            <path id="Path_1763" data-name="Path 1763" d="M2060.859,629.557s-2.363-5.356-1.208-10.188a8.618,8.618,0,0,1,5.671-6.092s1.155-6.984,13.549-3.1,14.386,11.276,9.87,20.781Z" transform="translate(-2059.333 -609.002)" fill="#262262"/>
          </g>
          <g class="Group_37436" data-name="Group 37436" transform="translate(38.903 13.393)">
            <path id="Path_1764" data-name="Path 1764" d="M2091.25,646.39c-1.154-2.413-3.82,2.219-3.82,2.219-.309-3.834-9.665-5.887-9.665-5.887-5.707.875-11.413-2.521-12.813-1.715s-1.639,6.766-1.639,6.766-3.449-3.744-4.193-1.591,1.335,6.582,3.385,7.978a22.7,22.7,0,0,0,2.091,6.611c3.537,6.3,13.519,7.37,19.055,2.786,1.95-1.615,3.213-5.232,4.031-9.24C2089.918,653.3,2092.274,649.506,2091.25,646.39Z" transform="translate(-2058.966 -640.881)" fill="#fcbd72"/>
          </g>
          <path id="Path_1765" data-name="Path 1765" d="M2078.641,666.785s-6.562-1.891-7.734-7.92.334-11.556.921-14.738l2.177.754c-.447,1.967-1.769,8.982-.626,14.152A12.688,12.688,0,0,0,2078.641,666.785Z" transform="translate(-2026.735 -629.371)" fill="#fcd4a4"/>
          <g class="Group_37437" data-name="Group 37437" transform="translate(9.18 70.069)">
            <path id="Path_1766" data-name="Path 1766" d="M2054.083,775.788h-65.868l10.759,38.461h71.642l10.759-38.461Z" transform="translate(-1988.215 -775.788)" fill="#e1e1ef"/>
          </g>
          <path id="Path_1767" data-name="Path 1767" d="M2114.037,918.36c-.006.655-11.424,6.644-26.537,3.994C2087.5,922.354,2107.245,920.461,2114.037,918.36Z" transform="translate(-2036.609 -788.395)" fill="#44447f"/>
        </g>
        <g class="Group_37476" data-name="Group 37476" transform="translate(409.441 25.487)">
          <g class="Group_37475" data-name="Group 37475">
            <g class="Group_37448" data-name="Group 37448" transform="translate(0 61.902)">
              <g class="Group_37439" data-name="Group 37439">
                <path id="Path_1768" data-name="Path 1768" d="M2440.406,738.248s.068-1.458-2.328-3.115-5.652-4.407-6.286-4.641-1.047,1.857.3,2.935,2.345,1.691,2.343,2.591a34.574,34.574,0,0,0-3.838-.91,13.366,13.366,0,0,1-3.518-1.2s-.454-.967-1.116-1.171-.741.791-.741.791-1.815-1.338-2.117-1.441-.858,1.163.224,2.5a10.27,10.27,0,0,0,2.474,2.156,6,6,0,0,0,1.4,2.792,25.63,25.63,0,0,0,7.435,4.831,12.019,12.019,0,0,0,5.011.119l5.9,1.635.9-7.229S2442.759,739.457,2440.406,738.248Z" transform="translate(-2422.691 -730.474)" fill="#fc9"/>
              </g>
              <g class="Group_37440" data-name="Group 37440" transform="translate(9.935 8.715)">
                <path id="Path_1769" data-name="Path 1769" d="M2451.215,753.814c-2.767,0-4.834-2.446-4.86-2.476a.073.073,0,0,1,.112-.093c.029.035,2.944,3.477,6.437,2.1a.073.073,0,0,1,.053.135A4.715,4.715,0,0,1,2451.215,753.814Z" transform="translate(-2446.339 -751.219)" fill="#efaf75"/>
              </g>
              <g class="Group_37441" data-name="Group 37441" transform="translate(11.013 9.728)">
                <path id="Path_1770" data-name="Path 1770" d="M2449.5,755.638a.073.073,0,0,1-.072-.071,4.166,4.166,0,0,0-.51-1.827.072.072,0,1,1,.122-.077,4.23,4.23,0,0,1,.532,1.9.072.072,0,0,1-.071.074Z" transform="translate(-2448.906 -753.629)" fill="#efaf75"/>
              </g>
              <g class="Group_37442" data-name="Group 37442" transform="translate(2.48 3.324)">
                <path id="Path_1771" data-name="Path 1771" d="M2429.208,741.162a.073.073,0,0,1-.07-.056c-.387-1.638-.541-2.628-.542-2.638a.072.072,0,0,1,.06-.083.076.076,0,0,1,.083.06c0,.01.155.995.541,2.627a.073.073,0,0,1-.054.087Z" transform="translate(-2428.594 -738.385)" fill="#efaf75"/>
              </g>
              <g class="Group_37443" data-name="Group 37443" transform="translate(3.99 5.757)">
                <path id="Path_1772" data-name="Path 1772" d="M2437.56,749a.072.072,0,0,1-.072-.066c-.058-.651-.791-1.054-1.566-1.481a3.673,3.673,0,0,1-1.839-1.586c-.4-1.048-1.189-1.584-1.586-1.545-.137.012-.153.093-.159.119a11.808,11.808,0,0,0,.979,2.817.072.072,0,1,1-.132.059,11.808,11.808,0,0,1-.989-2.9.293.293,0,0,1,.288-.236c.442-.036,1.3.508,1.735,1.637a3.577,3.577,0,0,0,1.773,1.512c.81.446,1.576.867,1.641,1.594a.074.074,0,0,1-.066.079Z" transform="translate(-2432.189 -744.177)" fill="#efaf75"/>
              </g>
              <g class="Group_37444" data-name="Group 37444" transform="translate(4.563 5.054)">
                <path id="Path_1773" data-name="Path 1773" d="M2436.811,744.027a.072.072,0,0,1-.024,0,26.814,26.814,0,0,1-3.2-1.384.072.072,0,1,1,.069-.127,26.538,26.538,0,0,0,3.177,1.375.072.072,0,0,1-.024.141Z" transform="translate(-2433.552 -742.503)" fill="#efaf75"/>
              </g>
              <g class="Group_37445" data-name="Group 37445" transform="translate(4.282 3.531)">
                <path id="Path_1774" data-name="Path 1774" d="M2433.335,741.079a.072.072,0,0,1-.071-.06l-.378-2.056a.072.072,0,0,1,.057-.084.071.071,0,0,1,.084.058l.378,2.056a.072.072,0,0,1-.058.084Z" transform="translate(-2432.885 -738.878)" fill="#efaf75"/>
              </g>
              <g class="Group_37446" data-name="Group 37446" transform="translate(5.879 7.349)">
                <path id="Path_1775" data-name="Path 1775" d="M2438.583,748.914a.073.073,0,0,1-.023,0,11.55,11.55,0,0,1-1.839-.808.073.073,0,0,1-.026-.1.072.072,0,0,1,.1-.026,11.34,11.34,0,0,0,1.812.8.072.072,0,0,1-.023.141Z" transform="translate(-2436.686 -747.967)" fill="#efaf75"/>
              </g>
              <g class="Group_37447" data-name="Group 37447" transform="translate(16.945 10.908)">
                <path id="Path_1776" data-name="Path 1776" d="M2463.1,759.445a.072.072,0,0,1-.054-.121,3.587,3.587,0,0,0,.912-2.8.073.073,0,0,1,.059-.084.07.07,0,0,1,.084.059,3.749,3.749,0,0,1-.947,2.922A.072.072,0,0,1,2463.1,759.445Z" transform="translate(-2463.026 -756.439)" fill="#efaf75"/>
              </g>
            </g>
            <g class="Group_37449" data-name="Group 37449" transform="translate(19.173 49.556)">
              <path id="Path_1777" data-name="Path 1777" d="M2535.771,722.663a97.091,97.091,0,0,1-10.452,11.7c-4.966,4.646-10.868,8.8-15.733,8.285-10.625-1.117-41.255-13.767-41.255-13.767l.2-.765.714-2.781.865-3.373.222-.87,38.277,6.65.008-.008.109-.13.832-1,10.083-12.045,2.462-2.941v0l8.823-10.532.336,1.5,1.285,5.718Z" transform="translate(-2468.33 -701.086)" fill="#74747a"/>
              <path id="Path_1778" data-name="Path 1778" d="M2535.771,722.663a97.091,97.091,0,0,1-10.452,11.7c-4.966,4.646-10.868,8.8-15.733,8.285-10.625-1.117-41.255-13.767-41.255-13.767l.2-.765.714-2.781c9.1,3.365,38.709,14.015,43.973,12.066,5.865-2.176,8.768-13.095,6.424-22.837l2.462-2.941v0l8.823-10.532.336,1.5,1.285,5.718Z" transform="translate(-2468.33 -701.086)" fill="#6a6a6d"/>
            </g>
            <g class="Group_37452" data-name="Group 37452" transform="translate(46.507 172.428)">
              <g class="Group_37450" data-name="Group 37450" transform="translate(15.24)">
                <path id="Path_1779" data-name="Path 1779" d="M2583.872,993.559l-3.769,17.808-10.436,71.167c1.574,3.028,7.475,4.237,10.5.911,0,0,15.542-42.014,17.925-68.882,0,0,6.837-5.65,7.716-21Z" transform="translate(-2569.667 -993.559)" fill="#fc9"/>
              </g>
              <g class="Group_37451" data-name="Group 37451" transform="translate(0 88.974)">
                <path id="Path_1780" data-name="Path 1780" d="M2548.632,1205.346a8.325,8.325,0,0,0,10.5.911s2.412,3.728,1.646,7.33-26.756,2.537-27.357,1.268S2541.314,1205.273,2548.632,1205.346Z" transform="translate(-2533.392 -1205.346)" fill="#34344c"/>
              </g>
            </g>
            <g class="Group_37455" data-name="Group 37455" transform="translate(80.58 174.448)">
              <g class="Group_37453" data-name="Group 37453" transform="translate(15.239)">
                <path id="Path_1781" data-name="Path 1781" d="M2662.876,998.367l-9.275,17.808-2.832,72.224c1.574,3.027,7.475,4.236,10.5.91,0,0,14.419-48.717,10.883-72.966,0,0,.1-2.622.978-17.976Z" transform="translate(-2650.77 -998.367)" fill="#fc9"/>
              </g>
              <g class="Group_37454" data-name="Group 37454" transform="translate(0 90.032)">
                <path id="Path_1782" data-name="Path 1782" d="M2629.735,1212.671a8.325,8.325,0,0,0,10.5.91s2.412,3.728,1.646,7.33-26.756,2.537-27.357,1.268S2622.417,1212.6,2629.735,1212.671Z" transform="translate(-2614.496 -1212.671)" fill="#34344c"/>
              </g>
            </g>
            <g class="Group_37456" data-name="Group 37456" transform="translate(67.008 113.901)">
              <path id="Path_1783" data-name="Path 1783" d="M2639.368,936.307a72.105,72.105,0,0,1-16.834,2.508c-13.166.449-26.509-2.327-40-6.31-2.29-21.678,7.772-66.886,7-75.477a166.692,166.692,0,0,0,32.907-1.017c4.121-.487,8.461-1.08,13.162-1.764C2634.1,875.508,2646.434,888.111,2639.368,936.307Z" transform="translate(-2582.191 -854.246)" fill="#56565d"/>
              <path id="Path_1784" data-name="Path 1784" d="M2694.926,936.307a72.105,72.105,0,0,1-16.834,2.508c3.638-11.545,6.806-33.071,4.949-52.384-1.958-20.392-4.281-28.269-5.041-30.42,4.121-.487,8.461-1.08,13.162-1.764C2689.658,875.508,2701.993,888.111,2694.926,936.307Z" transform="translate(-2637.75 -854.246)" fill="#47474c"/>
            </g>
            <g class="Group_37467" data-name="Group 37467" transform="translate(54.048 103.967)">
              <g class="Group_37457" data-name="Group 37457">
                <path id="Path_1785" data-name="Path 1785" d="M2568.691,830.6a4.315,4.315,0,0,1-3.53,2.273c-2.651.274-7.019,1.121-8.11,2.24a39.419,39.419,0,0,0-4.618,7.445c-.273,1.033-1.52,8.582-.937,9s1.367-.926,1.777-1.812,1.1-2.861,1.1-2.861a9.89,9.89,0,0,0,1.371,2.351c.5.379,1.534-.555,1.233-1.831s-.433-1.941-.433-1.941a10.491,10.491,0,0,0,2.046,1.663c.518.142,1.215-.476.514-1.82-.727-1.044-1.345-1.85-1.345-1.85s1.98.9,2.344.972c.648.132.482-1.46-.1-1.888,0,0,5.075-.269,7.709-2.3s7.191-5.742,7.191-5.742Z" transform="translate(-2551.342 -830.601)" fill="#fcbd72"/>
              </g>
              <g class="Group_37466" data-name="Group 37466" transform="translate(1.488 5.368)">
                <g class="Group_37459" data-name="Group 37459" transform="translate(2.257)">
                  <g class="Group_37458" data-name="Group 37458">
                    <path id="Path_1786" data-name="Path 1786" d="M2562.42,850.7a.13.13,0,0,0,.037-.047.128.128,0,0,0-.064-.168c-1.4-.632-1.869-2.682-1.882-3.358a14.466,14.466,0,0,1,2.048-3.545.127.127,0,0,0-.208-.147c-.215.3-2.107,2.994-2.094,3.7.013.718.519,2.9,2.031,3.584A.126.126,0,0,0,2562.42,850.7Z" transform="translate(-2560.257 -843.38)" fill="#e2a059"/>
                  </g>
                </g>
                <g class="Group_37461" data-name="Group 37461" transform="translate(0.811 5.095)">
                  <g class="Group_37460" data-name="Group 37460">
                    <path id="Path_1787" data-name="Path 1787" d="M2559.111,859.682l.012-.01a.127.127,0,0,0,0-.18,6.8,6.8,0,0,1-2.052-3.869.127.127,0,0,0-.254.022,6.944,6.944,0,0,0,2.129,4.028A.127.127,0,0,0,2559.111,859.682Z" transform="translate(-2556.814 -855.507)" fill="#e2a059"/>
                  </g>
                </g>
                <g class="Group_37463" data-name="Group 37463" transform="translate(0 7.408)">
                  <g class="Group_37462" data-name="Group 37462">
                    <path id="Path_1788" data-name="Path 1788" d="M2556.152,864.344a.127.127,0,0,0,.033-.159,23.317,23.317,0,0,1-1.051-3.078.127.127,0,1,0-.245.067,22.894,22.894,0,0,0,1.073,3.131.127.127,0,0,0,.172.052Z" transform="translate(-2554.884 -861.013)" fill="#e2a059"/>
                  </g>
                </g>
                <g class="Group_37465" data-name="Group 37465" transform="translate(5.53 1.915)">
                  <g class="Group_37464" data-name="Group 37464">
                    <path id="Path_1789" data-name="Path 1789" d="M2575.617,848.164a.127.127,0,0,0-.1-.225,38.88,38.88,0,0,0-6.083,1.386,2.175,2.175,0,0,0-1.381,2.186.127.127,0,0,0,.252-.034,1.9,1.9,0,0,1,1.231-1.92,39.694,39.694,0,0,1,6.021-1.367A.13.13,0,0,0,2575.617,848.164Z" transform="translate(-2568.046 -847.937)" fill="#e2a059"/>
                  </g>
                </g>
              </g>
            </g>
            <g class="Group_37468" data-name="Group 37468" transform="translate(77.731)">
              <path id="Path_1790" data-name="Path 1790" d="M2610.538,603.794s-6.392-11.344.057-15.369c0,0,2.05-6.1,16.116-5.21s18.2,16.88,18.2,16.88a21.4,21.4,0,0,1,6.88,17.354c-.843,11.016-15.237,22.671-25.856,7.558C2620.535,618.618,2610.538,603.794,2610.538,603.794Z" transform="translate(-2607.715 -583.126)" fill="#402631"/>
            </g>
            <g class="Group_37469" data-name="Group 37469" transform="translate(81.189 24.656)">
              <path id="Path_1791" data-name="Path 1791" d="M2634.226,670.323c-5.062,3.957-15.469,4.788-17.823,2.9s5.142-14.357,5.142-14.357,6.3-2.247,1.688-5.736c-2.39-1.807-3.581-6.946-3.581-6.946a49.227,49.227,0,0,1,13.514-4.2c.328-.06.652-.115.972-.17l-.764,6.265s.59,2.423,1.028,4.276c.243,1.042.443,1.911.46,2.066C2634.862,654.422,2639.288,666.362,2634.226,670.323Z" transform="translate(-2615.946 -641.815)" fill="#fc9"/>
            </g>
            <g class="Group_37470" data-name="Group 37470" transform="translate(71.857 37.209)">
              <path id="Path_1792" data-name="Path 1792" d="M2642.3,748.388s-11.2,2.218-23.043,3.357c-8.734.84-17.821,1.088-23.026-.576,0,0,4.016-19.573,1.828-33.756-.5-3.247-1.185-2.89-2.479-5.726-3.365-10.121-1.928-17.426,2.734-23.6a111.637,111.637,0,0,1,10.352-11.885c-.193.286-4.928,7.512.735,7.835,5.772.336,12.582-12.288,12.582-12.288s5.512-.819,11.642,3.89a27.51,27.51,0,0,1,6.129,6.768c4.71,7.1,1.643,37.629,2.311,43.343S2642.3,748.388,2642.3,748.388Z" transform="translate(-2593.733 -671.696)" fill="#74747a"/>
              <path id="Path_1793" data-name="Path 1793" d="M2677.523,753.833s-11.2,2.218-23.043,3.357c7.541-2.516,13.595-8.516,15.448-13.292,2.311-5.953,1.89-22.4,1.365-36.159-.407-10.709-1.836-22.123-2.445-26.652a27.507,27.507,0,0,1,6.129,6.768c4.71,7.1,1.643,37.629,2.311,43.343S2677.523,753.833,2677.523,753.833Z" transform="translate(-2628.959 -677.141)" fill="#6a6a6d"/>
            </g>
            <g class="Group_37471" data-name="Group 37471" transform="translate(65.457 45.415)">
              <path id="Path_1794" data-name="Path 1794" d="M2626.5,694.592s5.422,6.3-.841,19.981-8.5,19.123-11,23.026-29.435,22.114-29.435,22.114l-6.722-7.982,24.261-24.853s2.883-28.988,11.464-33.835S2626.5,694.592,2626.5,694.592Z" transform="translate(-2578.5 -691.228)" fill="#74747a"/>
            </g>
            <g class="Group_37472" data-name="Group 37472" transform="translate(80.985 11.721)">
              <path id="Path_1795" data-name="Path 1795" d="M2624.735,635.382c11.077-1.351,11.929-10.3,11.929-10.3,4.953.559,8.078-6.579,4.371-8.3-.769-.357-3.376-.132-4.7,3.486,0,0-1.257,5.824-3.243-2.559a26.884,26.884,0,0,1-7.795-2.852,40.579,40.579,0,0,0-9.4-3.834,22.453,22.453,0,0,0-.2,6.809C2614.67,623.8,2616.853,635.382,2624.735,635.382Z" transform="translate(-2615.461 -611.025)" fill="#fc9"/>
            </g>
            <g class="Group_37474" data-name="Group 37474" transform="translate(77.483 110.938)">
              <g class="Group_37473" data-name="Group 37473" transform="translate(2.608)">
                <path id="Path_1796" data-name="Path 1796" d="M2651.423,847.193c.235.51-15.912,6.857-38.09,5.041C2626.9,850.99,2639.742,849.382,2651.423,847.193Z" transform="translate(-2613.333 -847.193)" fill="#535359"/>
              </g>
              <path id="Path_1797" data-name="Path 1797" d="M2650.2,1037.555c0,1.894-19.216,8.712-43.078,0C2622.249,1039.521,2636.7,1039.758,2650.2,1037.555Z" transform="translate(-2607.124 -957.582)" fill="#414144"/>
            </g>
            <path id="Path_1798" data-name="Path 1798" d="M2599.472,872.193s-6.083,61.719-5.757,65.257c0,0,5.714-23.526,6.414-36.83A234.887,234.887,0,0,0,2599.472,872.193Z" transform="translate(-2521.859 -750.752)" fill="#74747a"/>
          </g>
          <path id="Path_1799" data-name="Path 1799" d="M2644.348,661.222l-.327-1.519c-2.734,1.823-6.569,3.857-10.364,3.922.633.458,1.953,1.691,1.407,3.108a3.2,3.2,0,0,1-1.047,1.3C2640.336,666.707,2644.348,661.222,2644.348,661.222Z" transform="translate(-2545.028 -627.532)" fill="#fcb268"/>
          <path id="Path_1800" data-name="Path 1800" d="M2600.242,765.133s21.19-15.439,24.218-17.961a19.525,19.525,0,0,0,4.944-6.761c.908-1.614,8.678-17.76,10.191-23.108s1.917-9.99.4-13.925c1.715,2.724,5.269,6.192.706,19.576-6.054,17.759-9.485,21.8-14.53,27.245-2.426,2.62-26.135,17.558-26.135,17.558Z" transform="translate(-2525.534 -652.859)" fill="#535359"/>
          <path id="Path_1801" data-name="Path 1801" d="M2592.24,726.154c-.684,2.906-.877,10.709,2.092,15.867,1.966,5.044,1.136,6.972,1.136,6.972l-5.077,4.129c.342-3.676,1.991-13.59-1.118-23.426Z" transform="translate(-2519.29 -666.066)" fill="#535359"/>
          <path id="Path_1802" data-name="Path 1802" d="M2605.532,779.987l12.905-13.219c.5-4.046.912-6.751.912-6.751C2617.483,764.455,2605.532,779.987,2605.532,779.987Z" transform="translate(-2528.718 -685.703)" fill="#535359"/>
          <path id="Path_1803" data-name="Path 1803" d="M2567.273,768.482a15.1,15.1,0,0,0-3.063-5.512s0,0,0-.008l.109-.13.832-1C2566.508,763.5,2568.075,766.646,2567.273,768.482Z" transform="translate(-2504.756 -686.758)" fill="#535359"/>
          <path id="Path_1804" data-name="Path 1804" d="M2605.792,703.378c-6.733,6.512-8.613,14.174-5.637,22.567a45.924,45.924,0,0,1,2.383,16.634,15.761,15.761,0,0,0,.669-11.827C2601.07,723.808,2599.313,711.981,2605.792,703.378Z" transform="translate(-2524.807 -652.859)" fill="#8d8d94"/>
          <path id="Path_1805" data-name="Path 1805" d="M2616.474,697.488c-3.049,2.009-5.627,7.339-6.705,11.612s-3.171,19.839-3.955,21.67-23.622,23.751-23.622,23.751,19.022-17.341,22.3-19.859,5.189-.919,5.189-.919-.385-1.646-2.958-2.056c2.8-.839,4.193,2.365,4.415,1.3s-.771-2.518-2.221-2.976C2609.149,724.589,2611.362,703.731,2616.474,697.488Z" transform="translate(-2515.184 -649.443)" fill="#8d8d94"/>
          <path id="Path_1806" data-name="Path 1806" d="M2656.443,1053.931l-.364,9.283s16.88,1.79,19.686-4.2l-.061-5.966S2665.109,1054.894,2656.443,1053.931Z" transform="translate(-2558.03 -855.626)" fill="#fcb268"/>
          <path id="Path_1807" data-name="Path 1807" d="M2610.193,1047.466l-1.111,7.056s-12.783-2.106-17.814-5.386l.866-5.581S2609.547,1047.37,2610.193,1047.466Z" transform="translate(-2520.446 -850.123)" fill="#fcb268"/>
          <path id="Path_1808" data-name="Path 1808" d="M2622.572,635.294c-6.071-2.851-5.912-13.092-5.6-16.523a18.9,18.9,0,0,1,0-5.754l1.32.581s-.264,4.381.37,5.859C2618.244,624.261,2618.666,631.23,2622.572,635.294Z" transform="translate(-2535.228 -600.46)" fill="#ffe4c9"/>
        </g>
        <g class="Group_37495" data-name="Group 37495" transform="translate(0 178.388)">
          <g class="Group_37479" data-name="Group 37479" transform="translate(0 87.904)">
            <g class="Group_37477" data-name="Group 37477">
              <path id="Path_1809" data-name="Path 1809" d="M1585.3,1200.386H1444.56s5.25-26.573,32.478-40.676,17.061,20.338,17.061,20.338,16.4-17.385,41.5-20.338c24.836-2.923.517,30.456.01,31.159C1536.207,1190.668,1572.612,1178.592,1585.3,1200.386Z" transform="translate(-1444.56 -1156.317)" fill="#ffa820"/>
            </g>
            <g class="Group_37478" data-name="Group 37478" transform="translate(12.425 7.168)">
              <path id="Path_1810" data-name="Path 1810" d="M1506.368,1184.82c-.153,0-.468,0-17.17,5.611v0a116.736,116.736,0,0,1,13.488-15.776.736.736,0,1,0-1-1.078,113.687,113.687,0,0,0-12.33,14.042l-1.323-9.421a.738.738,0,0,0-1.462.206l1.535,10.933,0,0a78.84,78.84,0,0,0-7.864,13.538v0l-4.72-8.333a.738.738,0,0,0-1.285.728l5.282,9.323a46.72,46.72,0,0,0-1.894,5.686h1.54a49.549,49.549,0,0,1,3.415-8.862h0l17.918-3.819a.738.738,0,1,0-.308-1.443l-16.752,3.571,0,0a80.218,80.218,0,0,1,4.365-7.259l0,0c7.185-2.417,17.84-5.97,18.667-6.168a.738.738,0,0,0-.1-1.469Z" transform="translate(-1474.136 -1173.379)" fill="#d68112"/>
              <path id="Path_1811" data-name="Path 1811" d="M1617.456,1185.817a153.414,153.414,0,0,0-13.651,11.117h0l-1.264-9.385a.738.738,0,0,0-1.463.2l1.4,10.414a93.438,93.438,0,0,0-9.944,10.775h0l-2.633-13.244a.738.738,0,1,0-1.448.289l2.894,14.556a38.694,38.694,0,0,0-4.038,6.877h1.629a52.249,52.249,0,0,1,8.716-12.224c6.373-.971,16.437-2.433,17.725-2.433h.028a.738.738,0,0,0,.666-1.272c-.314-.276-.569-.494-16.786,1.963h0a152.363,152.363,0,0,1,19.024-16.431.737.737,0,1,0-.856-1.2Z" transform="translate(-1539.764 -1180.512)" fill="#d68112"/>
              <path id="Path_1812" data-name="Path 1812" d="M1705.584,1240.932a.737.737,0,0,0-.871-.576c-.546.108-11.23,2.367-16.352,8.754h1.988c5.1-5.29,14.541-7.283,14.659-7.307A.743.743,0,0,0,1705.584,1240.932Z" transform="translate(-1598.362 -1212.209)" fill="#d68112"/>
            </g>
          </g>
          <g class="Group_37483" data-name="Group 37483" transform="translate(520.653 87.259)">
            <g class="Group_37481" data-name="Group 37481">
              <g class="Group_37480" data-name="Group 37480">
                <path id="Path_1813" data-name="Path 1813" d="M2785.994,1198.851H2687.41s3.678-26.573,22.75-40.676,11.951,20.338,11.951,20.338,11.489-17.385,29.068-20.338c17.4-2.923.362,30.455.007,31.159C2751.607,1189.132,2777.108,1177.057,2785.994,1198.851Z" transform="translate(-2687.41 -1154.782)" fill="#5e5ecc"/>
              </g>
            </g>
            <g class="Group_37482" data-name="Group 37482" transform="translate(8.703 7.168)">
              <path id="Path_1814" data-name="Path 1814" d="M2730.705,1183.284c-.107,0-.328,0-12.028,5.612v0a114.417,114.417,0,0,1,9.448-15.776.967.967,0,0,0,.028-1.039.419.419,0,0,0-.731-.039,110.306,110.306,0,0,0-8.637,14.043l-.926-9.422c-.04-.4-.3-.683-.584-.628a.738.738,0,0,0-.44.834l1.075,10.933v0a91.449,91.449,0,0,0-5.509,13.537v0l-3.307-8.333c-.141-.354-.457-.48-.7-.278a.925.925,0,0,0-.195,1.006l3.7,9.323c-.527,1.869-.978,3.773-1.326,5.686h1.079a63.856,63.856,0,0,1,2.392-8.863h0l12.551-3.819a.778.778,0,0,0,.4-.875c-.06-.4-.335-.653-.613-.568l-11.734,3.571,0,0c.934-2.525,1.975-4.96,3.057-7.258l0,0c5.033-2.417,12.5-5.971,13.076-6.168a.7.7,0,0,0,.444-.731C2731.222,1183.615,2730.99,1183.284,2730.705,1183.284Z" transform="translate(-2708.127 -1171.843)" fill="#4d4da0"/>
              <path id="Path_1815" data-name="Path 1815" d="M2808.52,1184.281a125.517,125.517,0,0,0-9.562,11.116h0l-.885-9.385c-.038-.4-.3-.689-.582-.633a.735.735,0,0,0-.444.83l.982,10.414a89.31,89.31,0,0,0-6.965,10.775h0l-1.844-13.243c-.056-.4-.327-.659-.608-.58a.772.772,0,0,0-.406.868l2.027,14.556a44.794,44.794,0,0,0-2.829,6.877h1.141a56.246,56.246,0,0,1,6.105-12.224c4.464-.971,11.514-2.432,12.416-2.432h.019a.432.432,0,0,0,.516-.23.972.972,0,0,0-.049-1.041c-.22-.276-.4-.494-11.758,1.963h0a128.164,128.164,0,0,1,13.326-16.431.956.956,0,0,0,.121-1.028A.428.428,0,0,0,2808.52,1184.281Z" transform="translate(-2754.098 -1178.977)" fill="#4d4da0"/>
              <path id="Path_1816" data-name="Path 1816" d="M2870.252,1239.4c-.059-.4-.335-.659-.61-.575-.383.108-7.866,2.367-11.454,8.754h1.392c3.572-5.29,10.186-7.283,10.269-7.307A.78.78,0,0,0,2870.252,1239.4Z" transform="translate(-2795.146 -1210.674)" fill="#4d4da0"/>
            </g>
          </g>
          <g class="Group_37485" data-name="Group 37485" transform="translate(405.645)">
            <g class="Group_37484" data-name="Group 37484">
              <path id="Path_1817" data-name="Path 1817" d="M2486.708,1053.073s6.222-55,23.79-63.784-18.849,68.259-18.849,68.259Z" transform="translate(-2455.609 -971.151)" fill="#5e5ecc"/>
              <path id="Path_1818" data-name="Path 1818" d="M2441.262,1071.2s-6.222-55-23.79-63.784,18.849,68.259,18.849,68.259Z" transform="translate(-2412.683 -981.66)" fill="#5e5ecc"/>
              <path id="Path_1819" data-name="Path 1819" d="M2468.776,1032.726s-11.571-67.4,6.246-83.877,1.158,87.483,1.158,87.483Z" transform="translate(-2443.069 -947.078)" fill="#ffa820"/>
            </g>
            <path id="Path_1820" data-name="Path 1820" d="M2455.481,1137.2h-20.843l5.949,38.235H2467.4l5.949-38.235Z" transform="translate(-2425.415 -1057.33)" fill="#402631"/>
          </g>
          <g class="Group_37494" data-name="Group 37494" transform="translate(301.786 56.452)">
            <g class="Group_37487" data-name="Group 37487" transform="translate(0 61.088)">
              <path id="Path_1821" data-name="Path 1821" d="M2254.465,1237.126v14.949c0,1-3.534,1.922-9.461,2.653q-1.284.159-2.716.3c-.64.066-1.3.128-1.988.191q-1.308.118-2.716.229c-.646.047-1.311.094-1.988.141-1.882.129-3.873.245-5.958.342-1.486.076-3.023.138-4.6.194q-2.893.1-5.958.163c-3,.063-6.112.094-9.3.094-2.527,0-5.008-.019-7.423-.059q-1.373-.024-2.716-.05-1.646-.037-3.243-.088c-2.054-.063-4.045-.138-5.958-.229-1.217-.053-2.4-.116-3.553-.182-.458-.025-.912-.053-1.358-.082-12.3-.768-20.437-2.1-20.437-3.622v-14.949Z" transform="translate(-2165.09 -1232.814)" fill="#eabf0c"/>
              <g class="Group_37486" data-name="Group 37486" transform="translate(20.437 4.312)">
                <path id="Path_1822" data-name="Path 1822" d="M2351.562,1237.126v17.6q-1.284.159-2.716.3v-17.906Z" transform="translate(-2292.084 -1237.126)" fill="#e8af0f"/>
                <path id="Path_1823" data-name="Path 1823" d="M2340.365,1237.126v18.1q-1.308.118-2.716.229v-18.327Z" transform="translate(-2285.592 -1237.126)" fill="#e8af0f"/>
                <path id="Path_1824" data-name="Path 1824" d="M2250.043,1237.126v19.2q-1.374-.024-2.716-.05v-19.151Z" transform="translate(-2233.215 -1237.126)" fill="#e8af0f"/>
                <path id="Path_1825" data-name="Path 1825" d="M2215.094,1237.126v18.653c-.458-.025-.912-.053-1.358-.082v-18.571Z" transform="translate(-2213.736 -1237.126)" fill="#e8af0f"/>
                <path id="Path_1826" data-name="Path 1826" d="M2324.692,1237.126v18.468c-1.882.129-3.873.245-5.958.342v-18.809Z" transform="translate(-2274.623 -1237.126)" fill="#e8af0f"/>
                <path id="Path_1827" data-name="Path 1827" d="M2299.566,1237.126v19q-2.893.1-5.958.163v-19.167Z" transform="translate(-2260.053 -1237.126)" fill="#e8af0f"/>
                <path id="Path_1828" data-name="Path 1828" d="M2231.384,1237.126v19.063c-2.054-.063-4.045-.138-5.958-.229v-18.834Z" transform="translate(-2220.515 -1237.126)" fill="#e8af0f"/>
              </g>
              <ellipse id="Ellipse_20" data-name="Ellipse 20" cx="44.688" cy="4.312" rx="44.688" ry="4.312" fill="#efc822"/>
              <ellipse id="Ellipse_21" data-name="Ellipse 21" cx="39.984" cy="3.329" rx="39.984" ry="3.329" transform="translate(4.704 0.983)" fill="#e8a50f"/>
            </g>
            <g class="Group_37489" data-name="Group 37489" transform="translate(0 43.444)">
              <path id="Path_1829" data-name="Path 1829" d="M2254.465,1195.127v14.949c0,1-3.534,1.922-9.461,2.653q-1.284.16-2.716.3c-.64.066-1.3.129-1.988.191q-1.308.118-2.716.229c-.646.047-1.311.094-1.988.141-1.882.129-3.873.244-5.958.342-1.486.075-3.023.138-4.6.195q-2.893.1-5.958.163c-3,.063-6.112.094-9.3.094-2.527,0-5.008-.019-7.423-.06q-1.373-.023-2.716-.05-1.646-.037-3.243-.088c-2.054-.062-4.045-.138-5.958-.228-1.217-.053-2.4-.116-3.553-.182-.458-.025-.912-.053-1.358-.082-12.3-.768-20.437-2.1-20.437-3.622v-14.949Z" transform="translate(-2165.09 -1190.815)" fill="#eabf0c"/>
              <g class="Group_37488" data-name="Group 37488" transform="translate(20.437 4.312)">
                <path id="Path_1830" data-name="Path 1830" d="M2351.562,1195.127v17.6q-1.284.16-2.716.3v-17.906Z" transform="translate(-2292.084 -1195.127)" fill="#e8af0f"/>
                <path id="Path_1831" data-name="Path 1831" d="M2340.365,1195.127v18.1q-1.308.118-2.716.229v-18.327Z" transform="translate(-2285.592 -1195.127)" fill="#e8af0f"/>
                <path id="Path_1832" data-name="Path 1832" d="M2250.043,1195.127v19.2q-1.374-.023-2.716-.05v-19.151Z" transform="translate(-2233.215 -1195.127)" fill="#e8af0f"/>
                <path id="Path_1833" data-name="Path 1833" d="M2215.094,1195.127v18.653c-.458-.025-.912-.053-1.358-.082v-18.571Z" transform="translate(-2213.736 -1195.127)" fill="#e8af0f"/>
                <path id="Path_1834" data-name="Path 1834" d="M2324.692,1195.127v18.468c-1.882.129-3.873.244-5.958.342v-18.81Z" transform="translate(-2274.623 -1195.127)" fill="#e8af0f"/>
                <path id="Path_1835" data-name="Path 1835" d="M2299.566,1195.127v19q-2.893.1-5.958.163v-19.167Z" transform="translate(-2260.053 -1195.127)" fill="#e8af0f"/>
                <path id="Path_1836" data-name="Path 1836" d="M2231.384,1195.127v19.063c-2.054-.062-4.045-.138-5.958-.228v-18.835Z" transform="translate(-2220.515 -1195.127)" fill="#e8af0f"/>
              </g>
              <ellipse id="Ellipse_22" data-name="Ellipse 22" cx="44.688" cy="4.312" rx="44.688" ry="4.312" fill="#efc822"/>
              <ellipse id="Ellipse_23" data-name="Ellipse 23" cx="39.984" cy="3.329" rx="39.984" ry="3.329" transform="translate(4.704 0.983)" fill="#e8a50f"/>
            </g>
            <g class="Group_37491" data-name="Group 37491" transform="translate(0 25.065)">
              <path id="Path_1837" data-name="Path 1837" d="M2254.465,1151.379v14.949c0,1-3.534,1.922-9.461,2.653q-1.284.16-2.716.3c-.64.066-1.3.129-1.988.192q-1.308.117-2.716.229c-.646.047-1.311.094-1.988.141-1.882.129-3.873.245-5.958.342-1.486.075-3.023.138-4.6.195q-2.893.1-5.958.163c-3,.063-6.112.094-9.3.094-2.527,0-5.008-.019-7.423-.06q-1.373-.023-2.716-.05-1.646-.038-3.243-.088c-2.054-.062-4.045-.138-5.958-.229q-1.825-.08-3.553-.182c-.458-.025-.912-.053-1.358-.082-12.3-.768-20.437-2.1-20.437-3.622v-14.949Z" transform="translate(-2165.09 -1147.067)" fill="#eabf0c"/>
              <g class="Group_37490" data-name="Group 37490" transform="translate(20.437 4.312)">
                <path id="Path_1838" data-name="Path 1838" d="M2351.562,1151.379v17.6q-1.284.16-2.716.3v-17.906Z" transform="translate(-2292.084 -1151.379)" fill="#e8af0f"/>
                <path id="Path_1839" data-name="Path 1839" d="M2340.365,1151.379v18.1q-1.308.117-2.716.229v-18.327Z" transform="translate(-2285.592 -1151.379)" fill="#e8af0f"/>
                <path id="Path_1840" data-name="Path 1840" d="M2250.043,1151.379v19.2q-1.374-.023-2.716-.05v-19.152Z" transform="translate(-2233.215 -1151.379)" fill="#e8af0f"/>
                <path id="Path_1841" data-name="Path 1841" d="M2215.094,1151.379v18.653c-.458-.025-.912-.053-1.358-.082v-18.571Z" transform="translate(-2213.736 -1151.379)" fill="#e8af0f"/>
                <path id="Path_1842" data-name="Path 1842" d="M2324.692,1151.379v18.468c-1.882.129-3.873.245-5.958.342v-18.81Z" transform="translate(-2274.623 -1151.379)" fill="#e8af0f"/>
                <path id="Path_1843" data-name="Path 1843" d="M2299.566,1151.379v19q-2.893.1-5.958.163v-19.167Z" transform="translate(-2260.053 -1151.379)" fill="#e8af0f"/>
                <path id="Path_1844" data-name="Path 1844" d="M2231.384,1151.379v19.064c-2.054-.062-4.045-.138-5.958-.229v-18.835Z" transform="translate(-2220.515 -1151.379)" fill="#e8af0f"/>
              </g>
              <ellipse id="Ellipse_24" data-name="Ellipse 24" cx="44.688" cy="4.312" rx="44.688" ry="4.312" fill="#efc822"/>
              <ellipse id="Ellipse_25" data-name="Ellipse 25" cx="39.984" cy="3.329" rx="39.984" ry="3.329" transform="translate(4.704 0.983)" fill="#e8a50f"/>
            </g>
            <g class="Group_37493" data-name="Group 37493" transform="translate(65.536 0)">
              <path id="Path_1845" data-name="Path 1845" d="M2383.259,1161.576l-12.451,8.272c-.833.554-3.557-1.88-7.445-6.412q-.844-.981-1.756-2.094c-.409-.5-.829-1.015-1.26-1.55q-.822-1.024-1.694-2.135c-.4-.512-.8-1.04-1.218-1.578q-1.723-2.245-3.582-4.774c-.885-1.2-1.788-2.442-2.706-3.722q-1.683-2.355-3.433-4.873c-1.713-2.465-3.461-5.039-5.228-7.7q-2.1-3.158-4.058-6.216-.74-1.158-1.461-2.29-.88-1.392-1.721-2.749-1.627-2.619-3.106-5.09-.943-1.565-1.815-3.06c-.232-.4-.46-.79-.683-1.176-6.166-10.67-9.557-18.187-8.293-19.027l12.452-8.273Z" transform="translate(-2321.086 -1084.746)" fill="#eabf0c"/>
              <g class="Group_37492" data-name="Group 37492" transform="translate(8.555 19.409)">
                <path id="Path_1846" data-name="Path 1846" d="M2433.953,1242.451l-14.662,9.741q-.844-.981-1.756-2.094l14.915-9.909Z" transform="translate(-2385.571 -1192.911)" fill="#e8af0f"/>
                <path id="Path_1847" data-name="Path 1847" d="M2427.273,1233.125,2412.2,1243.14q-.822-1.024-1.694-2.135l15.265-10.141Z" transform="translate(-2381.494 -1187.503)" fill="#e8af0f"/>
                <path id="Path_1848" data-name="Path 1848" d="M2376.343,1157.893l-15.994,10.626q-.74-1.158-1.461-2.29l15.952-10.6Z" transform="translate(-2351.562 -1143.877)" fill="#e8af0f"/>
                <path id="Path_1849" data-name="Path 1849" d="M2357.67,1128.783l-15.537,10.322c-.232-.4-.46-.79-.683-1.176l15.469-10.277Z" transform="translate(-2341.45 -1127.652)" fill="#e8af0f"/>
                <path id="Path_1850" data-name="Path 1850" d="M2418.045,1220.071l-15.382,10.219q-1.723-2.245-3.582-4.774l15.667-10.409Z" transform="translate(-2374.87 -1178.367)" fill="#e8af0f"/>
                <path id="Path_1851" data-name="Path 1851" d="M2403.73,1199.142l-15.829,10.516q-1.683-2.355-3.433-4.873l15.965-10.607Z" transform="translate(-2366.396 -1166.23)" fill="#e8af0f"/>
                <path id="Path_1852" data-name="Path 1852" d="M2366.382,1142.352,2350.5,1152.9q-1.627-2.619-3.106-5.09l15.688-10.422Z" transform="translate(-2344.898 -1133.298)" fill="#e8af0f"/>
              </g>
              <ellipse id="Ellipse_26" data-name="Ellipse 26" cx="4.312" cy="44.688" rx="4.312" ry="44.688" transform="translate(9.123 4.772) rotate(-33.599)" fill="#efc822"/>
              <ellipse id="Ellipse_27" data-name="Ellipse 27" cx="3.329" cy="39.984" rx="3.329" ry="39.984" transform="translate(12.545 8.146) rotate(-33.599)" fill="#e8a50f"/>
            </g>
          </g>
        </g>
        <path id="Path_1853" data-name="Path 1853" d="M2123.008,877.146H1762.884v10.923H1776.8v140.669h6.285V888.069h320.273v140.669h6.285V888.069h13.368Z" transform="translate(-1629.905 -728.138)" fill="#323c93"/>
      </g>
    </g>
  </g>
</svg>
