<svg xmlns="http://www.w3.org/2000/svg" xmlns:xlink="http://www.w3.org/1999/xlink" width="767" height="900" viewBox="0 0 767 900">
  <defs>
    <linearGradient id="linear-gradient" x1="1.63" y1="-0.826" x2="0.696" y2="0.315" gradientUnits="objectBoundingBox">
      <stop offset="0" stop-color="#9feab2"/>
      <stop offset="1" stop-color="#6ad4ab"/>
    </linearGradient>
    <linearGradient id="linear-gradient-2" x1="0.44" y1="0.662" x2="1.479" y2="-0.006" gradientUnits="objectBoundingBox">
      <stop offset="0" stop-color="#67d690"/>
      <stop offset="1" stop-color="#00a99d"/>
    </linearGradient>
    <linearGradient id="linear-gradient-3" x1="0.652" y1="1.355" x2="0.308" y2="-0.317" xlink:href="#linear-gradient-2"/>
    <linearGradient id="linear-gradient-4" x1="1.569" y1="-3.264" x2="0.443" y2="0.681" xlink:href="#linear-gradient-2"/>
    <linearGradient id="linear-gradient-5" x1="1.766" y1="-0.739" x2="-1.475" y2="2.363" xlink:href="#linear-gradient"/>
    <linearGradient id="linear-gradient-6" x1="-3.291" y1="6.066" x2="2.371" y2="-2.148" xlink:href="#linear-gradient"/>
    <linearGradient id="linear-gradient-7" x1="-1.921" y1="6.567" x2="2.646" y2="-4.883" xlink:href="#linear-gradient"/>
    <linearGradient id="linear-gradient-8" x1="2.952" y1="-6.137" x2="-0.281" y2="2.587" xlink:href="#linear-gradient-2"/>
    <linearGradient id="linear-gradient-9" x1="-117.261" y1="0.959" x2="-116.1" y2="-0.256" xlink:href="#linear-gradient-2"/>
    <linearGradient id="linear-gradient-10" x1="-129.104" y1="-17.527" x2="-127.821" y2="-18.589" xlink:href="#linear-gradient-2"/>
    <linearGradient id="linear-gradient-11" x1="-139.485" y1="-39.281" x2="-138.088" y2="-40.278" xlink:href="#linear-gradient-2"/>
    <linearGradient id="linear-gradient-12" x1="-115.277" y1="-65.352" x2="-113.98" y2="-66.453" xlink:href="#linear-gradient-2"/>
    <linearGradient id="linear-gradient-13" x1="1.161" y1="1.496" x2="0.332" y2="0.412" xlink:href="#linear-gradient-2"/>
    <linearGradient id="linear-gradient-14" x1="-216.312" y1="-1.209" x2="-216.312" y2="-3.204" gradientUnits="objectBoundingBox">
      <stop offset="0" stop-color="#fe4500"/>
      <stop offset="1" stop-color="#efdb29"/>
    </linearGradient>
    <linearGradient id="linear-gradient-15" x1="0.073" y1="1.6" x2="0.879" y2="-0.476" gradientUnits="objectBoundingBox">
      <stop offset="0" stop-color="#36078b"/>
      <stop offset="1" stop-color="#16b1ff"/>
    </linearGradient>
    <linearGradient id="linear-gradient-16" y1="0.495" x2="1" y2="0.495" gradientUnits="objectBoundingBox">
      <stop offset="0" stop-color="#fea600"/>
      <stop offset="1" stop-color="#efdb29"/>
    </linearGradient>
    <linearGradient id="linear-gradient-17" x1="0.5" y1="1.777" x2="0.5" y2="-0.088" gradientUnits="objectBoundingBox">
      <stop offset="0" stop-color="#00fef6"/>
      <stop offset="1" stop-color="#29a0ef" stop-opacity="0"/>
    </linearGradient>
    <linearGradient id="linear-gradient-18" x1="0.5" y1="0.946" x2="0.5" y2="-3.795" xlink:href="#linear-gradient-15"/>
    <linearGradient id="linear-gradient-19" x1="0.278" y1="11.89" x2="0.565" y2="7.965" xlink:href="#linear-gradient-15"/>
  </defs>
  <g class="Group_38506" data-name="Group 38506" transform="translate(-1053)">
    <g class="Group_37924" data-name="Group 37924" transform="translate(-65 -44.496)">
      <ellipse id="Ellipse_17" data-name="Ellipse 17" cx="306.334" cy="7.084" rx="306.334" ry="7.084" transform="translate(1272.332 930.329)" fill="#ccd9f8"/>
      <path id="Path_199" data-name="Path 199" d="M138.4,380.934c0,2.046,20.627,3.694,46.065,3.694s46.046-1.648,46.046-3.694-20.608-3.694-46.046-3.694S138.4,378.888,138.4,380.934Z" transform="translate(1081.066 524.144)" fill="#ccd9f8"/>
      <path id="Path_202" data-name="Path 202" d="M444.855,234.612c-12.1,17.691-16.024,29.738-.7,31.253s35.041-37.882,23.676-45.459C459.818,215.083,450.632,226.183,444.855,234.612Z" transform="translate(1345.516 382.355)" fill="url(#linear-gradient)"/>
      <g class="Group_127" data-name="Group 127" transform="translate(1746.15 535.133)">
        <path id="Path_200" data-name="Path 200" d="M478.479,194.711c9.281-2.9,12.994,3.788,12.1,9-1.269,7.33-5.247,8.164,4.527,14.49,7.216,4.66,8.921,14.338.776,19.187-11.365,6.781.758,12.028,3.391,17.843,5.474,11.99-3.485,14.926-17.956,20.835-14.869,6.194-25.93,3.163-36.367-6.307-7.671-6.989-12.236-14.869-7.576-21.991,6.61-10.247,17.445-3.3,13.259-13.259-2.519-5.966-2.765-17.047,10.8-18.051S465.107,198.9,478.479,194.711Z" transform="translate(-399.425 -175.158)" fill="url(#linear-gradient-2)"/>
        <path id="Path_201" data-name="Path 201" d="M440.332,184.48c-11.687-2.443-15.418,6.232-13.713,12.444,2.406,8.789,7.368,9.338-3.788,18.221-8.258,6.573-9.186,18.6,1.326,23.544,14.7,6.932.511,14.793-2.027,22.2-5.247,15.3,6.042,17.824,24.434,23.392,18.941,5.682,32.2.739,43.678-12.047,8.523-9.471,13.259-19.6,6.705-27.768-9.3-11.725-21.688-1.894-17.748-14.623,2.368-7.576,1.326-21.2-15.342-20.835S457.265,188,440.332,184.48Z" transform="translate(-416.453 -184.057)" fill="url(#linear-gradient-3)"/>
        <path id="Path_203" data-name="Path 203" d="M443.772,292.589h34.719a8.845,8.845,0,0,0,8.713-7.406l7.576-46.728a1.743,1.743,0,0,0-1.724-2.046H429.073a1.762,1.762,0,0,0-1.743,2.046l7.576,46.728a8.807,8.807,0,0,0,8.864,7.406Z" transform="translate(-406.748 -137.247)" fill="#0050c8"/>
      </g>
      <path id="Path_204" data-name="Path 204" d="M436.838,211.548c10.815,3.277,19.812,7.785,12.823,10.967s-31.31-6.932-27.919-11.365C424.148,208.2,431.686,209.976,436.838,211.548Z" transform="translate(1334.137 373.867)" fill="url(#linear-gradient-4)"/>
      <path id="Path_205" data-name="Path 205" d="M429.794,196.751c2.481,6.8,5.038,10.266,8.467,6.345s-3.523-17.047-7.842-15.475C427.37,188.777,428.62,193.493,429.794,196.751Z" transform="translate(1340.48 354.093)" fill="url(#linear-gradient-5)"/>
      <path id="Path_206" data-name="Path 206" d="M460.167,202.581c-2.652,6.743-3.031,11.024,2.14,10.361s8.694-15.153,4.375-16.782C463.634,195,461.437,199.361,460.167,202.581Z" transform="translate(1367.083 361.689)" fill="url(#linear-gradient-6)"/>
      <path id="Path_207" data-name="Path 207" d="M469.726,220.679c4.7-4.186,6.667-7.349,2.406-8.864s-12.672,8.315-9.963,11.27C464.063,225.187,467.472,222.668,469.726,220.679Z" transform="translate(1370.1 375.744)" fill="url(#linear-gradient-7)"/>
      <path id="Path_208" data-name="Path 208" d="M441.231,210c-4.262-1.44-6.914-1.534-6.345,1.629s9.641,4.925,10.531,2.2C446.042,211.9,443.258,210.685,441.231,210Z" transform="translate(1346.108 373.4)" fill="url(#linear-gradient-8)"/>
      <path id="Path_209" data-name="Path 209" d="M107,398.246H565.488V123.6H107Zm451.309-7.179H114.2V130.835H558.309Z" transform="translate(1052.991 296.896)" fill="#99c1f9"/>
      <rect class="class="Rectangle_35" data-name="Rectangle 35" width="451.309" height="267.41" transform="translate(1621.584 691.563) rotate(180)" fill="#d8e7fc"/>
      <g class="Group_102" data-name="Group 102" transform="translate(1189.179 470.766)" opacity="0.7">
        <path id="Path_210" data-name="Path 210" d="M285.168,165.022a4.413,4.413,0,0,1-1.174-3.523c.436-1.894,2.993-3.125,6.838-3.466a4.641,4.641,0,0,1-.663-3.277c1.137-5.209,14.092-6.137,28.923-2.1a72.293,72.293,0,0,1,14.073,5.4,3.371,3.371,0,0,1,0-1.894c1.345-3.788,11.365-3.144,22.445,1.648a60.984,60.984,0,0,1,7.463,3.788c.852-1.534,5.209-1.44,10.058.265a22.424,22.424,0,0,1,6.27,3.258L418,167.5H246.68Z" transform="translate(-11.299 -150.146)" fill="#fff"/>
        <path id="Path_211" data-name="Path 211" d="M207.41,220.375a3.031,3.031,0,0,1-.814-2.406c.3-1.326,2.065-2.14,4.7-2.368a3.258,3.258,0,0,1-.455-2.254c.777-3.561,9.641-4.2,19.793-1.421a49.249,49.249,0,0,1,9.641,3.675,2.292,2.292,0,0,1,0-1.288c.909-2.652,7.8-2.14,15.361,1.118a44.4,44.4,0,0,1,5.114,2.633c.587-1.042,3.561-.985,6.876.189a15.36,15.36,0,0,1,4.3,2.235l26.423,1.629H181.12Z" transform="translate(-69.917 -96.455)" fill="#fff"/>
        <path id="Path_212" data-name="Path 212" d="M178.457,208.254a5.171,5.171,0,0,1-.511-3.144c.663-3.39,5.682-5.019,12.615-4.754a9.981,9.981,0,0,1-.265-4.754c2.387-12.141,29.529-14.338,60.611-4.906a150.782,150.782,0,0,1,16.668,6.137,8.921,8.921,0,0,1-.284-4.319c1.667-8.486,17.312-11.365,37.465-7.861a2.907,2.907,0,0,1,.189-.777c2.955-9.47,24.434-8.05,48.584,2.993,6.023-2.443,18.3-.758,31.575,4.906a82.984,82.984,0,0,1,19.168,11.213,3.788,3.788,0,0,1-.322-2.462c.966-3.466,8.959-3.2,17.861.587a36.594,36.594,0,0,1,12.1,7.936L484,212.838H122.41Z" transform="translate(-122.41 -125.606)" fill="#fff"/>
      </g>
      <path id="Path_213" data-name="Path 213" d="M275.9,392.949h77.6L215.022,125.52h-77.6Z" transform="translate(1080.188 298.611)" fill="#f8fff8" opacity="0.3"/>
      <path id="Path_214" data-name="Path 214" d="M258.528,392.949h19.093L139.143,125.52H120.05Z" transform="translate(1064.659 298.611)" fill="#f8fff8" opacity="0.3"/>
      <path id="Path_215" data-name="Path 215" d="M398.537,392.949H417.63L279.152,125.52H260.04Z" transform="translate(1189.835 298.611)" fill="#f8fff8" opacity="0.3"/>
      <path id="Path_216" data-name="Path 216" d="M110.54,398.246H569.028V123.6H110.54Zm451.309-7.179H117.719V130.835h444.13Z" transform="translate(1056.155 296.896)" fill="#d8e7fc"/>
      <g class="Group_103" data-name="Group 103" transform="translate(1196.906 583.547)" opacity="0.8">
        <rect class="class="Rectangle_36" data-name="Rectangle 36" width="47.485" height="63.093" transform="translate(93.91 41.481)" fill="#56a8ed"/>
        <rect class="class="Rectangle_37" data-name="Rectangle 37" width="38.413" height="34.889" transform="translate(0 69.684)" fill="#62afef"/>
        <rect class="class="Rectangle_38" data-name="Rectangle 38" width="21.347" height="63.093" transform="translate(85.898 41.481)" fill="#7abaf9"/>
        <rect class="class="Rectangle_39" data-name="Rectangle 39" width="47.485" height="104.574" transform="translate(38.431)" fill="#56a8ed"/>
        <rect class="class="Rectangle_40" data-name="Rectangle 40" width="5.038" height="63.093" transform="translate(85.898 41.481)" fill="#62afef"/>
        <rect class="class="Rectangle_41" data-name="Rectangle 41" width="21.328" height="104.574" transform="translate(30.438)" fill="#7abaf9"/>
        <rect class="class="Rectangle_42" data-name="Rectangle 42" width="34.132" height="7.235" transform="translate(85.898 25.57) rotate(180)" fill="#7abaf9"/>
        <rect class="class="Rectangle_43" data-name="Rectangle 43" width="34.132" height="7.235" transform="translate(85.898 38.734) rotate(180)" fill="#7abaf9"/>
        <rect class="class="Rectangle_44" data-name="Rectangle 44" width="34.132" height="7.235" transform="translate(85.898 51.918) rotate(180)" fill="#7abaf9"/>
        <rect class="class="Rectangle_45" data-name="Rectangle 45" width="34.132" height="7.235" transform="translate(85.898 65.063) rotate(180)" fill="#7abaf9"/>
        <rect class="class="Rectangle_46" data-name="Rectangle 46" width="34.132" height="7.235" transform="translate(85.898 78.246) rotate(180)" fill="#7abaf9"/>
        <rect class="class="Rectangle_47" data-name="Rectangle 47" width="34.132" height="7.235" transform="translate(85.898 91.41) rotate(180)" fill="#7abaf9"/>
        <rect class="class="Rectangle_48" data-name="Rectangle 48" width="34.132" height="7.235" transform="translate(51.766 97.338)" fill="#7abaf9"/>
        <rect class="class="Rectangle_49" data-name="Rectangle 49" width="34.132" height="7.235" transform="translate(85.898 12.387) rotate(180)" fill="#7abaf9"/>
        <path id="Path_217" data-name="Path 217" d="M203.65,255.2v31.67h47.466V240.14H216.985Z" transform="translate(-57.501 -182.294)" fill="#56a8ed"/>
        <path id="Path_218" data-name="Path 218" d="M199.43,264.233v22.635h21.328V240.14L207.423,255.2l-4.773,5.4Z" transform="translate(-61.274 -182.294)" fill="#7abaf9"/>
        <rect class="class="Rectangle_50" data-name="Rectangle 50" width="34.132" height="7.235" transform="translate(193.635 65.063) rotate(180)" fill="#7abaf9"/>
        <rect class="class="Rectangle_51" data-name="Rectangle 51" width="34.132" height="7.235" transform="translate(193.635 78.246) rotate(180)" fill="#7abaf9"/>
        <rect class="class="Rectangle_52" data-name="Rectangle 52" width="34.132" height="7.235" transform="translate(193.635 91.41) rotate(180)" fill="#7abaf9"/>
        <rect class="class="Rectangle_53" data-name="Rectangle 53" width="34.132" height="7.235" transform="translate(159.503 97.338)" fill="#7abaf9"/>
        <rect class="class="Rectangle_54" data-name="Rectangle 54" width="42.731" height="8.372" transform="translate(136.641 41.481) rotate(180)" fill="#56a8ed"/>
        <rect class="class="Rectangle_55" data-name="Rectangle 55" width="26.461" height="8.372" transform="translate(128.515 33.923) rotate(180)" fill="#56a8ed"/>
        <rect class="class="Rectangle_56" data-name="Rectangle 56" width="32.408" height="16.251" transform="translate(211.288 88.341)" fill="#56a8ed"/>
        <rect class="class="Rectangle_57" data-name="Rectangle 57" width="14.566" height="16.251" transform="translate(205.833 88.341)" fill="#7abaf9"/>
        <rect class="class="Rectangle_58" data-name="Rectangle 58" width="31.215" height="8.561" transform="translate(240.476 88.322) rotate(180)" fill="#56a8ed"/>
        <rect class="class="Rectangle_59" data-name="Rectangle 59" width="10.077" height="10.626" transform="translate(230.911 80.329) rotate(180)" fill="#56a8ed"/>
        <rect class="class="Rectangle_60" data-name="Rectangle 60" width="2.519" height="10.19" transform="translate(233.43 94.383)" fill="#62afef"/>
      </g>
      <path id="Path_219" data-name="Path 219" d="M172.154,361.663c10.74-6.857-3.012-27.787-28.033-29.813a50.214,50.214,0,0,0-.227,20.835C146,361.019,157.1,371.229,172.154,361.663Z" transform="translate(1085.099 483.504)" fill="url(#linear-gradient-9)"/>
      <path id="Path_220" data-name="Path 220" d="M176.912,366.406c12.52-2.424,7.368-26.953-15.153-38a50.081,50.081,0,0,0-7.823,19.282C152.724,356.234,159.315,369.815,176.912,366.406Z" transform="translate(1094.835 480.427)" fill="url(#linear-gradient-10)"/>
      <path id="Path_221" data-name="Path 221" d="M176.986,366.767c11.1,3.125,16.9-18.808,3.144-36.9A45.459,45.459,0,0,0,165.962,342.3C161.605,348.754,161.416,362.43,176.986,366.767Z" transform="translate(1103.437 481.731)" fill="url(#linear-gradient-11)"/>
      <path id="Path_222" data-name="Path 222" d="M176.048,361.363c7.747,6.876,21.044-8.542,17.047-28.563a40.817,40.817,0,0,0-16.327,4.451C170.726,340.755,165.195,351.722,176.048,361.363Z" transform="translate(1109.205 484.352)" fill="url(#linear-gradient-12)"/>
      <path id="Path_223" data-name="Path 223" d="M229.122,379.274c42.561-16.687,8.524-99.876-78.17-124.254,0,0-17.047,36.973-15.153,73.132C137.371,359.025,169.439,402.723,229.122,379.274Z" transform="translate(1078.609 414.684)" fill="url(#linear-gradient-13)"/>
      <path id="Path_224" data-name="Path 224" d="M148.25,260.919a77.034,77.034,0,0,1,19.812,20.835,55.208,55.208,0,0,1,3.788,6.023,68.522,68.522,0,0,1,3.542,6.175c1,2.178,2.065,4.3,3.125,6.421l1.572,3.182,1.25,3.353a184.047,184.047,0,0,1,8.391,27.237c.89,4.7,1.894,9.357,2.879,14.035l1.686,14.282c.265,2.387.739,4.735.871,7.141l.36,7.217c.265,4.811.455,9.622.777,14.452-.133,9.679,0,19.377-.284,29.112-.265,4.868-.625,9.717-.8,14.6l-.3,7.349-.152,3.675-.341,3.656-1.174,14.717-.587,7.387-.36,7.444.7.133,5.114-29.131.644-3.656.4-3.675.814-7.349,1.61-14.717.4-3.675.152-3.694.284-7.406.568-14.793-.549-14.793-.284-7.406c-.114-2.462-.549-4.906-.8-7.368l-1.894-14.7-3.2-14.471a164.256,164.256,0,0,0-9.812-27.957l-1.477-3.39-1.8-3.239-3.637-6.478c-1.174-2.178-2.784-4.091-4.148-6.156a56.294,56.294,0,0,0-4.451-5.929A72.431,72.431,0,0,0,148.5,260.18Z" transform="translate(1089.877 419.481)" fill="#e2e2e2"/>
      <path id="Path_225" data-name="Path 225" d="M177.328,343.732c-32.389-12.709-6.478-76.048,59.513-94.592,0,0,12.937,28.128,11.5,55.668C247.107,328.314,222.711,361.517,177.328,343.732Z" transform="translate(1103.437 409.387)" fill="#39c296"/>
      <path id="Path_226" data-name="Path 226" d="M227.607,253.14a192.745,192.745,0,0,0-17.521,25.173c-2.5,4.451-5,8.921-7.254,13.524l-3.466,6.857-3.2,6.989a343.4,343.4,0,0,0-19.85,58.149c-1.155,4.982-2.121,10.02-3.182,15.039l-1.534,7.577-1.174,7.576-2.14,15.153c-.492,5.076-.871,10.19-1.231,15.3l-.549,7.576c-.114,2.557-.114,5.114-.189,7.671l-.284,15.3c0,5.1.511,10.209.739,15.3s.625,10.152,1.08,15.153h.549c.189-10.134,0-20.267.492-30.4l.966-15.153c.17-2.519.284-5.057.511-7.576l.871-7.576,1.743-15.153,2.462-14.7,1.25-7.482,1.591-7.444c1.1-4.944,2.1-9.906,3.277-14.831a426.164,426.164,0,0,1,18.506-57.9,288.966,288.966,0,0,1,27.957-53.811Z" transform="translate(1105.775 413.186)" fill="#e2e2e2"/>
      <path id="Path_227" data-name="Path 227" d="M220.236,365.394c61.18-18.752,22.559-138.516-95.842-181.834,0,0-27.654,49.758-28.866,100.388C94.543,327.323,134.566,391.647,220.236,365.394Z" transform="translate(1042.718 350.651)" fill="#5ed291"/>
      <path id="Path_228" data-name="Path 228" d="M116.5,192.034q3.371,4.678,6.4,9.584c2.159,3.182,4.148,6.459,6.118,9.736s3.9,6.591,5.682,9.963,3.788,6.61,5.417,10.1c3.466,6.8,7.122,13.467,10.152,20.475,1.572,3.466,3.239,6.876,4.868,10.3l4.394,10.531,4.375,10.512,3.959,10.664,3.978,10.664c1.326,3.561,2.311,7.235,3.466,10.834s2.33,7.217,3.485,10.834l1.761,5.4c.549,1.894.985,3.656,1.477,5.493l5.8,21.991c1.743,7.368,3.2,14.831,4.83,22.237.758,3.788,1.667,7.406,2.311,11.137s1.08,7.576,1.724,11.251c1.174,7.576,2.576,15,3.58,22.521.7,7.576,1.553,15.153,2.424,22.729l1.288,11.365.606,11.365,1.421,22.9c.928,15.323.341,30.647,1.231,46.14h.833l1.345-23.07.682-11.535c.246-3.788.511-7.69.379-11.535l-.189-23.127V459.937l-.852-11.516-1.7-23.07c-.833-7.576-2.065-15.267-3.068-22.919l-1.591-11.365c-.606-3.788-1.5-7.576-2.235-11.365-1.572-7.576-2.993-15.153-4.7-22.729a491.043,491.043,0,0,0-30.457-87.129c-13.031-27.9-28.412-54.929-48.508-78.454Z" transform="translate(1061.484 357.976)" fill="#e2e2e2"/>
      <path id="Path_229" data-name="Path 229" d="M195.009,357.04c37.409-27.067-16.9-99.838-107.832-101.77,0,0-7.273,40.42,3.788,75.329C100.3,360.3,142.637,394.923,195.009,357.04Z" transform="translate(1033.169 414.896)" fill="#3cc395"/>
      <path id="Path_230" data-name="Path 230" d="M91.9,259.727a190.808,190.808,0,0,1,25.7,20.835l6.023,5.682,5.682,5.91c3.9,3.788,7.387,8.088,10.948,12.236A370.327,370.327,0,0,1,177.7,358.107l7.88,14.4a80.079,80.079,0,0,1,3.656,7.33l3.485,7.444,3.561,7.425c.587,1.231,1.212,2.462,1.761,3.788l1.534,3.788c1.989,5.114,4.11,10.171,6.288,15.248s3.94,10.266,5.682,15.475l5.436,15.664c3.5,10.493,6.288,21.214,9.944,31.8l.587-.114c-2.481-10.834-4.754-21.725-7.425-32.522l-4.716-16.005c-1.61-5.322-3.031-10.721-5.114-15.892l-5.8-15.645-1.459-3.921c-.53-1.288-1.136-2.538-1.686-3.788L197.894,385l-3.428-7.576a83.112,83.112,0,0,0-3.656-7.576l-7.8-14.869a310.632,310.632,0,0,0-39.246-53.906c-3.788-4.053-7.576-8.182-11.687-11.914l-6.08-5.682-6.383-5.4a165.673,165.673,0,0,0-27.5-18.941Z" transform="translate(1039.49 418.551)" fill="#e2e2e2"/>
      <path id="Path_231" data-name="Path 231" d="M166.382,255.877a56.442,56.442,0,0,0-14.338-7.671c-2.462-1.061-5.038-1.724-7.576-2.538s-5.19-1.212-7.8-1.8a83.872,83.872,0,0,0-16.043-1.231,47.029,47.029,0,0,0-16.1,2.993v.568a159.236,159.236,0,0,1,31.215,3.239,297.718,297.718,0,0,1,30.59,6.989Z" transform="translate(1050.773 403.492)" fill="#e2e2e2"/>
      <path id="Path_232" data-name="Path 232" d="M155.6,239.506a42.107,42.107,0,0,0-10.74-8.561,61.182,61.182,0,0,0-5.966-3.068c-2.046-.89-4.148-1.629-6.232-2.424a62.275,62.275,0,0,0-13.259-2.69,35.723,35.723,0,0,0-13.789,1.25v.568a135.7,135.7,0,0,1,25.362,6.232,250.032,250.032,0,0,1,24.453,9.205Z" transform="translate(1051.747 385.523)" fill="#e2e2e2"/>
      <path id="Path_233" data-name="Path 233" d="M154.942,260.053a44.89,44.89,0,0,0,4.167-8.05c1.042-2.595,2.008-5.076,2.822-7.463.3-1.269.814-2.387,1.212-3.561l.587-1.761a12.237,12.237,0,0,0,.663-1.7,37.693,37.693,0,0,1,3.788-7.33l-.189-.492a16.347,16.347,0,0,0-6.932,5.36,27.731,27.731,0,0,0-4.053,7.785,52.713,52.713,0,0,0-2.614,17.218Z" transform="translate(1095.359 391.912)" fill="#e2e2e2"/>
      <path id="Path_234" data-name="Path 234" d="M144.784,237.847a31.083,31.083,0,0,0,1.686-6.781c.379-2.121.511-4.186.739-6.156s.3-3.9.492-5.682a24.625,24.625,0,0,1,1.458-6.156l-.227-.322a11.952,11.952,0,0,0-4.072,5.341,21.9,21.9,0,0,0-1.553,6.573,48.718,48.718,0,0,0,1.1,13.372Z" transform="translate(1085.384 376.729)" fill="#e2e2e2"/>
      <path id="Path_235" data-name="Path 235" d="M154.067,413.654H206.7a5.152,5.152,0,0,0,5.114-4.565l7.254-60.952a5.171,5.171,0,0,0-5.133-5.777H146.812a5.152,5.152,0,0,0-5.114,5.777l7.236,60.952A5.19,5.19,0,0,0,154.067,413.654Z" transform="translate(1083.98 492.959)" fill="#3f71e2"/>
      <path id="Path_236" data-name="Path 236" d="M143.1,356.851h80.689a3.409,3.409,0,0,0,3.372-2.879l1.572-10.361a3.39,3.39,0,0,0-3.353-3.921H141.6a3.41,3.41,0,0,0-3.353,3.921l1.591,10.361a3.371,3.371,0,0,0,3.258,2.879Z" transform="translate(1080.896 490.514)" fill="#0050c8"/>
      <path id="Path_237" data-name="Path 237" d="M178.485,285.579H765.507a9.774,9.774,0,0,0,9.755-9.755h0a9.774,9.774,0,0,0-9.755-9.755H178.485a9.755,9.755,0,0,0-9.755,9.755h0A9.755,9.755,0,0,0,178.485,285.579Z" transform="translate(1108.206 424.504)" fill="#d8e7fc"/>
      <path id="Path_238" data-name="Path 238" d="M407.485,285.579H560.756a9.774,9.774,0,0,0,9.755-9.755h0a9.774,9.774,0,0,0-9.755-9.755H407.485a9.755,9.755,0,0,0-9.755,9.755h0A9.755,9.755,0,0,0,407.485,285.579Z" transform="translate(1312.956 424.504)" fill="#99c1f9"/>
      <rect class="class="Rectangle_61" data-name="Rectangle 61" width="19.528" height="227.066" transform="translate(1850.017 710.308)" fill="#99c1f9"/>
      <rect class="class="Rectangle_62" data-name="Rectangle 62" width="19.528" height="227.028" transform="translate(1724.678 710.346)" fill="#99c1f9"/>
      <rect class="class="Rectangle_63" data-name="Rectangle 63" width="9.774" height="227.028" transform="translate(1724.678 710.346)" fill="#d8e7fc"/>
      <rect class="class="Rectangle_64" data-name="Rectangle 64" width="19.528" height="227.028" transform="translate(1290.841 710.346)" fill="#99c1f9"/>
      <rect class="class="Rectangle_65" data-name="Rectangle 65" width="19.49" height="227.066" transform="translate(1416.197 710.308)" fill="#d8e7fc"/>
      <rect class="class="Rectangle_66" data-name="Rectangle 66" width="9.774" height="227.028" transform="translate(1290.841 710.346)" fill="#d8e7fc"/>
      <path id="Path_239" data-name="Path 239" d="M490.809,276.37v6.251L471.3,296.561V276.37Z" transform="translate(1378.734 433.736)" fill="#d8e7fc"/>
      <path id="Path_240" data-name="Path 240" d="M405.12,276.37h19.509v6.251L405.12,296.561Z" transform="translate(1319.558 433.736)" fill="#d8e7fc"/>
      <path id="Path_241" data-name="Path 241" d="M242.26,276.37h19.509v6.251L242.26,296.561Z" transform="translate(1173.937 433.736)" fill="url(#linear-gradient-14)"/>
      <path id="Path_242" data-name="Path 242" d="M195.589,276.37v6.251L176.08,296.561V276.37Z" transform="translate(1114.761 433.736)" fill="#d8e7fc"/>
      <path id="Path_243" data-name="Path 243" d="M506.22,290.8H325.92L339.179,173.44H519.46Z" transform="translate(1248.746 341.537)" fill="#55a4ff" opacity="0.3"/>
      <path id="Path_244" data-name="Path 244" d="M342.452,177.9l-1.913,16.933L327.28,312.173h180.3l13.259-117.34,1.894-16.933Z" transform="translate(1249.966 345.544)" fill="#99c1f9" opacity="0.4"/>
      <path id="Path_245" data-name="Path 245" d="M506.22,302.829H325.92L339.179,185.47H519.46Z" transform="translate(1248.746 352.322)" opacity="0.6" fill="url(#linear-gradient-15)"/>
      <path id="Path_246" data-name="Path 246" d="M499.176,270.733H328.99l6.4-56.823H505.6Z" transform="translate(1251.49 377.783)" fill="#fff"/>
      <path id="Path_247" data-name="Path 247" d="M380.084,262.18H331.5l5.209-46.14h48.584Z" transform="translate(1253.732 379.69)" fill="#57afff"/>
      <path id="Path_248" data-name="Path 248" d="M383.494,248.525H344.4l4.2-37.125H387.68Z" transform="translate(1265.266 375.526)" fill="#164dd6" opacity="0.7"/>
      <path id="Path_249" data-name="Path 249" d="M370.3,215.7H332.83l1.4-12.387H371.7Z" transform="translate(1254.92 368.265)" fill="#f9f4ea"/>
      <path id="Path_250" data-name="Path 250" d="M354.021,206.144H335.97l.208-1.724h18.051Z" transform="translate(1257.728 369.256)" fill="url(#linear-gradient-16)"/>
      <path id="Path_251" data-name="Path 251" d="M441.985,238.161H393.42l2.936-26.1H444.94Z" transform="translate(1309.096 376.112)" fill="#57afff"/>
      <path id="Path_252" data-name="Path 252" d="M441.644,229.845H393.06l.227-1.875h48.565Z" transform="translate(1308.777 390.358)" fill="#33333d"/>
      <path id="Path_253" data-name="Path 253" d="M441.414,231.885H392.83l.227-1.875h48.565Z" transform="translate(1308.569 392.185)" fill="#33333d"/>
      <path id="Path_254" data-name="Path 254" d="M393.655,213.4H356.19l1.4-12.387h37.465Z" transform="translate(1275.808 366.203)" fill="#f9f4ea"/>
      <path id="Path_255" data-name="Path 255" d="M466.773,215.7H385.08l1.4-12.387h81.693Z" transform="translate(1301.64 368.265)" fill="#51cc93"/>
      <path id="Path_256" data-name="Path 256" d="M418.367,206.144H387.19l.208-1.724h31.158Z" transform="translate(1303.527 369.256)" fill="#f9f4ea"/>
      <path id="Path_257" data-name="Path 257" d="M418.177,207.854H387l.189-1.724h31.177Z" transform="translate(1303.356 370.787)" fill="#f9f4ea"/>
      <path id="Path_258" data-name="Path 258" d="M498.2,207.365H328.01l1.932-17.085H500.128Z" transform="translate(1250.614 356.593)" fill="#fff"/>
      <path id="Path_259" data-name="Path 259" d="M422.457,203.907H410.07l1.4-12.387h12.388Z" transform="translate(1323.989 357.7)" fill="#84deae"/>
      <path id="Path_260" data-name="Path 260" d="M413.1,203.907H400.71l1.4-12.387H414.5Z" transform="translate(1315.616 357.7)" fill="#57afff"/>
      <path id="Path_261" data-name="Path 261" d="M403.728,203.907H391.34l1.4-12.387h12.387Z" transform="translate(1307.237 357.7)" fill="#57afff"/>
      <path id="Path_262" data-name="Path 262" d="M372.044,194.227h-40.7l.265-2.387h40.7Z" transform="translate(1253.589 357.985)" fill="#57afff"/>
      <path id="Path_263" data-name="Path 263" d="M371.8,196.467H331.08l.284-2.387h40.7Z" transform="translate(1253.354 359.992)" fill="#57afff"/>
      <path id="Path_264" data-name="Path 264" d="M348.881,198.707H330.83l.265-2.387h18.051Z" transform="translate(1253.131 361.999)" fill="#57afff"/>
      <path id="Path_265" data-name="Path 265" d="M411.815,247.122H363.25l2.936-26.082h48.565Z" transform="translate(1282.12 384.158)" fill="#57afff"/>
      <path id="Path_266" data-name="Path 266" d="M411.474,238.815H362.89l.208-1.875h48.584Z" transform="translate(1281.8 398.392)" fill="#33333d"/>
      <path id="Path_267" data-name="Path 267" d="M411.244,240.846H362.66l.208-1.856h48.584Z" transform="translate(1281.593 400.23)" fill="#33333d"/>
      <path id="Path_268" data-name="Path 268" d="M396.9,235.2H378.28l1.837-16.251h18.619Z" transform="translate(1295.56 382.28)" fill="#164dd6" opacity="0.7"/>
      <path id="Path_269" data-name="Path 269" d="M513.2,193.454H332.92l1.913-16.914H515.114Z" transform="translate(1255.009 344.279)" fill="#d3d3d3"/>
      <path id="Path_270" data-name="Path 270" d="M508.5,186.238H334.89l.625-5.588H509.148Z" transform="translate(1256.765 347.959)" fill="#f2f2f2"/>
      <path id="Path_271" data-name="Path 271" d="M338.228,181.028h-2.9l.341-2.9h2.9Z" transform="translate(1257.155 345.701)" fill="#f9f4ea"/>
      <path id="Path_272" data-name="Path 272" d="M340.958,181.028h-2.9l.322-2.9h2.9Z" transform="translate(1259.596 345.701)" fill="#f9f4ea"/>
      <path id="Path_273" data-name="Path 273" d="M343.678,181.028h-2.9l.322-2.9h2.917Z" transform="translate(1262.028 345.701)" fill="#f9f4ea"/>
      <path id="Path_274" data-name="Path 274" d="M355.8,327.641,328.01,177.59H522.08L385.837,327.641Z" transform="translate(1250.618 345.275)" fill="url(#linear-gradient-17)"/>
      <path id="Path_275" data-name="Path 275" d="M375.534,258.43H357.483a29.286,29.286,0,0,0-24.229,12.829L332.14,272.9H400.9l-1.117-1.648A29.283,29.283,0,0,0,375.534,258.43Z" transform="translate(1254.304 417.657)" fill="#3f71e2"/>
      <path id="Path_276" data-name="Path 276" d="M366.713,260.121c0,.587-5,1.061-11.156,1.061s-11.156-.474-11.156-1.061,5-1.061,11.156-1.061S366.713,259.534,366.713,260.121Z" transform="translate(1265.266 418.214)" opacity="0.4" fill="url(#linear-gradient-18)"/>
      <path id="Path_286" data-name="Path 286" d="M302.31,386.068c1.174,1.894,1.307,5.057,8.58,7.766s22.426,3.428,14.168,6.535a39.87,39.87,0,0,1-19.718,2.065c-4.982-.511-7.917.265-13.77.511-7.69.341-7.785-.114-7.16-8.543C285.282,382.81,298.522,379.723,302.31,386.068Z" transform="translate(1211.416 529.143)" fill="#231a66"/>
      <path id="Path_287" data-name="Path 287" d="M284.8,463.024c12.558-43.11,18.392-123.761,40.023-155.317,13.751-20.021,40.458-12.122,30.571,14.736-10.588,28.7-37.39,82.3-52.41,139.482C301.5,467.589,283.359,468.081,284.8,463.024Z" transform="translate(1211.901 451.943)" fill="#3f71e2"/>
      <path id="Path_288" data-name="Path 288" d="M385.653,333.755c11.5-4.243,21.441-43.564-20.835-38.242-18.771,2.349-85.083,7.368-95.084,8.58s-24.623,3.656-26.139,8.77c-7.974,25.552,23.051,48.527,60.384,40.174C328.83,347.45,361.749,342.544,385.653,333.755Z" transform="translate(1174.005 450.478)" fill="#3f71e2"/>
      <path id="Path_289" data-name="Path 289" d="M298.151,273.953c-6.137,4.678-12.709,4.584-30.722,6.743-25.93,3.106-32.295,2.178-48.792-1.591-10.759-2.462-2.292-25.949,12.615-26.518,12.6-.549,56.463,12.728,64.135,12.369C300.462,264.634,303.208,270.165,298.151,273.953Z" transform="translate(1148.482 412.418)" fill="url(#linear-gradient-19)"/>
      <path id="Path_290" data-name="Path 290" d="M214.448,297.3c1.118-5.929,5.682-18.733,24.3-45.951a212.142,212.142,0,0,1,21.612-27.483c7.444-8.183,18.524-5.4,21.119-.189,4.148,8.391,4.11,22.578.455,27.1-20.551,25.57-37.882,43.962-41.8,51.027C234.488,312.076,213.122,304.329,214.448,297.3Z" transform="translate(1149.015 382.098)" fill="#ccd9f8"/>
      <path id="Path_291" data-name="Path 291" d="M319.421,388.018c1.174,1.894,6.535,6.364,13.808,9.073s22.426,3.428,14.187,6.535-18.108,1.894-23.108,1.421a103.7,103.7,0,0,0-15.627-.152c-7.709.341-7.785-.114-7.16-8.542C302.393,384.76,315.633,381.673,319.421,388.018Z" transform="translate(1226.714 530.888)" fill="#231a66"/>
      <path id="Path_292" data-name="Path 292" d="M247.412,215.16c1.553,15.588,2.008,18.941,8.827,25.419s17.445,7.311,24.832,7.311c7.974,0,13.259-9.622,15.039-16.214a95.993,95.993,0,0,0,1.553-36.727c-1.137-8.656-11.8-19.149-22.824-19.149S243.605,177.088,247.412,215.16Z" transform="translate(1178.122 343.637)" fill="#f0bc99"/>
      <path id="Path_293" data-name="Path 293" d="M251.856,215.866c-.417,5.4-.814,11.611-1,17.293a14.888,14.888,0,0,0,12.994,15.153,6.848,6.848,0,0,0,.852,0c6.724,0,14.642-6.1,14.054-12.842-.4-4.375-.53-8.789-.549-12.672a17.558,17.558,0,0,0-11.687-16.441h0a11.024,11.024,0,0,0-14.66,9.508Z" transform="translate(1181.615 370.446)" fill="#f0bc99"/>
      <path id="Path_294" data-name="Path 294" d="M236.6,273.185c12.52,41.121,16.63,65.707,14.168,94.44h94.213s-.549-69.912-6.857-118.23a36.2,36.2,0,0,0-19.907-27.711c-7.084-3.788-19.907-5.55-25.116-5.55H275.691a66.294,66.294,0,0,0-18.373,2.273C231.634,226.287,229.361,249.357,236.6,273.185Z" transform="translate(1165.678 379.828)" fill="#ccd9f8"/>
      <path id="Path_295" data-name="Path 295" d="M244.366,353.748s-8.145-19.774-.4-57.638h94.213a537.447,537.447,0,0,1,3.428,57.638Z" transform="translate(1172.475 451.451)" fill="#0050c8"/>
      <path id="Path_296" data-name="Path 296" d="M301.851,462.873c16.024-41.936,28.412-121.848,52.58-151.529,15.342-18.827,41.31-8.77,29.245,17.2-12.88,27.749-43.981,78.965-63.623,134.728C318.121,468.8,300.032,467.8,301.851,462.873Z" transform="translate(1227.106 456.545)" fill="#3f71e2"/>
      <path id="Path_297" data-name="Path 297" d="M407.477,339.578c11.8-3.3,24.927-41.67-17.653-39.776-18.941.814-85.405.379-95.444.8s-24.775,1.61-26.783,6.573C257.558,332,286.538,357.44,324.42,352.155,349.82,348.594,383.024,346.378,407.477,339.578Z" transform="translate(1194.801 454.697)" fill="#3f71e2"/>
      <path id="Path_298" data-name="Path 298" d="M272.194,198.577c-2.2,5.4-1.686,10.7,1.136,11.857s6.895-2.292,9.092-7.671,1.7-10.7-1.117-11.857S274.41,193.179,272.194,198.577Z" transform="translate(1199.481 356.951)" fill="#f0bc99"/>
      <path id="Path_299" data-name="Path 299" d="M255.587,198.577c2.216,5.4,1.7,10.7-1.117,11.857s-6.895-2.292-9.092-7.671-1.7-10.7,1.118-11.857S253.465,193.179,255.587,198.577Z" transform="translate(1175.497 356.951)" fill="#f0bc99"/>
      <path id="Path_300" data-name="Path 300" d="M250.1,188.185c6.061,9.054,35.4,9.906,44.985,6.554s8.9-21.839-4.792-23.108c-7.709,0-2.121,1.894-8.372,4.375C278.753,177.274,243.618,178.506,250.1,188.185Z" transform="translate(1180.231 339.884)" fill="#21283a"/>
      <path id="Path_301" data-name="Path 301" d="M340.121,238.116c3.921-2.462,37.484-23.752,37.087-15.418-.436,9.243-11.952,19.187-16.119,22.028-7.576,5.19-15.835,6.876-18.941,2.784C339.913,244.613,336.39,240.446,340.121,238.116Z" transform="translate(1259.979 383.921)" fill="#f0bc99"/>
      <path id="Path_302" data-name="Path 302" d="M412.222,238.666c-7.1,1.553-49.891,14.433-63.282,21.176-7.728-4.243-24.453-21.5-51.652-37.882-10.1-6.061-19.3-4.016-27.5.53-5.076,2.8-7.349,14,1.155,21.081A212.134,212.134,0,0,0,299.352,263.9c28.033,17.388,41.045,21.347,47.012,22.2a3.218,3.218,0,0,0,.739,0h.227a3.123,3.123,0,0,0,.606-.133,6.568,6.568,0,0,0,1.156-.227,240.1,240.1,0,0,0,46.368-21.858c17.217-10.133,19.055-9.224,22.54-15.986a6.023,6.023,0,0,0-5.777-9.224Z" transform="translate(1194.505 381.626)" fill="#ccd9f8"/>
      <path id="Path_303" data-name="Path 303" d="M286.9,181.217c9.016,5.455,11.118,10.228,10.872,21.4s-5.038,30.306-25.589,34.473-25.419-16.138-26.669-30.306-.436-24.623,9.963-27.124C270.91,175.989,281.423,177.9,286.9,181.217Z" transform="translate(1176.444 345.302)" fill="#21283a"/>
      <path id="Path_304" data-name="Path 304" d="M371.188,399.036a6.837,6.837,0,0,1-6.686-5.455H248a6.819,6.819,0,0,1-13.505-1.364A12.293,12.293,0,0,1,246.821,380H365.79a12.274,12.274,0,0,1,12.274,12.274,6.819,6.819,0,0,1-6.876,6.762Z" transform="translate(1166.99 526.612)" fill="#f1d27f"/>
      <path id="Path_305" data-name="Path 305" d="M422.931,388.828H386.943c-18.941,0-31.063-10.02-33.961-28.241-3.542-22.313-10.133-95.293-10.209-96.012A8.5,8.5,0,0,0,332.336,257H224.05a10.834,10.834,0,0,0-8.732,11.232c.265,3.031,6.705,74.325,10.361,97.243,4.224,26.517,23.279,42.485,50.951,42.485H420.9a10.929,10.929,0,0,0,10.588-9.584,8.448,8.448,0,0,0-8.561-9.546Z" transform="translate(1149.833 416.271)" fill="#f1d27f"/>
      <path id="Path_306" data-name="Path 306" d="M263.85,336.6h32.2v13.827a2.652,2.652,0,0,1-2.652,2.652H266.521a2.652,2.652,0,0,1-2.652-2.652V336.6Z" transform="translate(1193.24 487.748)" fill="#f1d27f"/>
      <rect class="class="Rectangle_67" data-name="Rectangle 67" width="21.669" height="64.191" transform="translate(1462.414 840.888)" fill="#d8e7fc"/>
      <path id="Path_307" data-name="Path 307" d="M267.3,373h23.9a2.614,2.614,0,0,1,2.614,2.614V393H264.69V375.614A2.614,2.614,0,0,1,267.3,373Z" transform="translate(1193.991 520.355)" fill="#d8b058"/>
      <path id="Path_308" data-name="Path 308" d="M318.426,399.036a6.838,6.838,0,0,1-6.686-5.455H266.906a6.819,6.819,0,0,1-13.486-1.364A12.274,12.274,0,0,1,265.694,380h47.353a12.293,12.293,0,0,1,12.274,12.274,6.819,6.819,0,0,1-6.895,6.762Z" transform="translate(1183.915 526.612)" fill="#d8b058"/>
      <path id="Path_309" data-name="Path 309" d="M271.9,395.731a9.3,9.3,0,1,1-9.3-9.281,9.3,9.3,0,0,1,9.3,9.281Z" transform="translate(1183.808 532.382)" fill="#d8b058"/>
      <path id="Path_310" data-name="Path 310" d="M269.482,395.731a9.281,9.281,0,1,1-9.281-9.281A9.281,9.281,0,0,1,269.482,395.731Z" transform="translate(1181.681 532.382)" fill="#f1d27f"/>
      <path id="Path_311" data-name="Path 311" d="M302.62,395.731a9.3,9.3,0,1,1-9.281-9.281A9.3,9.3,0,0,1,302.62,395.731Z" transform="translate(1211.274 532.382)" fill="#d8b058"/>
      <path id="Path_312" data-name="Path 312" d="M300.23,395.731a9.3,9.3,0,1,1-9.3-9.281,9.3,9.3,0,0,1,9.3,9.281Z" transform="translate(1209.14 532.382)" fill="#f1d27f"/>
      <path id="Path_313" data-name="Path 313" d="M252.98,395.731a9.3,9.3,0,1,1-9.3-9.281A9.3,9.3,0,0,1,252.98,395.731Z" transform="translate(1166.889 532.382)" fill="#d8b058"/>
      <path id="Path_314" data-name="Path 314" d="M250.58,395.731a9.3,9.3,0,1,1-9.281-9.281A9.3,9.3,0,0,1,250.58,395.731Z" transform="translate(1164.744 532.382)" fill="#f1d27f"/>
      <path id="Path_315" data-name="Path 315" d="M321.522,395.731a9.281,9.281,0,1,1-9.281-9.281A9.281,9.281,0,0,1,321.522,395.731Z" transform="translate(1228.212 532.382)" fill="#d8b058"/>
      <path id="Path_316" data-name="Path 316" d="M319.15,395.731a9.3,9.3,0,1,1-9.281-9.281,9.3,9.3,0,0,1,9.281,9.281Z" transform="translate(1226.057 532.382)" fill="#f1d27f"/>
      <path id="Path_317" data-name="Path 317" d="M288.329,352.971,266.66,346.91V345.3h21.669Z" transform="translate(1195.754 495.589)" fill="#cecece"/>
      <path id="Path_318" data-name="Path 318" d="M296.145,344.252,263.85,338.21V336.6h32.294Z" transform="translate(1193.24 487.744)" fill="#d8b058"/>
      <path id="Path_319" data-name="Path 319" d="M369.788,407.969H333.8c-27.673,0-46.728-15.892-50.951-42.485-3.656-22.919-10.1-94.213-10.361-97.243a10.834,10.834,0,0,1,8.732-11.232,8.5,8.5,0,0,1,10.437,7.576c0,.72,6.667,73.7,10.209,96.012,2.9,18.221,14.963,28.241,33.961,28.241h35.988a8.448,8.448,0,0,1,8.561,9.565A10.929,10.929,0,0,1,369.788,407.969Z" transform="translate(1200.951 416.278)" fill="#d8b058"/>
      <path id="Path_321" data-name="Path 321" d="M451.579,282.119h0c-14.509,4.11-45.591,13.846-56.653,19.415-7.728-4.243-24.453-21.5-51.652-37.882a24.8,24.8,0,0,0-11.478-3.788,74.019,74.019,0,0,0-20.456-3.959v-2.69a16.885,16.885,0,0,0-.152-1.686c7.709-.379,12.8-9.717,14.566-16.176a66.137,66.137,0,0,0,1.629-8.22,13.921,13.921,0,0,0,6.042-7.387c2.216-5.4,1.7-10.7-1.117-11.857a4.432,4.432,0,0,0-4.129.909c-.133-3.2-.4-6.573-.871-10.171a15.152,15.152,0,0,0-1.042-3.788.747.747,0,0,0,.568-.17c9.47-3.334,8.9-21.839-4.792-23.108-7.709,0-2.121,1.894-8.372,4.375-2.917,1.174-32.673,2.292-32.6,9.944-7.236,3.125-8.5,11.365-7.88,22.2-2.519,1.44-2.917,6.478-.8,11.649a17.275,17.275,0,0,0,3.334,5.322,37.223,37.223,0,0,0,3.258,8.107,19.832,19.832,0,0,0,6.478,10.7,11.006,11.006,0,0,0-.474,2.424c-.246,3.144-.474,6.573-.663,10a51.518,51.518,0,0,0-9.793,1.894c-9.792,3.012-16.157,8.22-19.926,14.812a248.313,248.313,0,0,0-15.323,20.437c-16.554,24.169-21.972,36.954-23.771,43.659-2.557,5.8-2.387,11.819,1.762,13.846,1.724,18.676,6.705,71.54,9.755,90.671,4.224,26.518,23.279,42.485,50.952,42.485h30.628v11.876a4.6,4.6,0,0,0,4.6,4.6h.72v52.562a4.527,4.527,0,0,0-3.788,4.451v8.789H265.293a12.293,12.293,0,0,0-12.274,12.274,6.022,6.022,0,0,0,.133,1.174,9.262,9.262,0,0,0,4.432,17.407,8.868,8.868,0,0,0,2.254-.322,9.152,9.152,0,0,0,2.273.322,9.262,9.262,0,0,0,4.792-17.217h21.725a9.243,9.243,0,0,0,7.065,16.9,8.867,8.867,0,0,0,2.254.322,9.262,9.262,0,0,0,4.792-17.218h44a9.262,9.262,0,0,0,4.773,17.218,8.9,8.9,0,0,0,2.273-.322,9.02,9.02,0,0,0,2.273.322,9.262,9.262,0,0,0,8.656-6,32.9,32.9,0,0,1,3.485.17,47.163,47.163,0,0,0,10.607.152,8.24,8.24,0,0,0,.72,1.326,2.6,2.6,0,0,0,2.519,2.652,9.187,9.187,0,0,0,5.322,1.7,8.868,8.868,0,0,0,2.254-.322,9.017,9.017,0,0,0,2.273.322,9.339,9.339,0,0,0,5.436-1.78c1.724,0,3.428.133,5.133.3,5,.53,14.85,1.686,23.108-1.421s-6.913-3.788-14.187-6.535a36.52,36.52,0,0,1-12.9-7.936.674.674,0,0,0,.114-.189c18.752-53.262,47.921-102.282,61.729-130.788a26.821,26.821,0,0,0,4.963-15.835,14.377,14.377,0,0,0-4.546-11.535c-4.3-4.6-12.009-7.576-24.623-7.084-3.978.17-10.1.284-17.331.36a12.821,12.821,0,0,0-3.39-3.788c-4.66-4.224-12.6-6.61-25.173-5.038-5.8.739-16.138,1.7-27.938,2.746-.095-.758-.133-1.174-.133-1.174s-.4-49.834-4.319-94.421c19.566,11.137,29.548,14.054,34.549,14.774a3.222,3.222,0,0,0,.739,0h.227a3.118,3.118,0,0,0,.606-.133,6.554,6.554,0,0,0,1.155-.227,240.1,240.1,0,0,0,46.33-21.953c12.747-7.576,17.047-8.959,19.869-11.952a28.7,28.7,0,0,0,11.27-4.887c4.148-2.841,15.683-12.785,16.119-22.029C489.063,258.367,455.5,279.657,451.579,282.119ZM256.864,323.524c.587,2.046,1.155,4.034,1.686,5.985l-5.682-1.288Zm157.381,141.49H406.1l1.137-2.671,8.372-1.061C415.136,462.514,414.681,463.764,414.246,465.014ZM335.565,553.2V500.642h.7a4.6,4.6,0,0,0,4.6-4.6V484.164H366.5c-5.815,28.412-10.3,59.058-16.062,82.148H339.3v-8.656a4.527,4.527,0,0,0-3.731-4.451Zm38.223,29.529a17.652,17.652,0,0,1-5.152-2.784h11.687a2.007,2.007,0,0,0,.644,1.25,9.167,9.167,0,0,0-2.083,2.974,39.585,39.585,0,0,1-5.1-1.439Zm11.1-16.365h-16.5a719.363,719.363,0,0,1,29.6-82.148h9.963c-8.391,27.521-15.475,58.414-23.07,82.148Z" transform="translate(1148.518 340.245)" fill="none"/>
      <g class="Group_112" data-name="Group 112" transform="translate(1161.468 420.564)">
        <path id="Path_277" data-name="Path 277" d="M571.91,136.763H111.53l3.355-7.1h460.36Z" transform="translate(-111.53 -129.66)" fill="#99c1f9"/>
        <path id="Path_278" data-name="Path 278" d="M147.849,192.931a1.648,1.648,0,0,1-1.629-1.648V132.225a1.648,1.648,0,0,1,3.277,0v59.058a1.648,1.648,0,0,1-1.648,1.648Z" transform="translate(-80.513 -128.683)" fill="#99c1f9"/>
        <path id="Path_279" data-name="Path 279" d="M316.409,192.931a1.629,1.629,0,0,1-1.629-1.648V132.225a1.648,1.648,0,0,1,3.277,0v59.058a1.648,1.648,0,0,1-1.648,1.648Z" transform="translate(78.361 -128.683)" fill="#99c1f9"/>
        <path id="Path_280" data-name="Path 280" d="M571.91,141.972H111.53l3.355-7.122h460.36Z" transform="translate(-111.53 -125.02)" fill="#99c1f9"/>
        <path id="Path_281" data-name="Path 281" d="M571.91,147.153H111.53l3.355-7.1h460.36Z" transform="translate(-111.53 -120.37)" fill="#99c1f9"/>
        <path id="Path_282" data-name="Path 282" d="M571.91,152.353H111.53l3.355-7.1h460.36Z" transform="translate(-111.53 -115.721)" fill="#99c1f9"/>
        <path id="Path_283" data-name="Path 283" d="M571.91,157.562H111.53l3.355-7.122h460.36Z" transform="translate(-111.53 -111.08)" fill="#99c1f9"/>
        <path id="Path_284" data-name="Path 284" d="M571.91,162.743H111.53l3.355-7.1h460.36Z" transform="translate(-111.53 -106.431)" fill="#99c1f9"/>
        <path id="Path_285" data-name="Path 285" d="M571.91,167.943H111.53l3.355-7.1h460.36Z" transform="translate(-111.53 -101.782)" fill="#99c1f9"/>
      </g>
    </g>
    <g class="Group_113" data-name="Group 113" transform="translate(1263.531 186)">
      <path id="Path_322" data-name="Path 322" d="M106.9,135.711A18.921,18.921,0,1,1,88.033,116.79,18.921,18.921,0,0,1,106.9,135.711Z" transform="translate(-49.879 85.754)" fill="#f1d27f"/>
      <path id="Path_323" data-name="Path 323" d="M115.057,188.48V172.871a8.394,8.394,0,0,0-8.359-8.359h-7.77V-166H93.292V164.46H85.505a8.394,8.394,0,0,0-8.428,8.359v15.608A38.05,38.05,0,0,0,58,221.379h76.1a38.015,38.015,0,0,0-19.042-32.9Z" transform="translate(-58 -20)" fill="#3f71e2"/>
    </g>
  </g>
</svg>
