<svg xmlns="http://www.w3.org/2000/svg" width="1284" height="900" viewBox="0 0 1284 900">
  <g class="Group_37925" data-name="Group 37925" transform="translate(-636)">
    <path id="Path_1589" data-name="Path 1589" d="M2357.52,0V900H1087.947c-53.061-151.053,48.908-238.513,164.654-318.767,56.307-39.047,115.88-76.38,162.448-118.5,52.9-47.86,89.03-101.893,84.53-171.627C1487.827,108.84,1601.667,30.78,1672.826,0Z" transform="translate(-437.52)" fill="#faf3ed"/>
    <path id="Path_1590" data-name="Path 1590" d="M1466.848,72.08a213.369,213.369,0,0,0,1.418,39.113c1.58,13.673,3.973,27.907,6.743,42.633s5.828,29.967,8.981,45.673,6.265,31.873,9.263,48.5c.376,2.073.746,4.147,1.116,6.233s.753,4.16,1.089,6.313q.514,3.2,1.029,6.42c.3,2.153.612,4.313.914,6.48,1.136,8.68,2,17.507,2.46,26.46a239.2,239.2,0,0,1-3.092,54.8,195.665,195.665,0,0,1-6.911,27.42,203.689,203.689,0,0,1-10.958,26.44,245.337,245.337,0,0,1-31.878,47.713q-2.743,3.27-5.553,6.453a469.652,469.652,0,0,1-34.19,34.573c-13.983,12.807-28.409,24.96-42.9,36.833s-29.121,23.36-43.582,34.787q-21.68,17.08-42.963,33.853c-7.065,5.613-14.036,11.16-20.987,16.753-1.768,1.4-3.395,2.773-5.055,4.153s-3.328,2.74-4.961,4.133c-1.6,1.427-3.207,2.853-4.8,4.273-.793.72-1.613,1.407-2.38,2.147l-2.313,2.207c-6.245,5.8-11.993,11.98-17.532,18.227q-2.027,2.39-4.047,4.767c-.679.78-1.331,1.593-1.97,2.407l-1.929,2.433c-2.629,3.193-4.995,6.553-7.448,9.833q-1.744,2.52-3.482,5.033c-.571.84-1.163,1.667-1.721,2.513s-1.1,1.707-1.64,2.56c-1.076,1.713-2.2,3.387-3.233,5.113s-2.051,3.46-3.072,5.18l-.76,1.287-.719,1.313c-.484.873-.961,1.747-1.439,2.62-.954,1.74-1.936,3.467-2.8,5.247-.894,1.76-1.795,3.513-2.682,5.267q-1.26,2.66-2.508,5.313c-3.267,7.087-6.245,14.207-8.773,21.373-.329.893-.652,1.787-.975,2.68s-.6,1.793-.9,2.687c-.592,1.793-1.176,3.573-1.768,5.353-1.049,3.593-2.2,7.133-3.119,10.707a309.129,309.129,0,0,0-8.336,41.94c-.854,6.827-1.539,13.533-1.983,20.113s-.726,13.02-.827,19.313c-.141,6.287-.054,12.427.1,18.393.114,2.987.195,5.927.37,8.82.074,1.453.155,2.887.229,4.313.094,1.427.188,2.847.282,4.247.612,8.62,1.452,16.793,2.427,24.5h-5.734c-1.365-7.487-2.6-15.44-3.637-23.833-1.4-11.36-2.406-23.52-2.776-36.393a352.982,352.982,0,0,1,1.143-40.58,310.471,310.471,0,0,1,7-43.767c.827-3.753,1.869-7.487,2.864-11.273.558-1.873,1.109-3.76,1.667-5.653.289-.94.551-1.893.86-2.84s.619-1.88.928-2.827c2.413-7.587,5.3-15.153,8.5-22.713,3.146-7.593,6.891-15.053,10.877-22.5q1.553-2.77,3.106-5.553c1.042-1.847,2.185-3.653,3.281-5.493.551-.913,1.109-1.833,1.661-2.747.571-.913,1.17-1.807,1.755-2.713,1.176-1.8,2.346-3.62,3.549-5.42,4.907-7.133,10.137-14.18,15.825-20.96,5.734-6.74,11.71-13.413,18.184-19.687l2.407-2.38c.8-.8,1.647-1.547,2.474-2.32q2.491-2.31,4.988-4.62c1.694-1.513,3.435-2.98,5.156-4.48s3.482-3,5.183-4.387c6.843-5.68,13.835-11.407,20.826-17.12q5.223-4.24,10.48-8.507,5.334-4.33,10.7-8.687,10.679-8.57,21.458-17.227,21.559-17.26,43.111-34.92c14.312-11.787,28.469-23.793,42.035-36.293a431.809,431.809,0,0,0,38.257-39.253,267.522,267.522,0,0,0,16.349-21.373,212.422,212.422,0,0,0,13.613-22.747,185.266,185.266,0,0,0,10.218-24.067,178.338,178.338,0,0,0,6.7-25.02,231.3,231.3,0,0,0,3.7-51.08c-.269-8.487-.914-16.913-1.842-25.253q-.373-3.13-.746-6.24-.434-3.11-.867-6.207c-.269-2.047-.6-4.133-.914-6.227s-.632-4.16-.948-6.233c-2.521-16.527-5.284-32.707-7.919-48.48-5.257-31.547-10.581-61.493-12.752-89.767-1.022-14.12-1.224-27.853.309-40.9,1.526-13.02,4.948-25.353,10.433-35.873a87.406,87.406,0,0,1,20.5-25.667A109.732,109.732,0,0,1,1500.628,1c.5-.34,1.015-.673,1.519-1h7.623c-2.178,1.427-4.383,2.947-6.575,4.607a104.757,104.757,0,0,0-10.581,8.96,90.355,90.355,0,0,0-9.768,11.207,79.062,79.062,0,0,0-8,13.647A97.606,97.606,0,0,0,1466.848,72.08Z" transform="translate(-461.771)" fill="#e53637" opacity="0.35"/>
  </g>
</svg>
