<svg xmlns="http://www.w3.org/2000/svg" width="636.197" height="431.804" viewBox="0 0 636.197 431.804">
  <g class="Group_39318" data-name="Group 39318" transform="translate(-162)">
    <rect class="class="Rectangle_17583" data-name="Rectangle 17583" width="636.197" height="162.453" transform="translate(162 269.351)"/>
    <g class="Group_38546" data-name="Group 38546" transform="translate(167 274)">
      <rect class="class="Rectangle_17584" data-name="Rectangle 17584" width="624.383" height="150.211" transform="translate(1.473 1.473)" fill="#ee8d5a"/>
      <path id="Path_38045" data-name="Path 38045" d="M1128.287,1461.1H509.23a4.141,4.141,0,0,1-4.136-4.136V1312.08a4.141,4.141,0,0,1,4.136-4.136h619.057a4.141,4.141,0,0,1,4.136,4.136v144.885A4.141,4.141,0,0,1,1128.287,1461.1ZM509.23,1310.89a1.192,1.192,0,0,0-1.19,1.19v144.885a1.191,1.191,0,0,0,1.19,1.19h619.057a1.191,1.191,0,0,0,1.19-1.19V1312.08a1.192,1.192,0,0,0-1.19-1.19Z" transform="translate(-505.094 -1307.944)" fill="#ee8d5a"/>
    </g>
    <g class="Group_38578" data-name="Group 38578" transform="translate(351.007)">
      <g class="Group_38570" data-name="Group 38570" transform="translate(96.106)">
        <g class="Group_38547" data-name="Group 38547" transform="translate(5.989)">
          <rect class="class="Rectangle_17585" data-name="Rectangle 17585" width="4.913" height="88.149" fill="#251407"/>
          <rect class="class="Rectangle_17586" data-name="Rectangle 17586" width="4.913" height="88.149" transform="translate(48.752)" fill="#251407"/>
        </g>
        <g class="Group_38569" data-name="Group 38569" transform="translate(0 41.755)">
          <g class="Group_38555" data-name="Group 38555" transform="translate(0 63.356)">
            <g class="Group_38549" data-name="Group 38549" transform="translate(0 39.949)">
              <path id="Path_38046" data-name="Path 38046" d="M1867.357,692.446v15.663c0,6.864-24.814,20.239-24.814,38.717,0,14.959,8.271,29.742,28.51,29.742s30.27-15.135,30.27-26.75-1.4-18.528-3.7-19.007c-4.224-.88-7.391,11.792-9.151,15.663s-4.4,8.095-12.671,8.095-10.207-7.215-10.207-12.495c0-7.568,17.946-23.579,17.946-25.694,0-3.085-.171-23.935-.171-23.935Z" transform="translate(-1842.543 -692.446)" fill="#fb920e"/>
              <g class="Group_38548" data-name="Group 38548" transform="translate(2.579)">
                <path id="Path_38047" data-name="Path 38047" d="M1955.429,712.631c0,5.455-16.848,18.917-18.163,26.37-1.991,11.287,4.872,15.569,13.144,15.569-8.271,0-10.208-7.215-10.208-12.495,0-7.568,17.946-23.579,17.946-25.694,0-3.085-.171-23.935-.171-23.935h-2.555C1955.425,699.075,1955.429,710.47,1955.429,712.631Z" transform="translate(-1919.728 -692.446)" fill="#a36107"/>
                <path id="Path_38048" data-name="Path 38048" d="M1907.406,875.634a71.825,71.825,0,0,1,1.094,14.2c0,11.615-10.031,26.75-30.27,26.75-11.319,0-18.9-4.624-23.374-11.317,3.821,9.176,12.069,16.111,25.93,16.111,20.239,0,30.27-15.135,30.27-26.75C1911.056,883.092,1909.678,876.194,1907.406,875.634Z" transform="translate(-1854.856 -837.258)" fill="#a36107"/>
              </g>
            </g>
            <g class="Group_38554" data-name="Group 38554" transform="translate(6.863 0)">
              <g class="Group_38550" data-name="Group 38550">
                <path class="class="Rectangle_17587" data-name="Rectangle 17587" d="M21.646,0H30.27A21.647,21.647,0,0,1,51.916,21.647v0A21.646,21.646,0,0,1,30.27,43.293H21.647A21.647,21.647,0,0,1,0,21.646v0A21.646,21.646,0,0,1,21.646,0Z" transform="translate(0)" fill="#fb920e"/>
                <path id="Path_38049" data-name="Path 38049" d="M1922.615,676.324h-42.7a4.608,4.608,0,0,1-4.608-4.608v3.079a4.608,4.608,0,0,0,4.608,4.608h42.7a4.608,4.608,0,0,0,4.608-4.608v-3.079A4.608,4.608,0,0,1,1922.615,676.324Z" transform="translate(-1875.306 -636.11)" fill="#a36107"/>
              </g>
              <g class="Group_38553" data-name="Group 38553" transform="translate(8.998 2.427)">
                <rect class="class="Rectangle_17588" data-name="Rectangle 17588" width="33.921" height="28.287" rx="14.143" fill="#a36107"/>
                <g class="Group_38552" data-name="Group 38552" transform="translate(0 5.541)">
                  <rect class="class="Rectangle_17589" data-name="Rectangle 17589" width="33.921" height="4.537" fill="#c3730b"/>
                  <path id="Path_38050" data-name="Path 38050" d="M1959.49,619.944h-21.255a2.717,2.717,0,0,0-2.717,2.717V625a2.708,2.708,0,0,0,.153.9h26.383a2.71,2.71,0,0,0,.153-.9v-2.338A2.717,2.717,0,0,0,1959.49,619.944Z" transform="translate(-1931.902 -603.151)" fill="#e1830e"/>
                  <g class="Group_38551" data-name="Group 38551" transform="translate(4.444 5.684)">
                    <rect class="class="Rectangle_17590" data-name="Rectangle 17590" width="25.032" height="11.108" rx="5.554" fill="#e1830e"/>
                    <path id="Path_38051" data-name="Path 38051" d="M1939.769,609.738a2.718,2.718,0,0,0,2.655,2.138h19.6a2.717,2.717,0,0,0,2.654-2.138Z" transform="translate(-1939.707 -600.768)" fill="#865000"/>
                  </g>
                </g>
              </g>
            </g>
          </g>
          <g class="Group_38568" data-name="Group 38568" transform="translate(4.227)">
            <g class="Group_38557" data-name="Group 38557">
              <path id="Path_38052" data-name="Path 38052" d="M1891.317,272.88h-24.333c-3.278,0-4.261-2.112-4.261-3.7V235.923a19.41,19.41,0,0,1,1.8-7.392c1.311-3.167,11.8-22.526,13.111-25.342s2.786-3.872,4.589-3.872h18.184c1.8,0,3.278,1.056,4.589,3.872s11.8,22.175,13.111,25.342a19.4,19.4,0,0,1,1.8,7.392v33.262c0,1.583-.983,3.7-4.261,3.7Z" transform="translate(-1862.723 -199.317)" fill="#fb920e"/>
              <g class="Group_38556" data-name="Group 38556">
                <path id="Path_38053" data-name="Path 38053" d="M1869.144,309.585c-1.494,2.877-2.662,5.188-3.045,6.114a27.672,27.672,0,0,0-1.386,4.129l45.985,40.22h6.526c3.278,0,4.261-2.112,4.261-3.7v-.988Z" transform="translate(-1864.296 -286.485)" fill="#151515"/>
                <path id="Path_38054" data-name="Path 38054" d="M1909.443,228.164l47.4,41.459V255.505L1914.5,218.471C1913.862,219.808,1911.774,223.755,1909.443,228.164Z" transform="translate(-1899.656 -214.458)" fill="#151515"/>
                <path id="Path_38055" data-name="Path 38055" d="M2010.1,223.94c-3.538-6.876-9.854-18.607-10.853-20.751-1.311-2.816-2.786-3.872-4.589-3.872h-12.71Z" transform="translate(-1956.97 -199.317)" fill="#151515"/>
                <path id="Path_38056" data-name="Path 38056" d="M1866.984,450.2H1893.1l-30.38-26.573V446.5C1862.723,448.088,1863.706,450.2,1866.984,450.2Z" transform="translate(-1862.723 -376.637)" fill="#151515"/>
              </g>
            </g>
            <g class="Group_38567" data-name="Group 38567" transform="translate(2.106 1.621)">
              <g class="Group_38564" data-name="Group 38564" transform="translate(0 0)">
                <g class="Group_38560" data-name="Group 38560" transform="translate(14.057)">
                  <g class="Group_38558" data-name="Group 38558" transform="translate(14.467)">
                    <circle id="Ellipse_28" data-name="Ellipse 28" cx="5.104" cy="5.104" r="5.104" transform="translate(0 10.206) rotate(-88.807)" fill="#ffae00"/>
                    <circle id="Ellipse_29" data-name="Ellipse 29" cx="2.931" cy="2.931" r="2.931" transform="translate(2.278 2.278)" fill="#a36107"/>
                  </g>
                  <g class="Group_38559" data-name="Group 38559" transform="translate(0 0.021)">
                    <circle id="Ellipse_30" data-name="Ellipse 30" cx="5.104" cy="5.104" r="5.104" transform="translate(0 10.206) rotate(-89.045)" fill="#ffae00"/>
                    <path id="Path_38057" data-name="Path 38057" d="M1956.511,220.86a2.931,2.931,0,1,0-2.932,2.931A2.932,2.932,0,0,0,1956.511,220.86Z" transform="translate(-1948.391 -215.672)" fill="#a36107"/>
                  </g>
                </g>
                <g class="Group_38563" data-name="Group 38563" transform="translate(0 59.679)">
                  <g class="Group_38561" data-name="Group 38561" transform="translate(42.672 0.097)">
                    <path id="Path_38058" data-name="Path 38058" d="M2086.679,497.5a5.1,5.1,0,1,0-5.1,5.1A5.1,5.1,0,0,0,2086.679,497.5Z" transform="translate(-2076.471 -492.4)" fill="#ffae00"/>
                    <path id="Path_38059" data-name="Path 38059" d="M2092.7,505.7a2.931,2.931,0,1,0-2.931,2.931A2.931,2.931,0,0,0,2092.7,505.7Z" transform="translate(-2084.669 -500.598)" fill="#a36107"/>
                  </g>
                  <g class="Group_38562" data-name="Group 38562" transform="translate(0 0)">
                    <circle id="Ellipse_31" data-name="Ellipse 31" cx="5.104" cy="5.104" r="5.104" transform="translate(0 10.206) rotate(-88.899)" fill="#ffae00"/>
                    <path id="Path_38060" data-name="Path 38060" d="M1889.472,505.7a2.931,2.931,0,1,0-2.932,2.931A2.931,2.931,0,0,0,1889.472,505.7Z" transform="translate(-1881.339 -500.501)" fill="#a36107"/>
                  </g>
                </g>
              </g>
              <g class="Group_38566" data-name="Group 38566" transform="translate(16.876 25.547)">
                <path id="Path_38061" data-name="Path 38061" d="M1972.556,338.62a9.613,9.613,0,1,0-9.613,9.613A9.613,9.613,0,0,0,1972.556,338.62Z" transform="translate(-1953.33 -329.007)" fill="#ffae00"/>
                <g class="Group_38565" data-name="Group 38565" transform="translate(3.761 3.761)">
                  <path id="Path_38062" data-name="Path 38062" d="M1977.136,346.961a5.852,5.852,0,0,0,0,11.7Z" transform="translate(-1971.284 -346.961)" fill="#a36107"/>
                  <path id="Path_38063" data-name="Path 38063" d="M1992.8,366.157a2.316,2.316,0,1,0-2.316,2.316A2.316,2.316,0,0,0,1992.8,366.157Z" transform="translate(-1984.629 -360.306)" fill="#7a4800"/>
                </g>
              </g>
            </g>
          </g>
        </g>
      </g>
      <g class="Group_38577" data-name="Group 38577" transform="translate(0 202.133)">
        <g class="Group_38571" data-name="Group 38571" transform="translate(10.895)">
          <path id="Path_38064" data-name="Path 38064" d="M2142.4,1030.111c-15.043-7.938-27.7-14.329-37.653-19.012a27.593,27.593,0,0,1-2.328,4.334c9.917,4.659,22.586,11.054,37.68,19.018,26.581,14.025,51.782,28.237,52.033,28.378l2.415-4.278C2194.3,1058.409,2169.045,1044.168,2142.4,1030.111Z" transform="translate(-1962.77 -1001.419)" fill="#251407"/>
          <path id="Path_38065" data-name="Path 38065" d="M1554.258,969.941a14,14,0,0,0,8.122-2.111c-6.523-2.537-9.2-2.939-10.7-2.939-2.3,0-7.385.945-24.871,9.108-10.129,4.729-23.208,11.318-38.872,19.583-26.642,14.057-51.9,28.3-52.147,28.44l2.414,4.278c.251-.142,25.444-14.348,52.025-28.374,15.595-8.228,28.6-14.781,38.658-19.477,5.938-2.772,10.888-4.914,14.712-6.365,5.231-1.985,7.308-2.281,8.08-2.281C1552.078,969.8,1554.258,969.941,1554.258,969.941Z" transform="translate(-1435.786 -964.891)" fill="#251407"/>
        </g>
        <g class="Group_38576" data-name="Group 38576" transform="translate(0 52.48)">
          <g class="Group_38572" data-name="Group 38572">
            <path class="class="Rectangle_17591" data-name="Rectangle 17591" d="M14.737,0H243.446a14.738,14.738,0,0,1,14.738,14.738v0a14.737,14.737,0,0,1-14.737,14.737H14.738A14.738,14.738,0,0,1,0,14.737v0A14.737,14.737,0,0,1,14.737,0Z" fill="#fb920e"/>
            <path id="Path_38066" data-name="Path 38066" d="M1639.666,1334.5h-253.6a3.944,3.944,0,0,1-2.294-.73v.8a3.881,3.881,0,0,0,3.881,3.881h250.421a3.881,3.881,0,0,0,3.881-3.881v-.8A3.945,3.945,0,0,1,1639.666,1334.5Z" transform="translate(-1383.777 -1308.974)" fill="#a36107"/>
          </g>
          <g class="Group_38575" data-name="Group 38575" transform="translate(5.741 5.544)">
            <g class="Group_38573" data-name="Group 38573" transform="translate(228.313)">
              <path id="Path_38067" data-name="Path 38067" d="M2519.432,1251.064a9.194,9.194,0,1,0-9.194,9.193A9.194,9.194,0,0,0,2519.432,1251.064Z" transform="translate(-2501.045 -1241.87)" fill="#c7c9cb"/>
              <path id="Path_38068" data-name="Path 38068" d="M2528.782,1263.784a5.823,5.823,0,1,0-5.823,5.823A5.823,5.823,0,0,0,2528.782,1263.784Z" transform="translate(-2513.766 -1254.59)" fill="#818386"/>
            </g>
            <g class="Group_38574" data-name="Group 38574">
              <path id="Path_38069" data-name="Path 38069" d="M1429.57,1251.064a9.194,9.194,0,1,0-9.194,9.193A9.194,9.194,0,0,0,1429.57,1251.064Z" transform="translate(-1411.183 -1241.87)" fill="#c7c9cb"/>
              <path id="Path_38070" data-name="Path 38070" d="M1438.919,1263.784a5.823,5.823,0,1,0-5.823,5.823A5.823,5.823,0,0,0,1438.919,1263.784Z" transform="translate(-1423.903 -1254.59)" fill="#818386"/>
            </g>
          </g>
        </g>
      </g>
    </g>
    <text id="Under_Maintenance" data-name="Under Maintenance" transform="translate(273 364)" fill="#fff" font-size="45" font-family="CabinetGrotesk-Bold, Cabinet Grotesk" font-weight="700" letter-spacing="0.04em"><tspan x="0" y="0">Under Maintenance</tspan></text>
  </g>
</svg>
