<svg xmlns="http://www.w3.org/2000/svg" width="92" height="71" viewBox="0 0 92 71">
  <g id="Group_164" data-name="Group 164" transform="translate(15397 16665)">
    <rect id="Rectangle_92" data-name="Rectangle 92" width="8" height="8" rx="4" transform="translate(-15397 -16602)" fill="#111"/>
    <rect id="Rectangle_93" data-name="Rectangle 93" width="8" height="8" rx="4" transform="translate(-15376 -16602)" fill="#111"/>
    <rect id="Rectangle_94" data-name="Rectangle 94" width="8" height="8" rx="4" transform="translate(-15355 -16602)" fill="#111"/>
    <rect id="Rectangle_95" data-name="Rectangle 95" width="8" height="8" rx="4" transform="translate(-15334 -16602)" fill="#111"/>
    <rect id="Rectangle_96" data-name="Rectangle 96" width="8" height="8" rx="4" transform="translate(-15313 -16602)" fill="#111"/>
    <rect id="Rectangle_100" data-name="Rectangle 100" width="8" height="8" rx="4" transform="translate(-15397 -16623)" fill="#111"/>
    <rect id="Rectangle_101" data-name="Rectangle 101" width="8" height="8" rx="4" transform="translate(-15376 -16623)" fill="#111"/>
    <rect id="Rectangle_102" data-name="Rectangle 102" width="8" height="8" rx="4" transform="translate(-15355 -16623)" fill="#111"/>
    <rect id="Rectangle_103" data-name="Rectangle 103" width="8" height="8" rx="4" transform="translate(-15334 -16623)" fill="#111"/>
    <rect id="Rectangle_104" data-name="Rectangle 104" width="8" height="8" rx="4" transform="translate(-15313 -16623)" fill="#111"/>
    <rect id="Rectangle_108" data-name="Rectangle 108" width="8" height="8" rx="4" transform="translate(-15397 -16644)" fill="#111"/>
    <rect id="Rectangle_109" data-name="Rectangle 109" width="8" height="8" rx="4" transform="translate(-15376 -16644)" fill="#111"/>
    <rect id="Rectangle_110" data-name="Rectangle 110" width="8" height="8" rx="4" transform="translate(-15355 -16644)" fill="#111"/>
    <rect id="Rectangle_111" data-name="Rectangle 111" width="8" height="8" rx="4" transform="translate(-15334 -16644)" fill="#111"/>
    <rect id="Rectangle_112" data-name="Rectangle 112" width="8" height="8" rx="4" transform="translate(-15313 -16644)" fill="#111"/>
    <rect id="Rectangle_162" data-name="Rectangle 162" width="8" height="8" rx="4" transform="translate(-15397 -16665)" fill="#111"/>
    <rect id="Rectangle_163" data-name="Rectangle 163" width="8" height="8" rx="4" transform="translate(-15376 -16665)" fill="#111"/>
    <rect id="Rectangle_164" data-name="Rectangle 164" width="8" height="8" rx="4" transform="translate(-15355 -16665)" fill="#111"/>
    <rect id="Rectangle_165" data-name="Rectangle 165" width="8" height="8" rx="4" transform="translate(-15334 -16665)" fill="#111"/>
    <rect id="Rectangle_166" data-name="Rectangle 166" width="8" height="8" rx="4" transform="translate(-15313 -16665)" fill="#111"/>
  </g>
</svg>
