<svg xmlns="http://www.w3.org/2000/svg" xmlns:xlink="http://www.w3.org/1999/xlink" xmlns:serif="http://www.serif.com/" viewBox="0 0 32 40" version="1.1" xml:space="preserve" style="" x="0px" y="0px" fill-rule="evenodd" clip-rule="evenodd" stroke-linejoin="round" stroke-miterlimit="2"><g transform="matrix(1,0,0,1,-32,-224)"><g><path d="M51.326,227.742C51.198,226.225 49.955,225.045 48.433,224.996C48.419,224.995 48.404,224.995 48.39,224.995C48.117,224.998 47.844,224.998 47.571,225.006C47.569,225.006 47.568,225.006 47.567,225.006C46.061,225.055 44.829,226.215 44.687,227.712C44.663,227.879 44.647,228.058 44.633,228.232C44.6,228.611 44.355,228.938 44.002,229.077C43.701,229.179 43.411,229.298 43.127,229.429C43.126,229.43 43.125,229.43 43.123,229.431C42.774,229.594 42.361,229.539 42.066,229.29L41.684,228.981C40.522,227.998 38.807,228.043 37.697,229.084C37.686,229.094 37.676,229.104 37.666,229.114C37.475,229.31 37.282,229.503 37.094,229.701C37.093,229.702 37.093,229.703 37.092,229.704C36.061,230.803 36.01,232.495 36.968,233.654C37.069,233.789 37.185,233.926 37.297,234.06C37.543,234.351 37.601,234.755 37.45,235.103C37.308,235.388 37.188,235.677 37.08,235.971C37.079,235.972 37.079,235.973 37.078,235.975C36.946,236.337 36.615,236.59 36.231,236.623L35.742,236.674C34.225,236.802 33.045,238.045 32.996,239.567C32.995,239.581 32.995,239.596 32.995,239.61C32.998,239.883 32.998,240.156 33.006,240.429C33.006,240.431 33.006,240.432 33.006,240.433C33.055,241.939 34.215,243.171 35.712,243.313C35.879,243.337 36.058,243.353 36.232,243.367C36.611,243.4 36.938,243.645 37.077,243.998C37.179,244.299 37.298,244.589 37.429,244.873C37.43,244.874 37.43,244.875 37.431,244.877C37.594,245.226 37.539,245.639 37.29,245.934L36.981,246.316C35.998,247.478 36.043,249.193 37.084,250.303C37.094,250.314 37.104,250.324 37.114,250.334C37.31,250.525 37.503,250.718 37.701,250.906C37.702,250.907 37.703,250.907 37.704,250.908C38.803,251.939 40.495,251.99 41.654,251.032C41.789,250.931 41.926,250.815 42.06,250.703C42.351,250.457 42.755,250.399 43.103,250.55C43.388,250.692 43.677,250.812 43.971,250.92C43.972,250.921 43.973,250.921 43.975,250.922C44.337,251.054 44.59,251.385 44.623,251.769L44.674,252.258C44.802,253.775 46.045,254.955 47.567,255.004C47.581,255.005 47.596,255.005 47.61,255.005C47.883,255.002 48.156,255.002 48.429,254.994C48.431,254.994 48.432,254.994 48.433,254.994C49.939,254.945 51.171,253.785 51.313,252.288C51.337,252.121 51.353,251.942 51.367,251.768C51.4,251.389 51.645,251.062 51.998,250.923C52.299,250.821 52.589,250.702 52.873,250.571C52.874,250.57 52.875,250.57 52.877,250.569C53.226,250.406 53.639,250.461 53.934,250.71L54.316,251.019C55.478,252.002 57.193,251.957 58.303,250.916C58.314,250.906 58.324,250.896 58.334,250.886C58.525,250.69 58.718,250.497 58.906,250.299C58.907,250.298 58.907,250.297 58.908,250.296C59.939,249.197 59.99,247.505 59.032,246.346C58.931,246.211 58.815,246.074 58.703,245.94C58.457,245.649 58.399,245.245 58.55,244.897C58.692,244.612 58.812,244.323 58.92,244.029C58.921,244.028 58.921,244.027 58.922,244.025C59.054,243.663 59.385,243.41 59.769,243.377L60.258,243.326C61.775,243.198 62.955,241.955 63.004,240.433C63.005,240.419 63.005,240.404 63.005,240.39C63.002,240.117 63.002,239.844 62.994,239.571C62.994,239.569 62.994,239.568 62.994,239.567C62.945,238.061 61.785,236.829 60.288,236.687C60.121,236.663 59.942,236.647 59.768,236.633C59.389,236.6 59.062,236.355 58.923,236.002C58.821,235.701 58.702,235.411 58.571,235.127C58.57,235.126 58.57,235.125 58.569,235.123C58.406,234.774 58.461,234.361 58.71,234.066L59.019,233.684C60.002,232.522 59.957,230.807 58.916,229.697C58.906,229.686 58.896,229.676 58.886,229.666C58.69,229.475 58.497,229.282 58.299,229.094C58.298,229.093 58.297,229.093 58.296,229.092C57.197,228.061 55.505,228.01 54.346,228.968C54.211,229.069 54.074,229.185 53.94,229.297C53.649,229.543 53.245,229.601 52.897,229.45C52.612,229.308 52.323,229.188 52.029,229.08C52.028,229.079 52.027,229.079 52.025,229.078C51.663,228.946 51.41,228.615 51.377,228.231L51.326,227.742ZM49.333,227.91L49.388,228.44C49.493,229.575 50.254,230.562 51.341,230.958C51.564,231.04 51.787,231.131 52.003,231.239C52.011,231.244 52.019,231.247 52.027,231.251C53.087,231.746 54.337,231.58 55.23,230.826L55.612,230.516C55.996,230.193 56.561,230.207 56.928,230.55C57.111,230.723 57.289,230.901 57.469,231.078C57.804,231.447 57.815,232.01 57.491,232.394L57.156,232.807C56.428,233.684 56.268,234.92 56.757,235.969C56.856,236.184 56.949,236.407 57.025,236.636C57.028,236.644 57.031,236.653 57.034,236.661C57.434,237.76 58.435,238.527 59.6,238.625L60.089,238.677C60.589,238.719 60.978,239.129 60.995,239.631C61.002,239.883 61.002,240.135 61.005,240.387C60.981,240.885 60.59,241.291 60.09,241.333L59.56,241.388C58.425,241.493 57.438,242.254 57.042,243.341C56.96,243.564 56.869,243.787 56.761,244.003C56.756,244.011 56.753,244.019 56.749,244.027C56.254,245.087 56.42,246.337 57.174,247.23L57.484,247.612C57.807,247.996 57.793,248.561 57.45,248.928C57.277,249.111 57.099,249.289 56.922,249.469C56.553,249.804 55.99,249.815 55.606,249.491L55.193,249.156C54.316,248.428 53.08,248.268 52.031,248.757C51.816,248.856 51.593,248.949 51.364,249.025C51.356,249.028 51.347,249.031 51.339,249.034C50.24,249.434 49.473,250.435 49.375,251.6L49.323,252.089C49.281,252.589 48.871,252.978 48.369,252.995C48.117,253.002 47.865,253.002 47.613,253.005C47.115,252.981 46.709,252.59 46.667,252.09L46.612,251.56C46.507,250.425 45.746,249.438 44.659,249.042C44.436,248.96 44.213,248.869 43.997,248.761C43.989,248.756 43.981,248.753 43.973,248.749C42.913,248.254 41.663,248.42 40.77,249.174L40.388,249.484C40.004,249.807 39.439,249.793 39.072,249.45C38.889,249.277 38.711,249.099 38.531,248.922C38.196,248.553 38.185,247.99 38.509,247.606L38.844,247.193C39.572,246.316 39.732,245.08 39.243,244.031C39.144,243.816 39.051,243.593 38.975,243.364C38.972,243.356 38.969,243.347 38.966,243.339C38.566,242.24 37.565,241.473 36.4,241.375L35.911,241.323C35.411,241.281 35.022,240.871 35.005,240.369C34.998,240.117 34.998,239.865 34.995,239.613C35.019,239.115 35.41,238.709 35.91,238.667L36.44,238.612C37.575,238.507 38.562,237.746 38.958,236.659C39.04,236.436 39.131,236.213 39.239,235.997C39.244,235.989 39.247,235.981 39.251,235.973C39.746,234.913 39.58,233.663 38.826,232.77L38.516,232.388C38.193,232.004 38.207,231.439 38.55,231.072C38.723,230.889 38.901,230.711 39.078,230.531C39.447,230.196 40.01,230.185 40.394,230.509L40.807,230.844C41.684,231.572 42.92,231.732 43.969,231.243C44.184,231.144 44.407,231.051 44.636,230.975C44.644,230.972 44.653,230.969 44.661,230.966C45.76,230.566 46.527,229.565 46.625,228.4L46.677,227.911C46.719,227.411 47.129,227.022 47.631,227.005C47.883,226.998 48.135,226.998 48.387,226.995C48.885,227.019 49.291,227.41 49.333,227.91Z"/><path d="M48,233C44.137,233 41,236.137 41,240C41,243.863 44.137,247 48,247C51.863,247 55,243.863 55,240C55,236.137 51.863,233 48,233ZM48,235C50.76,235 53,237.24 53,240C53,242.76 50.76,245 48,245C45.24,245 43,242.76 43,240C43,237.24 45.24,235 48,235Z"/></g></g><text x="0" y="47" fill="#000000" font-size="5px" font-weight="bold" font-family="'Helvetica Neue', Helvetica, Arial-Unicode, Arial, Sans-serif">Created by Mada Creative</text><text x="0" y="52" fill="#000000" font-size="5px" font-weight="bold" font-family="'Helvetica Neue', Helvetica, Arial-Unicode, Arial, Sans-serif">from the Noun Project</text></svg>