<svg xmlns="http://www.w3.org/2000/svg" xmlns:xlink="http://www.w3.org/1999/xlink" version="1.1" x="0px" y="0px" viewBox="0 0 68 85" style="enable-background:new 0 0 68 68;" xml:space="preserve"><g><g><g><path d="M46.4101563,31.1023979c-0.2631836,0-0.5180664-0.1040039-0.7070313-0.2929688L26.3378906,11.4441948     c-0.2275391-0.2270508-0.331543-0.5498047-0.2802734-0.8671875l0.9125977-5.6196289     c0.0605469-0.3706055,0.3227539-0.6762695,0.6801758-0.7915039c0.3564453-0.1162109,0.7490234-0.0200195,1.0141602,0.2446289     l24.0751953,24.074707c0.265625,0.265625,0.3598633,0.6572266,0.2446289,1.0146484     c-0.1157227,0.3569336-0.4213867,0.6196289-0.7919922,0.6796875l-5.6225586,0.9101563     C46.5166016,31.0980034,46.4633789,31.1023979,46.4101563,31.1023979z M28.1142578,10.3919487l18.6411133,18.6416016     l3.1884766-0.5161133l-21.3125-21.3115234L28.1142578,10.3919487z"/></g><g><path d="M44.6469727,22.8069878c-0.2558594,0-0.5117188-0.0976563-0.7070313-0.2929688l-9.3115234-9.3115234     c-0.390625-0.390625-0.390625-1.0234375,0-1.4140625c1.4331055-1.4331055,3.3374023-2.2226563,5.3632813-2.2241211     c0.0014648,0,0.0029297,0,0.0043945,0c2.0263672,0,3.9316406,0.7900391,5.3657227,2.2241211     c1.4321289,1.4316406,2.2197266,3.3369141,2.2172852,5.3637695c-0.0024414,2.0253906-0.7924805,3.9296875-2.2251015,5.3618164     C45.1586914,22.7093315,44.902832,22.8069878,44.6469727,22.8069878z M36.8125,12.5579643l7.7719727,7.7719727     c0.6450195-0.9272461,0.9931641-2.0268555,0.9946289-3.1801758c0.0014648-1.4916992-0.5776367-2.8935547-1.6313477-3.9472656l0,0     c-1.0561523-1.0561523-2.4594727-1.6381836-3.9516602-1.6381836c-0.0009766,0-0.0019531,0-0.0029297,0     C38.8398438,11.5652885,37.7397461,11.9129448,36.8125,12.5579643z"/></g><g><path d="M26.3950195,41.2508354c-0.8637695,0-1.7280273-0.3286133-2.3857422-0.9858398l-7.1313477-7.1318359     c-1.3154297-1.315918-1.3149414-3.4560547,0-4.7709961l7.7421875-7.7416992c0.390625-0.390625,1.0234375-0.390625,1.4140625,0     l10.487793,10.487793c0.390625,0.390625,0.390625,1.0234375,0,1.4140625l-7.7416992,7.7421875     C28.1230469,40.9222221,27.2587891,41.2508354,26.3950195,41.2508354z M25.3271484,22.7415581l-7.0351563,7.034668     c-0.5351563,0.5356445-0.5351563,1.4072266,0.0004883,1.9428711l7.1308594,7.1313477     c0.5361328,0.5351563,1.4077148,0.5361328,1.9428711,0l7.034668-7.0351563L25.3271484,22.7415581z"/></g><g><path d="M18.887207,42.4441948c-1.0732422,0-2.1464844-0.4086914-2.9633789-1.2255859     c-1.6337891-1.6337891-1.6337891-4.2924805,0-5.9262695L18.1875,33.0286674c0.390625-0.390625,1.0234375-0.390625,1.4140625,0     l4.512207,4.512207c0.390625,0.390625,0.390625,1.0234375,0,1.4140625l-2.2636719,2.2636719     C21.0332031,42.0355034,19.9599609,42.4441948,18.887207,42.4441948z M18.8945313,35.1497612l-1.5566406,1.5566406     c-0.8540039,0.8540039-0.8540039,2.2441406,0,3.0981445c0.8544922,0.8540039,2.2436523,0.8530273,3.0981445,0     l1.5566406-1.5566406L18.8945313,35.1497612z"/></g><g><path d="M40.1040001,49.7186089c-1.0747032,0-2.148922-0.4091797-2.9672813-1.2270508l-8.9985352-8.9990234     c-0.390625-0.390625-0.390625-1.0234375,0-1.4140625l4.5195313-4.5200195c0.375-0.375,1.0390625-0.375,1.4140625,0     l8.9990234,8.9990234c1.6362305,1.6362305,1.6362305,4.2978516,0,5.934082     C42.2529297,49.3094292,41.1782227,49.7186089,40.1040001,49.7186089z M30.2592773,38.7855034l8.2915039,8.2919922     c0.8564453,0.8554688,2.2495117,0.8564453,3.105957,0c0.855957-0.8564453,0.855957-2.2495117,0-3.105957l-8.2919922-8.2919922     L30.2592773,38.7855034z"/></g><g><path d="M28.8452148,39.7855034c-0.2558594,0-0.5117188-0.0976563-0.7070313-0.2929688     c-0.390625-0.390625-0.390625-1.0234375,0-1.4140625l4.5195313-4.5200195c0.390625-0.390625,1.0234375-0.390625,1.4140625,0     s0.390625,1.0234375,0,1.4140625l-4.5195313,4.5200195C29.3569336,39.6878471,29.1010742,39.7855034,28.8452148,39.7855034z"/></g><g><path d="M35.109375,41.5301323c-0.2558594,0-0.5117188-0.0976563-0.7070313-0.2929688     c-0.390625-0.3901367-0.390625-1.0234375,0-1.4140625l2.2597656-2.2602539c0.390625-0.390625,1.0234375-0.390625,1.4140625,0     c0.390625,0.3901367,0.390625,1.0234375,0,1.4140625l-2.2597656,2.2602539     C35.6210938,41.432476,35.3652344,41.5301323,35.109375,41.5301323z"/></g><g><g><path d="M41.6699219,9.2391167c-0.5327148,0-0.9755859-0.4204102-0.9980469-0.9580078l-0.1342773-3.1953125      c-0.0229492-0.5517578,0.4057617-1.0175781,0.9575195-1.0405273c0.5620117-0.0322266,1.0175781,0.4057617,1.0405273,0.9575195      l0.1342773,3.1943359c0.0234375,0.5517578-0.4052734,1.0180664-0.9570313,1.0410156      C41.6987305,9.2386284,41.6845703,9.2391167,41.6699219,9.2391167z"/></g><g><path d="M46.8725586,11.2698784c-0.2558594,0-0.5117188-0.0976563-0.7070313-0.2929688      c-0.390625-0.390625-0.390625-1.0234375,0-1.4140625l2.2597656-2.2597656c0.390625-0.390625,1.0234375-0.390625,1.4140625,0      s0.390625,1.0234375,0,1.4140625l-2.2597656,2.2597656C47.3842773,11.1722221,47.128418,11.2698784,46.8725586,11.2698784z"/></g><g><path d="M52.0991211,16.6058159c-0.0141602,0-0.0283203-0.0004883-0.0424805-0.0009766l-3.1953125-0.1342773      c-0.5517578-0.0229492-0.9804688-0.4892578-0.9570313-1.0410156c0.0229492-0.5517578,0.4970703-0.9677734,1.0410156-0.9570313      l3.1943359,0.1342773c0.5517578,0.0229492,0.9804688,0.4887695,0.9575195,1.0405273      C53.074707,16.1849174,52.6318359,16.6058159,52.0991211,16.6058159z"/></g></g><g><path d="M38.359375,44.7801323c-0.2558594,0-0.5117188-0.0976563-0.7070313-0.2929688     c-0.390625-0.390625-0.390625-1.0239258,0-1.4140625l2.2602539-2.2597656c0.390625-0.390625,1.0234375-0.390625,1.4140625,0     s0.390625,1.0239258,0,1.4140625l-2.2602539,2.2597656C38.8710938,44.682476,38.6152344,44.7801323,38.359375,44.7801323z"/></g><g><path d="M35.8168945,32.8172417c-0.2631836,0-0.5180664-0.1040039-0.7070313-0.2929688L24.6181641,22.0325737     c-0.2275391-0.2270508-0.331543-0.5498047-0.2802734-0.8671875l2.6333008-16.2080078     c0.0600586-0.3706055,0.3222656-0.6762695,0.6796875-0.7915039c0.3574219-0.1162109,0.7490234-0.0200195,1.0141602,0.2446289     l24.074707,24.074707c0.265625,0.265625,0.3598633,0.6572266,0.2446289,1.0146484     c-0.1157227,0.3569336-0.4213867,0.6196289-0.7919922,0.6796875l-16.2158203,2.625     C35.9233398,32.8128471,35.8701172,32.8172417,35.8168945,32.8172417z M26.3945313,20.9803276l9.7675781,9.7680664     l13.7817383-2.230957L28.6318359,7.2054253L26.3945313,20.9803276z"/></g></g><g><path d="M60.1552734,63.9564018H7.8442383C4.621582,63.9564018,2,61.3348198,2,58.1121635v-1.918457c0-0.5522461,0.4477539-1,1-1    h23.8251953c0.3066406,0,0.5957031,0.140625,0.7856445,0.3813477l2.3632813,3h8.0498047l2.3642578-3.0004883    c0.1899414-0.2402344,0.4794922-0.3808594,0.7856445-0.3808594H65c0.5522461,0,1,0.4477539,1,1v1.918457    C66,61.3348198,63.3779297,63.9564018,60.1552734,63.9564018z M4,57.1937065v0.918457    c0,2.1196289,1.7246094,3.8442383,3.8442383,3.8442383h52.3110352C62.2753906,61.9564018,64,60.2317924,64,58.1121635v-0.918457    H41.6591797l-2.3642578,3.0004883c-0.1899414,0.2402344-0.4794922,0.3808594-0.7856445,0.3808594h-9.0205078    c-0.3066406,0-0.5957031-0.140625-0.7856445-0.3813477l-2.3632813-3H4z"/></g><g><path d="M61.5957031,57.1956596c-0.5522461,0-1-0.4477539-1-1V20.8152885c0-0.5214844-0.4130859-0.9296875-0.9399414-0.9296875    h-4.9902344c-0.5522461,0-1-0.4477539-1-1s0.4477539-1,1-1h4.9902344c1.6210938,0,2.9399414,1.3144531,2.9399414,2.9296875    v35.3803711C62.5957031,56.7479057,62.1479492,57.1956596,61.5957031,57.1956596z"/></g><g><path d="M6.4057617,57.1956596c-0.5522461,0-1-0.4477539-1-1V20.8152885c0-1.6152344,1.3188477-2.9296875,2.9399414-2.9296875    h4.9799805c0.5522461,0,1,0.4477539,1,1s-0.4477539,1-1,1H8.3457031c-0.5268555,0-0.9399414,0.4082031-0.9399414,0.9296875    v35.3803711C7.4057617,56.7479057,6.9580078,57.1956596,6.4057617,57.1956596z"/></g></g><text x="0" y="83" fill="#000000" font-size="5px" font-weight="bold" font-family="'Helvetica Neue', Helvetica, Arial-Unicode, Arial, Sans-serif">Created by VectorsLab</text><text x="0" y="88" fill="#000000" font-size="5px" font-weight="bold" font-family="'Helvetica Neue', Helvetica, Arial-Unicode, Arial, Sans-serif">from the Noun Project</text></svg>