<svg xmlns="http://www.w3.org/2000/svg" data-name="Layer 1" viewBox="0 0 100 125" x="0px" y="0px"><defs><style>.cls-1{fill:none;stroke:#000;stroke-linecap:round;stroke-miterlimit:10;stroke-width:3px;}</style></defs><title>graphicdesignicons</title><path class="cls-1" d="M21,23.44A39.3,39.3,0,0,1,47.91,10.06c16.43-1,27.18,9,28.91,10.7"/><path class="cls-1" d="M18.42,39.42c1.75-2.92,12-19.43,29.39-20.91,18-1.53,29.73,14.13,31.62,16.73"/><path class="cls-1" d="M19.06,50.5a38.25,38.25,0,0,0,6.37-6c3.27-3.88,3.7-6,5.86-8.79,4.88-6.35,12.37-8.26,13.5-8.53,10.42-2.51,18.82,3.11,19.49,3.57A24.82,24.82,0,0,1,74.84,50.12c.12,7.17-3.69,10.07-2.17,16.68a19.24,19.24,0,0,0,6,9.68"/><path class="cls-1" d="M18.81,62.47A47.22,47.22,0,0,0,30.14,51.26c4.14-5.84,4.51-9.38,9.17-12.74A17.8,17.8,0,0,1,50.39,35,17.62,17.62,0,0,1,64,42.73c6.19,9.74-3.63,20.23,2.42,31.84a21.72,21.72,0,0,0,7.51,8"/><path class="cls-1" d="M17.92,73.8c10.85-7.05,17-14.33,20.63-19.74C41.47,49.7,44,44.65,48.86,44a9.57,9.57,0,0,1,9.42,4.84c1.31,2.68.8,6.09-2.17,11.59C49.87,72,38.93,81.29,29.63,87.69"/><path class="cls-1" d="M21.1,82.59A103.26,103.26,0,0,0,40.71,65.65,102.8,102.8,0,0,0,50.39,53"/><path class="cls-1" d="M79.43,40.95a37.29,37.29,0,0,1,1.15,26.87"/><path class="cls-1" d="M57.14,71.13a14.26,14.26,0,0,0-.64,9.17,14.6,14.6,0,0,0,7.13,8.79"/><path class="cls-1" d="M37.66,90.36a24.35,24.35,0,0,1,4.46-3.57c2.4-1.49,4-2.52,5.73-2.29,2.65.35,4.85,3.68,5.73,8"/><text x="0" y="115" fill="#000000" font-size="5px" font-weight="bold" font-family="'Helvetica Neue', Helvetica, Arial-Unicode, Arial, Sans-serif">Created by Amelia Detwiler</text><text x="0" y="120" fill="#000000" font-size="5px" font-weight="bold" font-family="'Helvetica Neue', Helvetica, Arial-Unicode, Arial, Sans-serif">from the Noun Project</text></svg>