<svg xmlns="http://www.w3.org/2000/svg" xmlns:xlink="http://www.w3.org/1999/xlink" version="1.1" x="0px" y="0px" viewBox="0 0 70 87.5" style="enable-background:new 0 0 70 70;" xml:space="preserve"><path d="M67.9287109,36.7021484L60.0566406,16.987793c-0.2036133-0.5092773-0.7773438-0.7587891-1.2885742-0.5625  l-8.4047852,3.2412109c-0.2485352,0.0957031-0.4482422,0.2866211-0.5556641,0.5307617  c-0.1069336,0.2436523-0.112793,0.5200195-0.0151367,0.7680664l0.5134888,1.3071899l-3.8225708,1.0287476l-5.6245117-1.890625  c-2.5380249-0.8535156-5.2712402-0.7472534-7.720459,0.2380371c-0.5321655-0.4049072-1.1744995-0.6760254-1.9289551-0.7897949  c-1.1582031-0.175293-2.4130859,0.0766602-3.5317383,0.7089844l-4.8120117,2.7167969l-2.0130005-0.9901733l0.7463989-1.4883423  c0.1191406-0.2382812,0.1386719-0.5141602,0.0537109-0.7666016c-0.0844727-0.2529297-0.2670898-0.4609375-0.5058594-0.5786133  l-8.0766602-3.9775391c-0.4921875-0.2431641-1.0849609-0.043457-1.3334961,0.4438477l-9.628418,18.9331055  c-0.25,0.4921875-0.0541992,1.09375,0.4379883,1.3442383l8.1303711,4.1367188  c0.1420898,0.0722656,0.2973633,0.1088867,0.4536133,0.1088867c0.1049805,0,0.2104492-0.0166016,0.3125-0.0498047  c0.2529297-0.0834961,0.4619141-0.2641602,0.581543-0.5019531l0.6154785-1.2272339l2.7306519,1.7009888  c-0.1003418,0.3810425-0.1259766,0.7809448-0.0629272,1.1820068c0.1206055,0.769043,0.5356445,1.4438477,1.1689453,1.9013672  l0.7026367,0.5068359c0.5166016,0.3735352,1.1166992,0.5532227,1.7119141,0.5532227  c0.0036011,0,0.0070801-0.0012207,0.0106812-0.0012207c0.0094604,0.1717529,0.0202026,0.34375,0.0567017,0.5119629  c0.1772461,0.8183594,0.6547852,1.5117188,1.3447266,1.9521484c0.5063477,0.3232422,1.0766602,0.4770508,1.6479492,0.4770508  c0.0734253,0,0.1453857-0.0228882,0.21875-0.0279541c0.0049438,0.0669556-0.0018921,0.1333618,0.0073242,0.2003174  c0.1118164,0.8100586,0.5273438,1.5229492,1.1704102,2.0063477c0.5400391,0.4057617,1.1777344,0.6010742,1.8183594,0.6010742  c0.331543,0,0.6586914-0.071106,0.9782104-0.1737061c0.2169189,0.5237427,0.5720825,1.0003662,1.0476685,1.3577881  c0.5898438,0.4433594,1.2763672,0.6591797,1.9389648,0.6591797c0.8417969,0,1.6450195-0.3486328,2.1611328-1.0234375  l0.527832-0.6902466c1.1053467,0.9081421,3.1039429,2.2766724,5.1264648,2.2766724  c0.265625,0,0.5317383-0.0239258,0.7958984-0.0751953c1.2398071-0.2415771,2.2224121-1.0289917,2.9268799-2.343689  c0.2822876,0.059021,0.5685425,0.1010132,0.8626709,0.1010132c0.0048828,0,0.0097656,0,0.0141602,0  c1.6229248-0.0057983,3.0515137-0.9730835,4.2579956-2.8540649c0.3175659,0.0722046,0.637146,0.1235962,0.9597778,0.1235962  c0.081543,0,0.1640625-0.0024414,0.2460938-0.0078125c1.6248169-0.1017456,2.9640503-1.1757812,3.9937744-3.1702271  c0.1809082,0.0340576,0.3618164,0.0673218,0.5389404,0.0740356c0.0439453,0.0019531,0.0878906,0.0024414,0.1313477,0.0024414  c0.9550781,0,1.7929688-0.4018555,2.4287109-1.1674805c0.987793-1.1889648,1.434082-2.3730469,1.3261719-3.5195312  c-0.0241699-0.2581177-0.0771484-0.5112915-0.1570435-0.7580566l1.8027344-0.5427856l0.5222778,1.3296509  c0.097168,0.2480469,0.2895508,0.4467773,0.5341797,0.5522461c0.1264648,0.0546875,0.2612305,0.0820312,0.3964844,0.0820312  c0.1259766,0,0.2524414-0.0239258,0.3720703-0.0717773l8.4726562-3.3950195  C67.8842773,37.7958984,68.1333008,37.2143555,67.9287109,36.7021484z M10.6875,39.1030273l-6.3427734-3.2275391  l8.7275391-17.1616211l6.2875977,3.0961914l-0.7492065,1.4939575c-0.0003052,0.0006714-0.0009766,0.0009766-0.0012817,0.0016479  c-0.0003052,0.0006104-0.0001831,0.0012817-0.0004883,0.0018921L10.6875,39.1030273z M17.6474609,42.8339844  c-0.1977539-0.1425781-0.3266602-0.3525391-0.3642578-0.590332c-0.0371094-0.2358398,0.0209961-0.4726562,0.1635742-0.6665039  c0.1796875-0.2451172,0.4604492-0.375,0.7456055-0.375c0.1894531,0,0.3808594,0.0571289,0.5454102,0.1762695l0.7021484,0.5063477  c0.1972656,0.1425781,0.3266602,0.3525391,0.3642578,0.5908203c0.0371094,0.2358398-0.0209961,0.4726562-0.1635742,0.6665039  c-0.2983398,0.4072266-0.8779297,0.496582-1.2905273,0.1992188L17.6474609,42.8339844z M21.3793945,46.2929688  c-0.3037109-0.1943359-0.4213867-0.4824219-0.4663086-0.6899414c-0.0771484-0.355957,0.0014648-0.7490234,0.2158203-1.0791016  l0.5664062-0.8725586c0.4125977-0.6333008,1.1977539-0.862793,1.7495117-0.5092773  c0.3041992,0.1938477,0.4213867,0.4819336,0.4667969,0.6894531c0.0771484,0.355957-0.0014648,0.7495117-0.215332,1.0786133  l-0.5673828,0.8730469C22.7177734,46.4169922,21.9311523,46.6450195,21.3793945,46.2929688z M24.5498047,49.0356445  c-0.2138672-0.1606445-0.3530273-0.4023438-0.3911133-0.6801758c-0.0449219-0.3256836,0.0473633-0.6577148,0.2597656-0.9355469  l1.9008789-2.4863281c0.4116211-0.5380859,1.1420898-0.6801758,1.6274414-0.3144531  c0.2138672,0.1606445,0.3525391,0.4018555,0.390625,0.6796875c0.0449219,0.3256836-0.0473633,0.6582031-0.2592773,0.9360352  l-0.1330566,0.1740112c-0.0004883,0.0006714-0.0012207,0.0010986-0.001709,0.00177l-1.5087891,1.9731445  c-0.0003052,0.0004272-0.0005493,0.0009766-0.0008545,0.0014038l-0.256958,0.3359985  C25.7651367,49.2597656,25.0332031,49.3999023,24.5498047,49.0356445z M28.3935547,50.8208008  c-0.2641602-0.1987305-0.4379883-0.4736328-0.4765625-0.7543945c-0.0175781-0.1268311-0.0130005-0.3110352,0.1062622-0.4672852  l1.4509277-1.8977661l0.0580444-0.0758667c0.1245117-0.1625977,0.331543-0.2436523,0.5639648-0.2436523  c0.2426758,0,0.5126953,0.0883789,0.7456055,0.2631836c0.2641602,0.1987305,0.4379883,0.4736328,0.4765625,0.7543945  c0.0175781,0.1269531,0.0131836,0.3115234-0.1064453,0.4677734L29.703125,50.840332  C29.449707,51.1723633,28.8496094,51.1625977,28.3935547,50.8208008z M52.5639648,43.0463867  c-0.2670898,0.3222656-0.5634766,0.4643555-0.9453125,0.4443359c-2.0551758-0.0776367-5.5751953-3.9848633-7.3115234-6.4296875  c-0.3193359-0.4506836-0.9443359-0.5556641-1.394043-0.2368164c-0.4501953,0.3198242-0.5566406,0.9438477-0.2368164,1.394043  c0.4089355,0.5768433,3.399353,4.6904907,6.4644775,6.460144c-0.661499,1.2150879-1.4185791,1.8582153-2.2554932,1.9109497  c-2.3452148,0.1674805-5.4887695-3.9848633-6.3950195-5.4458008c-0.2910156-0.4692383-0.90625-0.6142578-1.3764648-0.3237305  c-0.4692383,0.2910156-0.6142578,0.9067383-0.3242188,1.3759766c0.30896,0.4996948,2.4434814,3.8459473,5.1370239,5.4896851  c-0.7566528,1.0786743-1.5563354,1.6342163-2.3855591,1.6382446c-0.0029297,0-0.0058594,0-0.0092773,0  c-2.0029297,0-4.1508789-2.9384766-4.8105469-4.0722656c-0.2773438-0.4775391-0.890625-0.6411133-1.3662109-0.3623047  c-0.4775391,0.2768555-0.640625,0.8876953-0.3637695,1.3652344c0.2165527,0.3740234,1.6985474,2.8306274,3.8171997,4.1808472  c-0.3934937,0.663208-0.8682251,1.0544434-1.4465942,1.1677856c-1.4104004,0.2741699-3.2720947-0.9605713-4.3536987-1.8580933  c0.262146-0.484375,0.3704834-1.043396,0.291687-1.617981c-0.1108398-0.8051758-0.5683594-1.5634766-1.2558594-2.0805664  c-0.5223389-0.3925781-1.1204834-0.6012573-1.7111816-0.6449585c-0.0024414-0.1251831,0.0033569-0.25-0.013916-0.3755493  c-0.1113281-0.8095703-0.5268555-1.5219727-1.1699219-2.0053711c-1.0169678-0.7642822-2.3815308-0.78125-3.4555664-0.1528931  c-0.2394409-0.5812988-0.6408081-1.0726318-1.1723633-1.4115601c-0.9268188-0.59198-2.0684204-0.6140137-3.0395508-0.1647949  c-0.2062378-0.4001465-0.4941406-0.7556763-0.8710938-1.0280762l-0.7021484-0.5063477  c-1.0315552-0.7458496-2.3890381-0.7086792-3.3814087-0.0204468l-2.9866333-1.8604736l6.4158325-12.793335L22.456543,26.3125  c0.1396484,0.0683594,0.2905273,0.1025391,0.4414062,0.1025391c0.1699219,0,0.3393555-0.043457,0.4916992-0.1293945  l5.2714844-2.9765625c0.7319336-0.4130859,1.53125-0.5795898,2.25-0.4726562  c0.0006104,0.0001221,0.0010376,0.0003662,0.0016479,0.0004883c-1.6326294,1.1450195-2.8815308,2.6989136-3.5587769,4.4477539  c-1.2802734,3.3076172,0.2661133,5.0859375,1.2719727,5.5688477c1.1162109,0.5214844,2.1748047,0.5859375,3.1445312,0.1918945  c1.4970703-0.6064453,2.3500977-2.1479492,2.8027344-3.3344727c0.1445312-0.3798828,0.4335938-0.6826172,0.8125-0.8515625  c0.4238281-0.1894531,0.9067383-0.1806641,1.3242188,0.0244141l6.0810547,2.9902344  c2.4482422,1.2041016,4.6542969,2.8041992,6.5581055,4.7568359c0.9970703,1.0224609,2.0849609,2.0219727,3.2329102,2.9692383  c0.5214844,0.4306641,0.8095703,0.8989258,0.8554688,1.3916016C53.4936523,41.5898438,53.2001953,42.2807617,52.5639648,43.0463867z   M54.1113892,38.3074341c-0.0871582-0.0823975-0.1605225-0.1705933-0.2559204-0.2493286  c-1.0927734-0.9023438-2.1274414-1.8520508-3.074707-2.8237305c-2.0629883-2.1157227-4.4541016-3.8500977-7.1069336-5.1552734  l-6.081543-2.9902344c-0.9506836-0.4677734-2.0522461-0.4892578-3.0214844-0.0561523  c-0.8681641,0.387207-1.53125,1.0854492-1.8666992,1.9663086c-0.2543945,0.6669922-0.8110352,1.8388672-1.684082,2.1923828  c-0.4428711,0.1787109-0.9492188,0.1298828-1.5141602-0.1337891c-0.1240234-0.0683594-1.1826172-0.7363281-0.2866211-3.0507812  c0.612793-1.5825195,1.8330078-2.9726562,3.4365234-3.9145508c2.2895508-1.3461914,5.0488281-1.6328125,7.5654297-0.7861328  l5.9111328,1.9873047c0.1875,0.0625,0.3891602,0.0693359,0.5786133,0.0180664l4.3308716-1.1655884l5.2990112,13.4902954  L54.1113892,38.3074341z M59.0898438,39.1650391l-7.0678711-17.9946289l6.5439453-2.5234375l7.1347656,17.8691406  L59.0898438,39.1650391z"/><path d="M9.5292969,33.4931641c-0.3701172-0.1601562-0.8100586-0.0698242-1.0898438,0.2099609  c-0.1899414,0.1899414-0.2900391,0.4501953-0.2900391,0.7099609c0,0.2602539,0.1000977,0.5200195,0.2900391,0.7099609  c0.1899414,0.1801758,0.449707,0.2900391,0.7099609,0.2900391c0.2597656,0,0.5200195-0.1098633,0.699707-0.2900391  c0.1899414-0.1899414,0.300293-0.449707,0.300293-0.7099609c0-0.2597656-0.1103516-0.5200195-0.300293-0.7099609  C9.7592773,33.6132812,9.6494141,33.5429688,9.5292969,33.4931641z"/><path d="M61.359375,35.4130859c0.2597656,0,0.5200195-0.1098633,0.699707-0.2900391  c0.1904297-0.1899414,0.300293-0.449707,0.300293-0.7099609c0-0.2597656-0.1098633-0.5200195-0.300293-0.7099609  c-0.2700195-0.2797852-0.7197266-0.3701172-1.0795898-0.2099609c-0.1303711,0.0498047-0.2402344,0.1201172-0.3300781,0.2099609  c-0.1899414,0.1899414-0.2900391,0.4501953-0.2900391,0.7099609c0,0.2602539,0.1000977,0.5200195,0.2900391,0.7099609  C60.8393555,35.3032227,61.0991211,35.4130859,61.359375,35.4130859z"/><text x="0" y="85" fill="#000000" font-size="5px" font-weight="bold" font-family="'Helvetica Neue', Helvetica, Arial-Unicode, Arial, Sans-serif">Created by DinosoftLab</text><text x="0" y="90" fill="#000000" font-size="5px" font-weight="bold" font-family="'Helvetica Neue', Helvetica, Arial-Unicode, Arial, Sans-serif">from the Noun Project</text></svg>