<svg xmlns="http://www.w3.org/2000/svg" data-name="Layer 1" viewBox="0 0 100 125" x="0px" y="0px"><title>02</title><path d="M92.08,35.49,83.35,20.81a3.78,3.78,0,0,0-5.21-1.54l-8.77,4a37.15,37.15,0,0,0-5.88-3.4l-.88-9.74,0-.21a4.12,4.12,0,0,0-3.94-3.39H41.57a4,4,0,0,0-4,3.68l-.88,9.66a33.54,33.54,0,0,0-5.92,3.39L22,19.23l-.09,0a4.08,4.08,0,0,0-5.08,1.69L8.32,35.49a4.12,4.12,0,0,0,1.15,5.44l7.94,5.64a23.73,23.73,0,0,0,0,6.84L9,59.11a4.1,4.1,0,0,0-1.12,5.38l8.54,14.7A4.13,4.13,0,0,0,18.68,81a3.67,3.67,0,0,0,3-.32l8.77-4a37.06,37.06,0,0,0,5.88,3.41l.89,9.74,0,.21a4.12,4.12,0,0,0,3.94,3.39H58.23a4,4,0,0,0,4-3.67l.88-9.67A33.55,33.55,0,0,0,69,76.72l8.81,4.06.09,0A4.08,4.08,0,0,0,83,79.12l8.49-14.61a4.11,4.11,0,0,0-1.1-5.4L83,53.48a23.86,23.86,0,0,0,0-6.92l8-5.67A4.11,4.11,0,0,0,92.08,35.49ZM88.6,37.66l-9.92,7.05.17,1.21A27.92,27.92,0,0,1,79.23,50a27.88,27.88,0,0,1-.38,4.08l-.17,1.17L88,62.31a.18.18,0,0,1,.07.17L79.53,77.1h-.12l-11-5-1,.79a29.26,29.26,0,0,1-7.06,4.07l-1.1.47-1.1,12.06-17,0a.31.31,0,0,1-.08-.13L40.08,77.39,39,76.92a33.73,33.73,0,0,1-7.12-4.12l-1-.72-11,5.06h0L11.36,62.46s0-.12,0-.1L20.69,56l1-.72-.18-1.23A27.8,27.8,0,0,1,21.16,50a27.89,27.89,0,0,1,.38-4.08l.17-1.21-9.88-7a.18.18,0,0,1-.07-.17l8.5-14.62a.27.27,0,0,1,.12,0l11,5.05,1-.79a29.22,29.22,0,0,1,7.06-4.07l1.1-.47,1.1-12.06,17,0a.31.31,0,0,1,.08.14l1.09,11.94,1.1.47a33.68,33.68,0,0,1,7.12,4.13l1,.71,11-5.06h0l8.73,14.68A.32.32,0,0,1,88.6,37.66Z"/><path d="M50,34.82A15.18,15.18,0,1,0,65.18,50,15,15,0,0,0,50,34.82Zm0,26.36A11.18,11.18,0,1,1,61.18,50,11.06,11.06,0,0,1,50,61.18Z"/><text x="0" y="115" fill="#000000" font-size="5px" font-weight="bold" font-family="'Helvetica Neue', Helvetica, Arial-Unicode, Arial, Sans-serif">Created by Karan</text><text x="0" y="120" fill="#000000" font-size="5px" font-weight="bold" font-family="'Helvetica Neue', Helvetica, Arial-Unicode, Arial, Sans-serif">from the Noun Project</text></svg>