<svg xmlns="http://www.w3.org/2000/svg" xmlns:xlink="http://www.w3.org/1999/xlink" version="1.1" x="0px" y="0px" viewBox="0 0 100 125" style="enable-background:new 0 0 100 100;" xml:space="preserve"><path d="M88.6,45.5h-4v-9.9C84.6,18.8,70.9,5,54,5S23.3,18.8,23.3,35.7c0,1.1,0.9,2,2,2h6.9c1.1,0,2-0.9,2-2  c0-10.9,8.9-19.8,19.8-19.8s19.8,8.9,19.8,19.8v9.9H19.3c-1.1,0-2,0.9-2,2V93c0,1.1,0.9,2,2,2h69.2c1.1,0,2-0.9,2-2V47.5  C90.5,46.4,89.7,45.5,88.6,45.5z M54,11.9c-12.4,0-22.6,9.6-23.7,21.8h-3C28.3,19.9,39.9,9,54,9c14.7,0,26.7,12,26.7,26.7v9.9h-3  v-9.9C77.7,22.6,67,11.9,54,11.9z M86.6,91H21.3V49.5h65.3V91z M9.5,35.7c0-1.1,0.9-2,2-2h4c1.1,0,2,0.9,2,2s-0.9,2-2,2h-4  C10.3,37.6,9.5,36.8,9.5,35.7z M13.6,26.6c-0.7-0.8-0.7-2.1,0.1-2.8c0.8-0.7,2.1-0.7,2.8,0.1l2.7,2.9c0.7,0.8,0.7,2.1-0.1,2.8  c-0.4,0.3-0.9,0.5-1.3,0.5c-0.5,0-1.1-0.2-1.5-0.6L13.6,26.6z M54,69.3c4.9,0,8.9-4,8.9-8.9c0-4.9-4-8.9-8.9-8.9s-8.9,4-8.9,8.9  C45.1,65.3,49,69.3,54,69.3z M54,55.4c2.7,0,4.9,2.2,4.9,4.9c0,2.7-2.2,4.9-4.9,4.9S49,63.1,49,60.4C49,57.7,51.2,55.4,54,55.4z   M39.7,89.1h28.5c1.4,0,2.6-1.1,2.6-2.6v-0.9c0-7.9-6.5-14.4-14.4-14.4h-4.9c-7.9,0-14.4,6.5-14.4,14.4v0.9  C37.1,87.9,38.3,89.1,39.7,89.1z M51.5,75.2h4.9c5.6,0,10.1,4.4,10.4,9.9H41.1C41.4,79.6,45.9,75.2,51.5,75.2z M17.1,43.1  c0.4,1-0.1,2.2-1.1,2.6l-3.7,1.5c-0.2,0.1-0.5,0.1-0.7,0.1c-0.8,0-1.5-0.5-1.8-1.2c-0.4-1,0.1-2.2,1.1-2.6l3.7-1.5  C15.5,41.6,16.7,42.1,17.1,43.1z"/><text x="0" y="115" fill="#000000" font-size="5px" font-weight="bold" font-family="'Helvetica Neue', Helvetica, Arial-Unicode, Arial, Sans-serif">Created by IconMark</text><text x="0" y="120" fill="#000000" font-size="5px" font-weight="bold" font-family="'Helvetica Neue', Helvetica, Arial-Unicode, Arial, Sans-serif">from the Noun Project</text></svg>