<svg xmlns="http://www.w3.org/2000/svg" data-name="Layer 1" viewBox="0 0 48 60" x="0px" y="0px"><title>Person_1</title><path d="M27.7,26a10.36,10.36,0,1,0-7.4,0A16.64,16.64,0,0,0,7.52,40.83a1.09,1.09,0,1,0,2.17.2v0a14.35,14.35,0,0,1,28.62,0,1.09,1.09,0,0,0,1.08,1h.09a1.08,1.08,0,0,0,1-1.17A16.64,16.64,0,0,0,27.7,26ZM15.82,16.33A8.18,8.18,0,1,1,24,24.52,8.19,8.19,0,0,1,15.82,16.33Z"/><text x="0" y="63" fill="#000000" font-size="5px" font-weight="bold" font-family="'Helvetica Neue', Helvetica, Arial-Unicode, Arial, Sans-serif">Created by Fengquan Li</text><text x="0" y="68" fill="#000000" font-size="5px" font-weight="bold" font-family="'Helvetica Neue', Helvetica, Arial-Unicode, Arial, Sans-serif">from the Noun Project</text></svg>