<svg xmlns:dc="http://purl.org/dc/elements/1.1/" xmlns:cc="http://creativecommons.org/ns#" xmlns:rdf="http://www.w3.org/1999/02/22-rdf-syntax-ns#" xmlns:svg="http://www.w3.org/2000/svg" xmlns="http://www.w3.org/2000/svg" xmlns:sodipodi="http://sodipodi.sourceforge.net/DTD/sodipodi-0.dtd" xmlns:inkscape="http://www.inkscape.org/namespaces/inkscape" version="1.1" x="0px" y="0px" viewBox="0 0 100 125"><g transform="translate(0,-952.36218)"><path style="font-size:medium;font-style:normal;font-variant:normal;font-weight:normal;font-stretch:normal;text-indent:0;text-align:start;text-decoration:none;line-height:normal;letter-spacing:normal;word-spacing:normal;text-transform:none;direction:ltr;block-progression:tb;writing-mode:lr-tb;text-anchor:start;baseline-shift:baseline;opacity:1;color:#000000;fill:#000000;fill-opacity:1;stroke:none;stroke-width:4;marker:none;visibility:visible;display:inline;overflow:visible;enable-background:accumulate;font-family:Sans;-inkscape-font-specification:Sans" d="M 50 8 C 45.605412 8 42 11.60541 42 16 C 42 19.306299 44.055216 22.161448 46.9375 23.375 C 41.238241 24.752577 37 29.883986 37 36 L 37 43 L 37 45 L 39 45 L 61 45 L 63 45 L 63 43 L 63 36 C 63 29.883986 58.761759 24.752577 53.0625 23.375 C 55.944784 22.161448 58 19.306299 58 16 C 58 11.60541 54.394588 8 50 8 z M 50 12 C 52.232828 12 54 13.76717 54 16 C 54 18.23283 52.232828 20 50 20 C 47.76717 20 46 18.23283 46 16 C 46 13.76717 47.76717 12 50 12 z M 50 27 C 55.020594 27 59 30.97941 59 36 L 59 41 L 41 41 L 41 36 C 41 30.97941 44.979406 27 50 27 z M 48 50 L 48 59.9375 L 37.9375 66.34375 L 40.0625 69.71875 L 50 63.40625 L 59.9375 69.71875 L 62.0625 66.34375 L 52 59.9375 L 52 50 L 48 50 z M 25 55 C 20.605408 55 17 58.6054 17 63 C 17 66.29595 19.03826 69.154984 21.90625 70.375 C 16.221747 71.763106 12 76.894484 12 83 L 12 90 L 12 92 L 14 92 L 36 92 L 38 92 L 38 90 L 38 83 C 38 76.894484 33.778253 71.763106 28.09375 70.375 C 30.96174 69.154984 33 66.29595 33 63 C 33 58.6054 29.394592 55 25 55 z M 75 55 C 70.605411 55 67 58.6054 67 63 C 67 66.29595 69.040965 69.157684 71.90625 70.375 C 66.221747 71.763106 62 76.894484 62 83 L 62 90 L 62 92 L 64 92 L 86 92 L 88 92 L 88 90 L 88 83 C 88 76.894484 83.778253 71.763106 78.09375 70.375 C 80.959034 69.157684 83 66.29595 83 63 C 83 58.6054 79.394585 55 75 55 z M 25 59 C 27.232824 59 29 60.7672 29 63 C 29 65.2328 27.232824 67 25 67 C 22.767176 67 21 65.2328 21 63 C 21 60.7672 22.767176 59 25 59 z M 75 59 C 77.232831 59 79 60.7671 79 63 C 79 65.2328 77.232831 67 75 67 C 72.767172 67 71 65.2328 71 63 C 71 60.7671 72.767172 59 75 59 z M 25 74 C 30.020594 74 34 77.9794 34 83 L 34 88 L 16 88 L 16 83 C 16 77.9794 19.979406 74 25 74 z M 75 74 C 80.020594 74 84 77.9794 84 83 L 84 88 L 66 88 L 66 83 C 66 77.9794 69.979406 74 75 74 z " transform="translate(0,952.36218)"/></g><text x="0" y="115" fill="#000000" font-size="5px" font-weight="bold" font-family="'Helvetica Neue', Helvetica, Arial-Unicode, Arial, Sans-serif">Created by emma mitchell</text><text x="0" y="120" fill="#000000" font-size="5px" font-weight="bold" font-family="'Helvetica Neue', Helvetica, Arial-Unicode, Arial, Sans-serif">from the Noun Project</text></svg>