<svg xmlns="http://www.w3.org/2000/svg" viewBox="0 0 64 80" x="0px" y="0px"><title>14 Seo, Analysis, Search, Search Engine, Web</title><g data-name="14 web search engine"><path d="M4.4,49.9V16.15H53V28.3h2.7V6.7a4.06,4.06,0,0,0-4.05-4.05H5.75a4.06,4.06,0,0,0-4,4.05V49.9A4.06,4.06,0,0,0,5.75,54h32.4v-2.7H5.75A1.36,1.36,0,0,1,4.4,49.9Zm0-43.2A1.36,1.36,0,0,1,5.75,5.35h45.9A1.36,1.36,0,0,1,53,6.7v6.75H4.4ZM32.75,43.15H8.45v-2.7h24.3ZM23.3,8.05h5.4v2.7H23.3Zm-16.2,0h5.4v2.7H7.1Zm8.1,0h5.4v2.7H15.2ZM8.45,45.85h24.3v2.7H8.45ZM49,29.65A12.15,12.15,0,0,0,47.6,53.87v5.48h2.7V53.87A12.15,12.15,0,0,0,49,29.65Zm0,21.6A9.45,9.45,0,1,1,58.4,41.8,9.46,9.46,0,0,1,49,51.25ZM50.3,25.6V20.2A1.34,1.34,0,0,0,49,18.85H8.45A1.34,1.34,0,0,0,7.1,20.2v5.4A1.34,1.34,0,0,0,8.45,27H49A1.34,1.34,0,0,0,50.3,25.6Zm-2.7-1.35H9.8v-2.7H47.6Zm-14.85,8.1H8.45v-2.7h24.3Zm0,5.4H8.45v-2.7h24.3Z"/></g><text x="0" y="79" fill="#000000" font-size="5px" font-weight="bold" font-family="'Helvetica Neue', Helvetica, Arial-Unicode, Arial, Sans-serif">Created by SD (design)</text><text x="0" y="84" fill="#000000" font-size="5px" font-weight="bold" font-family="'Helvetica Neue', Helvetica, Arial-Unicode, Arial, Sans-serif">from the Noun Project</text></svg>