<svg xmlns="http://www.w3.org/2000/svg" xmlns:xlink="http://www.w3.org/1999/xlink" version="1.1" x="0px" y="0px" viewBox="0 0 64 80" enable-background="new 0 0 64 64" xml:space="preserve"><g><g><path d="M56,31h-3.051c-0.101-2.13-0.517-4.175-1.209-6.094l2.816-1.167c0.51-0.211,0.752-0.796,0.541-1.307    s-0.799-0.751-1.307-0.541l-2.817,1.167c-0.896-1.894-2.063-3.628-3.458-5.161l2.162-2.162c0.391-0.391,0.391-1.024,0-1.414    c-0.391-0.391-1.023-0.391-1.414,0l-2.162,2.162c-1.532-1.394-3.267-2.562-5.16-3.458l1.167-2.818    c0.211-0.51-0.031-1.095-0.541-1.306c-0.507-0.21-1.096,0.03-1.307,0.542l-1.166,2.815c-1.919-0.692-3.964-1.108-6.095-1.209V8    c0-0.552-0.448-1-1-1s-1,0.448-1,1v3.051c-2.13,0.101-4.175,0.517-6.094,1.209L23.74,9.444c-0.211-0.511-0.796-0.752-1.306-0.542    c-0.511,0.211-0.753,0.796-0.542,1.306l1.167,2.817c-1.894,0.896-3.628,2.064-5.161,3.458l-2.162-2.162    c-0.391-0.391-1.023-0.391-1.414,0s-0.391,1.023,0,1.414l2.162,2.162c-1.394,1.533-2.562,3.267-3.458,5.161l-2.816-1.167    c-0.51-0.211-1.095,0.03-1.307,0.541c-0.211,0.51,0.031,1.095,0.541,1.307l2.815,1.167c-0.692,1.919-1.108,3.963-1.209,6.094H8    c-0.552,0-1,0.448-1,1s0.448,1,1,1h3.051c0.101,2.131,0.517,4.176,1.209,6.096l-2.815,1.165c-0.51,0.211-0.753,0.796-0.542,1.307    c0.159,0.385,0.532,0.617,0.924,0.617c0.127,0,0.257-0.024,0.382-0.076l2.818-1.167c0.896,1.894,2.063,3.628,3.457,5.16    l-2.162,2.162c-0.391,0.391-0.391,1.023,0,1.414c0.195,0.195,0.451,0.293,0.707,0.293s0.512-0.098,0.707-0.293l2.162-2.162    c1.533,1.395,3.268,2.562,5.161,3.458l-1.167,2.817c-0.211,0.511,0.031,1.096,0.541,1.307c0.125,0.052,0.255,0.076,0.382,0.076    c0.393,0,0.765-0.232,0.924-0.617l1.166-2.816c1.919,0.692,3.963,1.108,6.094,1.209V56c0,0.553,0.448,1,1,1s1-0.447,1-1v-3.051    c2.131-0.101,4.175-0.517,6.095-1.209l1.166,2.815c0.159,0.385,0.532,0.617,0.924,0.617c0.128,0,0.258-0.024,0.383-0.076    c0.51-0.211,0.752-0.796,0.541-1.307l-1.167-2.817c1.894-0.896,3.628-2.063,5.16-3.457l2.162,2.162    c0.195,0.195,0.451,0.293,0.707,0.293s0.512-0.098,0.707-0.293c0.391-0.391,0.391-1.023,0-1.414l-2.162-2.162    c1.394-1.532,2.562-3.267,3.457-5.16l2.818,1.166c0.125,0.052,0.255,0.076,0.383,0.076c0.393,0,0.765-0.232,0.924-0.617    c0.211-0.511-0.031-1.096-0.541-1.307l-2.816-1.166c0.692-1.919,1.108-3.963,1.209-6.094H56c0.553,0,1-0.448,1-1S56.553,31,56,31z     M32,51c-10.477,0-19-8.523-19-19s8.523-19,19-19s19,8.523,19,19S42.477,51,32,51z"/><path d="M32,29c2.757,0,5-2.243,5-5s-2.243-5-5-5s-5,2.243-5,5S29.243,29,32,29z M32,21c1.654,0,3,1.346,3,3s-1.346,3-3,3    s-3-1.346-3-3S30.346,21,32,21z"/><path d="M36,31h-8c-2.757,0-5,2.243-5,5v6c0,0.553,0.448,1,1,1s1-0.447,1-1v-6c0-1.654,1.346-3,3-3h8c1.654,0,3,1.346,3,3v6    c0,0.553,0.447,1,1,1s1-0.447,1-1v-6C41,33.243,38.757,31,36,31z"/></g></g><text x="0" y="79" fill="#000000" font-size="5px" font-weight="bold" font-family="'Helvetica Neue', Helvetica, Arial-Unicode, Arial, Sans-serif">Created by Ralf Schmitzer</text><text x="0" y="84" fill="#000000" font-size="5px" font-weight="bold" font-family="'Helvetica Neue', Helvetica, Arial-Unicode, Arial, Sans-serif">from the Noun Project</text></svg>