<svg xmlns="http://www.w3.org/2000/svg" xmlns:xlink="http://www.w3.org/1999/xlink" version="1.1" x="0px" y="0px" viewBox="0 0 66 82.5" style="enable-background:new 0 0 66 66;" xml:space="preserve"><g><path d="M49.8,39.8c5.5-9.8,4.2-22.6-4.3-31.1C29.1-7.7,1,4,1,27.1c0,14.4,11.7,26.1,26.1,26.1c4.6,0,8.9-1.2,12.7-3.3l13.1,13.1   c2.8,2.8,7.3,2.8,10.1,0c2.8-2.8,2.8-7.3,0-10.1L49.8,39.8z M3,27.1c0-21.3,26-32.2,41.1-17c15.1,15.1,4.3,41.1-17,41.1   C13.8,51.1,3,40.3,3,27.1z M61.5,61.5c-2,2-5.2,2-7.2,0L41.5,48.7c2.9-1.9,5.3-4.4,7.2-7.2l12.8,12.8   C63.5,56.3,63.5,59.5,61.5,61.5z"/><path d="M19.3,30.5h-6c-0.6,0-1,0.4-1,1v9c0,0.6,0.4,1,1,1h6c0.6,0,1-0.4,1-1v-9C20.3,30.9,19.8,30.5,19.3,30.5z M18.3,39.5h-4v-7   h4V39.5z"/><path d="M30.5,25.4h-5c-0.6,0-1,0.4-1,1v15c0,0.6,0.4,1,1,1h5c0.6,0,1-0.4,1-1v-15C31.5,25.9,31.1,25.4,30.5,25.4z M29.5,40.4h-3   v-13h3V40.4z"/><path d="M41.5,20.4h-5c-0.6,0-1,0.4-1,1v20c0,0.6,0.4,1,1,1h5c0.6,0,1-0.4,1-1v-20C42.5,20.9,42.1,20.4,41.5,20.4z M40.5,40.4h-3   v-18h3V40.4z"/><path d="M33.7,12.4l-5.8-0.4c-0.6,0-1,0.4-1.1,0.9c0,0.6,0.4,1,0.9,1.1l3.2,0.2L13.3,26.6c-0.5,0.3-0.6,0.9-0.2,1.4   c0.3,0.5,0.9,0.6,1.4,0.2l17.5-12.4l-0.8,2.9c-0.1,0.5,0.2,1.1,0.7,1.2c0.5,0.1,1.1-0.2,1.2-0.7l1.5-5.5   C34.8,13.2,34.5,12.4,33.7,12.4z"/></g><text x="0" y="81" fill="#000000" font-size="5px" font-weight="bold" font-family="'Helvetica Neue', Helvetica, Arial-Unicode, Arial, Sans-serif">Created by ProSymbols</text><text x="0" y="86" fill="#000000" font-size="5px" font-weight="bold" font-family="'Helvetica Neue', Helvetica, Arial-Unicode, Arial, Sans-serif">from the Noun Project</text></svg>