<svg xmlns:dc="http://purl.org/dc/elements/1.1/" xmlns:cc="http://creativecommons.org/ns#" xmlns:rdf="http://www.w3.org/1999/02/22-rdf-syntax-ns#" xmlns:svg="http://www.w3.org/2000/svg" xmlns="http://www.w3.org/2000/svg" xmlns:sodipodi="http://sodipodi.sourceforge.net/DTD/sodipodi-0.dtd" xmlns:inkscape="http://www.inkscape.org/namespaces/inkscape" version="1.1" x="0px" y="0px" viewBox="0 0 100 125"><g transform="translate(0,-952.36218)"><path style="text-indent:0;text-transform:none;direction:ltr;block-progression:tb;baseline-shift:baseline;color:#000000;enable-background:accumulate;" d="m 50,957.36218 c -24.81728,0 -45.0000005,20.18287 -45.0000005,45.00002 0,24.8171 20.1827105,45 45.0000005,45 24.81729,0 45,-20.1829 45,-45 0,-24.81715 -20.182721,-45.00002 -45,-45.00002 z m 0,6 c 21.57462,0 39,17.42553 39,39.00002 0,21.5745 -17.42539,39 -39,39 -21.574611,0 -39.000001,-17.4255 -39.000001,-39 0,-21.57449 17.425381,-39.00002 39.000001,-39.00002 z m -13,19 0,40.00002 34,-20 -34,-20.00002 z" fill="#000000" fill-opacity="1" stroke="none" marker="none" visibility="visible" display="inline" overflow="visible"/></g><text x="0" y="115" fill="#000000" font-size="5px" font-weight="bold" font-family="'Helvetica Neue', Helvetica, Arial-Unicode, Arial, Sans-serif">Created by Zaff Studio</text><text x="0" y="120" fill="#000000" font-size="5px" font-weight="bold" font-family="'Helvetica Neue', Helvetica, Arial-Unicode, Arial, Sans-serif">from the Noun Project</text></svg>