<svg xmlns="http://www.w3.org/2000/svg" width="70" height="70" viewBox="0 0 70 70">
                                    <g id="noun_product_1861956" transform="translate(-4 -4)">
                                      <path id="Path_2447" data-name="Path 2447" d="M60.875,4H17.125A13.125,13.125,0,0,0,4,17.125v43.75A13.125,13.125,0,0,0,17.125,74h43.75A13.125,13.125,0,0,0,74,60.875V17.125A13.125,13.125,0,0,0,60.875,4ZM47.75,8.375v13.7L41.427,17.86,39,16.242,36.573,17.86,30.25,22.075V8.375Zm21.875,52.5a8.76,8.76,0,0,1-8.75,8.75H17.125a8.76,8.76,0,0,1-8.75-8.75V17.125a8.76,8.76,0,0,1,8.75-8.75h8.75V26.163a2.19,2.19,0,0,0,2.194,2.191,2.163,2.163,0,0,0,1.207-.371L39,21.5l9.724,6.483a2.164,2.164,0,0,0,1.207.371,2.19,2.19,0,0,0,2.194-2.191V8.375h8.75a8.76,8.76,0,0,1,8.75,8.75Z"></path>
                                      <path id="Path_2448" data-name="Path 2448" d="M30.829,15H13.366a4.366,4.366,0,0,0,0,8.732H30.829a4.366,4.366,0,0,0,0-8.732Z" transform="translate(16.902 37.139)"></path>
                                    </g>
                                </svg>