<svg xmlns="http://www.w3.org/2000/svg" width="70" height="70" viewBox="0 0 70 70">
                                    <g id="noun_Settings_1269184" transform="translate(-7.318 -6.53)">
                                      <path id="Path_2444" data-name="Path 2444" d="M76.845,29.858,69.684,18.033a3.089,3.089,0,0,0-1.869-1.51,3.151,3.151,0,0,0-2.4.269l-7.194,3.222a30.615,30.615,0,0,0-4.823-2.739L52.672,9.43V9.261A3.361,3.361,0,0,0,49.44,6.53H35.413a3.258,3.258,0,0,0-3.281,2.964l-.722,7.781a27.644,27.644,0,0,0-4.856,2.731L19.361,16.76h-.074a3.378,3.378,0,0,0-4.167,1.361L8.14,29.858a3.281,3.281,0,0,0,.943,4.382L15.6,38.783a18.775,18.775,0,0,0,0,5.51L8.7,48.884a3.265,3.265,0,0,0-.919,4.334l7,11.841a3.377,3.377,0,0,0,1.854,1.458A3.059,3.059,0,0,0,19.1,66.26l7.194-3.222a30.538,30.538,0,0,0,4.823,2.747l.73,7.846V73.8a3.361,3.361,0,0,0,3.232,2.731h14a3.258,3.258,0,0,0,3.281-2.956l.722-7.789a27.654,27.654,0,0,0,4.831-2.715l7.226,3.27h.074A3.378,3.378,0,0,0,69.4,65l6.964-11.769a3.273,3.273,0,0,0-.9-4.35L69.4,44.349a18.878,18.878,0,0,0,0-5.574l6.562-4.567A3.272,3.272,0,0,0,76.845,29.858ZM73.99,31.606l-8.137,5.679.139.975a22.1,22.1,0,0,1,.312,3.287,22.063,22.063,0,0,1-.312,3.287l-.139.942L73.5,51.462a.144.144,0,0,1,.057.137l-7,11.777h-.1l-9.023-4.028-.82.636a24.112,24.112,0,0,1-5.791,3.278l-.9.379-.9,9.715H35.069a.249.249,0,0,1-.066-.1l-.812-9.642-.886-.379a27.8,27.8,0,0,1-5.84-3.319l-.82-.58-9.023,4.076h0L10.634,51.583V51.5l7.653-5.123.82-.58-.148-.991a22,22,0,0,1-.287-3.262,22.074,22.074,0,0,1,.312-3.287l.139-.975-8.1-5.639a.144.144,0,0,1-.057-.137l6.972-11.777a.225.225,0,0,1,.1,0L27.055,23.8l.82-.636a24.079,24.079,0,0,1,5.791-3.278l.9-.379.9-9.715H49.415a.249.249,0,0,1,.066.113l.894,9.618.9.379a27.752,27.752,0,0,1,5.84,3.327l.82.572,9.023-4.076h0L74.121,31.55A.265.265,0,0,1,73.99,31.606Z" transform="translate(0 0)"></path>
                                      <path id="Path_2445" data-name="Path 2445" d="M47.589,34.82A12.769,12.769,0,1,0,60.359,47.589,12.618,12.618,0,0,0,47.589,34.82Zm0,22.174a9.4,9.4,0,1,1,9.4-9.4,9.3,9.3,0,0,1-9.4,9.4Z" transform="translate(-5.261 -6.044)"></path>
                                    </g>
                                </svg>