<svg xmlns="http://www.w3.org/2000/svg" width="70" height="70" viewBox="0 0 70 70">
                                        <g id="noun_support_1156555" transform="translate(-6.295 -5)">
                                          <path id="Path_346" data-name="Path 346" d="M85.374,26.649a3.253,3.253,0,0,0-.954-2.192,3.29,3.29,0,0,0-2.4-.954,5.8,5.8,0,0,0-5.592,5.964l.173,5.318-.9,3.635a4.2,4.2,0,0,0-3.006,1.231L66.78,45.57l-2.048.354a6.583,6.583,0,0,0-3.527,1.822L57.132,51.82a6.527,6.527,0,0,0-1.921,4.486l-.151,6.751a4.823,4.823,0,0,0-3.307,4.519l-.095,8.84a4.828,4.828,0,0,0,4.765,4.868l14.667.157h.053a4.828,4.828,0,0,0,4.815-4.765l.095-8.839a4.819,4.819,0,0,0-3.157-4.568l.03-.205a6.984,6.984,0,0,1,1.981-3.934l6.881-6.881a10.878,10.878,0,0,0,3.125-6.537l.73-6.926A4.462,4.462,0,0,0,85.724,38l0-.019c0-.011,0-.021,0-.032,0-.045.006-.088.006-.135ZM73.621,67.811l-.095,8.839a2.367,2.367,0,0,1-.72,1.676,2.427,2.427,0,0,1-1.691.684l-14.667-.156a2.395,2.395,0,0,1-2.359-2.41l.095-8.84a2.388,2.388,0,0,1,2.385-2.36H56.6l14.667.157a2.395,2.395,0,0,1,2.359,2.41Zm6.446-17.282L73.186,57.41a9.4,9.4,0,0,0-2.667,5.3l-.036.251L57.5,62.821l.144-6.459a4.112,4.112,0,0,1,1.21-2.822l4.074-4.074a4.143,4.143,0,0,1,2.218-1.145l2.431-.421a1.174,1.174,0,0,0,.246-.071l.015-.008a1.215,1.215,0,0,0,.386-.256l.006,0,6.186-6.19A1.785,1.785,0,1,1,76.938,43.9L69.83,51a1.216,1.216,0,0,0,1.72,1.719l7.108-7.108a4.2,4.2,0,0,0-.63-6.476L79,35.207c0-.014,0-.027.006-.04a1.077,1.077,0,0,0,.018-.125c0-.042.008-.083.008-.126,0-.014,0-.027,0-.041l-.178-5.484a3.361,3.361,0,0,1,3.229-3.459.831.831,0,0,1,.859.8L83.3,37.81l-.082.78c0,.029-.008.058-.009.087l-.715,6.78A8.447,8.447,0,0,1,80.067,50.529Z" transform="translate(-9.437 -6.441)"></path>
                                          <circle id="Ellipse_1" data-name="Ellipse 1" cx="2.08" cy="2.08" r="2.08" transform="translate(59.357 60.403)"></circle>
                                          <path id="Path_347" data-name="Path 347" d="M36.965,63.057l-.151-6.751a6.53,6.53,0,0,0-1.921-4.485L30.82,47.747A6.59,6.59,0,0,0,27.3,45.925l-2.051-.355L19.33,39.651a4.207,4.207,0,0,0-3.006-1.23l-.9-3.636.173-5.321A5.8,5.8,0,0,0,9.994,23.5a3.3,3.3,0,0,0-2.389.954,3.254,3.254,0,0,0-.954,2.2L6.295,37.828c0,.048.006.094.006.141v.02a4.373,4.373,0,0,0,.084.8l.73,6.923a10.878,10.878,0,0,0,3.125,6.538l6.881,6.881a6.982,6.982,0,0,1,1.98,3.93l.031.21a4.819,4.819,0,0,0-3.157,4.568l.095,8.839a4.828,4.828,0,0,0,4.815,4.765h.053L35.6,81.283a4.828,4.828,0,0,0,4.765-4.868l-.095-8.84A4.828,4.828,0,0,0,36.965,63.057ZM18.84,57.41l-6.881-6.881a8.444,8.444,0,0,1-2.426-5.073l-.715-6.779c0-.029-.006-.058-.009-.087l-.082-.78.353-11.077a.831.831,0,0,1,.846-.8,3.362,3.362,0,0,1,3.242,3.456l-.178,5.487c0,.014,0,.027,0,.041,0,.041,0,.083.008.126a1.051,1.051,0,0,0,.018.125c0,.014,0,.027.006.041L14,39.138a4.2,4.2,0,0,0-.63,6.477l7.108,7.108A1.216,1.216,0,0,0,22.195,51L15.087,43.9a1.785,1.785,0,0,1,2.524-2.525L23.8,47.562l.006,0a1.2,1.2,0,0,0,.385.256l.015.008a1.224,1.224,0,0,0,.246.07l2.435.421A4.132,4.132,0,0,1,29.1,49.466l4.074,4.074a4.106,4.106,0,0,1,1.21,2.822l.144,6.46-12.985.139-.037-.256A9.394,9.394,0,0,0,18.84,57.41ZM37.253,78.133a2.367,2.367,0,0,1-1.676.72l-14.667.157a2.4,2.4,0,0,1-1.69-.683,2.367,2.367,0,0,1-.72-1.676l-.1-8.84A2.395,2.395,0,0,1,20.764,65.4l14.667-.157h.025a2.388,2.388,0,0,1,2.385,2.36l.095,8.84A2.364,2.364,0,0,1,37.253,78.133Z" transform="translate(0 -6.441)"></path>
                                          <circle id="Ellipse_2" data-name="Ellipse 2" cx="2.08" cy="2.08" r="2.08" transform="translate(19.072 60.403)"></circle>
                                          <path id="Path_348" data-name="Path 348" d="M29.166,28.076H31.4a14.443,14.443,0,0,0,1.149,2.84l-1.582,1.617a2.6,2.6,0,0,0,0,3.619l2.22,2.27a2.466,2.466,0,0,0,3.539,0L38.308,36.8a13.825,13.825,0,0,0,2.778,1.175v2.284a2.537,2.537,0,0,0,2.506,2.562h3.13a2.537,2.537,0,0,0,2.506-2.562V37.98A13.844,13.844,0,0,0,52.005,36.8l1.582,1.617a2.466,2.466,0,0,0,3.539,0l2.22-2.27a2.6,2.6,0,0,0,0-3.619l-1.582-1.617a14.492,14.492,0,0,0,1.149-2.84h2.234a2.537,2.537,0,0,0,2.506-2.562v-3.2a2.537,2.537,0,0,0-2.506-2.562H58.913a14.493,14.493,0,0,0-1.149-2.84l1.583-1.618a2.6,2.6,0,0,0,0-3.619L57.127,9.4a2.525,2.525,0,0,0-3.54,0L52.005,11.02a13.8,13.8,0,0,0-2.778-1.175V7.562A2.537,2.537,0,0,0,46.722,5h-3.13a2.537,2.537,0,0,0-2.506,2.562V9.846a13.8,13.8,0,0,0-2.778,1.175L36.726,9.4a2.524,2.524,0,0,0-3.54,0l-2.22,2.27a2.6,2.6,0,0,0,0,3.619l1.582,1.617A14.492,14.492,0,0,0,31.4,19.75H29.165a2.537,2.537,0,0,0-2.506,2.562v3.2A2.539,2.539,0,0,0,29.166,28.076Zm-.128-5.763a.127.127,0,0,1,.128-.131h3.146l.007,0a1.141,1.141,0,0,0,.35-.062c.019-.006.039-.011.058-.019a1.15,1.15,0,0,0,.3-.169c.017-.013.032-.027.048-.041a1.2,1.2,0,0,0,.234-.266c.007-.011.012-.023.018-.034a1.225,1.225,0,0,0,.141-.352s0-.007,0-.011a12.046,12.046,0,0,1,1.564-3.862,1.23,1.23,0,0,0,.091-.183c0-.008.008-.015.011-.023a1.239,1.239,0,0,0,.082-.432c0-.009,0-.018,0-.027a1.235,1.235,0,0,0-.082-.429c0-.009,0-.019-.009-.028a1.2,1.2,0,0,0-.251-.387s0-.006,0-.007l-.009-.009,0,0-2.214-2.264a.134.134,0,0,1,0-.182l2.221-2.271a.14.14,0,0,1,.178,0L37.274,13.4s.01.006.015.011a1.183,1.183,0,0,0,.343.233c.029.013.056.024.086.034a1.181,1.181,0,0,0,.395.079h0a1.155,1.155,0,0,0,.4-.079.958.958,0,0,0,.109-.051,1.246,1.246,0,0,0,.134-.062,11.475,11.475,0,0,1,3.777-1.6c.029-.006.054-.019.082-.028a1.111,1.111,0,0,0,.136-.045.971.971,0,0,0,.292-.193c.028-.024.058-.047.083-.074s.048-.059.072-.089a1.153,1.153,0,0,0,.071-.093c.02-.032.035-.065.052-.1s.039-.071.055-.109.025-.079.036-.119a.939.939,0,0,0,.029-.105,1.183,1.183,0,0,0,.016-.16c0-.025.007-.049.007-.074V7.562a.124.124,0,0,1,.126-.131h3.13a.127.127,0,0,1,.128.131v3.216c0,.025.006.049.007.074a1.183,1.183,0,0,0,.016.16c.007.036.02.071.029.105a1.216,1.216,0,0,0,.036.119,1.064,1.064,0,0,0,.055.109c.017.033.032.067.052.1a1.149,1.149,0,0,0,.071.093c.024.03.046.062.072.089s.055.049.083.074a1.072,1.072,0,0,0,.092.078c.032.023.068.041.1.06s.064.039.1.055a1.111,1.111,0,0,0,.136.045c.028.008.053.021.082.028a11.475,11.475,0,0,1,3.777,1.6,1.107,1.107,0,0,0,.134.062c.037.018.071.036.109.051a1.156,1.156,0,0,0,.4.079h0a1.161,1.161,0,0,0,.395-.079c.029-.011.057-.021.086-.034a1.168,1.168,0,0,0,.343-.233s.01-.006.015-.011l2.228-2.278a.14.14,0,0,1,.178,0l2.22,2.27a.134.134,0,0,1,0,.182l-2.215,2.265,0,0-.009.009s0,.006,0,.007a1.206,1.206,0,0,0-.251.387c0,.009-.006.019-.009.028a1.239,1.239,0,0,0-.082.429c0,.009,0,.018,0,.027a1.239,1.239,0,0,0,.082.432c0,.008.008.015.011.023a1.19,1.19,0,0,0,.091.183,12.046,12.046,0,0,1,1.564,3.862s0,.007,0,.011a1.22,1.22,0,0,0,.141.351l.018.035a1.207,1.207,0,0,0,.233.265c.017.014.032.028.049.041a1.181,1.181,0,0,0,.3.169c.019.007.039.012.058.019a1.14,1.14,0,0,0,.349.062l.007,0h3.146a.127.127,0,0,1,.128.131v3.2a.127.127,0,0,1-.128.131H58c-.026,0-.051.006-.077.008a1.156,1.156,0,0,0-.151.015,1.119,1.119,0,0,0-.116.034c-.034.011-.07.019-.1.032a1.183,1.183,0,0,0-.127.066c-.025.014-.051.026-.075.041a1.228,1.228,0,0,0-.114.091c-.021.019-.045.035-.065.055a1.2,1.2,0,0,0-.092.109c-.019.024-.04.045-.057.071a1.077,1.077,0,0,0-.072.13c-.013.026-.029.05-.041.077a1.27,1.27,0,0,0-.053.164c-.006.021-.015.04-.02.061a12.045,12.045,0,0,1-1.564,3.862,1.229,1.229,0,0,0-.091.183c0,.008-.008.015-.011.023a1.239,1.239,0,0,0-.082.432c0,.009,0,.018,0,.027a1.235,1.235,0,0,0,.082.429c0,.009,0,.019.009.028a1.2,1.2,0,0,0,.251.387s0,.006,0,.007l.009.009,0,0,2.215,2.265a.133.133,0,0,1,0,.182l-2.22,2.27a.127.127,0,0,1-.178,0l-2.213-2.263-.006-.006-.007-.007-.006,0a1.188,1.188,0,0,0-.38-.258c-.009,0-.018-.006-.027-.009a1.171,1.171,0,0,0-.418-.083l-.03,0a1.164,1.164,0,0,0-.418.083c-.009,0-.016.009-.025.013a1.155,1.155,0,0,0-.178.092,11.509,11.509,0,0,1-3.777,1.6c-.021,0-.04.015-.062.021a1.29,1.29,0,0,0-.158.053c-.03.014-.057.032-.086.048a1.159,1.159,0,0,0-.115.067c-.03.022-.057.047-.085.071a1.194,1.194,0,0,0-.09.079c-.025.027-.046.057-.069.086s-.052.062-.074.1-.033.062-.05.094a1.239,1.239,0,0,0-.056.113c-.014.036-.023.075-.034.113s-.024.073-.032.112a1.121,1.121,0,0,0-.014.147c0,.029-.009.057-.009.086v3.216a.127.127,0,0,1-.128.131H43.59a.127.127,0,0,1-.128-.131V37.05c0-.029-.006-.057-.009-.086a1.275,1.275,0,0,0-.014-.147,1.061,1.061,0,0,0-.032-.112c-.011-.038-.02-.077-.034-.113a1.141,1.141,0,0,0-.056-.113c-.017-.032-.031-.064-.05-.094s-.049-.065-.074-.1-.044-.059-.069-.086a1.193,1.193,0,0,0-.09-.079,1.02,1.02,0,0,0-.085-.071,1.258,1.258,0,0,0-.115-.067c-.029-.015-.055-.034-.086-.048a1.129,1.129,0,0,0-.158-.053c-.021-.006-.04-.016-.062-.021a11.509,11.509,0,0,1-3.777-1.6,1.209,1.209,0,0,0-.181-.094l-.019-.01a1.13,1.13,0,0,0-.429-.085l-.018,0a1.171,1.171,0,0,0-.427.085l-.02.006a1.173,1.173,0,0,0-.382.259l-.006,0-.006.006-.008.008-2.213,2.263a.126.126,0,0,1-.178,0l-2.22-2.27a.133.133,0,0,1,0-.182L34.86,31.99l0,0,.009-.009s0-.006,0-.007a1.205,1.205,0,0,0,.251-.387c0-.009.006-.019.009-.028a1.239,1.239,0,0,0,.082-.429c0-.009,0-.018,0-.027a1.239,1.239,0,0,0-.082-.432c0-.008-.008-.015-.011-.023a1.191,1.191,0,0,0-.091-.183A12.045,12.045,0,0,1,33.47,26.6c0-.023-.015-.043-.021-.065a1.32,1.32,0,0,0-.051-.159c-.014-.033-.033-.063-.05-.095s-.038-.075-.061-.11-.051-.064-.077-.1a.987.987,0,0,0-.071-.083,1.091,1.091,0,0,0-.093-.079.993.993,0,0,0-.086-.068c-.034-.023-.071-.04-.106-.059s-.063-.036-.1-.05a1.159,1.159,0,0,0-.13-.041c-.03-.009-.059-.02-.09-.027a1.165,1.165,0,0,0-.16-.016c-.024,0-.046-.007-.07-.007H29.164a.127.127,0,0,1-.128-.131v-3.2Z" transform="translate(-3.862)"></path>
                                          <path id="Path_349" data-name="Path 349" d="M47.907,35.191a8.946,8.946,0,1,0-8.946-8.946A8.956,8.956,0,0,0,47.907,35.191Zm0-15.46a6.514,6.514,0,1,1-6.514,6.514A6.522,6.522,0,0,1,47.907,19.731Z" transform="translate(-6.612 -2.333)"></path>
                                        </g>
                                    </svg>