<?xml version="1.0" standalone="no"?>
<!DOCTYPE svg PUBLIC "-//W3C//DTD SVG 20010904//EN"
 "http://www.w3.org/TR/2001/REC-SVG-20010904/DTD/svg10.dtd">
<svg version="1.0" xmlns="http://www.w3.org/2000/svg"
 width="200.000000pt" height="200.000000pt" viewBox="0 0 200.000000 200.000000"
 preserveAspectRatio="xMidYMid meet">

<g transform="translate(0.000000,200.000000) scale(0.100000,-0.100000)"
fill="#000000" stroke="none">
<path d="M415 1936 c-40 -19 -341 -324 -355 -360 -7 -20 -7 -38 0 -60 12 -37
407 -436 431 -436 20 0 45 20 52 43 5 12 -6 31 -33 61 -22 24 -40 47 -40 52 0
6 25 34 55 64 55 54 67 84 43 108 -26 26 -62 13 -120 -45 l-58 -58 -37 37 -37
37 57 60 c57 60 70 94 45 119 -25 25 -59 12 -119 -45 l-60 -57 -39 39 c-22 22
-40 44 -40 50 0 13 282 295 295 295 6 0 96 -85 200 -190 132 -132 197 -190
212 -190 26 0 54 35 46 59 -10 28 -387 402 -420 417 -39 17 -40 17 -78 0z"/>
<path d="M1533 1889 c-23 -4 -56 -15 -75 -24 -37 -19 -1222 -1196 -1243 -1235
-15 -29 -115 -449 -115 -484 0 -27 18 -46 43 -46 17 0 340 72 452 101 35 9
122 92 643 612 659 659 652 650 652 762 0 95 -24 150 -94 221 -79 79 -169 111
-263 93z m135 -118 c77 -40 122 -111 122 -195 0 -48 -4 -60 -40 -105 -22 -28
-42 -51 -45 -51 -2 0 -18 27 -36 60 -40 75 -113 149 -184 186 -30 16 -55 32
-55 35 0 4 20 25 45 48 41 38 49 41 100 41 35 0 69 -7 93 -19z m-251 -181 c90
-40 193 -169 193 -240 0 -16 -11 -37 -29 -54 l-29 -28 -32 61 c-40 75 -112
148 -182 186 -29 15 -55 30 -57 32 -10 8 54 63 73 63 12 0 40 -9 63 -20z
m-116 -167 l29 -18 -411 -411 -412 -412 -32 23 c-18 12 -47 28 -64 35 -17 7
-31 15 -31 19 0 3 181 187 403 409 l403 402 43 -14 c23 -9 55 -23 72 -33z
m144 -167 c8 -20 15 -46 15 -58 0 -17 -106 -129 -400 -423 -219 -219 -401
-397 -403 -395 -3 3 -16 28 -31 57 -14 28 -31 55 -37 59 -7 4 150 167 402 420
455 455 418 427 454 340z m-1067 -711 c70 -33 143 -109 172 -180 13 -32 19
-60 14 -65 -5 -4 -40 -15 -79 -24 l-70 -15 -20 27 c-25 34 -72 82 -107 107
l-27 20 15 65 c24 106 20 103 102 65z m-103 -270 c14 -13 25 -28 25 -33 0 -10
-69 -27 -77 -19 -8 8 9 77 19 77 5 0 20 -11 33 -25z"/>
<path d="M1478 908 c-42 -35 -36 -44 167 -247 107 -108 195 -201 195 -206 0
-14 -282 -295 -296 -295 -5 0 -27 18 -49 40 l-39 39 57 60 c57 60 70 94 45
119 -25 25 -59 12 -119 -45 l-60 -57 -37 37 -37 37 58 58 c58 58 71 94 45 120
-24 24 -54 12 -108 -43 -30 -30 -59 -55 -65 -55 -6 0 -26 16 -45 35 -19 20
-44 35 -56 35 -27 0 -55 -35 -47 -59 3 -9 94 -105 202 -214 205 -206 233 -227
287 -207 39 15 342 316 361 358 11 26 12 41 3 66 -12 37 -407 436 -431 436 -8
0 -22 -6 -31 -12z"/>
</g>
</svg>
