
<!-- Generator: Adobe Illustrator 24.0.0, SVG Export Plug-In . SVG Version: 6.00 Build 0)  -->
<svg version="1.1" id="Layer_1" xmlns="http://www.w3.org/2000/svg" xmlns:xlink="http://www.w3.org/1999/xlink" x="0px" y="0px"
	 viewBox="0 0 565.8 494.5" style="enable-background:new 0 0 565.8 494.5;" xml:space="preserve">
<style type="text/css">
	.st0{fill:#FFFFFF;}
	.st1{fill:none;stroke:#111111;stroke-width:2;stroke-dasharray:11;}
	.st2{fill:#EE8D5A;}
</style>
<title>Group 39317</title>
<path class="st0" d="M0,0v494h565V0H0z M554.9,298.8c-19.2,138.5-168.8,134.2-168.8,134.2S306,399,254.7,412.8
	c-51.3-6.4-79.1,61.8-115.4,59.7c-151-20.9-165.6-279.1-104.7-345.2s166.7-24.5,239.3-92.7s148.5-14.9,166.7-12.8
	C516.5,60.2,574.2,160.3,554.9,298.8z"/>
<path id="_01" class="st1" d="M119.4,55.3c18.2-2.1,94-55.4,166.7,12.8s178.4,26.6,239.3,92.7s60.7,240.9-68.2,275
	c-36.3,2.1-88.8,1.3-158.2,0c-71.9,0-125.1,30.8-125.1,30.8S24.3,470.8,5.1,332.3S43.5,93.6,119.4,55.3z"/>
<path class="class="Rectangle_1900" class="st2" d="M114.6,426.5L114.6,426.5c18.5,0,33.5,15,33.5,33.5v1c0,18.5-15,33.5-33.5,33.5l0,0
	c-18.5,0-33.5-15-33.5-33.5v-1C81.1,441.5,96.1,426.5,114.6,426.5L114.6,426.5z"/>
</svg>
