<svg id="Layer_1" data-name="Layer 1" xmlns="http://www.w3.org/2000/svg" viewBox="0 0 567 496"><defs><style>.cls-1{fill:#fff;}.cls-2{fill:none;stroke:#111;stroke-width:2px;stroke-dasharray:11;}.cls-3{fill:#ee8d5a;}</style></defs><title>Group 39317</title><path class="cls-1" d="M0,0V496H567V0ZM556.53,300.36C537.28,439.35,387.23,435,387.23,435s-80.34-34.12-131.79-20.27c-51.45-6.42-79.33,62-115.74,59.91-151.45-21-166.09-280.09-105-346.42s167.19-24.59,240-93S423.64,20.27,441.89,22.38C518,60.91,575.89,161.37,556.53,300.36Z"/><path id="_01" data-name=" 01" class="cls-2" d="M120,56.52c18.22-2.1,94.11-55.37,166.9,12.79S465.54,95.9,526.51,162s60.78,240.78-68.28,274.86c-36.34,2.1-88.9,1.3-158.39,0-72,0-125.24,30.78-125.24,30.78s-149.78,4.2-169-134.23S44,94.8,120,56.52Z"/><path class="class="Rectangle_1900" data-name="Rectangle 1900" class="cls-3" d="M115.22,427.53h0A33.51,33.51,0,0,1,148.76,461v1a33.51,33.51,0,0,1-33.54,33.48h0A33.51,33.51,0,0,1,81.68,462v-1a33.52,33.52,0,0,1,33.54-33.49Z"/></svg>