<svg data-name="Layer 1" xmlns="http://www.w3.org/2000/svg" xmlns:xlink="http://www.w3.org/1999/xlink" viewBox="0 0 1920 170.02"><defs><style>.cls-1{fill:none;}.cls-2{clip-path:url(#clip-path);}.cls-3,.cls-6{fill:#ee8d5a;}.cls-3{fill-rule:evenodd;opacity:0.6;}.cls-4{clip-path:url(#clip-path-2);}.cls-5{clip-path:url(#clip-path-3);}</style><clipPath id="clip-path"><rect class="cls-1" width="1920" height="150"/></clipPath><clipPath id="clip-path-2"><rect class="cls-1" width="1920" height="170.02"/></clipPath><clipPath id="clip-path-3"><path class="cls-1" d="M1920-37.43V122c-141-54.74-246.62,40.85-368.19,45.16-54.53,1.94-112.26-5-177.86-33.92-230.1-101.59-279.49-2.76-444.67-9-203.13-7.69-305.34-90.36-408.62-87.31-50.45,1.49-110.88,17.14-190.38,56.22,0,0,0,0,0,0C160.41,176.64,57.94,106.43,0,102V-37.43Z"/></clipPath></defs><title>Header</title><g class="cls-2"><path id="Path_1854" data-name="Path 1854" class="cls-3" d="M0,126.22V-38.35H1920V38.56C1777.65-.77,1517.55,2.43,1383,57.25c-155.94,63.55-209,116.18-387,74.39-134.38-31.55-217.54,51.08-340.77,3-10.28-4-20.3-7.68-30.13-11-113-38.4-198.83-33.2-330.69-3h0q-12.66,2.9-25.95,6.12C134,159.31,53,151.67,0,126.22Z"/></g><rect class="cls-1" width="1920" height="178"/><g class="cls-4"><g class="cls-5"><g class="Group_37504" data-name="Group 37504"><path id="Path_2461" data-name="Path 2461" class="cls-6" d="M0,0H1920V170H0Z"/></g></g></g></svg>