<svg xmlns="http://www.w3.org/2000/svg" width="850" height="932" viewBox="0 0 850 932">
  <path id="Subtraction_1" data-name="Subtraction 1" d="M14210,20676h0v0c-.372-.26-.684-.479-.978-.691-11.323-8.2-22.926-15.885-34.484-22.842-11.206-6.742-22.682-12.988-34.109-18.561-11.069-5.4-22.423-10.33-33.748-14.662-10.914-4.176-22.153-7.922-33.4-11.143-10.782-3.084-21.909-5.775-33.07-8-10.638-2.119-21.657-3.883-32.754-5.242a526.951,526.951,0,0,0-64.616-3.74c-20.331,0-42.354.988-67.326,3.025-22.911,1.869-45.937,4.414-66.255,6.656l-1.786.2-.018,0c-21.174,2.338-43.068,4.76-64.4,6.531-23.884,1.986-44.709,2.953-63.663,2.953a467.277,467.277,0,0,1-51.329-2.648c-8.659-.951-17.25-2.184-25.534-3.668-8.626-1.545-17.191-3.408-25.458-5.539-8.587-2.211-17.13-4.785-25.394-7.646-8.53-2.951-17.055-6.311-25.338-9.988-8.527-3.785-17.037-8.012-25.292-12.566-8.476-4.67-16.973-9.84-25.257-15.373-11.752-7.85-22.779-15.99-32.777-24.193a321.527,321.527,0,0,1-26.785-24.527,251.243,251.243,0,0,1-21.14-24.715,202.339,202.339,0,0,1-15.844-24.756,170.127,170.127,0,0,1-10.895-24.652,151.911,151.911,0,0,1-6.3-24.4,145.24,145.24,0,0,1-2.046-24,147.923,147.923,0,0,1,1.856-23.455c3.326-20.854,11.111-41.637,23.14-61.775a243.944,243.944,0,0,1,43.493-53.035,293.5,293.5,0,0,1,26.955-22.219,304.841,304.841,0,0,1,29.137-18.809,292.081,292.081,0,0,1,30.348-14.994,256.919,256.919,0,0,1,30.589-10.762c77.795-21.811,130.3-56.895,160.655-82.486a316.869,316.869,0,0,0,25.412-23.871,250.665,250.665,0,0,0,19.529-23.1c10.631-14.334,18.048-28.082,21.449-39.76,1.861-6.389,7.165-23.932,16.207-48.848,8.6-23.7,17.71-46.189,27.076-66.836,11.666-25.717,23.385-47.746,34.829-65.471a232.307,232.307,0,0,1,19.349-26.174,109.52,109.52,0,0,1,20.118-18.57,194.5,194.5,0,0,1,25.866-17.316,166.155,166.155,0,0,1,25.893-11.668,153.977,153.977,0,0,1,51.125-8.656,168.212,168.212,0,0,1,21.669,1.43,187.247,187.247,0,0,1,21.149,4.051,228.22,228.22,0,0,1,40.257,14.443c22.8,10.578,45.994,25.326,68.942,43.834,9.01,7.264,18.008,15.141,26.747,23.408,6.978,6.6,13.81,13.473,20.306,20.424,11.113,11.889,17.347,19.842,17.408,19.922l.5.053Z" transform="translate(-13360 -19744.002)" fill="#faf3ed"/>
</svg>
