<svg data-name="default/facebook" xmlns="http://www.w3.org/2000/svg" width="14" height="28" viewBox="0 0 14 28">
  <g data-name="facebook-logo (1) copy 2">
    <path id="Path" d="M13.473.006,10.115,0C6.342,0,3.9,2.7,3.9,6.891v3.177H.528A.551.551,0,0,0,0,10.639v4.6a.551.551,0,0,0,.528.571H3.9V27.429A.551.551,0,0,0,4.432,28H8.837a.551.551,0,0,0,.528-.571V15.813h3.948a.551.551,0,0,0,.528-.571l0-4.6a.6.6,0,0,0-.155-.4.509.509,0,0,0-.374-.167H9.365V7.375c0-1.295.285-1.952,1.845-1.952h2.262A.551.551,0,0,0,14,4.851V.577A.551.551,0,0,0,13.473.006Z" transform="translate(0)" fill="#111"/>
  </g>
</svg>