<svg id="default_instagram" data-name="default/instagram" xmlns="http://www.w3.org/2000/svg" width="28" height="28" viewBox="0 0 28 28">
  <g id="instagram_6_copy_4" data-name="instagram (6) copy 4">
    <path id="Combined_Shape" data-name="Combined Shape" d="M8.75,28A8.76,8.76,0,0,1,0,19.25V8.75A8.759,8.759,0,0,1,8.75,0h10.5A8.76,8.76,0,0,1,28,8.75v10.5A8.761,8.761,0,0,1,19.25,28ZM2.625,8.75v10.5A6.132,6.132,0,0,0,8.75,25.375h10.5a6.132,6.132,0,0,0,6.126-6.126V8.75A6.132,6.132,0,0,0,19.25,2.625H8.75A6.132,6.132,0,0,0,2.625,8.75ZM7,14a7,7,0,1,1,7,7A7.007,7.007,0,0,1,7,14Zm2.625,0A4.375,4.375,0,1,0,14,9.625,4.38,4.38,0,0,0,9.625,14ZM19.833,6.417a1.75,1.75,0,1,1,1.75,1.75A1.751,1.751,0,0,1,19.833,6.417Z" fill="#fff"/>
  </g>
</svg>
