<svg id="noun_design_3656815" xmlns="http://www.w3.org/2000/svg" width="94" height="94" viewBox="0 0 94 94">
  <g id="pencil_ruler_cross" data-name="pencil ruler cross" transform="translate(0 0)">
    <path id="Path_378" data-name="Path 378" d="M93.4,69.091,68.348,44.053,89.486,22.93A13.039,13.039,0,0,0,71.049,4.489L49.93,25.631,24.9.573a1.957,1.957,0,0,0-2.779,0L.587,22.108a1.958,1.958,0,0,0,0,2.78L25.64,49.926C3.151,72.439,4.091,71.656,4.208,71.46c-.274.431.117-1.194-4.189,20.164a1.958,1.958,0,0,0,1.957,2.349c.2,0,20.042-3.915,20.708-4.307.372-.255,5.578-5.521,21.373-21.319C71.381,95.676,69.326,93.973,70.481,93.973s-.509,1.331,22.92-22.1a1.958,1.958,0,0,0,0-2.78ZM22.939,83.911a17.4,17.4,0,0,0-3.347-6.793L68.524,28.176l5.069,5.109ZM60.695,20.385l5.069,5.07L16.832,74.4a17.4,17.4,0,0,0-6.792-3.348ZM5.5,84.42a13.918,13.918,0,0,1,4.071,4.072L4.482,89.51Zm8.221,3.269A17.911,17.911,0,0,0,6.3,80.27L7.477,74.4A13.7,13.7,0,0,1,19.592,86.515ZM73.828,7.268a9.121,9.121,0,0,1,15.56,6.441c0,4.542-2.76,6.519-6.185,9.964l-12.9-12.9Zm-6.283,6.265,12.9,12.9-4.091,4.092-12.9-12.9ZM4.736,23.5,23.507,4.724l3.112,3.113-2.544,2.525a1.965,1.965,0,1,0,2.779,2.78L29.378,10.6l5.069,5.07-6.459,6.441a1.965,1.965,0,0,0,2.779,2.78l6.439-6.46L41.3,22.519l-2.544,2.525a1.965,1.965,0,1,0,2.779,2.78l2.525-2.545,3.112,3.113L28.4,47.166ZM70.481,89.255,46.818,65.587l18.77-18.774L68.7,49.926l-6.459,6.441a1.958,1.958,0,0,0,1.39,3.348c1.116,0,.842,0,7.829-7.028l4.091,4.092L73.006,59.3a1.958,1.958,0,0,0,1.39,3.348c1.077,0,1.351-.529,3.915-3.113l5.069,5.07-6.459,6.441A1.958,1.958,0,0,0,78.31,74.4c1.116,0,.842,0,7.829-7.028l3.112,3.113Z" transform="translate(0.02 0.006)"/>
  </g>
</svg>
