<svg id="noun_Login_1511380" xmlns="http://www.w3.org/2000/svg" width="32.092" height="36.677" viewBox="0 0 32.092 36.677">
  <path id="Path_37989" data-name="Path 37989" d="M40.839,21.5H39.255V17.47A12.327,12.327,0,0,0,27.131,5,12.369,12.369,0,0,0,14.968,17.511a.806.806,0,0,0,.792.815h2.734a.806.806,0,0,0,.792-.815,7.848,7.848,0,1,1,15.69,0v4.034H13.383a.806.806,0,0,0-.792.815v18.5a.806.806,0,0,0,.792.815H40.8a.806.806,0,0,0,.792-.815V22.32A.774.774,0,0,0,40.839,21.5ZM27.131,7.812a9.581,9.581,0,0,0-9.39,8.884H16.552A10.723,10.723,0,0,1,27.131,6.63,10.757,10.757,0,0,1,37.709,17.511v4.034H36.521V17.511A9.583,9.583,0,0,0,27.131,7.812ZM40.047,40.047H14.175V23.135H40.047ZM9.5,17.511a.806.806,0,0,1,.792-.815h1.585a.815.815,0,0,1,0,1.63H10.292A.806.806,0,0,1,9.5,17.511ZM11.124,13.8a.841.841,0,0,1,.04-1.141.786.786,0,0,1,1.109.041l1.07,1.182a.841.841,0,0,1-.04,1.141.918.918,0,0,1-.515.2.861.861,0,0,1-.594-.245ZM27.131,31.2A3.628,3.628,0,1,0,23.6,27.577,3.586,3.586,0,0,0,27.131,31.2Zm0-5.665a2,2,0,1,1-1.981,2.038A2.016,2.016,0,0,1,27.131,25.539ZM21.465,39.272H32.757a1.038,1.038,0,0,0,1.03-1.06v-.367a5.816,5.816,0,0,0-5.705-5.868H26.14a5.816,5.816,0,0,0-5.705,5.868v.367A1.064,1.064,0,0,0,21.465,39.272Zm4.675-5.665h1.941a4.186,4.186,0,0,1,4.12,4.034H22.02A4.186,4.186,0,0,1,26.14,33.608ZM12.511,20.527a.836.836,0,0,1-.436,1.06l-1.466.611a.657.657,0,0,1-.277.041.783.783,0,0,1-.713-.489.836.836,0,0,1,.436-1.06l1.466-.611A.767.767,0,0,1,12.511,20.527Z" transform="translate(-9.5 -5)" fill="#fff"/>
</svg>
