<svg xmlns="http://www.w3.org/2000/svg" width="68.58" height="70" viewBox="0 0 68.58 70">
  <g id="noun_Coffee_848419" transform="translate(-6.52 -5.627)">
    <path id="Path_2443" data-name="Path 2443" d="M37.788,16.452a5.277,5.277,0,0,0,0-7.454A1.974,1.974,0,0,1,40.58,6.205a9.229,9.229,0,0,1,0,13.031,5.277,5.277,0,0,0,0,7.454,1.974,1.974,0,1,1-2.792,2.792,9.229,9.229,0,0,1,0-13.031ZM49.62,19.394a7.146,7.146,0,0,0,0,10.1A1.974,1.974,0,0,0,52.412,26.7a3.2,3.2,0,0,1,0-4.52h0a7.139,7.139,0,0,0,0-10.1,1.974,1.974,0,1,0-2.792,2.792,3.2,3.2,0,0,1,0,4.52ZM25.956,29.49A1.974,1.974,0,0,0,28.748,26.7a3.2,3.2,0,0,1,0-4.52h0a7.146,7.146,0,0,0,0-10.1,1.974,1.974,0,0,0-2.792,2.792,3.2,3.2,0,0,1,0,4.52h0a7.146,7.146,0,0,0,0,10.089ZM6.52,73.663a1.972,1.972,0,0,1,1.956-1.98h13.78a22.086,22.086,0,0,1-8.937-11.516q-.189-.576-.363-1.167A91.619,91.619,0,0,1,9.667,40a5.4,5.4,0,0,1,1.459-4.007,5.458,5.458,0,0,1,3.944-1.7H59.432a5.458,5.458,0,0,1,3.944,1.7A5.4,5.4,0,0,1,64.835,40c-.079,1.357-.205,2.753-.371,4.165h1.167a9.458,9.458,0,1,1,.016,18.915H59.937a22.686,22.686,0,0,1-7.8,8.606h13.5a1.972,1.972,0,0,1,0,3.944H8.476A1.972,1.972,0,0,1,6.52,73.655Zm54.995-14.53H65.64a5.514,5.514,0,0,0,0-11.027h-1.7a93.867,93.867,0,0,1-2.366,10.9ZM34.98,71.517h4.536a18.931,18.931,0,0,0,18.2-13.409l.055-.181a87.556,87.556,0,0,0,3.155-18.142,1.42,1.42,0,0,0-.394-1.065,1.475,1.475,0,0,0-1.1-.458H15.086A1.475,1.475,0,0,0,14,38.727a1.42,1.42,0,0,0-.394,1.065,87.556,87.556,0,0,0,3.155,18.142q.142.509.308.994A18.7,18.7,0,0,0,34.98,71.517Z" transform="translate(0 0)"/>
  </g>
</svg>
