<svg xmlns="http://www.w3.org/2000/svg" width="94.801" height="94.823" viewBox="0 0 94.801 94.823">
  <g id="noun_business_analysis_1978585" data-name="noun_business analysis_1978585" transform="translate(-0.6 -0.617)">
    <g class="Group_37939" data-name="Group 37939" transform="translate(1 1.041)">
      <path id="Path_2182" data-name="Path 2182" d="M72.563,57.916A38.2,38.2,0,0,0,66.257,12.28C42.207-11.785,1,5.383,1,39.28A38.267,38.267,0,0,0,57.9,72.736L77.109,91.959A10.476,10.476,0,1,0,91.92,77.138ZM3.933,39.28C3.933,8.024,42.061-7.97,64.2,14.334c22.144,22.158,6.306,60.31-24.93,60.31A35.561,35.561,0,0,1,3.933,39.28ZM89.721,89.758a7.432,7.432,0,0,1-10.559,0L60.392,70.975A38.1,38.1,0,0,0,70.95,60.41L89.721,79.193A7.443,7.443,0,0,1,89.721,89.758Z" transform="translate(-1 -1.041)" fill="#111" stroke="#111" stroke-width="0.8"/>
      <path id="Path_2183" data-name="Path 2183" d="M22.637,30.5h-8.86A1.4,1.4,0,0,0,12.3,31.977v13.29a1.4,1.4,0,0,0,1.477,1.477h8.86a1.4,1.4,0,0,0,1.477-1.477V31.977A1.48,1.48,0,0,0,22.637,30.5ZM21.16,43.79H15.253V33.453H21.16Z" transform="translate(4.255 12.672)" fill="#111" stroke="#111" stroke-width="0.8"/>
      <path id="Path_2184" data-name="Path 2184" d="M33.36,25.4H25.977A1.4,1.4,0,0,0,24.5,26.877v22.15A1.4,1.4,0,0,0,25.977,50.5H33.36a1.4,1.4,0,0,0,1.477-1.477V26.877A1.48,1.48,0,0,0,33.36,25.4ZM31.883,47.55h-4.43v-19.2h4.43Z" transform="translate(9.932 10.263)" fill="#111" stroke="#111" stroke-width="0.8"/>
      <path id="Path_2185" data-name="Path 2185" d="M44.36,20.4H36.977A1.4,1.4,0,0,0,35.5,21.877V51.41a1.4,1.4,0,0,0,1.477,1.477H44.36a1.4,1.4,0,0,0,1.477-1.477V21.877A1.48,1.48,0,0,0,44.36,20.4ZM42.883,49.933h-4.43V23.353h4.43Z" transform="translate(15.05 7.914)" fill="#111" stroke="#111" stroke-width="0.8"/>
      <path id="Path_2186" data-name="Path 2186" d="M43.637,12.591,35.072,12a1.606,1.606,0,0,0-1.624,1.329,1.606,1.606,0,0,0,1.329,1.624l4.725.3L13.513,33.559a1.325,1.325,0,0,0-.3,2.067,1.325,1.325,0,0,0,2.067.3L41.127,17.611l-1.181,4.282a1.451,1.451,0,1,0,2.806.738l2.215-8.122A1.415,1.415,0,0,0,43.637,12.591Z" transform="translate(4.467 4.047)" fill="#111" stroke="#111" stroke-width="0.8"/>
    </g>
  </g>
</svg>
