<svg xmlns="http://www.w3.org/2000/svg" width="95" height="91" viewBox="0 0 95 91">
  <g id="noun_SEO_4244111" transform="translate(-1.75 -2.65)">
    <g id="_14_web_search_engine" data-name="14 web search engine" transform="translate(1.75 2.65)">
      <path id="Path_2172" data-name="Path 2172" d="M5.995,78.483V24.317H83.838v19.5h4.325V9.15a6.51,6.51,0,0,0-6.487-6.5H8.157A6.51,6.51,0,0,0,1.75,9.15V78.483a6.51,6.51,0,0,0,6.407,6.58h51.9V80.73H8.157a2.181,2.181,0,0,1-2.162-2.247Zm0-69.333A2.181,2.181,0,0,1,8.157,6.983H81.676A2.181,2.181,0,0,1,83.838,9.15V19.983H5.995ZM51.4,67.65H12.482V63.317H51.4ZM36.267,11.317h8.649V15.65H36.267Zm-25.948,0h8.649V15.65H10.319Zm12.974,0h8.649V15.65H23.293ZM12.482,71.983H51.4v4.333H12.482Zm64.95-26a19.5,19.5,0,0,0-2.242,38.872v8.8h4.325v-8.8a19.5,19.5,0,0,0-2.082-38.872Zm0,34.667A15.171,15.171,0,1,1,92.487,65.483,15.136,15.136,0,0,1,77.431,80.65Zm2.082-41.167V30.817a2.149,2.149,0,0,0-2.082-2.167H12.482a2.148,2.148,0,0,0-2.162,2.167v8.667a2.149,2.149,0,0,0,2.162,2.247h64.95a2.149,2.149,0,0,0,2.082-2.247Zm-4.325-2.167H14.644V32.983H75.189Zm-23.785,13H12.482V45.983H51.4Zm0,8.667H12.482V54.65H51.4Z" transform="translate(-1.75 -2.65)" fill="#111"/>
    </g>
  </g>
</svg>
