<svg xmlns="http://www.w3.org/2000/svg" width="34.5" height="34.5" viewBox="0 0 34.5 34.5">
  <g id="noun_Accountable_948102" transform="translate(-6.75 -6.75)">
    <g class="Group_38239" data-name="Group 38239" transform="translate(7 7)">
      <g class="Group_38238" data-name="Group 38238">
        <path id="Path_37944" data-name="Path 37944" d="M40.32,23.32H38.245a14.171,14.171,0,0,0-.822-4.144l1.915-.794a.68.68,0,0,0-.521-1.257l-1.916.794A14.291,14.291,0,0,0,34.55,14.41l1.47-1.47a.68.68,0,1,0-.962-.962l-1.47,1.47A14.306,14.306,0,0,0,30.08,11.1l.794-1.916a.68.68,0,1,0-1.257-.52l-.793,1.914a14.171,14.171,0,0,0-4.145-.822V7.68a.68.68,0,0,0-1.36,0V9.755a14.171,14.171,0,0,0-4.144.822l-.792-1.915a.68.68,0,0,0-1.257.52L17.92,11.1a14.31,14.31,0,0,0-3.509,2.351l-1.47-1.47a.68.68,0,0,0-.962.962l1.47,1.47A14.31,14.31,0,0,0,11.1,17.919l-1.915-.794a.68.68,0,1,0-.521,1.257l1.914.794a14.167,14.167,0,0,0-.822,4.144H7.68a.68.68,0,0,0,0,1.36H9.755a14.18,14.18,0,0,0,.822,4.145l-1.914.792a.68.68,0,1,0,.52,1.257l1.916-.794a14.291,14.291,0,0,0,2.351,3.509l-1.47,1.47a.68.68,0,1,0,.962.962l1.47-1.47A14.3,14.3,0,0,0,17.92,36.9l-.794,1.916a.68.68,0,1,0,1.256.521l.793-1.915a14.167,14.167,0,0,0,4.144.822V40.32a.68.68,0,0,0,1.36,0V38.245a14.176,14.176,0,0,0,4.145-.822l.793,1.914a.68.68,0,1,0,1.257-.521L30.08,36.9a14.291,14.291,0,0,0,3.509-2.351l1.47,1.47a.68.68,0,0,0,.962-.962l-1.47-1.47A14.285,14.285,0,0,0,36.9,30.08l1.916.793a.68.68,0,1,0,.521-1.257l-1.915-.793a14.167,14.167,0,0,0,.822-4.144H40.32a.68.68,0,1,0,0-1.359ZM24,36.92A12.92,12.92,0,1,1,36.92,24,12.934,12.934,0,0,1,24,36.92Z" transform="translate(-7 -7)" fill="#fff" stroke="#fff" stroke-width="0.5"/>
        <path id="Path_37945" data-name="Path 37945" d="M30.468,25.936A3.468,3.468,0,1,0,27,22.468,3.472,3.472,0,0,0,30.468,25.936Zm0-5.549a2.081,2.081,0,1,1-2.081,2.081A2.083,2.083,0,0,1,30.468,20.387Z" transform="translate(-13.468 -10.881)" fill="#fff" stroke="#fff" stroke-width="0.5"/>
        <path id="Path_37946" data-name="Path 37946" d="M32.016,31H26.468A3.472,3.472,0,0,0,23,34.468v4.161a.694.694,0,1,0,1.387,0V34.468a2.083,2.083,0,0,1,2.081-2.081h5.549A2.083,2.083,0,0,1,34.1,34.468v4.161a.694.694,0,1,0,1.387,0V34.468A3.472,3.472,0,0,0,32.016,31Z" transform="translate(-12.242 -14.783)" fill="#fff" stroke="#fff" stroke-width="0.5"/>
      </g>
    </g>
  </g>
</svg>
