<svg xmlns="http://www.w3.org/2000/svg" width="30.762" height="34" viewBox="0 0 30.762 34">
  <g id="noun_team_work_1479379" data-name="noun_team work_1479379" transform="translate(-12 -8)">
    <g class="Group_38242" data-name="Group 38242" transform="translate(12 8)">
      <path id="Path_37952" data-name="Path 37952" d="M27.381,8a3.234,3.234,0,0,0-1.24,6.223,5.263,5.263,0,0,0-4.022,5.11v3.643H32.643V19.333a5.263,5.263,0,0,0-4.022-5.11A3.234,3.234,0,0,0,27.381,8Zm0,1.619a1.619,1.619,0,1,1-1.619,1.619A1.607,1.607,0,0,1,27.381,9.619Zm0,6.071a3.617,3.617,0,0,1,3.643,3.643v2.024H23.738V19.333A3.617,3.617,0,0,1,27.381,15.69ZM26.571,25v4.022L22.5,31.615l.86,1.366,4.022-2.555L31.4,32.981l.86-1.366L28.19,29.022V25Zm-9.31,2.024a3.237,3.237,0,0,0-1.252,6.223A5.265,5.265,0,0,0,12,38.357V42H22.524V38.357a5.265,5.265,0,0,0-4.01-5.11,3.237,3.237,0,0,0-1.252-6.223Zm20.238,0a3.237,3.237,0,0,0-1.252,6.223,5.265,5.265,0,0,0-4.01,5.11V42H42.762V38.357a5.265,5.265,0,0,0-4.01-5.11A3.237,3.237,0,0,0,37.5,27.024ZM17.262,28.643a1.619,1.619,0,1,1-1.619,1.619A1.607,1.607,0,0,1,17.262,28.643Zm20.238,0a1.619,1.619,0,1,1-1.619,1.619A1.607,1.607,0,0,1,37.5,28.643ZM17.262,34.714A3.617,3.617,0,0,1,20.9,38.357v2.024H13.619V38.357A3.617,3.617,0,0,1,17.262,34.714Zm20.238,0a3.617,3.617,0,0,1,3.643,3.643v2.024H33.857V38.357A3.617,3.617,0,0,1,37.5,34.714Z" transform="translate(-12 -8)" fill="#fff"/>
    </g>
  </g>
</svg>
