<svg xmlns="http://www.w3.org/2000/svg" width="30.502" height="32.512" viewBox="0 0 30.502 32.512">
  <g id="noun_person_3747970" transform="translate(0.252 0.25)">
    <path id="Path_2532" data-name="Path 2532" d="M25.88,23.731a9.152,9.152,0,0,0,5.9-10.249,9.473,9.473,0,0,0-18.539,0,9.152,9.152,0,0,0,5.9,10.249A14.878,14.878,0,0,0,7.519,36.881a.956.956,0,0,0,.4.9,1.013,1.013,0,0,0,1,.09.967.967,0,0,0,.567-.812h0a12.924,12.924,0,0,1,13.02-11.775,12.924,12.924,0,0,1,13.02,11.775.982.982,0,0,0,.983.887H36.6a.992.992,0,0,0,.678-.333.942.942,0,0,0,.232-.7A14.877,14.877,0,0,0,25.88,23.731ZM15.071,15.156a7.445,7.445,0,0,1,14.885.012,7.445,7.445,0,0,1-14.885-.012Z" transform="translate(-7.512 -5.963)" fill="#e53637" stroke="#e53637" stroke-width="0.5"/>
  </g>
</svg>
