<svg xmlns="http://www.w3.org/2000/svg" width="34" height="34" viewBox="0 0 34 34">
  <g id="noun_Settings_4277741" transform="translate(-0.994 -0.995)">
    <g class="Group_38241" data-name="Group 38241" transform="translate(0.995 0.995)">
      <g class="Group_38240" data-name="Group 38240">
        <path id="Path_37947" data-name="Path 37947" d="M53.763,228.107A3.4,3.4,0,0,0,50.486,225h-.049c-.309,0-.619,0-.928.012h0a3.387,3.387,0,0,0-3.263,3.066c-.027.189-.045.392-.061.589a1.135,1.135,0,0,1-.715.957,10.115,10.115,0,0,0-.991.4l0,0a1.122,1.122,0,0,1-1.2-.16l-.433-.35a3.4,3.4,0,0,0-4.517.117l-.035.034c-.216.222-.435.441-.648.665l0,0a3.387,3.387,0,0,0-.14,4.475c.114.153.246.308.373.46a1.132,1.132,0,0,1,.173,1.182,9.669,9.669,0,0,0-.419.983s0,0,0,0a1.124,1.124,0,0,1-.96.734l-.554.058A3.4,3.4,0,0,0,33,241.5c0,.016,0,.033,0,.049,0,.309,0,.619.012.928v0a3.387,3.387,0,0,0,3.066,3.263c.189.027.392.045.589.061a1.135,1.135,0,0,1,.957.715,10.114,10.114,0,0,0,.4.991s0,0,0,0a1.122,1.122,0,0,1-.16,1.2l-.35.433a3.4,3.4,0,0,0,.117,4.517l.034.035c.222.216.441.435.665.648l0,0a3.387,3.387,0,0,0,4.475.14c.153-.114.308-.246.46-.373a1.132,1.132,0,0,1,1.182-.173,9.676,9.676,0,0,0,.983.419l0,0a1.124,1.124,0,0,1,.734.96l.058.554a3.4,3.4,0,0,0,3.278,3.111h.049c.309,0,.619,0,.928-.012h0a3.387,3.387,0,0,0,3.263-3.066c.027-.189.045-.392.061-.589a1.135,1.135,0,0,1,.715-.957,10.115,10.115,0,0,0,.991-.4l0,0a1.122,1.122,0,0,1,1.2.16l.433.35a3.4,3.4,0,0,0,4.517-.117l.035-.034c.216-.222.435-.441.648-.665l0,0a3.387,3.387,0,0,0,.14-4.475c-.114-.153-.246-.308-.373-.46a1.132,1.132,0,0,1-.173-1.182,9.669,9.669,0,0,0,.419-.983s0,0,0,0a1.124,1.124,0,0,1,.96-.734l.554-.058a3.4,3.4,0,0,0,3.111-3.278c0-.016,0-.033,0-.049,0-.309,0-.619-.012-.928v0a3.387,3.387,0,0,0-3.066-3.263c-.189-.027-.392-.045-.589-.061a1.135,1.135,0,0,1-.957-.715,10.113,10.113,0,0,0-.4-.991s0,0,0,0a1.122,1.122,0,0,1,.16-1.2l.35-.433a3.4,3.4,0,0,0-.117-4.517l-.034-.035c-.222-.216-.441-.435-.665-.648l0,0a3.387,3.387,0,0,0-4.475-.14c-.153.114-.308.246-.46.373a1.132,1.132,0,0,1-1.182.173,9.676,9.676,0,0,0-.983-.419l0,0a1.124,1.124,0,0,1-.734-.96Zm-2.258.19.062.6a3.382,3.382,0,0,0,2.213,2.853,7.332,7.332,0,0,1,.75.318c.009.006.018.009.027.014a3.4,3.4,0,0,0,3.629-.482l.433-.351a1.124,1.124,0,0,1,1.491.039c.207.2.409.4.613.6a1.133,1.133,0,0,1,.025,1.491l-.38.468a3.382,3.382,0,0,0-.452,3.582,7.351,7.351,0,0,1,.3.756l.01.028a3.4,3.4,0,0,0,2.907,2.225l.554.059a1.122,1.122,0,0,1,1.026,1.081c.008.285.008.571.011.857a1.132,1.132,0,0,1-1.037,1.072l-.6.062a3.382,3.382,0,0,0-2.853,2.213,7.334,7.334,0,0,1-.318.75.3.3,0,0,0-.014.027,3.4,3.4,0,0,0,.482,3.629l.351.433a1.124,1.124,0,0,1-.039,1.491c-.2.207-.4.409-.6.613a1.133,1.133,0,0,1-1.491.025l-.468-.38a3.382,3.382,0,0,0-3.582-.452,7.35,7.35,0,0,1-.756.3l-.028.01a3.4,3.4,0,0,0-2.225,2.907l-.059.554a1.122,1.122,0,0,1-1.081,1.026c-.286.008-.571.008-.857.011a1.132,1.132,0,0,1-1.072-1.037l-.062-.6a3.382,3.382,0,0,0-2.213-2.853,7.332,7.332,0,0,1-.75-.318c-.009-.006-.018-.009-.027-.014a3.4,3.4,0,0,0-3.629.482l-.433.351a1.124,1.124,0,0,1-1.491-.039c-.207-.2-.409-.4-.613-.6a1.133,1.133,0,0,1-.025-1.491l.38-.468a3.382,3.382,0,0,0,.452-3.582,7.352,7.352,0,0,1-.3-.756l-.01-.028a3.4,3.4,0,0,0-2.907-2.225l-.554-.059a1.122,1.122,0,0,1-1.026-1.081c-.008-.285-.008-.571-.011-.857a1.132,1.132,0,0,1,1.037-1.072l.6-.062a3.382,3.382,0,0,0,2.853-2.213,7.333,7.333,0,0,1,.318-.75.3.3,0,0,0,.014-.027A3.4,3.4,0,0,0,39.6,233.8l-.351-.433a1.124,1.124,0,0,1,.039-1.491c.2-.207.4-.409.6-.613a1.133,1.133,0,0,1,1.491-.025l.468.38a3.382,3.382,0,0,0,3.582.452,7.35,7.35,0,0,1,.756-.3l.028-.01a3.4,3.4,0,0,0,2.225-2.907l.059-.554a1.122,1.122,0,0,1,1.081-1.026c.286-.008.571-.008.857-.011A1.132,1.132,0,0,1,51.505,228.3Z" transform="translate(-32.995 -224.995)" fill="#fff" fill-rule="evenodd"/>
        <path id="Path_37948" data-name="Path 37948" d="M48,233a7,7,0,1,0,7,7A7,7,0,0,0,48,233Zm0,2a5,5,0,1,1-5,5A5,5,0,0,1,48,235Z" transform="translate(-31 -223)" fill="#fff" fill-rule="evenodd"/>
      </g>
    </g>
  </g>
</svg>
