<svg xmlns="http://www.w3.org/2000/svg" width="78.873" height="98.361" viewBox="0 0 78.873 98.361">
  <g id="noun_branding_902058" transform="translate(-15.152 -7.988)">
    <path id="Path_2173" data-name="Path 2173" d="M21,25.526A44.777,44.777,0,0,1,51.771,10.071c18.787-1.155,31.079,10.4,33.058,12.36" transform="translate(0.478 0)" fill="none" stroke="#111" stroke-linecap="round" stroke-miterlimit="10" stroke-width="4"/>
    <path id="Path_2174" data-name="Path 2174" d="M18.42,42.679c2-3.373,13.733-22.444,33.636-24.153,20.6-1.767,34.025,16.322,36.188,19.325" transform="translate(0.078 1.305)" fill="none" stroke="#111" stroke-linecap="round" stroke-miterlimit="10" stroke-width="4"/>
    <path id="Path_2175" data-name="Path 2175" d="M19.06,53.589a43.53,43.53,0,0,0,7.289-6.774c3.742-4.38,4.234-6.774,6.705-9.923,5.584-7.169,14.154-9.325,15.447-9.63,11.923-2.834,21.534,3.511,22.3,4.03A27.926,27.926,0,0,1,82.884,53.16c.137,8.094-4.222,11.368-2.483,18.83a21.68,21.68,0,0,0,6.865,10.928" transform="translate(0.177 2.566)" fill="none" stroke="#111" stroke-linecap="round" stroke-miterlimit="10" stroke-width="4"/>
    <path id="Path_2176" data-name="Path 2176" d="M18.81,66.731A54.26,54.26,0,0,0,31.764,53.783C36.5,47.037,36.92,42.948,42.248,39.067A20.21,20.21,0,0,1,54.916,35,20.1,20.1,0,0,1,70.477,43.93c7.077,11.251-4.15,23.368,2.767,36.778a24.986,24.986,0,0,0,8.586,9.241" transform="translate(0.138 2.571)" fill="none" stroke="#111" stroke-linecap="round" stroke-miterlimit="10" stroke-width="4"/>
    <path id="Path_2177" data-name="Path 2177" d="M17.92,78.431c12.533-8.143,19.637-16.553,23.83-22.8,3.373-5.036,6.3-10.869,11.909-11.62A11.054,11.054,0,0,1,64.54,49.6c1.513,3.1.924,7.035-2.507,13.388-7.208,13.364-19.845,24.1-30.587,31.488" transform="translate(0 3.958)" fill="none" stroke="#111" stroke-linecap="round" stroke-miterlimit="10" stroke-width="4"/>
    <path id="Path_2178" data-name="Path 2178" d="M21.1,87.179A119.277,119.277,0,0,0,43.752,67.612,118.745,118.745,0,0,0,54.933,53" transform="translate(0.493 5.363)" fill="none" stroke="#111" stroke-linecap="round" stroke-miterlimit="10" stroke-width="4"/>
    <path id="Path_2179" data-name="Path 2179" d="M79.43,40.95a43.074,43.074,0,0,1,1.328,31.038" transform="translate(8.891 4.074)" fill="none" stroke="#111" stroke-linecap="round" stroke-miterlimit="10" stroke-width="4"/>
    <path id="Path_2180" data-name="Path 2180" d="M57.313,71.13a16.472,16.472,0,0,0-.739,10.592,16.864,16.864,0,0,0,8.236,10.153" transform="translate(5.476 8.175)" fill="none" stroke="#111" stroke-linecap="round" stroke-miterlimit="10" stroke-width="4"/>
    <path id="Path_2181" data-name="Path 2181" d="M37.66,91.274a28.126,28.126,0,0,1,5.152-4.124c2.772-1.721,4.62-2.911,6.619-2.645,3.061.4,5.6,4.251,6.619,9.241" transform="translate(2.799 10.244)" fill="none" stroke="#111" stroke-linecap="round" stroke-miterlimit="10" stroke-width="4"/>
  </g>
</svg>
