<svg xmlns="http://www.w3.org/2000/svg" width="44.961" height="26.536" viewBox="0 0 44.961 26.536">
  <g id="noun_commitment_2152483" transform="translate(-1.814 -16.206)">
    <path id="Path_37949" data-name="Path 37949" d="M46.549,30.673,41.23,16.8a.668.668,0,0,0-.871-.4L34.68,18.686a.688.688,0,0,0-.375.373.73.73,0,0,0-.01.54l.347.92-2.583.724-3.8-1.33a7.255,7.255,0,0,0-5.217.167,2.75,2.75,0,0,0-1.3-.556,3.63,3.63,0,0,0-2.386.5L16.1,21.936l-1.36-.7.5-1.047a.731.731,0,0,0,.036-.539.694.694,0,0,0-.342-.407l-5.458-2.8a.663.663,0,0,0-.9.312L2.073,30.081a.718.718,0,0,0,.3.946l5.494,2.911a.652.652,0,0,0,.518.042.687.687,0,0,0,.393-.353l.416-.864,1.845,1.2a2.1,2.1,0,0,0-.043.832,2.04,2.04,0,0,0,.79,1.338l.475.357a1.915,1.915,0,0,0,1.157.389h.007a2.377,2.377,0,0,0,.038.36,2.157,2.157,0,0,0,.909,1.374,2,2,0,0,0,1.114.336c.05,0,.1-.016.148-.02,0,.047,0,.094,0,.141a2.131,2.131,0,0,0,.791,1.412,1.981,1.981,0,0,0,1.229.423,2.092,2.092,0,0,0,.661-.122,2.282,2.282,0,0,0,.708.955,2.13,2.13,0,0,0,1.31.464,1.787,1.787,0,0,0,1.46-.72l.357-.486a5.918,5.918,0,0,0,3.464,1.6,2.711,2.711,0,0,0,.538-.053,2.867,2.867,0,0,0,1.978-1.649,2.733,2.733,0,0,0,.583.071h.01A3.5,3.5,0,0,0,31.6,38.953a2.818,2.818,0,0,0,.649.087c.055,0,.111,0,.166-.006,1.1-.072,2-.827,2.7-2.231a2.418,2.418,0,0,0,.364.052l.089,0a2.049,2.049,0,0,0,1.641-.821,3.479,3.479,0,0,0,.9-2.476A2.569,2.569,0,0,0,38,33.026l1.218-.382.353.936a.69.69,0,0,0,.361.389.651.651,0,0,0,.519.007l5.725-2.389A.713.713,0,0,0,46.549,30.673ZM7.87,32.362,3.584,30.091l5.9-12.076,4.249,2.179-.506,1.051h0Zm4.7,2.625a.635.635,0,0,1-.246-.415.643.643,0,0,1,.111-.469.612.612,0,0,1,.872-.14l.474.356a.636.636,0,0,1,.246.416.643.643,0,0,1-.111.469.612.612,0,0,1-.872.14Zm2.522,2.434a.756.756,0,0,1-.315-.485,1.049,1.049,0,0,1,.146-.759l.383-.614A.863.863,0,0,1,16.49,35.2a.755.755,0,0,1,.315.485,1.049,1.049,0,0,1-.146.759l-.383.614A.863.863,0,0,1,15.095,37.422Zm2.142,1.93a.719.719,0,0,1-.264-.479.909.909,0,0,1,.176-.658l1.284-1.749a.78.78,0,0,1,1.1-.221.718.718,0,0,1,.264.478.911.911,0,0,1-.175.659l-.09.122h0l-1.02,1.388h0l-.174.236A.78.78,0,0,1,17.237,39.351Zm2.6,1.256a.831.831,0,0,1-.322-.531.452.452,0,0,1,.072-.329l.98-1.335.039-.053a.458.458,0,0,1,.381-.171.876.876,0,0,1,.826.716.452.452,0,0,1-.072.329l-1.02,1.388A.636.636,0,0,1,19.834,40.607Zm16.332-5.47a.719.719,0,0,1-.639.313c-1.389-.055-3.767-2.8-4.941-4.524a.659.659,0,0,0-.942-.167.722.722,0,0,0-.16.981,17.838,17.838,0,0,0,4.368,4.546c-.447.855-.959,1.308-1.524,1.345-1.585.118-3.709-2.8-4.321-3.832a.66.66,0,0,0-.93-.228.721.721,0,0,0-.219.968A12.954,12.954,0,0,0,30.33,38.4a2.113,2.113,0,0,1-1.612,1.153h-.006c-1.353,0-2.8-2.068-3.251-2.865a.66.66,0,0,0-.923-.255.719.719,0,0,0-.246.961,9.366,9.366,0,0,0,2.579,2.942,1.5,1.5,0,0,1-.977.822c-.953.193-2.211-.676-2.942-1.307a1.915,1.915,0,0,0,.2-1.138,2.257,2.257,0,0,0-.849-1.464,2.14,2.14,0,0,0-1.156-.454,2.331,2.331,0,0,0-.009-.264,2.128,2.128,0,0,0-.791-1.411,2.041,2.041,0,0,0-2.335-.108,2.113,2.113,0,0,0-.792-.993,2.061,2.061,0,0,0-2.054-.116,2.01,2.01,0,0,0-.589-.723l-.474-.356a1.914,1.914,0,0,0-2.285-.014L9.8,31.5l4.335-9,1.69.865a.652.652,0,0,0,.631-.019l3.562-2.094a2.334,2.334,0,0,1,1.52-.333h0a6.88,6.88,0,0,0-2.4,3.13c-.865,2.327.18,3.579.859,3.918a2.488,2.488,0,0,0,2.125.135,3.91,3.91,0,0,0,1.894-2.346,1.055,1.055,0,0,1,.549-.6,1.014,1.014,0,0,1,.895.017l4.109,2.1a16.133,16.133,0,0,1,4.431,3.347,28.037,28.037,0,0,0,2.185,2.089,1.489,1.489,0,0,1,.578.979A2.128,2.128,0,0,1,36.167,35.137ZM37.212,31.8c-.059-.058-.108-.12-.173-.175a26.71,26.71,0,0,1-2.078-1.987,17.494,17.494,0,0,0-4.8-3.627l-4.109-2.1a2.311,2.311,0,0,0-2.042-.04,2.43,2.43,0,0,0-1.261,1.384A2.707,2.707,0,0,1,21.609,26.8a1.213,1.213,0,0,1-1.023-.094c-.084-.048-.8-.518-.194-2.147A5.541,5.541,0,0,1,22.714,21.8a5.975,5.975,0,0,1,5.112-.553l3.994,1.4a.652.652,0,0,0,.391.013l2.926-.82,3.581,9.492Zm3.364.6L35.8,19.744l4.422-1.776,4.821,12.573Z" transform="translate(0 0)" fill="#fff" stroke="#fff" stroke-width="0.3"/>
    <path id="Path_37950" data-name="Path 37950" d="M9.078,33.467a.673.673,0,0,0-.734,1.1.707.707,0,0,0,.478.2.679.679,0,0,0,.673-.673.685.685,0,0,0-.2-.478A.662.662,0,0,0,9.078,33.467Z" transform="translate(-2.009 -5.025)" fill="#fff" stroke="#fff" stroke-width="0.3"/>
    <path id="Path_37951" data-name="Path 37951" d="M61.033,34.76a.671.671,0,0,0,.471-1.151.661.661,0,0,0-.727-.141.625.625,0,0,0-.222.141.683.683,0,0,0,0,.956A.707.707,0,0,0,61.033,34.76Z" transform="translate(-18.907 -5.025)" fill="#fff" stroke="#fff" stroke-width="0.3"/>
  </g>
</svg>
