<svg xmlns="http://www.w3.org/2000/svg" width="33" height="26" viewBox="0 0 33 26">
  <path id="Path" d="M29.608,6.48c.021.284.021.569.021.853A18.812,18.812,0,0,1,10.386,26,19.543,19.543,0,0,1,0,23.055a14.419,14.419,0,0,0,1.633.081,13.813,13.813,0,0,0,8.4-2.8,6.753,6.753,0,0,1-6.324-4.55,8.786,8.786,0,0,0,1.277.1,7.361,7.361,0,0,0,1.78-.223A6.615,6.615,0,0,1,1.34,9.222V9.141A6.971,6.971,0,0,0,4.4,9.973,6.508,6.508,0,0,1,1.382,4.509,6.364,6.364,0,0,1,2.3,1.2,19.427,19.427,0,0,0,16.249,8.064a7.194,7.194,0,0,1-.168-1.5A6.661,6.661,0,0,1,22.845,0a6.846,6.846,0,0,1,4.942,2.072A13.568,13.568,0,0,0,32.079.488,6.583,6.583,0,0,1,29.105,4.1,13.889,13.889,0,0,0,33,3.088,14.309,14.309,0,0,1,29.608,6.48Z" fill="#111"/>
</svg>
