<svg xmlns="http://www.w3.org/2000/svg" width="22.857" height="32" viewBox="0 0 22.857 32">
  <path id="path7" d="M6.65,32.344l6.674-5.362a1.926,1.926,0,0,1,2.206,0l6.679,5.362A2.654,2.654,0,0,0,23.855,33a1.844,1.844,0,0,0,.83-.2,2.431,2.431,0,0,0,1.173-2.3V4.54A3.49,3.49,0,0,0,22.429,1h-16A3.49,3.49,0,0,0,3,4.54V30.5a2.43,2.43,0,0,0,1.17,2.3A2.283,2.283,0,0,0,6.65,32.344ZM5.286,4.54A1.162,1.162,0,0,1,6.429,3.36h16a1.164,1.164,0,0,1,1.143,1.18V30.449l-6.638-5.331a4.139,4.139,0,0,0-5.01,0L5.286,30.449Z" transform="translate(-3 -1)" fill="#111"/>
</svg>
