<svg xmlns="http://www.w3.org/2000/svg" width="36.274" height="41.995" viewBox="0 0 36.274 41.995">
  <g id="Group_39198" data-name="Group 39198" transform="translate(-1381.965 -1283.246)">
    <path id="Path_38696" data-name="Path 38696" d="M8.131,17.141l16,22.558a.739.739,0,0,0,.144.148c.014.011.03.02.045.03a.768.768,0,0,0,.153.081c.02.008.04.016.061.022a.711.711,0,0,0,.456,0c.021-.006.041-.014.061-.022a.767.767,0,0,0,.153-.081c.015-.01.031-.019.045-.03A.739.739,0,0,0,25.4,39.7l16-22.558a.7.7,0,0,0,.038-.757l-4.572-8A.767.767,0,0,0,36.194,8H13.334a.767.767,0,0,0-.669.379l-4.572,8A.7.7,0,0,0,8.131,17.141Zm12.253.319h8.761L24.764,35.987Zm10.324,0H39.33L26.4,35.692Zm-5.943-7.377L28.71,16H20.818ZM19.388,15.44,14.83,9.455h8.545Zm6.764-5.985H34.7L30.14,15.44Zm-3.02,26.237L10.2,17.46h8.622ZM39.482,16H31.595L36.1,10.086ZM13.426,10.086,17.934,16H10.046Z" transform="translate(1375.33 1285.223)"/>
    <rect id="Rectangle_17772" data-name="Rectangle 17772" width="1.341" height="6.706" transform="translate(1417.227 1284.299) rotate(41)"/>
    <rect id="Rectangle_17773" data-name="Rectangle 17773" width="1.341" height="6.706" transform="translate(1387.377 1289.36) rotate(139)"/>
    <rect id="Rectangle_17774" data-name="Rectangle 17774" width="1.341" height="6.706" transform="translate(1399.102 1283.246)"/>
  </g>
</svg>
