<svg xmlns="http://www.w3.org/2000/svg" viewBox="0 0 28 35" x="0px" y="0px"><title>Design</title><g data-name="Layer 2"><path d="M26,2.5H2a.5.5,0,0,0-.5.5V19a.5.5,0,0,0,.5.5h9.36l-.76,3.04A2.5,2.5,0,0,0,8.5,25a.5.5,0,0,0,.5.5H19a.5.5,0,0,0,.5-.5,2.5,2.5,0,0,0-2.1-2.46l-.76-3.04H26a.5.5,0,0,0,.5-.5V3A.5.5,0,0,0,26,2.5Zm-.5,1v13H2.5V3.5Zm-7.086,21H9.585A1.5,1.5,0,0,1,11,23.5h6A1.5,1.5,0,0,1,18.414,24.5Zm-2.055-2H11.64l.751-3h3.218ZM2.5,18.5v-1h23v1Z"/><path d="M9,12.167h2.884a3.824,3.824,0,1,0,4.283-4.283V5a.5.5,0,0,0-.5-.5H9a.5.5,0,0,0-.5.5v6.667A.5.5,0,0,0,9,12.167Zm9.5-.5a2.83,2.83,0,0,1-5.616.5h2.783a.5.5,0,0,0,.5-.5V8.884A2.833,2.833,0,0,1,18.5,11.667Zm-5.616-.5a2.831,2.831,0,0,1,2.283-2.283v2.283ZM9.5,5.5h5.667V7.884a3.815,3.815,0,0,0-3.283,3.283H9.5Z"/></g><text x="0" y="43" fill="#000000" font-size="5px" font-weight="bold" font-family="'Helvetica Neue', Helvetica, Arial-Unicode, Arial, Sans-serif">Created by Ilham Fitrotul Hayat</text><text x="0" y="48" fill="#000000" font-size="5px" font-weight="bold" font-family="'Helvetica Neue', Helvetica, Arial-Unicode, Arial, Sans-serif">from the Noun Project</text></svg>