<svg xmlns="http://www.w3.org/2000/svg" width="76" height="70" viewBox="0 0 76 70">
                                            <g id="noun_design_4269864" transform="translate(-1.5 -2.5)">
                                            <g id="Layer_2" data-name="Layer 2" transform="translate(1.5 2.5)">
                                                <path id="Path_354" data-name="Path 354" d="M75.98,2.5H3.02A1.521,1.521,0,0,0,1.5,4.022v48.7a1.521,1.521,0,0,0,1.52,1.522H31.474l-2.31,9.252a7.606,7.606,0,0,0-6.384,7.487A1.521,1.521,0,0,0,24.3,72.5H54.7a1.521,1.521,0,0,0,1.52-1.522,7.606,7.606,0,0,0-6.384-7.487l-2.31-9.252H75.98a1.521,1.521,0,0,0,1.52-1.522V4.022A1.521,1.521,0,0,0,75.98,2.5ZM74.46,5.543V45.109H4.54V5.543ZM52.919,69.457H26.078a4.56,4.56,0,0,1,4.3-3.043H48.62a4.56,4.56,0,0,1,4.3,3.043ZM46.671,63.37H32.326l2.283-9.13h9.783ZM4.54,51.2V48.152H74.46V51.2Z" transform="translate(-1.5 -2.5)" fill="#FFF"></path>
                                                <path id="Path_355" data-name="Path 355" d="M10.073,28.614h9.071A12.027,12.027,0,1,0,32.614,15.143V6.073A1.573,1.573,0,0,0,31.042,4.5H10.073A1.573,1.573,0,0,0,8.5,6.073V27.042A1.573,1.573,0,0,0,10.073,28.614Zm29.879-1.573a8.9,8.9,0,0,1-17.664,1.573h8.753a1.573,1.573,0,0,0,1.573-1.573V18.289A8.91,8.91,0,0,1,39.952,27.042ZM22.289,25.469a8.9,8.9,0,0,1,7.181-7.181v7.181ZM11.645,7.645H29.469v7.5A12,12,0,0,0,19.143,25.469h-7.5Z" transform="translate(12.201 1.79)" fill="#FFF"></path>
                                            </g>
                                            </g>
                                        </svg>