<svg xmlns="http://www.w3.org/2000/svg" viewBox="0 0 48 60" x="0px" y="0px"><title>pencil ruler cross</title><g data-name="pencil ruler cross"><path d="M47.71,35.29,34.91,22.5l10.8-10.79a6.66,6.66,0,0,0-9.42-9.42L25.5,13.09,12.71.29a1,1,0,0,0-1.42,0l-11,11a1,1,0,0,0,0,1.42L13.09,25.5C1.6,37,2.08,36.6,2.14,36.5,2,36.72,2.2,35.89,0,46.8A1,1,0,0,0,1,48c.1,0,10.24-2,10.58-2.2.19-.13,2.85-2.82,10.92-10.89C36.46,48.87,35.41,48,36,48s-.26.68,11.71-11.29A1,1,0,0,0,47.71,35.29Zm-36,7.57A8.89,8.89,0,0,0,10,39.39l25-25L37.59,17ZM31,10.41,33.59,13l-25,25a8.89,8.89,0,0,0-3.47-1.71ZM2.8,43.12A7.11,7.11,0,0,1,4.88,45.2l-2.6.52ZM7,44.79A9.15,9.15,0,0,0,3.21,41l.6-3A7,7,0,0,1,10,44.19ZM37.71,3.71A4.66,4.66,0,0,1,45.66,7c0,2.32-1.41,3.33-3.16,5.09L35.91,5.5ZM34.5,6.91l6.59,6.59L39,15.59,32.41,9ZM2.41,12,12,2.41,13.59,4l-1.3,1.29a1,1,0,0,0,1.42,1.42L15,5.41,17.59,8l-3.3,3.29a1,1,0,0,0,1.42,1.42L19,9.41l2.09,2.09-1.3,1.29a1,1,0,0,0,1.42,1.42l1.29-1.3,1.59,1.59L14.5,24.09ZM36,45.59,23.91,33.5l9.59-9.59,1.59,1.59-3.3,3.29a1,1,0,0,0,.71,1.71c.57,0,.43,0,4-3.59L38.59,29l-1.3,1.29A1,1,0,0,0,38,32c.55,0,.69-.27,2-1.59L42.59,33l-3.3,3.29A1,1,0,0,0,40,38c.57,0,.43,0,4-3.59L45.59,36Z"/></g><text x="0" y="63" fill="#000000" font-size="5px" font-weight="bold" font-family="'Helvetica Neue', Helvetica, Arial-Unicode, Arial, Sans-serif">Created by tezar tantular</text><text x="0" y="68" fill="#000000" font-size="5px" font-weight="bold" font-family="'Helvetica Neue', Helvetica, Arial-Unicode, Arial, Sans-serif">from the Noun Project</text></svg>