<svg xmlns="http://www.w3.org/2000/svg" width="52.668" height="52.668" viewBox="0 0 52.668 52.668">
  <path id="phone" d="M42.111,31.948v6.022a4.019,4.019,0,0,1-4.384,4.014A39.852,39.852,0,0,1,20.37,35.821,39.179,39.179,0,0,1,8.3,23.778a39.672,39.672,0,0,1-6.174-17.4A4.018,4.018,0,0,1,6.13,2h6.034a4.02,4.02,0,0,1,4.022,3.452,25.731,25.731,0,0,0,1.408,5.64,4.009,4.009,0,0,1-.905,4.235l-2.554,2.549A32.147,32.147,0,0,0,26.2,29.92l2.554-2.549a4.028,4.028,0,0,1,4.244-.9,25.866,25.866,0,0,0,5.651,1.405A4.017,4.017,0,0,1,42.111,31.948Z" transform="matrix(0.966, 0.259, -0.259, 0.966, 10.67, -0.641)" fill="none" stroke="#fff" stroke-linecap="round" stroke-linejoin="round" stroke-width="3"/>
</svg>
