<svg xmlns="http://www.w3.org/2000/svg" xmlns:xlink="http://www.w3.org/1999/xlink" version="1.1" x="0px" y="0px" viewBox="-250 252 98 122.5" style="enable-background:new -250 252 98 98;" xml:space="preserve"><g><path d="M-222.4,282.8l-11.2,20.5l32.6,35.8l32.6-35.9l-11.2-20.4H-222.4z M-183.6,286.8l-5.5,13.7l-8.6-13.7H-183.6z    M-193.6,300.8h-14.9l7.4-11.9L-193.6,300.8z M-204.4,286.8l-8.5,13.6l-5.4-13.6H-204.4z M-221.5,289.5l4.5,11.3h-10.7   L-221.5,289.5z M-226.6,304.8h11.2l8.6,21.6L-226.6,304.8z M-201,330.8l-10.1-25.6l0.1-0.4h19.9l0.1,0.4l0.1,0.1L-201,330.8z    M-195.1,326.5l8.6-21.6h11.1L-195.1,326.5z M-184.9,300.8l4.5-11.2l6.2,11.2H-184.9z"/><rect x="-203" y="262.8" width="4" height="13"/><rect x="-167.8" y="269.8" transform="matrix(0.6924 0.7215 -0.7215 0.6924 148.748 204.734)" width="4" height="14.1"/><rect x="-243.3" y="274.8" transform="matrix(0.7215 0.6925 -0.6925 0.7215 125.8891 240.6977)" width="14.1" height="4"/></g><text x="-250" y="365" fill="#000000" font-size="5px" font-weight="bold" font-family="'Helvetica Neue', Helvetica, Arial-Unicode, Arial, Sans-serif">Created by Ranjit</text><text x="-250" y="370" fill="#000000" font-size="5px" font-weight="bold" font-family="'Helvetica Neue', Helvetica, Arial-Unicode, Arial, Sans-serif">from the Noun Project</text></svg>