<svg xmlns="http://www.w3.org/2000/svg" width="99.316" height="94" viewBox="0 0 99.316 94">
  <g id="noun_digital_marketing_4236807" data-name="noun_digital marketing_4236807" transform="translate(-2 -4.043)">
    <g id="Group_187" data-name="Group 187" transform="translate(2 4.044)">
      <g id="Group_183" data-name="Group 183" transform="translate(19.726)">
        <g id="Group_170" data-name="Group 170" transform="translate(17.596 0.114)">
          <path id="Path_363" data-name="Path 363" d="M57.627,45.965a1.551,1.551,0,0,1-1.1-.454L26.5,15.48a1.55,1.55,0,0,1-.435-1.345L27.48,5.42a1.551,1.551,0,0,1,2.628-.848L67.443,41.906a1.551,1.551,0,0,1-.849,2.628l-8.719,1.411A1.605,1.605,0,0,1,57.627,45.965ZM29.254,13.848,58.162,42.757l4.945-.8L30.056,8.907Z" transform="translate(-26.045 -4.117)"/>
        </g>
        <g id="Group_171" data-name="Group 171" transform="translate(30.453 8.561)">
          <path id="Path_364" data-name="Path 364" d="M50.326,30.1a1.546,1.546,0,0,1-1.1-.454L34.79,15.206a1.55,1.55,0,0,1,0-2.193,11.7,11.7,0,0,1,8.317-3.449h.007a11.76,11.76,0,0,1,8.309,20.082A1.546,1.546,0,0,1,50.326,30.1ZM38.177,14.207,50.229,26.259a8.664,8.664,0,0,0-.987-11.053h0a8.611,8.611,0,0,0-6.128-2.54h0A8.611,8.611,0,0,0,38.177,14.207Z" transform="translate(-34.335 -9.564)"/>
        </g>
        <g id="Group_172" data-name="Group 172" transform="translate(1.85 25.253)">
          <path id="Path_365" data-name="Path 365" d="M32.18,52.775a5.219,5.219,0,0,1-3.7-1.529L17.421,40.186a5.238,5.238,0,0,1,0-7.4L29.428,20.782a1.55,1.55,0,0,1,2.193,0L47.885,37.046a1.55,1.55,0,0,1,0,2.193L35.879,51.245A5.213,5.213,0,0,1,32.18,52.775Zm-1.656-28.7L19.614,34.98a2.134,2.134,0,0,0,0,3.013L30.673,49.053a2.133,2.133,0,0,0,3.013,0L44.6,38.143Z" transform="translate(-15.892 -20.327)"/>
        </g>
        <g id="Group_173" data-name="Group 173" transform="translate(0 44.495)">
          <path id="Path_366" data-name="Path 366" d="M21.194,47.791A6.5,6.5,0,0,1,16.6,36.7l3.51-3.51a1.55,1.55,0,0,1,2.193,0l7,7a1.55,1.55,0,0,1,0,2.193l-3.51,3.51A6.479,6.479,0,0,1,21.194,47.791Zm.011-11.312-2.414,2.414a3.4,3.4,0,0,0,4.8,4.8l2.414-2.414Z" transform="translate(-14.698 -32.736)"/>
        </g>
        <g id="Group_174" data-name="Group 174" transform="translate(20.388 45.335)">
          <path id="Path_367" data-name="Path 367" d="M46.856,58.774a6.489,6.489,0,0,1-4.6-1.9L28.3,42.916a1.55,1.55,0,0,1,0-2.193l7.009-7.01a1.6,1.6,0,0,1,2.193,0L51.457,47.669a6.5,6.5,0,0,1-4.6,11.105ZM31.589,41.819,44.447,54.678a3.406,3.406,0,1,0,4.817-4.817L36.4,37Z" transform="translate(-27.845 -33.277)"/>
        </g>
        <g id="Group_175" data-name="Group 175" transform="translate(20.388 45.317)">
          <path id="Path_368" data-name="Path 368" d="M29.4,43.377a1.551,1.551,0,0,1-1.1-2.647l7.009-7.01A1.551,1.551,0,0,1,37.5,35.913l-7.009,7.01A1.546,1.546,0,0,1,29.4,43.377Z" transform="translate(-27.845 -33.265)"/>
        </g>
        <g id="Group_176" data-name="Group 176" transform="translate(30.102 51.526)">
          <path id="Path_369" data-name="Path 369" d="M35.66,43.877a1.551,1.551,0,0,1-1.1-2.647l3.5-3.505a1.551,1.551,0,0,1,2.193,2.193l-3.5,3.505A1.546,1.546,0,0,1,35.66,43.877Z" transform="translate(-34.109 -37.27)"/>
        </g>
        <g id="Group_180" data-name="Group 180" transform="translate(40.069)">
          <g id="Group_177" data-name="Group 177">
            <path id="Path_370" data-name="Path 370" d="M42.294,12.1a1.55,1.55,0,0,1-1.548-1.486L40.538,5.66a1.551,1.551,0,0,1,1.485-1.614,1.532,1.532,0,0,1,1.614,1.485l.208,4.954A1.55,1.55,0,0,1,42.361,12.1Z" transform="translate(-40.537 -4.044)"/>
          </g>
          <g id="Group_178" data-name="Group 178" transform="translate(8.275 4.6)">
            <path id="Path_371" data-name="Path 371" d="M47.423,13.616a1.551,1.551,0,0,1-1.1-2.647l3.5-3.5a1.551,1.551,0,1,1,2.193,2.193l-3.5,3.5A1.546,1.546,0,0,1,47.423,13.616Z" transform="translate(-45.873 -7.01)"/>
          </g>
          <g id="Group_179" data-name="Group 179" transform="translate(11.424 16.173)">
            <path id="Path_372" data-name="Path 372" d="M54.41,17.781l-.066,0-4.955-.208A1.55,1.55,0,0,1,47.9,15.957a1.571,1.571,0,0,1,1.614-1.484l4.954.208a1.551,1.551,0,0,1-.063,3.1Z" transform="translate(-47.903 -14.472)"/>
          </g>
        </g>
        <g id="Group_181" data-name="Group 181" transform="translate(35.142 56.567)">
          <path id="Path_373" data-name="Path 373" d="M38.91,47.126a1.551,1.551,0,0,1-1.1-2.647l3.505-3.5a1.551,1.551,0,0,1,2.193,2.193l-3.505,3.5A1.546,1.546,0,0,1,38.91,47.126Z" transform="translate(-37.359 -40.52)"/>
        </g>
        <g id="Group_182" data-name="Group 182" transform="translate(14.929 0.114)">
          <path id="Path_374" data-name="Path 374" d="M42.146,48.624a1.551,1.551,0,0,1-1.1-.454L24.78,31.9a1.55,1.55,0,0,1-.435-1.345L28.429,5.42a1.55,1.55,0,0,1,2.627-.848L68.39,41.907a1.551,1.551,0,0,1-.849,2.628L42.394,48.6A1.622,1.622,0,0,1,42.146,48.624ZM27.534,30.268,42.682,45.416l21.372-3.46L31,8.906Z" transform="translate(-24.325 -4.117)"/>
        </g>
      </g>
      <g id="Group_184" data-name="Group 184" transform="translate(0 80.411)">
        <path id="Path_375" data-name="Path 375" d="M92.247,68.783H11.069A9.076,9.076,0,0,1,2,59.72V56.745a1.551,1.551,0,0,1,1.552-1.551H40.524a1.553,1.553,0,0,1,1.219.591l3.667,4.652H57.9l3.669-4.653a1.556,1.556,0,0,1,1.219-.591H99.765a1.551,1.551,0,0,1,1.552,1.551V59.72A9.077,9.077,0,0,1,92.247,68.783ZM5.1,58.3V59.72a5.97,5.97,0,0,0,5.966,5.962H92.247a5.971,5.971,0,0,0,5.966-5.961V58.3H63.544l-3.669,4.653a1.556,1.556,0,0,1-1.219.591h-14a1.553,1.553,0,0,1-1.219-.591L39.771,58.3H5.1Z" transform="translate(-2 -55.194)"/>
      </g>
      <g id="Group_185" data-name="Group 185" transform="translate(80.189 22.555)">
        <path id="Path_376" data-name="Path 376" d="M65.963,78.847A1.551,1.551,0,0,1,64.413,77.3V22.429a1.434,1.434,0,0,0-1.458-1.442H55.216a1.551,1.551,0,1,1,0-3.1h7.739a4.557,4.557,0,0,1,4.559,4.543V77.3A1.551,1.551,0,0,1,65.963,78.847Z" transform="translate(-53.666 -17.886)"/>
      </g>
      <g id="Group_186" data-name="Group 186" transform="translate(5.282 22.555)">
        <path id="Path_377" data-name="Path 377" d="M6.957,78.847A1.551,1.551,0,0,1,5.406,77.3V22.429a4.557,4.557,0,0,1,4.559-4.543h7.723a1.551,1.551,0,1,1,0,3.1H9.965a1.434,1.434,0,0,0-1.458,1.442V77.3A1.551,1.551,0,0,1,6.957,78.847Z" transform="translate(-5.406 -17.886)"/>
      </g>
    </g>
  </g>
</svg>
