<svg xmlns="http://www.w3.org/2000/svg" xmlns:xlink="http://www.w3.org/1999/xlink" version="1.1" x="0px" y="0px" viewBox="0 0 100 125" style="enable-background:new 0 0 100 100;" xml:space="preserve"><path d="M93.265,27.385c-0.036-1.021-0.454-1.982-1.177-2.705c-0.772-0.772-1.844-1.203-2.964-1.177  c-3.925,0.129-7.021,3.43-6.901,7.36l0.213,6.563l-1.109,4.486c-1.342-0.008-2.687,0.496-3.71,1.519l-7.298,7.303l-2.527,0.437  c-1.634,0.277-3.18,1.076-4.352,2.249l-5.027,5.027c-1.481,1.48-2.323,3.446-2.371,5.536l-0.186,8.331  c-2.344,0.777-4.053,2.973-4.081,5.576l-0.117,10.909c-0.017,1.583,0.586,3.08,1.7,4.217c1.113,1.137,2.597,1.772,4.18,1.79  L75.637,95c0.022,0,0.043,0,0.065,0c1.558,0,3.031-0.603,4.152-1.7c1.137-1.113,1.772-2.597,1.79-4.18l0.117-10.908  c0.017-1.583-0.586-3.081-1.699-4.217c-0.629-0.643-1.38-1.119-2.197-1.42l0.037-0.253c0.277-1.854,1.122-3.533,2.444-4.855  l8.491-8.491c2.169-2.169,3.539-5.034,3.856-8.067l0.901-8.547c0.061-0.31,0.096-0.632,0.102-0.965l0.003-0.024  c0.001-0.013-0.001-0.026,0-0.039c0-0.056,0.008-0.109,0.007-0.166L93.265,27.385z M78.761,78.18l-0.117,10.908  c-0.008,0.781-0.324,1.516-0.888,2.068S76.43,92,75.669,92l-18.099-0.193c-0.781-0.008-1.516-0.324-2.068-0.888  c-0.552-0.564-0.852-1.305-0.843-2.086l0.117-10.909c0.017-1.612,1.334-2.912,2.943-2.912c0.011,0,0.021,0,0.032,0l18.099,0.194  c0.781,0.008,1.516,0.324,2.068,0.888C78.47,76.657,78.769,77.398,78.761,78.18z M86.715,56.854l-8.491,8.491  c-1.78,1.78-2.918,4.04-3.291,6.54l-0.045,0.31l-16.024-0.172l0.178-7.971c0.03-1.313,0.561-2.55,1.493-3.483l5.027-5.027  c0.736-0.736,1.707-1.238,2.737-1.413l3-0.519c0.106-0.018,0.207-0.048,0.303-0.087c0.007-0.003,0.013-0.007,0.019-0.01  c0.18-0.075,0.341-0.183,0.476-0.316c0.002-0.002,0.005-0.003,0.008-0.005l7.634-7.639c0.859-0.859,2.256-0.859,3.115,0  s0.859,2.257,0,3.116l-8.771,8.771c-0.586,0.585-0.586,1.535,0,2.121C74.377,59.854,74.761,60,75.145,60s0.768-0.146,1.061-0.439  l8.771-8.771c2.028-2.028,2.028-5.329,0-7.358c-0.242-0.242-0.504-0.45-0.777-0.634l1.199-4.852  c0.004-0.017,0.004-0.033,0.007-0.049c0.011-0.051,0.017-0.102,0.022-0.154c0.005-0.052,0.01-0.103,0.01-0.155  c0-0.017,0.004-0.033,0.003-0.05l-0.22-6.768c-0.069-2.278,1.726-4.193,3.985-4.268c0.305-0.006,0.561,0.1,0.76,0.299  c0.13,0.13,0.288,0.356,0.3,0.684l0.437,13.673l-0.101,0.962c-0.004,0.036-0.01,0.072-0.011,0.107l-0.882,8.367  C89.463,52.946,88.399,55.169,86.715,56.854z"/><circle cx="75.171" cy="79.554" r="2.567"/><path d="M44.143,72.314l-0.186-8.331c-0.048-2.088-0.89-4.054-2.371-5.535l-5.027-5.027c-1.172-1.172-2.718-1.971-4.348-2.248  l-2.531-0.438l-7.299-7.304c-1.022-1.021-2.367-1.525-3.709-1.518l-1.109-4.487l0.214-6.566c0.119-3.927-2.977-7.228-6.917-7.358  c-1.092-0.023-2.175,0.404-2.948,1.177c-0.723,0.723-1.141,1.684-1.177,2.709l-0.44,13.793c-0.001,0.059,0.007,0.116,0.008,0.174  c0,0.005,0,0.01,0,0.015l0.001,0.01c0.004,0.335,0.041,0.663,0.104,0.982l0.901,8.543c0.317,3.034,1.687,5.899,3.856,8.068  l8.491,8.491c1.322,1.323,2.167,3.001,2.443,4.85l0.038,0.259c-0.817,0.301-1.568,0.777-2.197,1.42  c-1.113,1.137-1.716,2.635-1.699,4.217l0.117,10.908c0.017,1.583,0.653,3.067,1.79,4.18c1.122,1.098,2.593,1.7,4.152,1.7  c0.021,0,0.043,0,0.065,0l18.099-0.193c1.583-0.017,3.067-0.653,4.18-1.79c1.113-1.137,1.717-2.635,1.7-4.217l-0.117-10.909  C48.196,75.287,46.487,73.091,44.143,72.314z M21.776,65.345l-8.491-8.491c-1.684-1.685-2.748-3.907-2.994-6.26l-0.882-8.366  c-0.001-0.036-0.008-0.071-0.011-0.107l-0.101-0.962L9.733,27.49c0.012-0.333,0.169-0.559,0.3-0.689  c0.2-0.199,0.452-0.301,0.744-0.3c2.275,0.075,4.07,1.99,4.001,4.265l-0.22,6.771c-0.001,0.017,0.003,0.033,0.003,0.05  c0,0.051,0.005,0.103,0.01,0.155c0.005,0.052,0.011,0.104,0.022,0.154c0.004,0.017,0.003,0.033,0.007,0.05l1.199,4.852  c-0.274,0.184-0.536,0.393-0.778,0.635c-2.028,2.029-2.028,5.33,0,7.358l8.771,8.771C24.087,59.854,24.471,60,24.855,60  s0.768-0.146,1.061-0.439c0.586-0.586,0.586-1.536,0-2.121l-8.771-8.771c-0.859-0.859-0.858-2.257,0-3.116  c0.859-0.858,2.256-0.858,3.115,0l7.635,7.64c0.002,0.002,0.005,0.003,0.008,0.005c0.134,0.133,0.295,0.241,0.475,0.316  c0.007,0.003,0.013,0.007,0.019,0.01c0.096,0.039,0.197,0.068,0.303,0.087l3.005,0.52c1.026,0.174,1.997,0.675,2.733,1.412  l5.027,5.027c0.933,0.933,1.463,2.169,1.493,3.482l0.178,7.972l-16.024,0.172l-0.046-0.316  C24.694,69.384,23.556,67.125,21.776,65.345z M44.498,90.918c-0.552,0.564-1.287,0.88-2.068,0.888L24.331,92  c-0.782,0-1.522-0.292-2.086-0.843c-0.564-0.552-0.88-1.287-0.888-2.068L21.239,78.18c-0.008-0.781,0.291-1.522,0.843-2.087  c0.552-0.564,1.287-0.879,2.068-0.888l18.099-0.194c0.01,0,0.021,0,0.031,0c1.609,0,2.926,1.3,2.943,2.912l0.117,10.909  C45.349,89.613,45.05,90.354,44.498,90.918z"/><circle cx="24.829" cy="79.554" r="2.567"/><path d="M29.822,33.476h2.819c0.358,1.223,0.843,2.395,1.45,3.505l-1.996,1.996c-1.231,1.231-1.231,3.235,0,4.466l2.801,2.801  c0.616,0.616,1.424,0.924,2.233,0.924c0.809,0,1.618-0.308,2.233-0.924l1.996-1.996c1.11,0.607,2.282,1.091,3.505,1.45v2.819  c0,1.743,1.418,3.162,3.162,3.162h3.95c1.743,0,3.162-1.418,3.162-3.162v-2.819c1.223-0.359,2.394-0.843,3.505-1.45l1.996,1.996  c0.616,0.616,1.424,0.924,2.233,0.924c0.809,0,1.617-0.308,2.233-0.924l2.801-2.801c1.231-1.231,1.231-3.235,0-4.466l-1.996-1.996  c0.607-1.11,1.091-2.282,1.45-3.505h2.819c1.743,0,3.162-1.418,3.162-3.162v-3.95c0-1.743-1.418-3.162-3.162-3.162h-2.819  c-0.359-1.223-0.843-2.395-1.45-3.505l1.997-1.997c1.231-1.231,1.23-3.235,0-4.466l-2.801-2.801c-1.191-1.192-3.276-1.192-4.467,0  l-1.996,1.996c-1.111-0.607-2.282-1.092-3.505-1.45V8.162C55.137,6.418,53.718,5,51.975,5h-3.95c-1.743,0-3.162,1.418-3.162,3.162  v2.818c-1.223,0.358-2.394,0.843-3.505,1.45l-1.996-1.996c-1.192-1.193-3.277-1.192-4.467,0l-2.801,2.801  c-1.231,1.231-1.231,3.234,0,4.466l1.996,1.996c-0.607,1.11-1.091,2.282-1.45,3.505h-2.819c-1.743,0-3.162,1.418-3.162,3.162v3.95  C26.661,32.058,28.079,33.476,29.822,33.476z M29.661,26.364c0-0.092,0.069-0.162,0.162-0.162h3.966c0.001,0,0.003,0,0.004,0  c0.003,0,0.006-0.002,0.009-0.002c0.155-0.001,0.302-0.031,0.442-0.076c0.024-0.008,0.049-0.013,0.073-0.023  c0.137-0.051,0.263-0.122,0.377-0.209c0.021-0.016,0.04-0.033,0.06-0.05c0.113-0.095,0.214-0.203,0.295-0.328  c0.009-0.013,0.015-0.028,0.023-0.042c0.08-0.133,0.142-0.278,0.178-0.434c0.001-0.005,0.005-0.009,0.006-0.014  c0.378-1.709,1.042-3.313,1.973-4.766c0.047-0.073,0.082-0.149,0.115-0.226c0.004-0.01,0.01-0.018,0.014-0.028  c0.069-0.173,0.101-0.353,0.104-0.533c0-0.011,0.002-0.022,0.002-0.033c-0.001-0.182-0.038-0.36-0.103-0.529  c-0.004-0.011-0.006-0.023-0.011-0.034c-0.073-0.176-0.179-0.338-0.317-0.477c-0.003-0.003-0.003-0.007-0.006-0.009l-0.011-0.011  c-0.002-0.002-0.003-0.003-0.005-0.005l-2.794-2.794c-0.06-0.06-0.06-0.165,0-0.225l2.802-2.802c0.053-0.052,0.17-0.052,0.224,0  l2.811,2.811c0.006,0.006,0.013,0.007,0.019,0.013c0.128,0.124,0.275,0.217,0.433,0.288c0.036,0.016,0.071,0.029,0.108,0.042  c0.161,0.057,0.327,0.096,0.498,0.097c0.001,0,0.002,0,0.003,0c0,0,0.001,0,0.001,0c0.169,0,0.337-0.039,0.501-0.098  c0.048-0.017,0.092-0.04,0.138-0.063c0.056-0.027,0.115-0.042,0.169-0.076c1.454-0.932,3.058-1.596,4.766-1.973  c0.036-0.008,0.068-0.024,0.103-0.034c0.058-0.017,0.116-0.032,0.171-0.056c0.044-0.019,0.083-0.045,0.124-0.068  c0.044-0.024,0.089-0.046,0.129-0.074c0.042-0.029,0.078-0.063,0.116-0.096c0.035-0.03,0.073-0.058,0.105-0.091  c0.033-0.034,0.061-0.073,0.091-0.11c0.031-0.038,0.063-0.074,0.09-0.115c0.025-0.039,0.044-0.08,0.066-0.121  c0.024-0.044,0.049-0.087,0.069-0.134c0.019-0.048,0.031-0.098,0.046-0.147c0.013-0.043,0.029-0.085,0.037-0.13  c0.013-0.064,0.016-0.131,0.02-0.197c0.002-0.031,0.009-0.06,0.009-0.091v-0.018c0-0.002,0-0.004,0-0.006V8.162  C47.863,8.069,47.933,8,48.025,8h3.95c0.092,0,0.162,0.069,0.162,0.162v3.945c0,0.002,0,0.004,0,0.006v0.018  c0,0.031,0.007,0.06,0.009,0.091c0.004,0.066,0.007,0.133,0.02,0.197c0.009,0.045,0.025,0.087,0.037,0.13  c0.015,0.049,0.026,0.1,0.046,0.147c0.019,0.047,0.045,0.09,0.069,0.134c0.022,0.041,0.041,0.083,0.066,0.121  c0.027,0.041,0.059,0.077,0.09,0.115c0.03,0.037,0.058,0.076,0.091,0.11c0.032,0.033,0.07,0.061,0.105,0.091  c0.038,0.033,0.074,0.067,0.116,0.096c0.041,0.028,0.086,0.05,0.129,0.074c0.041,0.023,0.081,0.048,0.124,0.068  c0.055,0.024,0.113,0.039,0.171,0.056c0.035,0.01,0.067,0.026,0.103,0.034c1.708,0.377,3.312,1.041,4.766,1.973  c0.054,0.034,0.113,0.05,0.169,0.076c0.047,0.022,0.09,0.045,0.138,0.063c0.164,0.059,0.332,0.098,0.501,0.098c0,0,0.001,0,0.001,0  c0.001,0,0.002,0,0.003,0c0.171,0,0.337-0.04,0.498-0.097c0.037-0.013,0.072-0.026,0.108-0.042c0.158-0.07,0.305-0.164,0.433-0.288  c0.006-0.006,0.013-0.007,0.019-0.013l2.811-2.811c0.053-0.052,0.17-0.052,0.224,0l2.801,2.801c0.06,0.06,0.059,0.165,0,0.224  l-2.795,2.795c-0.002,0.002-0.003,0.003-0.005,0.005l-0.011,0.011c-0.003,0.003-0.004,0.007-0.006,0.009  c-0.138,0.14-0.245,0.302-0.317,0.477c-0.005,0.011-0.007,0.023-0.011,0.034c-0.065,0.169-0.102,0.348-0.103,0.529  c0,0.011,0.002,0.022,0.002,0.033c0.003,0.18,0.035,0.36,0.104,0.533c0.004,0.01,0.01,0.018,0.014,0.028  c0.033,0.077,0.068,0.154,0.115,0.226c0.931,1.453,1.595,3.057,1.973,4.766c0.001,0.005,0.005,0.009,0.006,0.014  c0.036,0.156,0.098,0.3,0.178,0.433c0.008,0.014,0.015,0.029,0.023,0.043c0.081,0.124,0.181,0.232,0.294,0.327  c0.021,0.017,0.04,0.035,0.062,0.051c0.114,0.086,0.24,0.157,0.376,0.208c0.024,0.009,0.049,0.015,0.073,0.023  c0.14,0.045,0.287,0.075,0.441,0.076c0.003,0,0.006,0.002,0.009,0.002c0.001,0,0.003,0,0.004,0h3.966  c0.092,0,0.162,0.069,0.162,0.162v3.95c0,0.092-0.069,0.162-0.162,0.162h-3.944c-0.002,0-0.003,0-0.005,0h-0.02  c-0.033,0-0.064,0.008-0.097,0.01c-0.064,0.004-0.128,0.007-0.19,0.019c-0.05,0.01-0.098,0.027-0.146,0.042  c-0.043,0.013-0.088,0.023-0.129,0.04c-0.056,0.023-0.108,0.053-0.16,0.082c-0.031,0.017-0.064,0.032-0.094,0.051  c-0.051,0.033-0.097,0.073-0.144,0.112c-0.027,0.023-0.057,0.043-0.082,0.068c-0.042,0.041-0.079,0.088-0.116,0.134  c-0.024,0.029-0.05,0.056-0.072,0.087c-0.035,0.05-0.063,0.105-0.091,0.16c-0.017,0.032-0.037,0.062-0.052,0.095  c-0.028,0.065-0.048,0.133-0.067,0.202c-0.007,0.026-0.019,0.049-0.025,0.075c-0.378,1.709-1.042,3.313-1.973,4.766  c-0.047,0.073-0.082,0.149-0.115,0.226c-0.004,0.01-0.01,0.018-0.014,0.028c-0.069,0.173-0.101,0.353-0.104,0.533  c0,0.011-0.002,0.022-0.002,0.033c0.001,0.182,0.038,0.36,0.103,0.529c0.004,0.011,0.006,0.023,0.011,0.034  c0.073,0.176,0.179,0.338,0.317,0.477c0.003,0.003,0.003,0.007,0.006,0.009l0.011,0.011c0.002,0.002,0.003,0.003,0.005,0.005  l2.795,2.795c0.06,0.06,0.06,0.165,0,0.224l-2.801,2.801c-0.06,0.06-0.165,0.059-0.224,0l-2.793-2.793  c-0.003-0.003-0.005-0.005-0.008-0.008l-0.009-0.009c-0.002-0.002-0.006-0.003-0.008-0.005c-0.14-0.138-0.303-0.245-0.479-0.318  c-0.011-0.005-0.023-0.007-0.034-0.011c-0.168-0.065-0.346-0.101-0.527-0.103c-0.013,0-0.025,0.003-0.038,0.003  c-0.178,0.003-0.356,0.035-0.528,0.103c-0.011,0.004-0.02,0.011-0.031,0.016c-0.076,0.032-0.152,0.067-0.224,0.113  c-1.454,0.931-3.058,1.595-4.766,1.973c-0.027,0.006-0.051,0.018-0.078,0.026c-0.068,0.019-0.135,0.038-0.199,0.065  c-0.038,0.017-0.072,0.039-0.108,0.059c-0.049,0.027-0.1,0.051-0.145,0.083c-0.038,0.027-0.072,0.058-0.107,0.088  c-0.038,0.032-0.078,0.062-0.113,0.098c-0.032,0.033-0.058,0.07-0.087,0.106c-0.032,0.04-0.066,0.077-0.094,0.12  c-0.024,0.037-0.042,0.077-0.063,0.116c-0.025,0.046-0.051,0.091-0.071,0.139c-0.018,0.045-0.029,0.093-0.043,0.14  c-0.014,0.046-0.03,0.09-0.04,0.138c-0.012,0.059-0.014,0.12-0.018,0.181c-0.003,0.036-0.011,0.07-0.011,0.106v3.969  c0,0.092-0.069,0.162-0.162,0.162h-3.95c-0.092,0-0.162-0.069-0.162-0.162v-3.969c0-0.036-0.008-0.07-0.011-0.106  c-0.004-0.061-0.007-0.122-0.018-0.181c-0.009-0.048-0.026-0.092-0.04-0.138c-0.014-0.047-0.025-0.095-0.043-0.14  c-0.02-0.049-0.046-0.093-0.071-0.139c-0.021-0.039-0.039-0.079-0.063-0.116c-0.028-0.043-0.062-0.08-0.094-0.12  c-0.029-0.036-0.055-0.073-0.087-0.106c-0.035-0.036-0.075-0.066-0.113-0.098c-0.035-0.03-0.069-0.062-0.107-0.088  c-0.046-0.032-0.096-0.056-0.145-0.083c-0.036-0.019-0.07-0.042-0.108-0.059c-0.063-0.028-0.131-0.046-0.199-0.065  c-0.026-0.007-0.05-0.02-0.078-0.026c-1.708-0.378-3.312-1.042-4.766-1.973c-0.074-0.047-0.151-0.083-0.229-0.116  c-0.008-0.003-0.016-0.009-0.024-0.012c-0.175-0.071-0.358-0.104-0.541-0.105c-0.008,0-0.015-0.002-0.023-0.002  c-0.185,0.001-0.367,0.038-0.539,0.105c-0.008,0.003-0.017,0.005-0.025,0.008c-0.178,0.073-0.342,0.181-0.482,0.32  c-0.002,0.002-0.005,0.003-0.007,0.005l-0.008,0.008c-0.003,0.003-0.007,0.007-0.01,0.01l-2.793,2.793  c-0.06,0.06-0.165,0.06-0.224,0l-2.801-2.801c-0.06-0.06-0.06-0.165,0-0.224l2.795-2.795c0.002-0.002,0.003-0.003,0.005-0.005  l0.011-0.011c0.003-0.003,0.004-0.007,0.006-0.009c0.138-0.14,0.245-0.302,0.317-0.477c0.005-0.011,0.007-0.023,0.011-0.034  c0.065-0.169,0.102-0.348,0.103-0.529c0-0.011-0.002-0.022-0.002-0.033c-0.003-0.18-0.035-0.36-0.104-0.533  c-0.004-0.01-0.01-0.018-0.014-0.028c-0.033-0.077-0.068-0.154-0.115-0.226c-0.931-1.453-1.595-3.057-1.973-4.766  c-0.006-0.028-0.019-0.053-0.026-0.08c-0.019-0.067-0.037-0.133-0.064-0.196c-0.018-0.041-0.042-0.078-0.063-0.117  c-0.025-0.046-0.048-0.093-0.077-0.136c-0.029-0.042-0.064-0.079-0.097-0.118c-0.029-0.034-0.056-0.071-0.089-0.102  c-0.036-0.036-0.077-0.065-0.117-0.097c-0.036-0.029-0.069-0.059-0.108-0.084c-0.043-0.028-0.089-0.049-0.134-0.073  c-0.04-0.021-0.079-0.044-0.121-0.062c-0.053-0.022-0.108-0.035-0.164-0.051c-0.038-0.011-0.075-0.025-0.114-0.033  c-0.066-0.013-0.134-0.016-0.202-0.02c-0.03-0.002-0.058-0.009-0.088-0.009h-0.019c-0.002,0-0.003,0-0.005,0h-3.945  c-0.092,0-0.162-0.069-0.162-0.162V26.364z"/><path d="M50,39.378c6.087,0,11.039-4.952,11.039-11.039S56.087,17.3,50,17.3s-11.039,4.952-11.039,11.039S43.913,39.378,50,39.378z   M50,20.3c4.433,0,8.039,3.606,8.039,8.039S54.433,36.378,50,36.378s-8.039-3.606-8.039-8.039S45.567,20.3,50,20.3z"/><text x="0" y="115" fill="#000000" font-size="5px" font-weight="bold" font-family="'Helvetica Neue', Helvetica, Arial-Unicode, Arial, Sans-serif">Created by Maxim Kulikov</text><text x="0" y="120" fill="#000000" font-size="5px" font-weight="bold" font-family="'Helvetica Neue', Helvetica, Arial-Unicode, Arial, Sans-serif">from the Noun Project</text></svg>