<svg xmlns="http://www.w3.org/2000/svg" viewBox="0 0 512 640" x="0px" y="0px"><g><path d="M438,119.5H343.5V102.0273A38.5728,38.5728,0,0,0,304.9727,63.5H207.0308A38.5735,38.5735,0,0,0,168.5,102.0273V119.5H74A45.5527,45.5527,0,0,0,28.5,165V403A45.5527,45.5527,0,0,0,74,448.5H438A45.5527,45.5527,0,0,0,483.5,403V165A45.5527,45.5527,0,0,0,438,119.5ZM189.5,102.0273A17.5483,17.5483,0,0,1,207.0308,84.5h97.9419A17.5453,17.5453,0,0,1,322.5,102.0273V119.5h-133ZM462.5,403A24.53,24.53,0,0,1,438,427.5H74A24.53,24.53,0,0,1,49.5,403V322.2791A45.1826,45.1826,0,0,0,74,329.5H182.5V347A10.4983,10.4983,0,0,0,193,357.5H319A10.4983,10.4983,0,0,0,329.5,347V329.5H438a45.1826,45.1826,0,0,0,24.5-7.2209Zm-259-66.5v-35h105v35Zm259-52.5A24.53,24.53,0,0,1,438,308.5H329.5V291A10.4983,10.4983,0,0,0,319,280.5H193A10.4983,10.4983,0,0,0,182.5,291v17.5H74A24.53,24.53,0,0,1,49.5,284V165A24.53,24.53,0,0,1,74,140.5H438A24.53,24.53,0,0,1,462.5,165Z"/></g><text x="0" y="527" fill="#000000" font-size="5px" font-weight="bold" font-family="'Helvetica Neue', Helvetica, Arial-Unicode, Arial, Sans-serif">Created by Chanut is Industries</text><text x="0" y="532" fill="#000000" font-size="5px" font-weight="bold" font-family="'Helvetica Neue', Helvetica, Arial-Unicode, Arial, Sans-serif">from the Noun Project</text></svg>