<svg id="website_coding_and_gear" data-name="website coding and gear" xmlns="http://www.w3.org/2000/svg" width="94" height="94" viewBox="0 0 94 94">
  <circle id="Ellipse_3" data-name="Ellipse 3" cx="2.015" cy="2.015" r="2.015" transform="translate(7.179 5.836)"/>
  <circle id="Ellipse_4" data-name="Ellipse 4" cx="2.015" cy="2.015" r="2.015" transform="translate(15.078 5.836)"/>
  <circle id="Ellipse_5" data-name="Ellipse 5" cx="2.015" cy="2.015" r="2.015" transform="translate(24.382 5.836)"/>
  <path id="Path_361" data-name="Path 361" d="M92.042,68.542H88.947a1.2,1.2,0,0,1-.1-.235l2.193-2.193a1.958,1.958,0,0,0,.568-1.39,2.056,2.056,0,0,0-.568-1.39l-4.876-4.857V7.833A7.833,7.833,0,0,0,78.333,0H7.833A7.833,7.833,0,0,0,0,7.833V76.375a1.958,1.958,0,0,0,1.958,1.958H54.833a1.958,1.958,0,0,0,1.958,1.958h3.094a1.193,1.193,0,0,1,.1.235L57.79,82.72a1.958,1.958,0,0,0-.568,1.39,2.056,2.056,0,0,0,.568,1.39l5.542,5.542a1.958,1.958,0,0,0,2.781,0l2.193-2.193.235.1v3.094A1.958,1.958,0,0,0,70.5,94h7.833a1.958,1.958,0,0,0,1.958-1.958V88.947l.235-.1,2.193,2.193a1.958,1.958,0,0,0,1.39.568,2.056,2.056,0,0,0,1.39-.568L91.043,85.5a2.056,2.056,0,0,0,.568-1.39,1.958,1.958,0,0,0-.568-1.39L88.85,80.527a1.2,1.2,0,0,1,.1-.235h3.094A1.958,1.958,0,0,0,94,78.333V70.5A1.958,1.958,0,0,0,92.042,68.542ZM3.917,7.833A3.917,3.917,0,0,1,7.833,3.917h70.5A3.917,3.917,0,0,1,82.25,7.833V11.75H3.917Zm0,66.583V15.667H82.25V58.28l-1.723,1.7-.235-.1V56.792a1.958,1.958,0,0,0-1.958-1.958H70.5a1.958,1.958,0,0,0-1.958,1.958v3.094l-.235.1L66.113,57.79a1.958,1.958,0,0,0-1.39-.568,2.056,2.056,0,0,0-1.39.568L57.79,63.332a2.056,2.056,0,0,0-.568,1.39,1.958,1.958,0,0,0,.568,1.39l2.193,2.193a1.194,1.194,0,0,1-.1.235H56.792A1.958,1.958,0,0,0,54.833,70.5v3.917Zm86.167,1.958H87.557a1.958,1.958,0,0,0-1.958,1.39A11.358,11.358,0,0,1,84.678,80a1.958,1.958,0,0,0,.411,2.252l1.782,1.782-2.663,2.84L82.25,85.09a1.958,1.958,0,0,0-2.33-.333,11.358,11.358,0,0,1-2.233.92,1.958,1.958,0,0,0-1.39,1.958v2.448H72.458V87.557a1.958,1.958,0,0,0-1.39-1.958,11.357,11.357,0,0,1-2.232-.92,1.958,1.958,0,0,0-2.33.333l-1.782,1.782-2.761-2.585,1.782-1.782a1.958,1.958,0,0,0,.333-2.33,11.358,11.358,0,0,1-.92-2.232,1.958,1.958,0,0,0-1.958-1.39H58.75V72.458h2.526a1.958,1.958,0,0,0,1.958-1.39,11.359,11.359,0,0,1,.92-2.233,1.958,1.958,0,0,0-.411-2.252L61.962,64.8l2.761-2.761L66.5,63.822a1.958,1.958,0,0,0,2.33.333,11.359,11.359,0,0,1,2.233-.92,1.958,1.958,0,0,0,1.39-1.958V58.75h3.917v2.526a1.958,1.958,0,0,0,1.39,1.958,11.359,11.359,0,0,1,2.232.92,1.958,1.958,0,0,0,2.252-.411l1.782-1.782,2.761,2.761L85.011,66.5a1.958,1.958,0,0,0-.333,2.33,11.358,11.358,0,0,1,.92,2.233,1.958,1.958,0,0,0,1.958,1.39h2.526Z"/>
  <path id="Path_362" data-name="Path 362" d="M63.445,50.656a7.914,7.914,0,1,0,7.914,7.914A7.914,7.914,0,0,0,63.445,50.656Zm0,11.871A3.957,3.957,0,1,1,67.4,58.57,3.957,3.957,0,0,1,63.445,62.527ZM23.3,19.575a1.978,1.978,0,0,0-2.809,0l-7.914,7.914a1.978,1.978,0,0,0,0,2.809l7.914,7.914A1.987,1.987,0,1,0,23.3,35.4l-6.529-6.509L23.3,22.385a1.978,1.978,0,0,0,0-2.809ZM51,27.489l-7.914-7.914a1.987,1.987,0,1,0-2.809,2.809l6.529,6.509L40.277,35.4a1.987,1.987,0,1,0,2.809,2.809L51,30.3a1.978,1.978,0,0,0,0-2.809ZM34.164,17.023a1.978,1.978,0,0,0-2.374,1.583L27.833,38.39a1.978,1.978,0,0,0,1.583,2.374h.4a1.978,1.978,0,0,0,1.978-1.583L35.747,19.4a1.978,1.978,0,0,0-1.583-2.374Z" transform="translate(10.771 15.646)"/>
</svg>
